<svg width="1650" height="1222" viewBox="0 0 1650 1222" fill="none" xmlns="http://www.w3.org/2000/svg">
<g filter="url(#filter0_i_1_734)">
<path d="M513.234 302.86C510.154 303.14 507.448 303.28 505.114 303.28C502.874 303.28 500.868 303.093 499.094 302.72C497.788 295.813 497.134 290.307 497.134 286.2C497.134 282 497.181 277.753 497.274 273.46L472.494 272.9C472.121 271.127 471.934 269.213 471.934 267.16C471.934 265.107 472.074 263.007 472.354 260.86C479.634 259.553 485.888 258.9 491.114 258.9H497.554L498.114 231.32C499.888 230.947 501.894 230.76 504.134 230.76C506.468 230.76 509.174 230.9 512.254 231.18C513.468 237.993 514.074 243.967 514.074 249.1V259.32L539.554 259.88C539.928 261.653 540.114 263.613 540.114 265.76C540.114 267.813 539.974 269.82 539.694 271.78C532.414 273.18 527.094 273.88 523.734 273.88C520.374 273.88 517.014 273.833 513.654 273.74L513.234 302.86Z" fill="url(#paint0_linear_1_734)"/>
</g>
<path d="M513.234 302.86L513.687 307.839L518.169 307.432L518.234 302.932L513.234 302.86ZM499.094 302.72L494.181 303.649L494.801 306.926L498.064 307.613L499.094 302.72ZM497.274 273.46L502.273 273.569L502.382 268.574L497.387 268.461L497.274 273.46ZM472.494 272.9L467.602 273.93L468.418 277.809L472.381 277.899L472.494 272.9ZM472.354 260.86L471.471 255.939L467.87 256.585L467.396 260.213L472.354 260.86ZM497.554 258.9V263.9H502.454L502.553 259.001L497.554 258.9ZM498.114 231.32L497.084 226.427L493.196 227.246L493.115 231.218L498.114 231.32ZM512.254 231.18L517.177 230.303L516.508 226.546L512.707 226.201L512.254 231.18ZM514.074 259.32H509.074V264.211L513.964 264.319L514.074 259.32ZM539.554 259.88L544.447 258.85L543.63 254.968L539.664 254.881L539.554 259.88ZM539.694 271.78L540.639 276.69L544.14 276.017L544.644 272.487L539.694 271.78ZM513.654 273.74L513.793 268.742L508.728 268.601L508.655 273.668L513.654 273.74ZM512.782 297.881C509.807 298.151 507.257 298.28 505.114 298.28V308.28C507.638 308.28 510.502 308.129 513.687 307.839L512.782 297.881ZM505.114 298.28C503.143 298.28 501.491 298.115 500.124 297.827L498.064 307.613C500.245 308.072 502.606 308.28 505.114 308.28V298.28ZM504.007 301.791C502.724 295.007 502.134 289.852 502.134 286.2H492.134C492.134 290.762 492.851 296.619 494.181 303.649L504.007 301.791ZM502.134 286.2C502.134 282.037 502.181 277.827 502.273 273.569L492.275 273.351C492.181 277.68 492.134 281.963 492.134 286.2H502.134ZM497.387 268.461L472.607 267.901L472.381 277.899L497.161 278.459L497.387 268.461ZM477.387 271.87C477.094 270.477 476.934 268.912 476.934 267.16H466.934C466.934 269.515 467.148 271.777 467.602 273.93L477.387 271.87ZM476.934 267.16C476.934 265.334 477.059 263.45 477.312 261.507L467.396 260.213C467.09 262.563 466.934 264.879 466.934 267.16H476.934ZM473.238 265.781C480.336 264.507 486.277 263.9 491.114 263.9V253.9C485.498 253.9 478.933 254.599 471.471 255.939L473.238 265.781ZM491.114 263.9H497.554V253.9H491.114V263.9ZM502.553 259.001L503.113 231.421L493.115 231.218L492.555 258.798L502.553 259.001ZM499.144 236.213C500.511 235.925 502.163 235.76 504.134 235.76V225.76C501.626 225.76 499.265 225.968 497.084 226.427L499.144 236.213ZM504.134 235.76C506.277 235.76 508.827 235.889 511.802 236.159L512.707 226.201C509.522 225.911 506.658 225.76 504.134 225.76V235.76ZM507.332 232.057C508.51 238.673 509.074 244.342 509.074 249.1H519.074C519.074 243.592 518.425 237.313 517.177 230.303L507.332 232.057ZM509.074 249.1V259.32H519.074V249.1H509.074ZM513.964 264.319L539.444 264.879L539.664 254.881L514.184 254.321L513.964 264.319ZM534.662 260.91C534.952 262.289 535.114 263.898 535.114 265.76H545.114C545.114 263.329 544.903 261.017 544.447 258.85L534.662 260.91ZM535.114 265.76C535.114 267.585 534.99 269.356 534.745 271.073L544.644 272.487C544.959 270.284 545.114 268.041 545.114 265.76H535.114ZM538.75 266.87C531.501 268.264 526.583 268.88 523.734 268.88V278.88C527.606 278.88 533.327 278.096 540.639 276.69L538.75 266.87ZM523.734 268.88C520.421 268.88 517.107 268.834 513.793 268.742L513.515 278.738C516.922 278.833 520.328 278.88 523.734 278.88V268.88ZM508.655 273.668L508.235 302.788L518.234 302.932L518.654 273.812L508.655 273.668Z" fill="url(#paint1_linear_1_734)"/>
<g filter="url(#filter1_i_1_734)">
<path d="M1496.23 671.86C1493.15 672.14 1490.45 672.28 1488.11 672.28C1485.87 672.28 1483.87 672.093 1482.09 671.72C1480.79 664.813 1480.13 659.307 1480.13 655.2C1480.13 651 1480.18 646.753 1480.27 642.46L1455.49 641.9C1455.12 640.127 1454.93 638.213 1454.93 636.16C1454.93 634.107 1455.07 632.007 1455.35 629.86C1462.63 628.553 1468.89 627.9 1474.11 627.9H1480.55L1481.11 600.32C1482.89 599.947 1484.89 599.76 1487.13 599.76C1489.47 599.76 1492.17 599.9 1495.25 600.18C1496.47 606.993 1497.07 612.967 1497.07 618.1V628.32L1522.55 628.88C1522.93 630.653 1523.11 632.613 1523.11 634.76C1523.11 636.813 1522.97 638.82 1522.69 640.78C1515.41 642.18 1510.09 642.88 1506.73 642.88C1503.37 642.88 1500.01 642.833 1496.65 642.74L1496.23 671.86Z" fill="url(#paint2_linear_1_734)"/>
</g>
<path d="M1496.23 671.86L1496.69 676.839L1501.17 676.432L1501.23 671.932L1496.23 671.86ZM1482.09 671.72L1477.18 672.649L1477.8 675.926L1481.06 676.613L1482.09 671.72ZM1480.27 642.46L1485.27 642.569L1485.38 637.574L1480.39 637.461L1480.27 642.46ZM1455.49 641.9L1450.6 642.93L1451.42 646.809L1455.38 646.899L1455.49 641.9ZM1455.35 629.86L1454.47 624.939L1450.87 625.585L1450.4 629.213L1455.35 629.86ZM1480.55 627.9V632.9H1485.45L1485.55 628.001L1480.55 627.9ZM1481.11 600.32L1480.08 595.427L1476.2 596.246L1476.12 600.218L1481.11 600.32ZM1495.25 600.18L1500.18 599.303L1499.51 595.546L1495.71 595.201L1495.25 600.18ZM1497.07 628.32H1492.07V633.211L1496.96 633.319L1497.07 628.32ZM1522.55 628.88L1527.45 627.85L1526.63 623.968L1522.66 623.881L1522.55 628.88ZM1522.69 640.78L1523.64 645.69L1527.14 645.017L1527.64 641.487L1522.69 640.78ZM1496.65 642.74L1496.79 637.742L1491.73 637.601L1491.65 642.668L1496.65 642.74ZM1495.78 666.881C1492.81 667.151 1490.26 667.28 1488.11 667.28V677.28C1490.64 677.28 1493.5 677.129 1496.69 676.839L1495.78 666.881ZM1488.11 667.28C1486.14 667.28 1484.49 667.115 1483.12 666.827L1481.06 676.613C1483.24 677.072 1485.61 677.28 1488.11 677.28V667.28ZM1487.01 670.791C1485.72 664.007 1485.13 658.852 1485.13 655.2H1475.13C1475.13 659.762 1475.85 665.619 1477.18 672.649L1487.01 670.791ZM1485.13 655.2C1485.13 651.037 1485.18 646.827 1485.27 642.569L1475.28 642.351C1475.18 646.68 1475.13 650.963 1475.13 655.2H1485.13ZM1480.39 637.461L1455.61 636.901L1455.38 646.899L1480.16 647.459L1480.39 637.461ZM1460.39 640.87C1460.09 639.477 1459.93 637.912 1459.93 636.16H1449.93C1449.93 638.515 1450.15 640.777 1450.6 642.93L1460.39 640.87ZM1459.93 636.16C1459.93 634.334 1460.06 632.45 1460.31 630.507L1450.4 629.213C1450.09 631.563 1449.93 633.879 1449.93 636.16H1459.93ZM1456.24 634.781C1463.34 633.507 1469.28 632.9 1474.11 632.9V622.9C1468.5 622.9 1461.93 623.599 1454.47 624.939L1456.24 634.781ZM1474.11 632.9H1480.55V622.9H1474.11V632.9ZM1485.55 628.001L1486.11 600.421L1476.12 600.218L1475.56 627.798L1485.55 628.001ZM1482.14 605.213C1483.51 604.925 1485.16 604.76 1487.13 604.76V594.76C1484.63 594.76 1482.26 594.968 1480.08 595.427L1482.14 605.213ZM1487.13 604.76C1489.28 604.76 1491.83 604.889 1494.8 605.159L1495.71 595.201C1492.52 594.911 1489.66 594.76 1487.13 594.76V604.76ZM1490.33 601.057C1491.51 607.673 1492.07 613.342 1492.07 618.1H1502.07C1502.07 612.592 1501.43 606.313 1500.18 599.303L1490.33 601.057ZM1492.07 618.1V628.32H1502.07V618.1H1492.07ZM1496.96 633.319L1522.44 633.879L1522.66 623.881L1497.18 623.321L1496.96 633.319ZM1517.66 629.91C1517.95 631.289 1518.11 632.898 1518.11 634.76H1528.11C1528.11 632.329 1527.9 630.017 1527.45 627.85L1517.66 629.91ZM1518.11 634.76C1518.11 636.585 1517.99 638.356 1517.74 640.073L1527.64 641.487C1527.96 639.284 1528.11 637.041 1528.11 634.76H1518.11ZM1521.75 635.87C1514.5 637.264 1509.58 637.88 1506.73 637.88V647.88C1510.61 647.88 1516.33 647.096 1523.64 645.69L1521.75 635.87ZM1506.73 637.88C1503.42 637.88 1500.11 637.834 1496.79 637.742L1496.52 647.738C1499.92 647.833 1503.33 647.88 1506.73 647.88V637.88ZM1491.65 642.668L1491.23 671.788L1501.23 671.932L1501.65 642.812L1491.65 642.668Z" fill="url(#paint3_linear_1_734)"/>
<g filter="url(#filter2_i_1_734)">
<path d="M1172.23 305.86C1169.15 306.14 1166.45 306.28 1164.11 306.28C1161.87 306.28 1159.87 306.093 1158.09 305.72C1156.79 298.813 1156.13 293.307 1156.13 289.2C1156.13 285 1156.18 280.753 1156.27 276.46L1131.49 275.9C1131.12 274.127 1130.93 272.213 1130.93 270.16C1130.93 268.107 1131.07 266.007 1131.35 263.86C1138.63 262.553 1144.89 261.9 1150.11 261.9H1156.55L1157.11 234.32C1158.89 233.947 1160.89 233.76 1163.13 233.76C1165.47 233.76 1168.17 233.9 1171.25 234.18C1172.47 240.993 1173.07 246.967 1173.07 252.1V262.32L1198.55 262.88C1198.93 264.653 1199.11 266.613 1199.11 268.76C1199.11 270.813 1198.97 272.82 1198.69 274.78C1191.41 276.18 1186.09 276.88 1182.73 276.88C1179.37 276.88 1176.01 276.833 1172.65 276.74L1172.23 305.86Z" fill="url(#paint4_linear_1_734)"/>
</g>
<path d="M1172.23 305.86L1172.69 310.839L1177.17 310.432L1177.23 305.932L1172.23 305.86ZM1158.09 305.72L1153.18 306.649L1153.8 309.926L1157.06 310.613L1158.09 305.72ZM1156.27 276.46L1161.27 276.569L1161.38 271.574L1156.39 271.461L1156.27 276.46ZM1131.49 275.9L1126.6 276.93L1127.42 280.809L1131.38 280.899L1131.49 275.9ZM1131.35 263.86L1130.47 258.939L1126.87 259.585L1126.4 263.213L1131.35 263.86ZM1156.55 261.9V266.9H1161.45L1161.55 262.001L1156.55 261.9ZM1157.11 234.32L1156.08 229.427L1152.2 230.246L1152.12 234.218L1157.11 234.32ZM1171.25 234.18L1176.18 233.303L1175.51 229.546L1171.71 229.201L1171.25 234.18ZM1173.07 262.32H1168.07V267.211L1172.96 267.319L1173.07 262.32ZM1198.55 262.88L1203.45 261.85L1202.63 257.968L1198.66 257.881L1198.55 262.88ZM1198.69 274.78L1199.64 279.69L1203.14 279.017L1203.64 275.487L1198.69 274.78ZM1172.65 276.74L1172.79 271.742L1167.73 271.601L1167.65 276.668L1172.65 276.74ZM1171.78 300.881C1168.81 301.151 1166.26 301.28 1164.11 301.28V311.28C1166.64 311.28 1169.5 311.129 1172.69 310.839L1171.78 300.881ZM1164.11 301.28C1162.14 301.28 1160.49 301.115 1159.12 300.827L1157.06 310.613C1159.24 311.072 1161.61 311.28 1164.11 311.28V301.28ZM1163.01 304.791C1161.72 298.007 1161.13 292.852 1161.13 289.2H1151.13C1151.13 293.762 1151.85 299.619 1153.18 306.649L1163.01 304.791ZM1161.13 289.2C1161.13 285.037 1161.18 280.827 1161.27 276.569L1151.28 276.351C1151.18 280.68 1151.13 284.963 1151.13 289.2H1161.13ZM1156.39 271.461L1131.61 270.901L1131.38 280.899L1156.16 281.459L1156.39 271.461ZM1136.39 274.87C1136.09 273.477 1135.93 271.912 1135.93 270.16H1125.93C1125.93 272.515 1126.15 274.777 1126.6 276.93L1136.39 274.87ZM1135.93 270.16C1135.93 268.334 1136.06 266.45 1136.31 264.507L1126.4 263.213C1126.09 265.563 1125.93 267.879 1125.93 270.16H1135.93ZM1132.24 268.781C1139.34 267.507 1145.28 266.9 1150.11 266.9V256.9C1144.5 256.9 1137.93 257.599 1130.47 258.939L1132.24 268.781ZM1150.11 266.9H1156.55V256.9H1150.11V266.9ZM1161.55 262.001L1162.11 234.421L1152.12 234.218L1151.56 261.798L1161.55 262.001ZM1158.14 239.213C1159.51 238.925 1161.16 238.76 1163.13 238.76V228.76C1160.63 228.76 1158.26 228.968 1156.08 229.427L1158.14 239.213ZM1163.13 238.76C1165.28 238.76 1167.83 238.889 1170.8 239.159L1171.71 229.201C1168.52 228.911 1165.66 228.76 1163.13 228.76V238.76ZM1166.33 235.057C1167.51 241.673 1168.07 247.342 1168.07 252.1H1178.07C1178.07 246.592 1177.43 240.313 1176.18 233.303L1166.33 235.057ZM1168.07 252.1V262.32H1178.07V252.1H1168.07ZM1172.96 267.319L1198.44 267.879L1198.66 257.881L1173.18 257.321L1172.96 267.319ZM1193.66 263.91C1193.95 265.289 1194.11 266.898 1194.11 268.76H1204.11C1204.11 266.329 1203.9 264.017 1203.45 261.85L1193.66 263.91ZM1194.11 268.76C1194.11 270.585 1193.99 272.356 1193.74 274.073L1203.64 275.487C1203.96 273.284 1204.11 271.041 1204.11 268.76H1194.11ZM1197.75 269.87C1190.5 271.264 1185.58 271.88 1182.73 271.88V281.88C1186.61 281.88 1192.33 281.096 1199.64 279.69L1197.75 269.87ZM1182.73 271.88C1179.42 271.88 1176.11 271.834 1172.79 271.742L1172.52 281.738C1175.92 281.833 1179.33 281.88 1182.73 281.88V271.88ZM1167.65 276.668L1167.23 305.788L1177.23 305.932L1177.65 276.812L1167.65 276.668Z" fill="url(#paint5_linear_1_734)"/>
<g filter="url(#filter3_i_1_734)">
<path d="M899.234 1054.86C896.154 1055.14 893.448 1055.28 891.114 1055.28C888.874 1055.28 886.868 1055.09 885.094 1054.72C883.788 1047.81 883.134 1042.31 883.134 1038.2C883.134 1034 883.181 1029.75 883.274 1025.46L858.494 1024.9C858.121 1023.13 857.934 1021.21 857.934 1019.16C857.934 1017.11 858.074 1015.01 858.354 1012.86C865.634 1011.55 871.888 1010.9 877.114 1010.9H883.554L884.114 983.32C885.888 982.947 887.894 982.76 890.134 982.76C892.468 982.76 895.174 982.9 898.254 983.18C899.468 989.993 900.074 995.967 900.074 1001.1V1011.32L925.554 1011.88C925.928 1013.65 926.114 1015.61 926.114 1017.76C926.114 1019.81 925.974 1021.82 925.694 1023.78C918.414 1025.18 913.094 1025.88 909.734 1025.88C906.374 1025.88 903.014 1025.83 899.654 1025.74L899.234 1054.86Z" fill="url(#paint6_linear_1_734)"/>
</g>
<path d="M899.234 1054.86L899.687 1059.84L904.169 1059.43L904.234 1054.93L899.234 1054.86ZM885.094 1054.72L880.181 1055.65L880.801 1058.93L884.064 1059.61L885.094 1054.72ZM883.274 1025.46L888.273 1025.57L888.382 1020.57L883.387 1020.46L883.274 1025.46ZM858.494 1024.9L853.602 1025.93L854.418 1029.81L858.381 1029.9L858.494 1024.9ZM858.354 1012.86L857.471 1007.94L853.87 1008.59L853.396 1012.21L858.354 1012.86ZM883.554 1010.9V1015.9H888.454L888.553 1011L883.554 1010.9ZM884.114 983.32L883.084 978.427L879.196 979.246L879.115 983.218L884.114 983.32ZM898.254 983.18L903.177 982.303L902.508 978.546L898.707 978.201L898.254 983.18ZM900.074 1011.32H895.074V1016.21L899.964 1016.32L900.074 1011.32ZM925.554 1011.88L930.447 1010.85L929.63 1006.97L925.664 1006.88L925.554 1011.88ZM925.694 1023.78L926.639 1028.69L930.14 1028.02L930.644 1024.49L925.694 1023.78ZM899.654 1025.74L899.793 1020.74L894.728 1020.6L894.655 1025.67L899.654 1025.74ZM898.782 1049.88C895.807 1050.15 893.257 1050.28 891.114 1050.28V1060.28C893.638 1060.28 896.502 1060.13 899.687 1059.84L898.782 1049.88ZM891.114 1050.28C889.143 1050.28 887.491 1050.11 886.124 1049.83L884.064 1059.61C886.245 1060.07 888.606 1060.28 891.114 1060.28V1050.28ZM890.007 1053.79C888.724 1047.01 888.134 1041.85 888.134 1038.2H878.134C878.134 1042.76 878.851 1048.62 880.181 1055.65L890.007 1053.79ZM888.134 1038.2C888.134 1034.04 888.181 1029.83 888.273 1025.57L878.275 1025.35C878.181 1029.68 878.134 1033.96 878.134 1038.2H888.134ZM883.387 1020.46L858.607 1019.9L858.381 1029.9L883.161 1030.46L883.387 1020.46ZM863.387 1023.87C863.094 1022.48 862.934 1020.91 862.934 1019.16H852.934C852.934 1021.51 853.148 1023.78 853.602 1025.93L863.387 1023.87ZM862.934 1019.16C862.934 1017.33 863.059 1015.45 863.312 1013.51L853.396 1012.21C853.09 1014.56 852.934 1016.88 852.934 1019.16H862.934ZM859.238 1017.78C866.336 1016.51 872.277 1015.9 877.114 1015.9V1005.9C871.498 1005.9 864.933 1006.6 857.471 1007.94L859.238 1017.78ZM877.114 1015.9H883.554V1005.9H877.114V1015.9ZM888.553 1011L889.113 983.421L879.115 983.218L878.555 1010.8L888.553 1011ZM885.144 988.213C886.511 987.925 888.163 987.76 890.134 987.76V977.76C887.626 977.76 885.265 977.968 883.084 978.427L885.144 988.213ZM890.134 987.76C892.277 987.76 894.827 987.889 897.802 988.159L898.707 978.201C895.522 977.911 892.658 977.76 890.134 977.76V987.76ZM893.332 984.057C894.51 990.673 895.074 996.342 895.074 1001.1H905.074C905.074 995.592 904.425 989.313 903.177 982.303L893.332 984.057ZM895.074 1001.1V1011.32H905.074V1001.1H895.074ZM899.964 1016.32L925.444 1016.88L925.664 1006.88L900.184 1006.32L899.964 1016.32ZM920.662 1012.91C920.952 1014.29 921.114 1015.9 921.114 1017.76H931.114C931.114 1015.33 930.903 1013.02 930.447 1010.85L920.662 1012.91ZM921.114 1017.76C921.114 1019.59 920.99 1021.36 920.745 1023.07L930.644 1024.49C930.959 1022.28 931.114 1020.04 931.114 1017.76H921.114ZM924.75 1018.87C917.501 1020.26 912.583 1020.88 909.734 1020.88V1030.88C913.606 1030.88 919.327 1030.1 926.639 1028.69L924.75 1018.87ZM909.734 1020.88C906.421 1020.88 903.107 1020.83 899.793 1020.74L899.515 1030.74C902.922 1030.83 906.328 1030.88 909.734 1030.88V1020.88ZM894.655 1025.67L894.235 1054.79L904.234 1054.93L904.654 1025.81L894.655 1025.67Z" fill="url(#paint7_linear_1_734)"/>
<g filter="url(#filter4_i_1_734)">
<path d="M889.835 158.5C890.115 160.833 890.255 162.887 890.255 164.66L889.695 170.4C882.415 171.8 876.208 172.5 871.075 172.5L819.135 171.52C818.575 168.907 818.295 166.947 818.295 165.64L818.995 159.62C826.275 158.22 832.528 157.52 837.755 157.52L889.835 158.5Z" fill="url(#paint8_linear_1_734)"/>
</g>
<path d="M889.835 158.5L894.799 157.904L894.281 153.583L889.929 153.501L889.835 158.5ZM890.255 164.66L895.231 165.145L895.255 164.903V164.66H890.255ZM889.695 170.4L890.639 175.31L894.308 174.604L894.671 170.885L889.695 170.4ZM871.075 172.5L870.981 177.499L871.028 177.5H871.075V172.5ZM819.135 171.52L814.246 172.568L815.077 176.444L819.041 176.519L819.135 171.52ZM818.295 165.64L813.328 165.062L813.295 165.35V165.64H818.295ZM818.995 159.62L818.051 154.71L814.452 155.402L814.028 159.042L818.995 159.62ZM837.755 157.52L837.849 152.521L837.802 152.52H837.755V157.52ZM884.871 159.096C885.134 161.291 885.255 163.138 885.255 164.66H895.255C895.255 162.636 895.096 160.376 894.799 157.904L884.871 159.096ZM885.279 164.175L884.719 169.915L894.671 170.885L895.231 165.145L885.279 164.175ZM888.751 165.49C881.658 166.854 875.786 167.5 871.075 167.5V177.5C876.631 177.5 883.172 176.746 890.639 175.31L888.751 165.49ZM871.169 167.501L819.229 166.521L819.041 176.519L870.981 177.499L871.169 167.501ZM824.024 170.472C823.478 167.924 823.295 166.393 823.295 165.64H813.295C813.295 167.501 813.672 169.889 814.246 172.568L824.024 170.472ZM823.261 166.218L823.961 160.198L814.028 159.042L813.328 165.062L823.261 166.218ZM819.939 164.53C827.026 163.167 832.946 162.52 837.755 162.52V152.52C832.111 152.52 825.524 153.273 818.051 154.71L819.939 164.53ZM837.661 162.519L889.741 163.499L889.929 153.501L837.849 152.521L837.661 162.519Z" fill="url(#paint9_linear_1_734)"/>
<g filter="url(#filter5_i_1_734)">
<path d="M1257.83 941.5C1258.11 943.833 1258.25 945.887 1258.25 947.66L1257.69 953.4C1250.41 954.8 1244.21 955.5 1239.07 955.5L1187.13 954.52C1186.57 951.907 1186.29 949.947 1186.29 948.64L1186.99 942.62C1194.27 941.22 1200.53 940.52 1205.75 940.52L1257.83 941.5Z" fill="url(#paint10_linear_1_734)"/>
</g>
<path d="M1257.83 941.5L1262.8 940.904L1262.28 936.583L1257.93 936.501L1257.83 941.5ZM1258.25 947.66L1263.23 948.145L1263.25 947.903V947.66H1258.25ZM1257.69 953.4L1258.64 958.31L1262.31 957.604L1262.67 953.885L1257.69 953.4ZM1239.07 955.5L1238.98 960.499L1239.03 960.5H1239.07V955.5ZM1187.13 954.52L1182.25 955.568L1183.08 959.444L1187.04 959.519L1187.13 954.52ZM1186.29 948.64L1181.33 948.062L1181.29 948.35V948.64H1186.29ZM1186.99 942.62L1186.05 937.71L1182.45 938.402L1182.03 942.042L1186.99 942.62ZM1205.75 940.52L1205.85 935.521L1205.8 935.52H1205.75V940.52ZM1252.87 942.096C1253.13 944.291 1253.25 946.138 1253.25 947.66H1263.25C1263.25 945.636 1263.1 943.376 1262.8 940.904L1252.87 942.096ZM1253.28 947.175L1252.72 952.915L1262.67 953.885L1263.23 948.145L1253.28 947.175ZM1256.75 948.49C1249.66 949.854 1243.79 950.5 1239.07 950.5V960.5C1244.63 960.5 1251.17 959.746 1258.64 958.31L1256.75 948.49ZM1239.17 950.501L1187.23 949.521L1187.04 959.519L1238.98 960.499L1239.17 950.501ZM1192.02 953.472C1191.48 950.924 1191.29 949.393 1191.29 948.64H1181.29C1181.29 950.501 1181.67 952.889 1182.25 955.568L1192.02 953.472ZM1191.26 949.218L1191.96 943.198L1182.03 942.042L1181.33 948.062L1191.26 949.218ZM1187.94 947.53C1195.03 946.167 1200.95 945.52 1205.75 945.52V935.52C1200.11 935.52 1193.52 936.273 1186.05 937.71L1187.94 947.53ZM1205.66 945.519L1257.74 946.499L1257.93 936.501L1205.85 935.521L1205.66 945.519Z" fill="url(#paint11_linear_1_734)"/>
<g filter="url(#filter6_i_1_734)">
<path d="M596.835 1000.5C597.115 1002.83 597.255 1004.89 597.255 1006.66L596.695 1012.4C589.415 1013.8 583.208 1014.5 578.075 1014.5L526.135 1013.52C525.575 1010.91 525.295 1008.95 525.295 1007.64L525.995 1001.62C533.275 1000.22 539.528 999.52 544.755 999.52L596.835 1000.5Z" fill="url(#paint12_linear_1_734)"/>
</g>
<path d="M596.835 1000.5L601.799 999.904L601.281 995.583L596.929 995.501L596.835 1000.5ZM597.255 1006.66L602.231 1007.15L602.255 1006.9V1006.66H597.255ZM596.695 1012.4L597.639 1017.31L601.308 1016.6L601.671 1012.89L596.695 1012.4ZM578.075 1014.5L577.981 1019.5L578.028 1019.5H578.075V1014.5ZM526.135 1013.52L521.246 1014.57L522.077 1018.44L526.041 1018.52L526.135 1013.52ZM525.295 1007.64L520.328 1007.06L520.295 1007.35V1007.64H525.295ZM525.995 1001.62L525.051 996.71L521.452 997.402L521.028 1001.04L525.995 1001.62ZM544.755 999.52L544.849 994.521L544.802 994.52H544.755V999.52ZM591.871 1001.1C592.134 1003.29 592.255 1005.14 592.255 1006.66H602.255C602.255 1004.64 602.096 1002.38 601.799 999.904L591.871 1001.1ZM592.279 1006.17L591.719 1011.91L601.671 1012.89L602.231 1007.15L592.279 1006.17ZM595.751 1007.49C588.658 1008.85 582.786 1009.5 578.075 1009.5V1019.5C583.631 1019.5 590.172 1018.75 597.639 1017.31L595.751 1007.49ZM578.169 1009.5L526.229 1008.52L526.041 1018.52L577.981 1019.5L578.169 1009.5ZM531.024 1012.47C530.478 1009.92 530.295 1008.39 530.295 1007.64H520.295C520.295 1009.5 520.672 1011.89 521.246 1014.57L531.024 1012.47ZM530.261 1008.22L530.961 1002.2L521.028 1001.04L520.328 1007.06L530.261 1008.22ZM526.939 1006.53C534.026 1005.17 539.946 1004.52 544.755 1004.52V994.52C539.111 994.52 532.524 995.273 525.051 996.71L526.939 1006.53ZM544.661 1004.52L596.741 1005.5L596.929 995.501L544.849 994.521L544.661 1004.52Z" fill="url(#paint13_linear_1_734)"/>
<g filter="url(#filter7_i_1_734)">
<path d="M281.835 548.5C282.115 550.833 282.255 552.887 282.255 554.66L281.695 560.4C274.415 561.8 268.208 562.5 263.075 562.5L211.135 561.52C210.575 558.907 210.295 556.947 210.295 555.64L210.995 549.62C218.275 548.22 224.528 547.52 229.755 547.52L281.835 548.5Z" fill="url(#paint14_linear_1_734)"/>
</g>
<path d="M281.835 548.5L286.799 547.904L286.281 543.583L281.929 543.501L281.835 548.5ZM282.255 554.66L287.231 555.145L287.255 554.903V554.66H282.255ZM281.695 560.4L282.639 565.31L286.308 564.604L286.671 560.885L281.695 560.4ZM263.075 562.5L262.981 567.499L263.028 567.5H263.075V562.5ZM211.135 561.52L206.246 562.568L207.077 566.444L211.041 566.519L211.135 561.52ZM210.295 555.64L205.328 555.062L205.295 555.35V555.64H210.295ZM210.995 549.62L210.051 544.71L206.452 545.402L206.028 549.042L210.995 549.62ZM229.755 547.52L229.849 542.521L229.802 542.52H229.755V547.52ZM276.871 549.096C277.134 551.291 277.255 553.138 277.255 554.66H287.255C287.255 552.636 287.096 550.376 286.799 547.904L276.871 549.096ZM277.279 554.175L276.719 559.915L286.671 560.885L287.231 555.145L277.279 554.175ZM280.751 555.49C273.658 556.854 267.786 557.5 263.075 557.5V567.5C268.631 567.5 275.172 566.746 282.639 565.31L280.751 555.49ZM263.169 557.501L211.229 556.521L211.041 566.519L262.981 567.499L263.169 557.501ZM216.024 560.472C215.478 557.924 215.295 556.393 215.295 555.64H205.295C205.295 557.501 205.672 559.889 206.246 562.568L216.024 560.472ZM215.261 556.218L215.961 550.198L206.028 549.042L205.328 555.062L215.261 556.218ZM211.939 554.53C219.026 553.167 224.946 552.52 229.755 552.52V542.52C224.111 542.52 217.524 543.273 210.051 544.71L211.939 554.53ZM229.661 552.519L281.741 553.499L281.929 543.501L229.849 542.521L229.661 552.519Z" fill="url(#paint15_linear_1_734)"/>
<defs>
<filter id="filter0_i_1_734" x="471.935" y="230.76" width="86.1797" height="87.52" filterUnits="userSpaceOnUse" color-interpolation-filters="sRGB">
<feFlood flood-opacity="0" result="BackgroundImageFix"/>
<feBlend mode="normal" in="SourceGraphic" in2="BackgroundImageFix" result="shape"/>
<feColorMatrix in="SourceAlpha" type="matrix" values="0 0 0 0 0 0 0 0 0 0 0 0 0 0 0 0 0 0 127 0" result="hardAlpha"/>
<feOffset dx="18" dy="15"/>
<feGaussianBlur stdDeviation="12.5"/>
<feComposite in2="hardAlpha" operator="arithmetic" k2="-1" k3="1"/>
<feColorMatrix type="matrix" values="0 0 0 0 0 0 0 0 0 0 0 0 0 0 0 0 0 0 0.57 0"/>
<feBlend mode="normal" in2="shape" result="effect1_innerShadow_1_734"/>
</filter>
<filter id="filter1_i_1_734" x="1454.93" y="599.76" width="86.1797" height="87.52" filterUnits="userSpaceOnUse" color-interpolation-filters="sRGB">
<feFlood flood-opacity="0" result="BackgroundImageFix"/>
<feBlend mode="normal" in="SourceGraphic" in2="BackgroundImageFix" result="shape"/>
<feColorMatrix in="SourceAlpha" type="matrix" values="0 0 0 0 0 0 0 0 0 0 0 0 0 0 0 0 0 0 127 0" result="hardAlpha"/>
<feOffset dx="18" dy="15"/>
<feGaussianBlur stdDeviation="12.5"/>
<feComposite in2="hardAlpha" operator="arithmetic" k2="-1" k3="1"/>
<feColorMatrix type="matrix" values="0 0 0 0 0 0 0 0 0 0 0 0 0 0 0 0 0 0 0.57 0"/>
<feBlend mode="normal" in2="shape" result="effect1_innerShadow_1_734"/>
</filter>
<filter id="filter2_i_1_734" x="1130.93" y="233.76" width="86.1797" height="87.52" filterUnits="userSpaceOnUse" color-interpolation-filters="sRGB">
<feFlood flood-opacity="0" result="BackgroundImageFix"/>
<feBlend mode="normal" in="SourceGraphic" in2="BackgroundImageFix" result="shape"/>
<feColorMatrix in="SourceAlpha" type="matrix" values="0 0 0 0 0 0 0 0 0 0 0 0 0 0 0 0 0 0 127 0" result="hardAlpha"/>
<feOffset dx="18" dy="15"/>
<feGaussianBlur stdDeviation="12.5"/>
<feComposite in2="hardAlpha" operator="arithmetic" k2="-1" k3="1"/>
<feColorMatrix type="matrix" values="0 0 0 0 0 0 0 0 0 0 0 0 0 0 0 0 0 0 0.57 0"/>
<feBlend mode="normal" in2="shape" result="effect1_innerShadow_1_734"/>
</filter>
<filter id="filter3_i_1_734" x="857.935" y="982.76" width="86.1797" height="87.52" filterUnits="userSpaceOnUse" color-interpolation-filters="sRGB">
<feFlood flood-opacity="0" result="BackgroundImageFix"/>
<feBlend mode="normal" in="SourceGraphic" in2="BackgroundImageFix" result="shape"/>
<feColorMatrix in="SourceAlpha" type="matrix" values="0 0 0 0 0 0 0 0 0 0 0 0 0 0 0 0 0 0 127 0" result="hardAlpha"/>
<feOffset dx="18" dy="15"/>
<feGaussianBlur stdDeviation="12.5"/>
<feComposite in2="hardAlpha" operator="arithmetic" k2="-1" k3="1"/>
<feColorMatrix type="matrix" values="0 0 0 0 0 0 0 0 0 0 0 0 0 0 0 0 0 0 0.57 0"/>
<feBlend mode="normal" in2="shape" result="effect1_innerShadow_1_734"/>
</filter>
<filter id="filter4_i_1_734" x="818.295" y="157.52" width="89.96" height="29.98" filterUnits="userSpaceOnUse" color-interpolation-filters="sRGB">
<feFlood flood-opacity="0" result="BackgroundImageFix"/>
<feBlend mode="normal" in="SourceGraphic" in2="BackgroundImageFix" result="shape"/>
<feColorMatrix in="SourceAlpha" type="matrix" values="0 0 0 0 0 0 0 0 0 0 0 0 0 0 0 0 0 0 127 0" result="hardAlpha"/>
<feOffset dx="18" dy="15"/>
<feGaussianBlur stdDeviation="12.5"/>
<feComposite in2="hardAlpha" operator="arithmetic" k2="-1" k3="1"/>
<feColorMatrix type="matrix" values="0 0 0 0 0 0 0 0 0 0 0 0 0 0 0 0 0 0 0.57 0"/>
<feBlend mode="normal" in2="shape" result="effect1_innerShadow_1_734"/>
</filter>
<filter id="filter5_i_1_734" x="1186.29" y="940.52" width="89.96" height="29.98" filterUnits="userSpaceOnUse" color-interpolation-filters="sRGB">
<feFlood flood-opacity="0" result="BackgroundImageFix"/>
<feBlend mode="normal" in="SourceGraphic" in2="BackgroundImageFix" result="shape"/>
<feColorMatrix in="SourceAlpha" type="matrix" values="0 0 0 0 0 0 0 0 0 0 0 0 0 0 0 0 0 0 127 0" result="hardAlpha"/>
<feOffset dx="18" dy="15"/>
<feGaussianBlur stdDeviation="12.5"/>
<feComposite in2="hardAlpha" operator="arithmetic" k2="-1" k3="1"/>
<feColorMatrix type="matrix" values="0 0 0 0 0 0 0 0 0 0 0 0 0 0 0 0 0 0 0.57 0"/>
<feBlend mode="normal" in2="shape" result="effect1_innerShadow_1_734"/>
</filter>
<filter id="filter6_i_1_734" x="525.295" y="999.52" width="89.96" height="29.98" filterUnits="userSpaceOnUse" color-interpolation-filters="sRGB">
<feFlood flood-opacity="0" result="BackgroundImageFix"/>
<feBlend mode="normal" in="SourceGraphic" in2="BackgroundImageFix" result="shape"/>
<feColorMatrix in="SourceAlpha" type="matrix" values="0 0 0 0 0 0 0 0 0 0 0 0 0 0 0 0 0 0 127 0" result="hardAlpha"/>
<feOffset dx="18" dy="15"/>
<feGaussianBlur stdDeviation="12.5"/>
<feComposite in2="hardAlpha" operator="arithmetic" k2="-1" k3="1"/>
<feColorMatrix type="matrix" values="0 0 0 0 0 0 0 0 0 0 0 0 0 0 0 0 0 0 0.57 0"/>
<feBlend mode="normal" in2="shape" result="effect1_innerShadow_1_734"/>
</filter>
<filter id="filter7_i_1_734" x="210.295" y="547.52" width="89.96" height="29.98" filterUnits="userSpaceOnUse" color-interpolation-filters="sRGB">
<feFlood flood-opacity="0" result="BackgroundImageFix"/>
<feBlend mode="normal" in="SourceGraphic" in2="BackgroundImageFix" result="shape"/>
<feColorMatrix in="SourceAlpha" type="matrix" values="0 0 0 0 0 0 0 0 0 0 0 0 0 0 0 0 0 0 127 0" result="hardAlpha"/>
<feOffset dx="18" dy="15"/>
<feGaussianBlur stdDeviation="12.5"/>
<feComposite in2="hardAlpha" operator="arithmetic" k2="-1" k3="1"/>
<feColorMatrix type="matrix" values="0 0 0 0 0 0 0 0 0 0 0 0 0 0 0 0 0 0 0.57 0"/>
<feBlend mode="normal" in2="shape" result="effect1_innerShadow_1_734"/>
</filter>
<linearGradient id="paint0_linear_1_734" x1="469.684" y1="168.041" x2="559.153" y2="178.233" gradientUnits="userSpaceOnUse">
<stop stop-color="#3A81BF"/>
<stop offset="1" stop-color="#41305A" stop-opacity="0.03"/>
</linearGradient>
<linearGradient id="paint1_linear_1_734" x1="469.93" y1="169.174" x2="559.773" y2="179.701" gradientUnits="userSpaceOnUse">
<stop stop-color="#FB37FF"/>
<stop offset="0.425065" stop-color="#9B6FEE"/>
<stop offset="0.519704" stop-color="#7B7FEA" stop-opacity="0"/>
<stop offset="1" stop-color="#18B2DE"/>
</linearGradient>
<linearGradient id="paint2_linear_1_734" x1="1452.68" y1="537.041" x2="1542.15" y2="547.233" gradientUnits="userSpaceOnUse">
<stop stop-color="#3A81BF"/>
<stop offset="1" stop-color="#41305A" stop-opacity="0.03"/>
</linearGradient>
<linearGradient id="paint3_linear_1_734" x1="1452.93" y1="538.174" x2="1542.77" y2="548.701" gradientUnits="userSpaceOnUse">
<stop stop-color="#FB37FF"/>
<stop offset="0.425065" stop-color="#9B6FEE"/>
<stop offset="0.519704" stop-color="#7B7FEA" stop-opacity="0"/>
<stop offset="1" stop-color="#18B2DE"/>
</linearGradient>
<linearGradient id="paint4_linear_1_734" x1="1128.68" y1="171.041" x2="1218.15" y2="181.233" gradientUnits="userSpaceOnUse">
<stop stop-color="#3A81BF"/>
<stop offset="1" stop-color="#41305A" stop-opacity="0.03"/>
</linearGradient>
<linearGradient id="paint5_linear_1_734" x1="1128.93" y1="172.174" x2="1218.77" y2="182.701" gradientUnits="userSpaceOnUse">
<stop stop-color="#FB37FF"/>
<stop offset="0.425065" stop-color="#9B6FEE"/>
<stop offset="0.519704" stop-color="#7B7FEA" stop-opacity="0"/>
<stop offset="1" stop-color="#18B2DE"/>
</linearGradient>
<linearGradient id="paint6_linear_1_734" x1="855.684" y1="920.041" x2="945.153" y2="930.233" gradientUnits="userSpaceOnUse">
<stop stop-color="#3A81BF"/>
<stop offset="1" stop-color="#41305A" stop-opacity="0.03"/>
</linearGradient>
<linearGradient id="paint7_linear_1_734" x1="855.93" y1="921.174" x2="945.773" y2="931.701" gradientUnits="userSpaceOnUse">
<stop stop-color="#FB37FF"/>
<stop offset="0.425065" stop-color="#9B6FEE"/>
<stop offset="0.519704" stop-color="#7B7FEA" stop-opacity="0"/>
<stop offset="1" stop-color="#18B2DE"/>
</linearGradient>
<linearGradient id="paint8_linear_1_734" x1="819.615" y1="6.0415" x2="905.545" y2="15.4325" gradientUnits="userSpaceOnUse">
<stop stop-color="#3A81BF"/>
<stop offset="1" stop-color="#41305A" stop-opacity="0.03"/>
</linearGradient>
<linearGradient id="paint9_linear_1_734" x1="819.852" y1="7.17427" x2="906.145" y2="16.8754" gradientUnits="userSpaceOnUse">
<stop stop-color="#FB37FF"/>
<stop offset="0.425065" stop-color="#9B6FEE"/>
<stop offset="0.519704" stop-color="#7B7FEA" stop-opacity="0"/>
<stop offset="1" stop-color="#18B2DE"/>
</linearGradient>
<linearGradient id="paint10_linear_1_734" x1="1187.62" y1="789.041" x2="1273.55" y2="798.433" gradientUnits="userSpaceOnUse">
<stop stop-color="#3A81BF"/>
<stop offset="1" stop-color="#41305A" stop-opacity="0.03"/>
</linearGradient>
<linearGradient id="paint11_linear_1_734" x1="1187.85" y1="790.174" x2="1274.14" y2="799.875" gradientUnits="userSpaceOnUse">
<stop stop-color="#FB37FF"/>
<stop offset="0.425065" stop-color="#9B6FEE"/>
<stop offset="0.519704" stop-color="#7B7FEA" stop-opacity="0"/>
<stop offset="1" stop-color="#18B2DE"/>
</linearGradient>
<linearGradient id="paint12_linear_1_734" x1="526.615" y1="848.041" x2="612.545" y2="857.433" gradientUnits="userSpaceOnUse">
<stop stop-color="#3A81BF"/>
<stop offset="1" stop-color="#41305A" stop-opacity="0.03"/>
</linearGradient>
<linearGradient id="paint13_linear_1_734" x1="526.852" y1="849.174" x2="613.145" y2="858.875" gradientUnits="userSpaceOnUse">
<stop stop-color="#FB37FF"/>
<stop offset="0.425065" stop-color="#9B6FEE"/>
<stop offset="0.519704" stop-color="#7B7FEA" stop-opacity="0"/>
<stop offset="1" stop-color="#18B2DE"/>
</linearGradient>
<linearGradient id="paint14_linear_1_734" x1="211.615" y1="396.041" x2="297.545" y2="405.433" gradientUnits="userSpaceOnUse">
<stop stop-color="#3A81BF"/>
<stop offset="1" stop-color="#41305A" stop-opacity="0.03"/>
</linearGradient>
<linearGradient id="paint15_linear_1_734" x1="211.852" y1="397.174" x2="298.145" y2="406.875" gradientUnits="userSpaceOnUse">
<stop stop-color="#FB37FF"/>
<stop offset="0.425065" stop-color="#9B6FEE"/>
<stop offset="0.519704" stop-color="#7B7FEA" stop-opacity="0"/>
<stop offset="1" stop-color="#18B2DE"/>
</linearGradient>
</defs>
</svg>
