<svg width="591" height="368" viewBox="0 0 591 368" fill="none" xmlns="http://www.w3.org/2000/svg">
<g filter="url(#filter0_d_48_16)">
<path d="M24.3137 53L17.3057 40.28H15.3377V53H7.12975V19.304H20.9057C23.5617 19.304 25.8177 19.768 27.6737 20.696C29.5617 21.624 30.9697 22.904 31.8977 24.536C32.8257 26.136 33.2898 27.928 33.2898 29.912C33.2898 32.152 32.6497 34.152 31.3697 35.912C30.1217 37.672 28.2657 38.92 25.8017 39.656L33.5777 53H24.3137ZM15.3377 34.472H20.4257C21.9297 34.472 23.0497 34.104 23.7857 33.368C24.5537 32.632 24.9377 31.592 24.9377 30.248C24.9377 28.968 24.5537 27.96 23.7857 27.224C23.0497 26.488 21.9297 26.12 20.4257 26.12H15.3377V34.472ZM54.5702 25.88V32.696H65.5622V39.032H54.5702V46.424H67.0022V53H46.3622V19.304H67.0022V25.88H54.5702ZM101.227 47.048H88.651L86.635 53H78.043L90.235 19.304H99.739L111.931 53H103.243L101.227 47.048ZM99.115 40.712L94.939 28.376L90.811 40.712H99.115ZM136.186 19.304C139.738 19.304 142.842 20.008 145.498 21.416C148.154 22.824 150.202 24.808 151.642 27.368C153.114 29.896 153.85 32.824 153.85 36.152C153.85 39.448 153.114 42.376 151.642 44.936C150.202 47.496 148.138 49.48 145.45 50.888C142.794 52.296 139.706 53 136.186 53H123.562V19.304H136.186ZM135.658 45.896C138.762 45.896 141.178 45.048 142.906 43.352C144.634 41.656 145.498 39.256 145.498 36.152C145.498 33.048 144.634 30.632 142.906 28.904C141.178 27.176 138.762 26.312 135.658 26.312H131.77V45.896H135.658ZM208.689 19.304V25.88H199.761V53H191.553V25.88H182.625V19.304H208.689ZM249.912 19.304V53H241.704V39.128H228.936V53H220.728V19.304H228.936V32.504H241.704V19.304H249.912ZM271.965 25.88V32.696H282.957V39.032H271.965V46.424H284.397V53H263.757V19.304H284.397V25.88H271.965ZM362.106 19.304L353.322 53H343.386L338.01 30.824L332.442 53H322.506L313.962 19.304H322.746L327.594 43.832L333.594 19.304H342.618L348.378 43.832L353.274 19.304H362.106ZM390.078 53.336C386.91 53.336 383.998 52.6 381.342 51.128C378.718 49.656 376.622 47.608 375.054 44.984C373.518 42.328 372.75 39.352 372.75 36.056C372.75 32.76 373.518 29.8 375.054 27.176C376.622 24.552 378.718 22.504 381.342 21.032C383.998 19.56 386.91 18.824 390.078 18.824C393.246 18.824 396.142 19.56 398.766 21.032C401.422 22.504 403.502 24.552 405.006 27.176C406.542 29.8 407.31 32.76 407.31 36.056C407.31 39.352 406.542 42.328 405.006 44.984C403.47 47.608 401.39 49.656 398.766 51.128C396.142 52.6 393.246 53.336 390.078 53.336ZM390.078 45.848C392.766 45.848 394.91 44.952 396.51 43.16C398.142 41.368 398.958 39 398.958 36.056C398.958 33.08 398.142 30.712 396.51 28.952C394.91 27.16 392.766 26.264 390.078 26.264C387.358 26.264 385.182 27.144 383.55 28.904C381.95 30.664 381.15 33.048 381.15 36.056C381.15 39.032 381.95 41.416 383.55 43.208C385.182 44.968 387.358 45.848 390.078 45.848ZM436.981 53L429.973 40.28H428.005V53H419.797V19.304H433.573C436.229 19.304 438.485 19.768 440.341 20.696C442.229 21.624 443.637 22.904 444.565 24.536C445.493 26.136 445.957 27.928 445.957 29.912C445.957 32.152 445.317 34.152 444.037 35.912C442.789 37.672 440.933 38.92 438.469 39.656L446.245 53H436.981ZM428.005 34.472H433.093C434.597 34.472 435.717 34.104 436.453 33.368C437.221 32.632 437.605 31.592 437.605 30.248C437.605 28.968 437.221 27.96 436.453 27.224C435.717 26.488 434.597 26.12 433.093 26.12H428.005V34.472ZM471.653 19.304C475.205 19.304 478.309 20.008 480.965 21.416C483.621 22.824 485.669 24.808 487.109 27.368C488.581 29.896 489.317 32.824 489.317 36.152C489.317 39.448 488.581 42.376 487.109 44.936C485.669 47.496 483.605 49.48 480.917 50.888C478.261 52.296 475.173 53 471.653 53H459.029V19.304H471.653ZM471.125 45.896C474.229 45.896 476.645 45.048 478.373 43.352C480.101 41.656 480.965 39.256 480.965 36.152C480.965 33.048 480.101 30.632 478.373 28.904C476.645 27.176 474.229 26.312 471.125 26.312H467.237V45.896H471.125ZM514.016 53.336C511.552 53.336 509.344 52.936 507.392 52.136C505.44 51.336 503.872 50.152 502.688 48.584C501.536 47.016 500.928 45.128 500.864 42.92H509.6C509.728 44.168 510.16 45.128 510.896 45.8C511.632 46.44 512.592 46.76 513.776 46.76C514.992 46.76 515.952 46.488 516.656 45.944C517.36 45.368 517.712 44.584 517.712 43.592C517.712 42.76 517.424 42.072 516.848 41.528C516.304 40.984 515.616 40.536 514.784 40.184C513.984 39.832 512.832 39.432 511.328 38.984C509.152 38.312 507.376 37.64 506 36.968C504.624 36.296 503.44 35.304 502.448 33.992C501.456 32.68 500.96 30.968 500.96 28.856C500.96 25.72 502.096 23.272 504.368 21.512C506.64 19.72 509.6 18.824 513.248 18.824C516.96 18.824 519.952 19.72 522.224 21.512C524.496 23.272 525.712 25.736 525.872 28.904H516.992C516.928 27.816 516.528 26.968 515.792 26.36C515.056 25.72 514.112 25.4 512.96 25.4C511.968 25.4 511.168 25.672 510.56 26.216C509.952 26.728 509.648 27.48 509.648 28.472C509.648 29.56 510.16 30.408 511.184 31.016C512.208 31.624 513.808 32.28 515.984 32.984C518.16 33.72 519.92 34.424 521.264 35.096C522.64 35.768 523.824 36.744 524.816 38.024C525.808 39.304 526.304 40.952 526.304 42.968C526.304 44.888 525.808 46.632 524.816 48.2C523.856 49.768 522.448 51.016 520.592 51.944C518.736 52.872 516.544 53.336 514.016 53.336ZM543.115 53.384C541.675 53.384 540.491 52.968 539.563 52.136C538.667 51.272 538.219 50.216 538.219 48.968C538.219 47.688 538.667 46.616 539.563 45.752C540.491 44.888 541.675 44.456 543.115 44.456C544.523 44.456 545.675 44.888 546.571 45.752C547.499 46.616 547.963 47.688 547.963 48.968C547.963 50.216 547.499 51.272 546.571 52.136C545.675 52.968 544.523 53.384 543.115 53.384Z" fill="url(#paint0_linear_48_16)" shape-rendering="crispEdges"/>
<path d="M24.3137 53L23.4379 53.4826L23.723 54H24.3137V53ZM17.3057 40.28L18.1816 39.7974L17.8965 39.28H17.3057V40.28ZM15.3377 40.28V39.28H14.3377V40.28H15.3377ZM15.3377 53V54H16.3377V53H15.3377ZM7.12975 53H6.12975V54H7.12975V53ZM7.12975 19.304V18.304H6.12975V19.304H7.12975ZM27.6737 20.696L27.2265 21.5904L27.2326 21.5934L27.6737 20.696ZM31.8977 24.536L31.0284 25.0303L31.0327 25.0377L31.8977 24.536ZM31.3697 35.912L30.561 35.3238L30.554 35.3336L31.3697 35.912ZM25.8018 39.656L25.5155 38.6978L24.2979 39.0615L24.9377 40.1595L25.8018 39.656ZM33.5777 53V54H35.3179L34.4418 52.4965L33.5777 53ZM15.3377 34.472H14.3377V35.472H15.3377V34.472ZM23.7857 33.368L23.0938 32.646L23.0862 32.6534L23.0786 32.6609L23.7857 33.368ZM23.7857 27.224L23.0786 27.9311L23.0862 27.9386L23.0938 27.946L23.7857 27.224ZM15.3377 26.12V25.12H14.3377V26.12H15.3377ZM25.1896 52.5174L18.1816 39.7974L16.4299 40.7626L23.4379 53.4826L25.1896 52.5174ZM17.3057 39.28H15.3377V41.28H17.3057V39.28ZM14.3377 40.28V53H16.3377V40.28H14.3377ZM15.3377 52H7.12975V54H15.3377V52ZM8.12975 53V19.304H6.12975V53H8.12975ZM7.12975 20.304H20.9057V18.304H7.12975V20.304ZM20.9057 20.304C23.4486 20.304 25.5427 20.7485 27.2265 21.5904L28.121 19.8016C26.0928 18.7875 23.6749 18.304 20.9057 18.304V20.304ZM27.2326 21.5934C28.9632 22.4441 30.2113 23.5932 31.0285 25.0303L32.767 24.0417C31.7282 22.2148 30.1603 20.8039 28.1149 19.7985L27.2326 21.5934ZM31.0327 25.0377C31.8659 26.4742 32.2897 28.091 32.2897 29.912H34.2897C34.2897 27.765 33.7856 25.7978 32.7628 24.0343L31.0327 25.0377ZM32.2897 29.912C32.2897 31.9473 31.7129 33.74 30.561 35.3238L32.1785 36.5002C33.5866 34.564 34.2897 32.3567 34.2897 29.912H32.2897ZM30.554 35.3336C29.4587 36.8782 27.8081 38.013 25.5155 38.6978L26.088 40.6142C28.7234 39.827 30.7848 38.4658 32.1855 36.4904L30.554 35.3336ZM24.9377 40.1595L32.7137 53.5035L34.4418 52.4965L26.6658 39.1525L24.9377 40.1595ZM33.5777 52H24.3137V54H33.5777V52ZM15.3377 35.472H20.4257V33.472H15.3377V35.472ZM20.4257 35.472C22.0766 35.472 23.4996 35.0684 24.4929 34.0751L23.0786 32.6609C22.5999 33.1396 21.7829 33.472 20.4257 33.472V35.472ZM24.4777 34.09C25.4914 33.1185 25.9377 31.7885 25.9377 30.248H23.9377C23.9377 31.3955 23.6161 32.1455 23.0938 32.646L24.4777 34.09ZM25.9377 30.248C25.9377 28.7551 25.4817 27.4643 24.4777 26.502L23.0938 27.946C23.6257 28.4557 23.9377 29.1809 23.9377 30.248H25.9377ZM24.4929 26.5169C23.4996 25.5236 22.0766 25.12 20.4257 25.12V27.12C21.7829 27.12 22.5999 27.4524 23.0786 27.9311L24.4929 26.5169ZM20.4257 25.12H15.3377V27.12H20.4257V25.12ZM14.3377 26.12V34.472H16.3377V26.12H14.3377ZM54.5702 25.88V24.88H53.5702V25.88H54.5702ZM54.5702 32.696H53.5702V33.696H54.5702V32.696ZM65.5622 32.696H66.5622V31.696H65.5622V32.696ZM65.5622 39.032V40.032H66.5622V39.032H65.5622ZM54.5702 39.032V38.032H53.5702V39.032H54.5702ZM54.5702 46.424H53.5702V47.424H54.5702V46.424ZM67.0022 46.424H68.0022V45.424H67.0022V46.424ZM67.0022 53V54H68.0022V53H67.0022ZM46.3622 53H45.3622V54H46.3622V53ZM46.3622 19.304V18.304H45.3622V19.304H46.3622ZM67.0022 19.304H68.0022V18.304H67.0022V19.304ZM67.0022 25.88V26.88H68.0022V25.88H67.0022ZM53.5702 25.88V32.696H55.5702V25.88H53.5702ZM54.5702 33.696H65.5622V31.696H54.5702V33.696ZM64.5622 32.696V39.032H66.5622V32.696H64.5622ZM65.5622 38.032H54.5702V40.032H65.5622V38.032ZM53.5702 39.032V46.424H55.5702V39.032H53.5702ZM54.5702 47.424H67.0022V45.424H54.5702V47.424ZM66.0022 46.424V53H68.0022V46.424H66.0022ZM67.0022 52H46.3622V54H67.0022V52ZM47.3622 53V19.304H45.3622V53H47.3622ZM46.3622 20.304H67.0022V18.304H46.3622V20.304ZM66.0022 19.304V25.88H68.0022V19.304H66.0022ZM67.0022 24.88H54.5702V26.88H67.0022V24.88ZM101.227 47.048L102.174 46.7272L101.944 46.048H101.227V47.048ZM88.651 47.048V46.048H87.9339L87.7038 46.7272L88.651 47.048ZM86.635 53V54H87.3521L87.5821 53.3208L86.635 53ZM78.043 53L77.1027 52.6598L76.6177 54H78.043V53ZM90.235 19.304V18.304H89.5334L89.2947 18.9638L90.235 19.304ZM99.739 19.304L100.679 18.9638L100.441 18.304H99.739V19.304ZM111.931 53V54H113.356L112.871 52.6598L111.931 53ZM103.243 53L102.296 53.3208L102.526 54H103.243V53ZM99.115 40.712V41.712H100.509L100.062 40.3914L99.115 40.712ZM94.939 28.376L95.8862 28.0554L94.9335 25.2411L93.9907 28.0587L94.939 28.376ZM90.811 40.712L89.8627 40.3947L89.4219 41.712H90.811V40.712ZM101.227 46.048H88.651V48.048H101.227V46.048ZM87.7038 46.7272L85.6879 52.6792L87.5821 53.3208L89.5981 47.3688L87.7038 46.7272ZM86.635 52H78.043V54H86.635V52ZM78.9833 53.3402L91.1753 19.6442L89.2947 18.9638L77.1027 52.6598L78.9833 53.3402ZM90.235 20.304H99.739V18.304H90.235V20.304ZM98.7987 19.6442L110.991 53.3402L112.871 52.6598L100.679 18.9638L98.7987 19.6442ZM111.931 52H103.243V54H111.931V52ZM104.19 52.6792L102.174 46.7272L100.28 47.3688L102.296 53.3208L104.19 52.6792ZM100.062 40.3914L95.8862 28.0554L93.9918 28.6966L98.1678 41.0326L100.062 40.3914ZM93.9907 28.0587L89.8627 40.3947L91.7593 41.0293L95.8873 28.6933L93.9907 28.0587ZM90.811 41.712H99.115V39.712H90.811V41.712ZM145.498 21.416L145.966 20.5325L145.498 21.416ZM151.642 27.368L150.77 27.8583L150.774 27.8648L150.777 27.8712L151.642 27.368ZM151.642 44.936L150.775 44.4375L150.77 44.4457L151.642 44.936ZM145.45 50.888L144.986 50.0022L144.981 50.0045L145.45 50.888ZM123.562 53H122.562V54H123.562V53ZM123.562 19.304V18.304H122.562V19.304H123.562ZM131.77 26.312V25.312H130.77V26.312H131.77ZM131.77 45.896H130.77V46.896H131.77V45.896ZM136.186 20.304C139.604 20.304 142.542 20.9808 145.029 22.2995L145.966 20.5325C143.142 19.0352 139.871 18.304 136.186 18.304V20.304ZM145.029 22.2995C147.52 23.62 149.426 25.4694 150.77 27.8583L152.513 26.8777C150.977 24.1466 148.787 22.028 145.966 20.5325L145.029 22.2995ZM150.777 27.8712C152.149 30.2263 152.85 32.976 152.85 36.152H154.85C154.85 32.672 154.078 29.5657 152.506 26.8648L150.777 27.8712ZM152.85 36.152C152.85 39.2938 152.15 42.0462 150.775 44.4375L152.509 45.4345C154.078 42.7058 154.85 39.6022 154.85 36.152H152.85ZM150.77 44.4457C149.428 46.8315 147.508 48.6807 144.986 50.0022L145.914 51.7738C148.767 50.2793 150.975 48.1605 152.513 45.4263L150.77 44.4457ZM144.981 50.0045C142.492 51.3239 139.57 52 136.186 52V54C139.841 54 143.095 53.2681 145.918 51.7715L144.981 50.0045ZM136.186 52H123.562V54H136.186V52ZM124.562 53V19.304H122.562V53H124.562ZM123.562 20.304H136.186V18.304H123.562V20.304ZM135.658 46.896C138.946 46.896 141.642 45.9929 143.606 44.0657L142.205 42.6383C140.713 44.1031 138.577 44.896 135.658 44.896V46.896ZM143.606 44.0657C145.576 42.1324 146.498 39.4449 146.498 36.152H144.498C144.498 39.0671 143.691 41.1796 142.205 42.6383L143.606 44.0657ZM146.498 36.152C146.498 32.8581 145.576 30.1597 143.613 28.1969L142.199 29.6111C143.692 31.1043 144.498 33.2379 144.498 36.152H146.498ZM143.613 28.1969C141.65 26.2341 138.952 25.312 135.658 25.312V27.312C138.572 27.312 140.705 28.1179 142.199 29.6111L143.613 28.1969ZM135.658 25.312H131.77V27.312H135.658V25.312ZM130.77 26.312V45.896H132.77V26.312H130.77ZM131.77 46.896H135.658V44.896H131.77V46.896ZM208.689 19.304H209.689V18.304H208.689V19.304ZM208.689 25.88V26.88H209.689V25.88H208.689ZM199.76 25.88V24.88H198.76V25.88H199.76ZM199.76 53V54H200.76V53H199.76ZM191.553 53H190.553V54H191.553V53ZM191.553 25.88H192.553V24.88H191.553V25.88ZM182.624 25.88H181.624V26.88H182.624V25.88ZM182.624 19.304V18.304H181.624V19.304H182.624ZM207.689 19.304V25.88H209.689V19.304H207.689ZM208.689 24.88H199.76V26.88H208.689V24.88ZM198.76 25.88V53H200.76V25.88H198.76ZM199.76 52H191.553V54H199.76V52ZM192.553 53V25.88H190.553V53H192.553ZM191.553 24.88H182.624V26.88H191.553V24.88ZM183.624 25.88V19.304H181.624V25.88H183.624ZM182.624 20.304H208.689V18.304H182.624V20.304ZM249.912 19.304H250.912V18.304H249.912V19.304ZM249.912 53V54H250.912V53H249.912ZM241.704 53H240.704V54H241.704V53ZM241.704 39.128H242.704V38.128H241.704V39.128ZM228.936 39.128V38.128H227.936V39.128H228.936ZM228.936 53V54H229.936V53H228.936ZM220.728 53H219.728V54H220.728V53ZM220.728 19.304V18.304H219.728V19.304H220.728ZM228.936 19.304H229.936V18.304H228.936V19.304ZM228.936 32.504H227.936V33.504H228.936V32.504ZM241.704 32.504V33.504H242.704V32.504H241.704ZM241.704 19.304V18.304H240.704V19.304H241.704ZM248.912 19.304V53H250.912V19.304H248.912ZM249.912 52H241.704V54H249.912V52ZM242.704 53V39.128H240.704V53H242.704ZM241.704 38.128H228.936V40.128H241.704V38.128ZM227.936 39.128V53H229.936V39.128H227.936ZM228.936 52H220.728V54H228.936V52ZM221.728 53V19.304H219.728V53H221.728ZM220.728 20.304H228.936V18.304H220.728V20.304ZM227.936 19.304V32.504H229.936V19.304H227.936ZM228.936 33.504H241.704V31.504H228.936V33.504ZM242.704 32.504V19.304H240.704V32.504H242.704ZM241.704 20.304H249.912V18.304H241.704V20.304ZM271.965 25.88V24.88H270.965V25.88H271.965ZM271.965 32.696H270.965V33.696H271.965V32.696ZM282.957 32.696H283.957V31.696H282.957V32.696ZM282.957 39.032V40.032H283.957V39.032H282.957ZM271.965 39.032V38.032H270.965V39.032H271.965ZM271.965 46.424H270.965V47.424H271.965V46.424ZM284.397 46.424H285.397V45.424H284.397V46.424ZM284.397 53V54H285.397V53H284.397ZM263.757 53H262.757V54H263.757V53ZM263.757 19.304V18.304H262.757V19.304H263.757ZM284.397 19.304H285.397V18.304H284.397V19.304ZM284.397 25.88V26.88H285.397V25.88H284.397ZM270.965 25.88V32.696H272.965V25.88H270.965ZM271.965 33.696H282.957V31.696H271.965V33.696ZM281.957 32.696V39.032H283.957V32.696H281.957ZM282.957 38.032H271.965V40.032H282.957V38.032ZM270.965 39.032V46.424H272.965V39.032H270.965ZM271.965 47.424H284.397V45.424H271.965V47.424ZM283.397 46.424V53H285.397V46.424H283.397ZM284.397 52H263.757V54H284.397V52ZM264.757 53V19.304H262.757V53H264.757ZM263.757 20.304H284.397V18.304H263.757V20.304ZM283.397 19.304V25.88H285.397V19.304H283.397ZM284.397 24.88H271.965V26.88H284.397V24.88ZM362.106 19.304L363.074 19.5563L363.4 18.304H362.106V19.304ZM353.322 53V54H354.095L354.29 53.2523L353.322 53ZM343.386 53L342.414 53.2356L342.599 54H343.386V53ZM338.01 30.824L338.982 30.5884L337.04 30.5805L338.01 30.824ZM332.442 53V54H333.222L333.412 53.2435L332.442 53ZM322.506 53L321.537 53.2458L321.728 54H322.506V53ZM313.962 19.304V18.304H312.677L312.993 19.5498L313.962 19.304ZM322.746 19.304L323.727 19.1101L323.568 18.304H322.746V19.304ZM327.594 43.832L326.613 44.0259L328.565 44.0696L327.594 43.832ZM333.594 19.304V18.304H332.809L332.622 19.0664L333.594 19.304ZM342.618 19.304L343.591 19.0754L343.41 18.304H342.618V19.304ZM348.378 43.832L347.404 44.0606L349.359 44.0277L348.378 43.832ZM353.274 19.304V18.304H352.454L352.293 19.1083L353.274 19.304ZM361.138 19.0517L352.354 52.7477L354.29 53.2523L363.074 19.5563L361.138 19.0517ZM353.322 52H343.386V54H353.322V52ZM344.358 52.7644L338.982 30.5884L337.038 31.0596L342.414 53.2356L344.358 52.7644ZM337.04 30.5805L331.472 52.7565L333.412 53.2435L338.98 31.0675L337.04 30.5805ZM332.442 52H322.506V54H332.442V52ZM323.475 52.7542L314.931 19.0582L312.993 19.5498L321.537 53.2458L323.475 52.7542ZM313.962 20.304H322.746V18.304H313.962V20.304ZM321.765 19.4979L326.613 44.0259L328.575 43.6381L323.727 19.1101L321.765 19.4979ZM328.565 44.0696L334.565 19.5416L332.622 19.0664L326.622 43.5944L328.565 44.0696ZM333.594 20.304H342.618V18.304H333.594V20.304ZM341.644 19.5326L347.404 44.0606L349.351 43.6034L343.591 19.0754L341.644 19.5326ZM349.359 44.0277L354.255 19.4997L352.293 19.1083L347.397 43.6363L349.359 44.0277ZM353.274 20.304H362.106V18.304H353.274V20.304ZM381.342 51.128L380.853 52.0002L380.858 52.0027L381.342 51.128ZM375.054 44.984L374.189 45.4846L374.192 45.4908L374.196 45.497L375.054 44.984ZM375.054 27.176L374.196 26.663L374.191 26.6708L375.054 27.176ZM381.342 21.032L380.858 20.1573L380.853 20.1599L381.342 21.032ZM398.766 21.032L398.277 21.9042L398.282 21.9067L398.766 21.032ZM405.006 27.176L404.139 27.6733L404.143 27.6812L405.006 27.176ZM405.006 44.984L405.869 45.4892L405.872 45.4846L405.006 44.984ZM398.766 51.128L399.256 52.0001L398.766 51.128ZM396.51 43.16L395.771 42.4866L395.764 42.494L396.51 43.16ZM396.51 28.952L395.764 29.618L395.771 29.625L395.777 29.6319L396.51 28.952ZM383.55 28.904L382.817 28.224L382.81 28.2313L383.55 28.904ZM383.55 43.208L382.804 43.874L382.811 43.881L382.817 43.8879L383.55 43.208ZM390.078 52.336C387.072 52.336 384.328 51.6395 381.827 50.2533L380.858 52.0027C383.668 53.5605 386.748 54.336 390.078 54.336V52.336ZM381.832 50.2559C379.362 48.8707 377.393 46.9476 375.913 44.471L374.196 45.497C375.852 48.2684 378.074 50.4413 380.853 52.0001L381.832 50.2559ZM375.92 44.4834C374.478 41.9908 373.75 39.1897 373.75 36.056H371.75C371.75 39.5143 372.558 42.6652 374.189 45.4846L375.92 44.4834ZM373.75 36.056C373.75 32.9222 374.478 30.1392 375.917 27.6812L374.191 26.6708C372.558 29.4608 371.75 32.5978 371.75 36.056H373.75ZM375.913 27.689C377.393 25.2124 379.362 23.2893 381.832 21.9041L380.853 20.1599C378.074 21.7187 375.852 23.8916 374.196 26.663L375.913 27.689ZM381.827 21.9067C384.328 20.5205 387.072 19.824 390.078 19.824V17.824C386.748 17.824 383.668 18.5995 380.858 20.1573L381.827 21.9067ZM390.078 19.824C393.084 19.824 395.81 20.5205 398.277 21.9041L399.256 20.1599C396.474 18.5995 393.408 17.824 390.078 17.824V19.824ZM398.282 21.9067C400.779 23.2905 402.726 25.2083 404.139 27.6733L405.874 26.6787C404.279 23.8957 402.066 21.7175 399.251 20.1573L398.282 21.9067ZM404.143 27.6812C405.582 30.1392 406.31 32.9222 406.31 36.056H408.31C408.31 32.5978 407.502 29.4608 405.869 26.6708L404.143 27.6812ZM406.31 36.056C406.31 39.1897 405.582 41.9908 404.141 44.4834L405.872 45.4846C407.502 42.6652 408.31 39.5143 408.31 36.056H406.31ZM404.143 44.4788C402.696 46.9512 400.744 48.8718 398.277 50.2559L399.256 52.0001C402.036 50.4402 404.245 48.2648 405.869 45.4892L404.143 44.4788ZM398.277 50.2559C395.81 51.6395 393.084 52.336 390.078 52.336V54.336C393.408 54.336 396.474 53.5605 399.256 52.0001L398.277 50.2559ZM390.078 46.848C393.013 46.848 395.443 45.8571 397.256 43.826L395.764 42.494C394.378 44.0469 392.519 44.848 390.078 44.848V46.848ZM397.25 43.8333C399.084 41.8195 399.958 39.1929 399.958 36.056H397.958C397.958 38.8071 397.201 40.9165 395.771 42.4867L397.25 43.8333ZM399.958 36.056C399.958 32.8912 399.086 30.2587 397.244 28.2721L395.777 29.6319C397.199 31.1653 397.958 33.2688 397.958 36.056H399.958ZM397.256 28.286C395.443 26.2549 393.013 25.264 390.078 25.264V27.264C392.519 27.264 394.378 28.0651 395.764 29.618L397.256 28.286ZM390.078 25.264C387.121 25.264 384.664 26.2318 382.817 28.2241L384.284 29.5839C385.7 28.0562 387.596 27.264 390.078 27.264V25.264ZM382.81 28.2313C381.002 30.2203 380.15 32.8675 380.15 36.056H382.15C382.15 33.2285 382.898 31.1077 384.29 29.5767L382.81 28.2313ZM380.15 36.056C380.15 39.2166 381.004 41.8578 382.804 43.874L384.296 42.542C382.896 40.9742 382.15 38.8474 382.15 36.056H380.15ZM382.817 43.8879C384.664 45.8802 387.121 46.848 390.078 46.848V44.848C387.596 44.848 385.7 44.0558 384.284 42.5281L382.817 43.8879ZM436.981 53L436.105 53.4826L436.39 54H436.981V53ZM429.973 40.28L430.848 39.7974L430.563 39.28H429.973V40.28ZM428.005 40.28V39.28H427.005V40.28H428.005ZM428.005 53V54H429.005V53H428.005ZM419.797 53H418.797V54H419.797V53ZM419.797 19.304V18.304H418.797V19.304H419.797ZM440.341 20.696L439.893 21.5904L439.9 21.5934L440.341 20.696ZM444.565 24.536L443.695 25.0303L443.7 25.0377L444.565 24.536ZM444.037 35.912L443.228 35.3238L443.221 35.3336L444.037 35.912ZM438.469 39.656L438.182 38.6978L436.965 39.0615L437.605 40.1595L438.469 39.656ZM446.245 53V54H447.985L447.109 52.4965L446.245 53ZM428.005 34.472H427.005V35.472H428.005V34.472ZM436.453 33.368L435.761 32.646L435.753 32.6534L435.746 32.6609L436.453 33.368ZM436.453 27.224L435.746 27.9311L435.753 27.9386L435.761 27.946L436.453 27.224ZM428.005 26.12V25.12H427.005V26.12H428.005ZM437.856 52.5174L430.848 39.7974L429.097 40.7626L436.105 53.4826L437.856 52.5174ZM429.973 39.28H428.005V41.28H429.973V39.28ZM427.005 40.28V53H429.005V40.28H427.005ZM428.005 52H419.797V54H428.005V52ZM420.797 53V19.304H418.797V53H420.797ZM419.797 20.304H433.573V18.304H419.797V20.304ZM433.573 20.304C436.116 20.304 438.21 20.7485 439.893 21.5904L440.788 19.8016C438.76 18.7875 436.342 18.304 433.573 18.304V20.304ZM439.9 21.5934C441.63 22.4441 442.878 23.5932 443.695 25.0303L445.434 24.0417C444.395 22.2148 442.827 20.8039 440.782 19.7985L439.9 21.5934ZM443.7 25.0377C444.533 26.4742 444.957 28.091 444.957 29.912H446.957C446.957 27.765 446.452 25.7978 445.43 24.0343L443.7 25.0377ZM444.957 29.912C444.957 31.9473 444.38 33.74 443.228 35.3238L444.845 36.5002C446.254 34.564 446.957 32.3567 446.957 29.912H444.957ZM443.221 35.3336C442.126 36.8782 440.475 38.013 438.182 38.6978L438.755 40.6142C441.39 39.827 443.452 38.4658 444.852 36.4904L443.221 35.3336ZM437.605 40.1595L445.381 53.5035L447.109 52.4965L439.333 39.1525L437.605 40.1595ZM446.245 52H436.981V54H446.245V52ZM428.005 35.472H433.093V33.472H428.005V35.472ZM433.093 35.472C434.743 35.472 436.166 35.0684 437.16 34.0751L435.746 32.6609C435.267 33.1396 434.45 33.472 433.093 33.472V35.472ZM437.145 34.09C438.158 33.1185 438.605 31.7885 438.605 30.248H436.605C436.605 31.3955 436.283 32.1455 435.761 32.646L437.145 34.09ZM438.605 30.248C438.605 28.7551 438.149 27.4643 437.145 26.502L435.761 27.946C436.293 28.4557 436.605 29.1809 436.605 30.248H438.605ZM437.16 26.5169C436.166 25.5236 434.743 25.12 433.093 25.12V27.12C434.45 27.12 435.267 27.4524 435.746 27.9311L437.16 26.5169ZM433.093 25.12H428.005V27.12H433.093V25.12ZM427.005 26.12V34.472H429.005V26.12H427.005ZM480.965 21.416L481.434 20.5325L480.965 21.416ZM487.109 27.368L486.238 27.8583L486.241 27.8648L486.245 27.8712L487.109 27.368ZM487.109 44.936L486.242 44.4375L486.238 44.4457L487.109 44.936ZM480.917 50.888L480.453 50.0022L480.449 50.0045L480.917 50.888ZM459.029 53H458.029V54H459.029V53ZM459.029 19.304V18.304H458.029V19.304H459.029ZM467.237 26.312V25.312H466.237V26.312H467.237ZM467.237 45.896H466.237V46.896H467.237V45.896ZM471.653 20.304C475.071 20.304 478.009 20.9808 480.497 22.2995L481.434 20.5325C478.609 19.0352 475.339 18.304 471.653 18.304V20.304ZM480.497 22.2995C482.988 23.62 484.894 25.4694 486.238 27.8583L487.981 26.8777C486.444 24.1466 484.255 22.028 481.434 20.5325L480.497 22.2995ZM486.245 27.8712C487.616 30.2263 488.317 32.976 488.317 36.152H490.317C490.317 32.672 489.546 29.5657 487.973 26.8648L486.245 27.8712ZM488.317 36.152C488.317 39.2938 487.617 42.0462 486.242 44.4375L487.976 45.4345C489.545 42.7058 490.317 39.6022 490.317 36.152H488.317ZM486.238 44.4457C484.896 46.8315 482.976 48.6807 480.453 50.0022L481.381 51.7738C484.234 50.2793 486.443 48.1605 487.981 45.4263L486.238 44.4457ZM480.449 50.0045C477.96 51.3239 475.038 52 471.653 52V54C475.308 54 478.562 53.2681 481.385 51.7715L480.449 50.0045ZM471.653 52H459.029V54H471.653V52ZM460.029 53V19.304H458.029V53H460.029ZM459.029 20.304H471.653V18.304H459.029V20.304ZM471.125 46.896C474.414 46.896 477.11 45.9929 479.074 44.0657L477.673 42.6383C476.18 44.1031 474.044 44.896 471.125 44.896V46.896ZM479.074 44.0657C481.043 42.1324 481.965 39.4449 481.965 36.152H479.965C479.965 39.0671 479.159 41.1796 477.673 42.6383L479.074 44.0657ZM481.965 36.152C481.965 32.8581 481.043 30.1597 479.08 28.1969L477.666 29.6111C479.159 31.1043 479.965 33.2379 479.965 36.152H481.965ZM479.08 28.1969C477.117 26.2341 474.419 25.312 471.125 25.312V27.312C474.039 27.312 476.173 28.1179 477.666 29.6111L479.08 28.1969ZM471.125 25.312H467.237V27.312H471.125V25.312ZM466.237 26.312V45.896H468.237V26.312H466.237ZM467.237 46.896H471.125V44.896H467.237V46.896ZM507.392 52.136L507.013 53.0613L507.392 52.136ZM502.688 48.584L501.882 49.1761L501.89 49.1866L502.688 48.584ZM500.864 42.92V41.92H499.835L499.865 42.949L500.864 42.92ZM509.6 42.92L510.595 42.818L510.503 41.92H509.6V42.92ZM510.896 45.8L510.222 46.5385L510.231 46.5467L510.24 46.5546L510.896 45.8ZM516.656 45.944L517.268 46.7353L517.279 46.7268L517.289 46.718L516.656 45.944ZM516.848 41.528L516.141 42.2351L516.151 42.2452L516.161 42.255L516.848 41.528ZM514.784 40.184L514.381 41.0993L514.388 41.1022L514.394 41.105L514.784 40.184ZM511.328 38.984L511.033 39.9395L511.043 39.9424L511.328 38.984ZM502.448 33.992L503.246 33.3889L502.448 33.992ZM504.368 21.512L504.981 22.3026L504.987 22.2972L504.368 21.512ZM522.224 21.512L521.605 22.2972L521.612 22.3025L522.224 21.512ZM525.872 28.904V29.904H526.924L526.871 28.8536L525.872 28.904ZM516.992 28.904L515.994 28.9627L516.049 29.904H516.992V28.904ZM515.792 26.36L515.136 27.1146L515.145 27.1229L515.155 27.131L515.792 26.36ZM510.56 26.216L511.204 26.9809L511.216 26.9712L511.227 26.9612L510.56 26.216ZM511.184 31.016L511.695 30.1561L511.184 31.016ZM515.984 32.984L516.305 32.0366L516.292 32.0326L515.984 32.984ZM521.264 35.096L520.817 35.9905L520.825 35.9946L521.264 35.096ZM524.816 38.024L524.026 38.6366L524.816 38.024ZM524.816 48.2L523.971 47.6654L523.967 47.6716L523.963 47.6778L524.816 48.2ZM520.592 51.944L520.145 51.0496L520.592 51.944ZM514.016 52.336C511.661 52.336 509.585 51.9538 507.771 51.2107L507.013 53.0613C509.104 53.9182 511.444 54.336 514.016 54.336V52.336ZM507.771 51.2107C505.973 50.4735 504.554 49.3956 503.486 47.9814L501.89 49.1866C503.19 50.9084 504.908 52.1985 507.013 53.0613L507.771 51.2107ZM503.494 47.9919C502.478 46.6091 501.923 44.9245 501.864 42.891L499.865 42.949C499.934 45.3315 500.594 47.4229 501.882 49.1761L503.494 47.9919ZM500.864 43.92H509.6V41.92H500.864V43.92ZM508.605 43.022C508.752 44.4488 509.261 45.6613 510.222 46.5385L511.57 45.0615C511.059 44.5947 510.705 43.8872 510.595 42.818L508.605 43.022ZM510.24 46.5546C511.195 47.385 512.405 47.76 513.776 47.76V45.76C512.779 45.76 512.069 45.495 511.552 45.0454L510.24 46.5546ZM513.776 47.76C515.133 47.76 516.334 47.4566 517.268 46.7353L516.045 45.1527C515.57 45.5194 514.851 45.76 513.776 45.76V47.76ZM517.289 46.718C518.248 45.9333 518.712 44.853 518.712 43.592H516.712C516.712 44.315 516.472 44.8027 516.023 45.17L517.289 46.718ZM518.712 43.592C518.712 42.5004 518.322 41.5443 517.535 40.801L516.161 42.255C516.526 42.5997 516.712 43.0196 516.712 43.592H518.712ZM517.555 40.8209C516.906 40.1714 516.104 39.6566 515.174 39.263L514.394 41.105C515.128 41.4154 515.702 41.7966 516.141 42.2351L517.555 40.8209ZM515.187 39.2687C514.33 38.8917 513.132 38.4778 511.614 38.0256L511.043 39.9424C512.533 40.3862 513.638 40.7723 514.381 41.0993L515.187 39.2687ZM511.623 38.0285C509.475 37.3652 507.752 36.7107 506.439 36.0694L505.561 37.8666C507 38.5693 508.829 39.2588 511.033 39.9395L511.623 38.0285ZM506.439 36.0694C505.214 35.4714 504.15 34.5851 503.246 33.3889L501.65 34.5951C502.73 36.0229 504.034 37.1206 505.561 37.8666L506.439 36.0694ZM503.246 33.3889C502.418 32.2944 501.96 30.8126 501.96 28.856H499.96C499.96 31.1234 500.494 33.0656 501.65 34.5951L503.246 33.3889ZM501.96 28.856C501.96 25.9968 502.978 23.8541 504.98 22.3025L503.756 20.7214C501.215 22.6899 499.96 25.4432 499.96 28.856H501.96ZM504.987 22.2972C507.041 20.6772 509.765 19.824 513.248 19.824V17.824C509.435 17.824 506.239 18.7628 503.749 20.7268L504.987 22.2972ZM513.248 19.824C516.8 19.824 519.554 20.6795 521.605 22.2972L522.843 20.7268C520.35 18.7605 517.12 17.824 513.248 17.824V19.824ZM521.612 22.3025C523.628 23.8641 524.726 26.0437 524.873 28.9544L526.871 28.8536C526.698 25.4283 525.365 22.6799 522.836 20.7214L521.612 22.3025ZM525.872 27.904H516.992V29.904H525.872V27.904ZM517.99 28.8453C517.913 27.5232 517.41 26.3997 516.429 25.589L515.155 27.131C515.646 27.5363 515.944 28.1088 515.994 28.9627L517.99 28.8453ZM516.448 25.6054C515.498 24.7794 514.307 24.4 512.96 24.4V26.4C513.917 26.4 514.614 26.6606 515.136 27.1146L516.448 25.6054ZM512.96 24.4C511.778 24.4 510.722 24.729 509.893 25.4708L511.227 26.9612C511.614 26.615 512.158 26.4 512.96 26.4V24.4ZM509.916 25.4511C509.028 26.199 508.648 27.2646 508.648 28.472H510.648C510.648 27.6954 510.876 27.257 511.204 26.9809L509.916 25.4511ZM508.648 28.472C508.648 29.9514 509.381 31.1083 510.674 31.8759L511.695 30.1561C510.939 29.7077 510.648 29.1686 510.648 28.472H508.648ZM510.674 31.8759C511.796 32.5422 513.482 33.2254 515.676 33.9354L516.292 32.0326C514.135 31.3346 512.62 30.7058 511.695 30.1561L510.674 31.8759ZM515.664 33.9313C517.816 34.6594 519.529 35.3466 520.817 35.9904L521.711 34.2016C520.311 33.5014 518.504 32.7806 516.305 32.0367L515.664 33.9313ZM520.825 35.9946C522.056 36.5955 523.122 37.4704 524.026 38.6366L525.607 37.4114C524.526 36.0176 523.224 34.9405 521.703 34.1974L520.825 35.9946ZM524.026 38.6366C524.851 39.702 525.304 41.1184 525.304 42.968H527.304C527.304 40.7856 526.765 38.906 525.607 37.4114L524.026 38.6366ZM525.304 42.968C525.304 44.7057 524.858 46.2631 523.971 47.6654L525.661 48.7346C526.758 47.0009 527.304 45.0703 527.304 42.968H525.304ZM523.963 47.6778C523.113 49.0664 521.856 50.1942 520.145 51.0496L521.039 52.8384C523.041 51.8378 524.599 50.4696 525.669 48.7222L523.963 47.6778ZM520.145 51.0496C518.455 51.8946 516.422 52.336 514.016 52.336V54.336C516.666 54.336 519.017 53.8494 521.039 52.8384L520.145 51.0496ZM539.563 52.136L538.869 52.8558L538.882 52.8684L538.896 52.8806L539.563 52.136ZM539.563 45.752L538.882 45.0201L538.876 45.0261L538.869 45.0322L539.563 45.752ZM546.571 45.752L545.877 46.4718L545.884 46.4779L545.89 46.4839L546.571 45.752ZM546.571 52.136L547.252 52.8688L547.253 52.8679L546.571 52.136ZM543.115 52.384C541.881 52.384 540.947 52.0336 540.231 51.3914L538.896 52.8806C540.036 53.9024 541.47 54.384 543.115 54.384V52.384ZM540.258 51.4162C539.558 50.7412 539.219 49.9453 539.219 48.968H537.219C537.219 50.4867 537.777 51.8028 538.869 52.8558L540.258 51.4162ZM539.219 48.968C539.219 47.9509 539.563 47.1414 540.258 46.4718L538.869 45.0322C537.772 46.0906 537.219 47.4251 537.219 48.968H539.219ZM540.245 46.4839C540.962 45.8158 541.891 45.456 543.115 45.456V43.456C541.459 43.456 540.02 43.9602 538.882 45.0201L540.245 46.4839ZM543.115 45.456C544.301 45.456 545.193 45.8116 545.877 46.4718L547.266 45.0322C546.158 43.9644 544.745 43.456 543.115 43.456V45.456ZM545.89 46.4839C546.613 47.1567 546.963 47.9626 546.963 48.968H548.963C548.963 47.4134 548.386 46.0753 547.253 45.0201L545.89 46.4839ZM546.963 48.968C546.963 49.9334 546.618 50.7258 545.89 51.4041L547.253 52.8679C548.38 51.8182 548.963 50.4986 548.963 48.968H546.963ZM545.891 51.4032C545.208 52.0375 544.312 52.384 543.115 52.384V54.384C544.735 54.384 546.143 53.8985 547.252 52.8688L545.891 51.4032Z" fill="black" fill-opacity="0.5"/>
</g>
<g filter="url(#filter1_i_48_16)">
<circle cx="337.5" cy="313.5" r="14.5" transform="rotate(180 337.5 313.5)" fill="url(#paint1_linear_48_16)"/>
</g>
<circle cx="337.5" cy="313.5" r="12" transform="rotate(180 337.5 313.5)" stroke="url(#paint2_linear_48_16)" stroke-width="5"/>
<g filter="url(#filter2_i_48_16)">
<circle cx="292.5" cy="313.5" r="14.5" transform="rotate(180 292.5 313.5)" fill="url(#paint3_linear_48_16)"/>
</g>
<circle cx="292.5" cy="313.5" r="12" transform="rotate(180 292.5 313.5)" stroke="url(#paint4_linear_48_16)" stroke-width="5"/>
<g filter="url(#filter3_d_48_16)">
<circle cx="247.5" cy="313.5" r="14.5" transform="rotate(180 247.5 313.5)" fill="url(#paint5_linear_48_16)" shape-rendering="crispEdges"/>
<circle cx="247.5" cy="313.5" r="7.5" transform="rotate(180 247.5 313.5)" stroke="url(#paint6_linear_48_16)" stroke-width="14" shape-rendering="crispEdges"/>
</g>
<defs>
<filter id="filter0_d_48_16" x="0.129745" y="8.82397" width="590.834" height="84.5601" filterUnits="userSpaceOnUse" color-interpolation-filters="sRGB">
<feFlood flood-opacity="0" result="BackgroundImageFix"/>
<feColorMatrix in="SourceAlpha" type="matrix" values="0 0 0 0 0 0 0 0 0 0 0 0 0 0 0 0 0 0 127 0" result="hardAlpha"/>
<feOffset dx="18" dy="15"/>
<feGaussianBlur stdDeviation="12.5"/>
<feComposite in2="hardAlpha" operator="out"/>
<feColorMatrix type="matrix" values="0 0 0 0 0 0 0 0 0 0 0 0 0 0 0 0 0 0 0.57 0"/>
<feBlend mode="normal" in2="BackgroundImageFix" result="effect1_dropShadow_48_16"/>
<feBlend mode="normal" in="SourceGraphic" in2="effect1_dropShadow_48_16" result="shape"/>
</filter>
<filter id="filter1_i_48_16" x="323" y="299" width="47" height="44" filterUnits="userSpaceOnUse" color-interpolation-filters="sRGB">
<feFlood flood-opacity="0" result="BackgroundImageFix"/>
<feBlend mode="normal" in="SourceGraphic" in2="BackgroundImageFix" result="shape"/>
<feColorMatrix in="SourceAlpha" type="matrix" values="0 0 0 0 0 0 0 0 0 0 0 0 0 0 0 0 0 0 127 0" result="hardAlpha"/>
<feOffset dx="18" dy="15"/>
<feGaussianBlur stdDeviation="12.5"/>
<feComposite in2="hardAlpha" operator="arithmetic" k2="-1" k3="1"/>
<feColorMatrix type="matrix" values="0 0 0 0 0 0 0 0 0 0 0 0 0 0 0 0 0 0 0.57 0"/>
<feBlend mode="normal" in2="shape" result="effect1_innerShadow_48_16"/>
</filter>
<filter id="filter2_i_48_16" x="278" y="299" width="47" height="44" filterUnits="userSpaceOnUse" color-interpolation-filters="sRGB">
<feFlood flood-opacity="0" result="BackgroundImageFix"/>
<feBlend mode="normal" in="SourceGraphic" in2="BackgroundImageFix" result="shape"/>
<feColorMatrix in="SourceAlpha" type="matrix" values="0 0 0 0 0 0 0 0 0 0 0 0 0 0 0 0 0 0 127 0" result="hardAlpha"/>
<feOffset dx="18" dy="15"/>
<feGaussianBlur stdDeviation="12.5"/>
<feComposite in2="hardAlpha" operator="arithmetic" k2="-1" k3="1"/>
<feColorMatrix type="matrix" values="0 0 0 0 0 0 0 0 0 0 0 0 0 0 0 0 0 0 0.57 0"/>
<feBlend mode="normal" in2="shape" result="effect1_innerShadow_48_16"/>
</filter>
<filter id="filter3_d_48_16" x="226" y="289" width="79" height="79" filterUnits="userSpaceOnUse" color-interpolation-filters="sRGB">
<feFlood flood-opacity="0" result="BackgroundImageFix"/>
<feColorMatrix in="SourceAlpha" type="matrix" values="0 0 0 0 0 0 0 0 0 0 0 0 0 0 0 0 0 0 127 0" result="hardAlpha"/>
<feOffset dx="18" dy="15"/>
<feGaussianBlur stdDeviation="12.5"/>
<feComposite in2="hardAlpha" operator="out"/>
<feColorMatrix type="matrix" values="0 0 0 0 0 0 0 0 0 0 0 0 0 0 0 0 0 0 0.57 0"/>
<feBlend mode="normal" in2="BackgroundImageFix" result="effect1_dropShadow_48_16"/>
<feBlend mode="normal" in="SourceGraphic" in2="effect1_dropShadow_48_16" result="shape"/>
</filter>
<linearGradient id="paint0_linear_48_16" x1="18.2408" y1="2.83817" x2="134.59" y2="257.099" gradientUnits="userSpaceOnUse">
<stop stop-color="#FB37FF"/>
<stop offset="0.421875" stop-color="#9B6FEE"/>
<stop offset="0.682292" stop-color="#18B2DE"/>
<stop offset="1" stop-color="#7B7FEA" stop-opacity="0"/>
</linearGradient>
<linearGradient id="paint1_linear_48_16" x1="323.66" y1="299.963" x2="356.593" y2="309.189" gradientUnits="userSpaceOnUse">
<stop stop-color="#3A81BF"/>
<stop offset="1" stop-color="#41305A" stop-opacity="0.03"/>
</linearGradient>
<linearGradient id="paint2_linear_48_16" x1="323.756" y1="300.143" x2="356.712" y2="309.64" gradientUnits="userSpaceOnUse">
<stop stop-color="#FB37FF"/>
<stop offset="0.425065" stop-color="#9B6FEE"/>
<stop offset="0.519704" stop-color="#7B7FEA" stop-opacity="0"/>
<stop offset="1" stop-color="#18B2DE"/>
</linearGradient>
<linearGradient id="paint3_linear_48_16" x1="278.66" y1="299.963" x2="311.593" y2="309.189" gradientUnits="userSpaceOnUse">
<stop stop-color="#3A81BF"/>
<stop offset="1" stop-color="#41305A" stop-opacity="0.03"/>
</linearGradient>
<linearGradient id="paint4_linear_48_16" x1="278.756" y1="300.143" x2="311.712" y2="309.64" gradientUnits="userSpaceOnUse">
<stop stop-color="#FB37FF"/>
<stop offset="0.425065" stop-color="#9B6FEE"/>
<stop offset="0.519704" stop-color="#7B7FEA" stop-opacity="0"/>
<stop offset="1" stop-color="#18B2DE"/>
</linearGradient>
<linearGradient id="paint5_linear_48_16" x1="233.66" y1="299.963" x2="266.593" y2="309.189" gradientUnits="userSpaceOnUse">
<stop stop-color="#3A81BF"/>
<stop offset="1" stop-color="#41305A" stop-opacity="0.03"/>
</linearGradient>
<linearGradient id="paint6_linear_48_16" x1="233.756" y1="300.143" x2="266.712" y2="309.64" gradientUnits="userSpaceOnUse">
<stop stop-color="#FB37FF"/>
<stop offset="0.425065" stop-color="#9B6FEE"/>
<stop offset="0.519704" stop-color="#7B7FEA" stop-opacity="0"/>
<stop offset="1" stop-color="#18B2DE"/>
</linearGradient>
</defs>
</svg>
