<svg width="975" height="370" viewBox="0 0 975 370" fill="none" xmlns="http://www.w3.org/2000/svg">
<g filter="url(#filter0_d_48_17)">
<path d="M7.04588 36.104C7.04588 32.776 7.76588 29.816 9.20588 27.224C10.6459 24.6 12.6459 22.568 15.2059 21.128C17.7979 19.656 20.7259 18.92 23.9899 18.92C27.9899 18.92 31.4139 19.976 34.2619 22.088C37.1099 24.2 39.0139 27.08 39.9739 30.728H30.9499C30.2779 29.32 29.3179 28.248 28.0699 27.512C26.8539 26.776 25.4619 26.408 23.8939 26.408C21.3659 26.408 19.3179 27.288 17.7499 29.048C16.1819 30.808 15.3979 33.16 15.3979 36.104C15.3979 39.048 16.1819 41.4 17.7499 43.16C19.3179 44.92 21.3659 45.8 23.8939 45.8C25.4619 45.8 26.8539 45.432 28.0699 44.696C29.3179 43.96 30.2779 42.888 30.9499 41.48H39.9739C39.0139 45.128 37.1099 48.008 34.2619 50.12C31.4139 52.2 27.9899 53.24 23.9899 53.24C20.7259 53.24 17.7979 52.52 15.2059 51.08C12.6459 49.608 10.6459 47.576 9.20588 44.984C7.76588 42.392 7.04588 39.432 7.04588 36.104ZM61.1284 46.664H71.8804V53H52.9204V19.304H61.1284V46.664ZM91.9234 19.304V53H83.7154V19.304H91.9234ZM104.4 36.104C104.4 32.776 105.12 29.816 106.56 27.224C108 24.6 110 22.568 112.56 21.128C115.152 19.656 118.08 18.92 121.344 18.92C125.344 18.92 128.768 19.976 131.616 22.088C134.464 24.2 136.368 27.08 137.328 30.728H128.304C127.632 29.32 126.672 28.248 125.424 27.512C124.208 26.776 122.816 26.408 121.248 26.408C118.72 26.408 116.672 27.288 115.104 29.048C113.536 30.808 112.752 33.16 112.752 36.104C112.752 39.048 113.536 41.4 115.104 43.16C116.672 44.92 118.72 45.8 121.248 45.8C122.816 45.8 124.208 45.432 125.424 44.696C126.672 43.96 127.632 42.888 128.304 41.48H137.328C136.368 45.128 134.464 48.008 131.616 50.12C128.768 52.2 125.344 53.24 121.344 53.24C118.08 53.24 115.152 52.52 112.56 51.08C110 49.608 108 47.576 106.56 44.984C105.12 42.392 104.4 39.432 104.4 36.104ZM169.81 53L158.482 38.12V53H150.274V19.304H158.482V34.088L169.714 19.304H179.362L166.306 35.816L179.842 53H169.81ZM234.091 39.896H225.739V48.44H217.963V39.896H209.611V32.552H217.963V23.96H225.739V32.552H234.091V39.896ZM287.843 19.304V25.88H274.115V32.984H284.387V39.368H274.115V53H265.907V19.304H287.843ZM316.013 53.336C312.845 53.336 309.933 52.6 307.277 51.128C304.653 49.656 302.557 47.608 300.989 44.984C299.453 42.328 298.685 39.352 298.685 36.056C298.685 32.76 299.453 29.8 300.989 27.176C302.557 24.552 304.653 22.504 307.277 21.032C309.933 19.56 312.845 18.824 316.013 18.824C319.181 18.824 322.077 19.56 324.701 21.032C327.357 22.504 329.437 24.552 330.941 27.176C332.477 29.8 333.245 32.76 333.245 36.056C333.245 39.352 332.477 42.328 330.941 44.984C329.405 47.608 327.325 49.656 324.701 51.128C322.077 52.6 319.181 53.336 316.013 53.336ZM316.013 45.848C318.701 45.848 320.845 44.952 322.445 43.16C324.077 41.368 324.893 39 324.893 36.056C324.893 33.08 324.077 30.712 322.445 28.952C320.845 27.16 318.701 26.264 316.013 26.264C313.293 26.264 311.117 27.144 309.485 28.904C307.885 30.664 307.085 33.048 307.085 36.056C307.085 39.032 307.885 41.416 309.485 43.208C311.117 44.968 313.293 45.848 316.013 45.848ZM362.916 53L355.908 40.28H353.94V53H345.732V19.304H359.508C362.164 19.304 364.42 19.768 366.276 20.696C368.164 21.624 369.572 22.904 370.5 24.536C371.428 26.136 371.892 27.928 371.892 29.912C371.892 32.152 371.252 34.152 369.972 35.912C368.724 37.672 366.868 38.92 364.404 39.656L372.18 53H362.916ZM353.94 34.472H359.028C360.532 34.472 361.652 34.104 362.388 33.368C363.156 32.632 363.54 31.592 363.54 30.248C363.54 28.968 363.156 27.96 362.388 27.224C361.652 26.488 360.532 26.12 359.028 26.12H353.94V34.472ZM428.736 30.152C428.736 32.104 428.288 33.896 427.392 35.528C426.496 37.128 425.12 38.424 423.264 39.416C421.408 40.408 419.104 40.904 416.352 40.904H411.264V53H403.056V19.304H416.352C419.04 19.304 421.312 19.768 423.168 20.696C425.024 21.624 426.416 22.904 427.344 24.536C428.272 26.168 428.736 28.04 428.736 30.152ZM415.728 34.376C417.296 34.376 418.464 34.008 419.232 33.272C420 32.536 420.384 31.496 420.384 30.152C420.384 28.808 420 27.768 419.232 27.032C418.464 26.296 417.296 25.928 415.728 25.928H411.264V34.376H415.728ZM456.865 53.336C453.697 53.336 450.785 52.6 448.129 51.128C445.505 49.656 443.409 47.608 441.841 44.984C440.305 42.328 439.537 39.352 439.537 36.056C439.537 32.76 440.305 29.8 441.841 27.176C443.409 24.552 445.505 22.504 448.129 21.032C450.785 19.56 453.697 18.824 456.865 18.824C460.033 18.824 462.929 19.56 465.553 21.032C468.209 22.504 470.289 24.552 471.793 27.176C473.329 29.8 474.097 32.76 474.097 36.056C474.097 39.352 473.329 42.328 471.793 44.984C470.257 47.608 468.177 49.656 465.553 51.128C462.929 52.6 460.033 53.336 456.865 53.336ZM456.865 45.848C459.553 45.848 461.697 44.952 463.297 43.16C464.929 41.368 465.745 39 465.745 36.056C465.745 33.08 464.929 30.712 463.297 28.952C461.697 27.16 459.553 26.264 456.865 26.264C454.145 26.264 451.969 27.144 450.337 28.904C448.737 30.664 447.937 33.048 447.937 36.056C447.937 39.032 448.737 41.416 450.337 43.208C451.969 44.968 454.145 45.848 456.865 45.848ZM498.776 53.336C496.312 53.336 494.104 52.936 492.152 52.136C490.2 51.336 488.632 50.152 487.448 48.584C486.296 47.016 485.688 45.128 485.624 42.92H494.36C494.488 44.168 494.92 45.128 495.656 45.8C496.392 46.44 497.352 46.76 498.536 46.76C499.752 46.76 500.712 46.488 501.416 45.944C502.12 45.368 502.472 44.584 502.472 43.592C502.472 42.76 502.184 42.072 501.608 41.528C501.064 40.984 500.376 40.536 499.544 40.184C498.744 39.832 497.592 39.432 496.088 38.984C493.912 38.312 492.136 37.64 490.76 36.968C489.384 36.296 488.2 35.304 487.208 33.992C486.216 32.68 485.72 30.968 485.72 28.856C485.72 25.72 486.856 23.272 489.128 21.512C491.4 19.72 494.36 18.824 498.008 18.824C501.72 18.824 504.712 19.72 506.984 21.512C509.256 23.272 510.472 25.736 510.632 28.904H501.752C501.688 27.816 501.288 26.968 500.552 26.36C499.816 25.72 498.872 25.4 497.72 25.4C496.728 25.4 495.928 25.672 495.32 26.216C494.712 26.728 494.408 27.48 494.408 28.472C494.408 29.56 494.92 30.408 495.944 31.016C496.968 31.624 498.568 32.28 500.744 32.984C502.92 33.72 504.68 34.424 506.024 35.096C507.4 35.768 508.584 36.744 509.576 38.024C510.568 39.304 511.064 40.952 511.064 42.968C511.064 44.888 510.568 46.632 509.576 48.2C508.616 49.768 507.208 51.016 505.352 51.944C503.496 52.872 501.304 53.336 498.776 53.336ZM532.243 19.304V53H524.035V19.304H532.243ZM570.351 19.304V25.88H561.423V53H553.215V25.88H544.287V19.304H570.351ZM590.598 19.304V53H582.39V19.304H590.598ZM636.099 19.304L624.147 53H613.875L601.923 19.304H610.659L619.011 44.744L627.411 19.304H636.099ZM655.657 25.88V32.696H666.649V39.032H655.657V46.424H668.089V53H647.449V19.304H668.089V25.88H655.657ZM745.798 19.304L737.014 53H727.078L721.702 30.824L716.134 53H706.198L697.654 19.304H706.438L711.286 43.832L717.286 19.304H726.31L732.07 43.832L736.966 19.304H745.798ZM773.77 53.336C770.602 53.336 767.69 52.6 765.034 51.128C762.41 49.656 760.314 47.608 758.746 44.984C757.21 42.328 756.442 39.352 756.442 36.056C756.442 32.76 757.21 29.8 758.746 27.176C760.314 24.552 762.41 22.504 765.034 21.032C767.69 19.56 770.602 18.824 773.77 18.824C776.938 18.824 779.834 19.56 782.458 21.032C785.114 22.504 787.194 24.552 788.698 27.176C790.234 29.8 791.002 32.76 791.002 36.056C791.002 39.352 790.234 42.328 788.698 44.984C787.162 47.608 785.082 49.656 782.458 51.128C779.834 52.6 776.938 53.336 773.77 53.336ZM773.77 45.848C776.458 45.848 778.602 44.952 780.202 43.16C781.834 41.368 782.65 39 782.65 36.056C782.65 33.08 781.834 30.712 780.202 28.952C778.602 27.16 776.458 26.264 773.77 26.264C771.05 26.264 768.874 27.144 767.242 28.904C765.642 30.664 764.842 33.048 764.842 36.056C764.842 39.032 765.642 41.416 767.242 43.208C768.874 44.968 771.05 45.848 773.77 45.848ZM820.672 53L813.664 40.28H811.696V53H803.488V19.304H817.264C819.92 19.304 822.176 19.768 824.032 20.696C825.92 21.624 827.328 22.904 828.256 24.536C829.184 26.136 829.648 27.928 829.648 29.912C829.648 32.152 829.008 34.152 827.728 35.912C826.48 37.672 824.624 38.92 822.16 39.656L829.936 53H820.672ZM811.696 34.472H816.784C818.288 34.472 819.408 34.104 820.144 33.368C820.912 32.632 821.296 31.592 821.296 30.248C821.296 28.968 820.912 27.96 820.144 27.224C819.408 26.488 818.288 26.12 816.784 26.12H811.696V34.472ZM855.345 19.304C858.897 19.304 862.001 20.008 864.657 21.416C867.313 22.824 869.361 24.808 870.801 27.368C872.273 29.896 873.009 32.824 873.009 36.152C873.009 39.448 872.273 42.376 870.801 44.936C869.361 47.496 867.297 49.48 864.609 50.888C861.953 52.296 858.865 53 855.345 53H842.721V19.304H855.345ZM854.817 45.896C857.921 45.896 860.337 45.048 862.065 43.352C863.793 41.656 864.657 39.256 864.657 36.152C864.657 33.048 863.793 30.632 862.065 28.904C860.337 27.176 857.921 26.312 854.817 26.312H850.929V45.896H854.817ZM897.708 53.336C895.244 53.336 893.036 52.936 891.084 52.136C889.132 51.336 887.564 50.152 886.38 48.584C885.228 47.016 884.62 45.128 884.556 42.92H893.292C893.42 44.168 893.852 45.128 894.588 45.8C895.324 46.44 896.284 46.76 897.468 46.76C898.684 46.76 899.644 46.488 900.348 45.944C901.052 45.368 901.404 44.584 901.404 43.592C901.404 42.76 901.116 42.072 900.54 41.528C899.996 40.984 899.308 40.536 898.476 40.184C897.676 39.832 896.524 39.432 895.02 38.984C892.844 38.312 891.068 37.64 889.692 36.968C888.316 36.296 887.132 35.304 886.14 33.992C885.148 32.68 884.652 30.968 884.652 28.856C884.652 25.72 885.788 23.272 888.06 21.512C890.332 19.72 893.292 18.824 896.94 18.824C900.652 18.824 903.644 19.72 905.916 21.512C908.188 23.272 909.404 25.736 909.564 28.904H900.684C900.62 27.816 900.22 26.968 899.484 26.36C898.748 25.72 897.804 25.4 896.652 25.4C895.66 25.4 894.86 25.672 894.252 26.216C893.644 26.728 893.34 27.48 893.34 28.472C893.34 29.56 893.852 30.408 894.876 31.016C895.9 31.624 897.5 32.28 899.676 32.984C901.852 33.72 903.612 34.424 904.956 35.096C906.332 35.768 907.516 36.744 908.508 38.024C909.5 39.304 909.996 40.952 909.996 42.968C909.996 44.888 909.5 46.632 908.508 48.2C907.548 49.768 906.14 51.016 904.284 51.944C902.428 52.872 900.236 53.336 897.708 53.336ZM926.807 53.384C925.367 53.384 924.183 52.968 923.255 52.136C922.359 51.272 921.911 50.216 921.911 48.968C921.911 47.688 922.359 46.616 923.255 45.752C924.183 44.888 925.367 44.456 926.807 44.456C928.215 44.456 929.367 44.888 930.263 45.752C931.191 46.616 931.655 47.688 931.655 48.968C931.655 50.216 931.191 51.272 930.263 52.136C929.367 52.968 928.215 53.384 926.807 53.384Z" fill="url(#paint0_linear_48_17)" shape-rendering="crispEdges"/>
<path d="M9.20588 27.224L10.0801 27.7097L10.0826 27.7051L9.20588 27.224ZM15.2059 21.128L15.6961 21.9996L15.6997 21.9976L15.2059 21.128ZM34.2619 22.088L34.8575 21.2848L34.2619 22.088ZM39.9739 30.728V31.728H41.2711L40.941 30.4735L39.9739 30.728ZM30.9499 30.728L30.0474 31.1587L30.3191 31.728H30.9499V30.728ZM28.0699 27.512L27.552 28.3676L27.5619 28.3734L28.0699 27.512ZM17.7499 29.048L18.4965 29.7132L17.7499 29.048ZM28.0699 44.696L27.5619 43.8346L27.5521 43.8405L28.0699 44.696ZM30.9499 41.48V40.48H30.3191L30.0474 41.0493L30.9499 41.48ZM39.9739 41.48L40.941 41.7345L41.2711 40.48H39.9739V41.48ZM34.2619 50.12L34.8517 50.9276L34.8575 50.9232L34.2619 50.12ZM15.2059 51.08L14.7074 51.9469L14.7138 51.9506L14.7202 51.9542L15.2059 51.08ZM9.20588 44.984L10.08 44.4984L9.20588 44.984ZM8.04588 36.104C8.04588 32.9248 8.73228 30.1356 10.08 27.7096L8.33173 26.7384C6.79949 29.4964 6.04588 32.6272 6.04588 36.104H8.04588ZM10.0826 27.7051C11.4345 25.2415 13.3021 23.3462 15.6961 21.9996L14.7156 20.2564C11.9897 21.7898 9.85723 23.9585 8.32922 26.7429L10.0826 27.7051ZM15.6997 21.9976C18.1271 20.619 20.8821 19.92 23.9899 19.92V17.92C20.5697 17.92 17.4686 18.693 14.7121 20.2584L15.6997 21.9976ZM23.9899 19.92C27.8041 19.92 31.0123 20.9231 33.6662 22.8912L34.8575 21.2848C31.8155 19.0288 28.1756 17.92 23.9899 17.92V19.92ZM33.6662 22.8912C36.3195 24.8588 38.1007 27.5392 39.0068 30.9825L40.941 30.4735C39.9271 26.6208 37.9003 23.5412 34.8575 21.2848L33.6662 22.8912ZM39.9739 29.728H30.9499V31.728H39.9739V29.728ZM31.8524 30.2973C31.1016 28.7241 30.0106 27.4956 28.5779 26.6506L27.5619 28.3734C28.6252 29.0004 29.4542 29.9159 30.0474 31.1587L31.8524 30.2973ZM28.5877 26.6565C27.1997 25.8164 25.625 25.408 23.8939 25.408V27.408C25.2987 27.408 26.5081 27.7356 27.5521 28.3675L28.5877 26.6565ZM23.8939 25.408C21.1039 25.408 18.7759 26.393 17.0032 28.3828L18.4965 29.7132C19.8598 28.183 21.6278 27.408 23.8939 27.408V25.408ZM17.0032 28.3828C15.2343 30.3683 14.3979 32.9781 14.3979 36.104H16.3979C16.3979 33.3419 17.1295 31.2477 18.4965 29.7132L17.0032 28.3828ZM14.3979 36.104C14.3979 39.2299 15.2343 41.8397 17.0032 43.8252L18.4965 42.4948C17.1295 40.9603 16.3979 38.8661 16.3979 36.104H14.3979ZM17.0032 43.8252C18.7759 45.815 21.1039 46.8 23.8939 46.8V44.8C21.6278 44.8 19.8598 44.025 18.4965 42.4948L17.0032 43.8252ZM23.8939 46.8C25.625 46.8 27.1997 46.3916 28.5877 45.5515L27.5521 43.8405C26.5081 44.4724 25.2987 44.8 23.8939 44.8V46.8ZM28.5779 45.5574C30.0106 44.7124 31.1016 43.4839 31.8524 41.9107L30.0474 41.0493C29.4542 42.2921 28.6252 43.2076 27.5619 43.8346L28.5779 45.5574ZM30.9499 42.48H39.9739V40.48H30.9499V42.48ZM39.0068 41.2255C38.1007 44.6688 36.3195 47.3492 33.6662 49.3168L34.8575 50.9232C37.9003 48.6668 39.9271 45.5872 40.941 41.7345L39.0068 41.2255ZM33.6721 49.3124C31.0178 51.251 27.8075 52.24 23.9899 52.24V54.24C28.1722 54.24 31.8099 53.149 34.8517 50.9276L33.6721 49.3124ZM23.9899 52.24C20.8783 52.24 18.1204 51.5552 15.6915 50.2058L14.7202 51.9542C17.4754 53.4848 20.5735 54.24 23.9899 54.24V52.24ZM15.7044 50.2131C13.3026 48.8321 11.4322 46.9322 10.08 44.4984L8.33173 45.4696C9.8596 48.2198 11.9892 50.3839 14.7074 51.9469L15.7044 50.2131ZM10.08 44.4984C8.73228 42.0724 8.04588 39.2832 8.04588 36.104H6.04588C6.04588 39.5808 6.79949 42.7116 8.33173 45.4696L10.08 44.4984ZM61.1284 46.664H60.1284V47.664H61.1284V46.664ZM71.8804 46.664H72.8804V45.664H71.8804V46.664ZM71.8804 53V54H72.8804V53H71.8804ZM52.9204 53H51.9204V54H52.9204V53ZM52.9204 19.304V18.304H51.9204V19.304H52.9204ZM61.1284 19.304H62.1284V18.304H61.1284V19.304ZM61.1284 47.664H71.8804V45.664H61.1284V47.664ZM70.8804 46.664V53H72.8804V46.664H70.8804ZM71.8804 52H52.9204V54H71.8804V52ZM53.9204 53V19.304H51.9204V53H53.9204ZM52.9204 20.304H61.1284V18.304H52.9204V20.304ZM60.1284 19.304V46.664H62.1284V19.304H60.1284ZM91.9234 19.304H92.9234V18.304H91.9234V19.304ZM91.9234 53V54H92.9234V53H91.9234ZM83.7154 53H82.7154V54H83.7154V53ZM83.7154 19.304V18.304H82.7154V19.304H83.7154ZM90.9234 19.304V53H92.9234V19.304H90.9234ZM91.9234 52H83.7154V54H91.9234V52ZM84.7154 53V19.304H82.7154V53H84.7154ZM83.7154 20.304H91.9234V18.304H83.7154V20.304ZM106.56 27.224L107.434 27.7097L107.436 27.7051L106.56 27.224ZM112.56 21.128L113.05 21.9996L113.053 21.9976L112.56 21.128ZM131.616 22.088L132.211 21.2848L131.616 22.088ZM137.328 30.728V31.728H138.625L138.295 30.4735L137.328 30.728ZM128.304 30.728L127.401 31.1587L127.673 31.728H128.304V30.728ZM125.424 27.512L124.906 28.3676L124.916 28.3734L125.424 27.512ZM115.104 29.048L115.85 29.7132L115.104 29.048ZM125.424 44.696L124.916 43.8346L124.906 43.8405L125.424 44.696ZM128.304 41.48V40.48H127.673L127.401 41.0493L128.304 41.48ZM137.328 41.48L138.295 41.7345L138.625 40.48H137.328V41.48ZM131.616 50.12L132.205 50.9276L132.211 50.9232L131.616 50.12ZM112.56 51.08L112.061 51.9469L112.068 51.9506L112.074 51.9542L112.56 51.08ZM106.56 44.984L107.434 44.4984L106.56 44.984ZM105.4 36.104C105.4 32.9248 106.086 30.1356 107.434 27.7096L105.685 26.7384C104.153 29.4964 103.4 32.6272 103.4 36.104H105.4ZM107.436 27.7051C108.788 25.2415 110.656 23.3462 113.05 21.9996L112.069 20.2564C109.343 21.7898 107.211 23.9585 105.683 26.7429L107.436 27.7051ZM113.053 21.9976C115.481 20.619 118.236 19.92 121.344 19.92V17.92C117.923 17.92 114.822 18.693 112.066 20.2584L113.053 21.9976ZM121.344 19.92C125.158 19.92 128.366 20.9231 131.02 22.8912L132.211 21.2848C129.169 19.0288 125.529 17.92 121.344 17.92V19.92ZM131.02 22.8912C133.673 24.8588 135.454 27.5392 136.361 30.9825L138.295 30.4735C137.281 26.6208 135.254 23.5412 132.211 21.2848L131.02 22.8912ZM137.328 29.728H128.304V31.728H137.328V29.728ZM129.206 30.2973C128.455 28.7241 127.364 27.4956 125.932 26.6506L124.916 28.3734C125.979 29.0004 126.808 29.9159 127.401 31.1587L129.206 30.2973ZM125.941 26.6565C124.553 25.8164 122.979 25.408 121.248 25.408V27.408C122.652 27.408 123.862 27.7356 124.906 28.3675L125.941 26.6565ZM121.248 25.408C118.458 25.408 116.13 26.393 114.357 28.3828L115.85 29.7132C117.214 28.183 118.982 27.408 121.248 27.408V25.408ZM114.357 28.3828C112.588 30.3683 111.752 32.9781 111.752 36.104H113.752C113.752 33.3419 114.483 31.2477 115.85 29.7132L114.357 28.3828ZM111.752 36.104C111.752 39.2299 112.588 41.8397 114.357 43.8252L115.85 42.4948C114.483 40.9603 113.752 38.8661 113.752 36.104H111.752ZM114.357 43.8252C116.13 45.815 118.458 46.8 121.248 46.8V44.8C118.982 44.8 117.214 44.025 115.85 42.4948L114.357 43.8252ZM121.248 46.8C122.979 46.8 124.553 46.3916 125.941 45.5515L124.906 43.8405C123.862 44.4724 122.652 44.8 121.248 44.8V46.8ZM125.932 45.5574C127.364 44.7124 128.455 43.4839 129.206 41.9107L127.401 41.0493C126.808 42.2921 125.979 43.2076 124.916 43.8346L125.932 45.5574ZM128.304 42.48H137.328V40.48H128.304V42.48ZM136.361 41.2255C135.454 44.6688 133.673 47.3492 131.02 49.3168L132.211 50.9232C135.254 48.6668 137.281 45.5872 138.295 41.7345L136.361 41.2255ZM131.026 49.3124C128.372 51.251 125.161 52.24 121.344 52.24V54.24C125.526 54.24 129.164 53.149 132.205 50.9276L131.026 49.3124ZM121.344 52.24C118.232 52.24 115.474 51.5552 113.045 50.2058L112.074 51.9542C114.829 53.4848 117.927 54.24 121.344 54.24V52.24ZM113.058 50.2131C110.656 48.8321 108.786 46.9322 107.434 44.4984L105.685 45.4696C107.213 48.2198 109.343 50.3839 112.061 51.9469L113.058 50.2131ZM107.434 44.4984C106.086 42.0724 105.4 39.2832 105.4 36.104H103.4C103.4 39.5808 104.153 42.7116 105.685 45.4696L107.434 44.4984ZM169.81 53L169.014 53.6057L169.315 54H169.81V53ZM158.482 38.12L159.278 37.5143L157.482 35.1556V38.12H158.482ZM158.482 53V54H159.482V53H158.482ZM150.274 53H149.274V54H150.274V53ZM150.274 19.304V18.304H149.274V19.304H150.274ZM158.482 19.304H159.482V18.304H158.482V19.304ZM158.482 34.088H157.482V37.0573L159.278 34.693L158.482 34.088ZM169.714 19.304V18.304H169.218L168.918 18.699L169.714 19.304ZM179.362 19.304L180.147 19.9242L181.428 18.304H179.362V19.304ZM166.306 35.816L165.522 35.1958L165.032 35.8148L165.521 36.4348L166.306 35.816ZM179.842 53V54H181.903L180.628 52.3812L179.842 53ZM170.606 52.3943L159.278 37.5143L157.686 38.7257L169.014 53.6057L170.606 52.3943ZM157.482 38.12V53H159.482V38.12H157.482ZM158.482 52H150.274V54H158.482V52ZM151.274 53V19.304H149.274V53H151.274ZM150.274 20.304H158.482V18.304H150.274V20.304ZM157.482 19.304V34.088H159.482V19.304H157.482ZM159.278 34.693L170.51 19.909L168.918 18.699L157.686 33.483L159.278 34.693ZM169.714 20.304H179.362V18.304H169.714V20.304ZM178.578 18.6838L165.522 35.1958L167.091 36.4362L180.147 19.9242L178.578 18.6838ZM165.521 36.4348L179.057 53.6188L180.628 52.3812L167.092 35.1972L165.521 36.4348ZM179.842 52H169.81V54H179.842V52ZM234.091 39.896V40.896H235.091V39.896H234.091ZM225.739 39.896V38.896H224.739V39.896H225.739ZM225.739 48.44V49.44H226.739V48.44H225.739ZM217.963 48.44H216.963V49.44H217.963V48.44ZM217.963 39.896H218.963V38.896H217.963V39.896ZM209.611 39.896H208.611V40.896H209.611V39.896ZM209.611 32.552V31.552H208.611V32.552H209.611ZM217.963 32.552V33.552H218.963V32.552H217.963ZM217.963 23.96V22.96H216.963V23.96H217.963ZM225.739 23.96H226.739V22.96H225.739V23.96ZM225.739 32.552H224.739V33.552H225.739V32.552ZM234.091 32.552H235.091V31.552H234.091V32.552ZM234.091 38.896H225.739V40.896H234.091V38.896ZM224.739 39.896V48.44H226.739V39.896H224.739ZM225.739 47.44H217.963V49.44H225.739V47.44ZM218.963 48.44V39.896H216.963V48.44H218.963ZM217.963 38.896H209.611V40.896H217.963V38.896ZM210.611 39.896V32.552H208.611V39.896H210.611ZM209.611 33.552H217.963V31.552H209.611V33.552ZM218.963 32.552V23.96H216.963V32.552H218.963ZM217.963 24.96H225.739V22.96H217.963V24.96ZM224.739 23.96V32.552H226.739V23.96H224.739ZM225.739 33.552H234.091V31.552H225.739V33.552ZM233.091 32.552V39.896H235.091V32.552H233.091ZM287.843 19.304H288.843V18.304H287.843V19.304ZM287.843 25.88V26.88H288.843V25.88H287.843ZM274.115 25.88V24.88H273.115V25.88H274.115ZM274.115 32.984H273.115V33.984H274.115V32.984ZM284.387 32.984H285.387V31.984H284.387V32.984ZM284.387 39.368V40.368H285.387V39.368H284.387ZM274.115 39.368V38.368H273.115V39.368H274.115ZM274.115 53V54H275.115V53H274.115ZM265.907 53H264.907V54H265.907V53ZM265.907 19.304V18.304H264.907V19.304H265.907ZM286.843 19.304V25.88H288.843V19.304H286.843ZM287.843 24.88H274.115V26.88H287.843V24.88ZM273.115 25.88V32.984H275.115V25.88H273.115ZM274.115 33.984H284.387V31.984H274.115V33.984ZM283.387 32.984V39.368H285.387V32.984H283.387ZM284.387 38.368H274.115V40.368H284.387V38.368ZM273.115 39.368V53H275.115V39.368H273.115ZM274.115 52H265.907V54H274.115V52ZM266.907 53V19.304H264.907V53H266.907ZM265.907 20.304H287.843V18.304H265.907V20.304ZM307.277 51.128L306.788 52.0002L306.793 52.0027L307.277 51.128ZM300.989 44.984L300.124 45.4846L300.127 45.4908L300.131 45.497L300.989 44.984ZM300.989 27.176L300.131 26.663L300.126 26.6708L300.989 27.176ZM307.277 21.032L306.793 20.1573L306.788 20.1599L307.277 21.032ZM324.701 21.032L324.212 21.9042L324.217 21.9067L324.701 21.032ZM330.941 27.176L330.074 27.6733L330.078 27.6812L330.941 27.176ZM330.941 44.984L331.804 45.4892L331.807 45.4846L330.941 44.984ZM324.701 51.128L325.191 52.0001L324.701 51.128ZM322.445 43.16L321.706 42.4866L321.699 42.494L322.445 43.16ZM322.445 28.952L321.699 29.618L321.706 29.625L321.712 29.6319L322.445 28.952ZM309.485 28.904L308.752 28.224L308.745 28.2313L309.485 28.904ZM309.485 43.208L308.739 43.874L308.746 43.881L308.752 43.8879L309.485 43.208ZM316.013 52.336C313.007 52.336 310.263 51.6395 307.762 50.2533L306.793 52.0027C309.603 53.5605 312.683 54.336 316.013 54.336V52.336ZM307.767 50.2559C305.297 48.8707 303.328 46.9476 301.848 44.471L300.131 45.497C301.787 48.2684 304.009 50.4413 306.788 52.0001L307.767 50.2559ZM301.855 44.4834C300.413 41.9908 299.685 39.1897 299.685 36.056H297.685C297.685 39.5143 298.493 42.6652 300.124 45.4846L301.855 44.4834ZM299.685 36.056C299.685 32.9222 300.413 30.1392 301.852 27.6812L300.126 26.6708C298.493 29.4608 297.685 32.5978 297.685 36.056H299.685ZM301.848 27.689C303.328 25.2124 305.297 23.2893 307.767 21.9041L306.788 20.1599C304.009 21.7187 301.787 23.8916 300.131 26.663L301.848 27.689ZM307.762 21.9067C310.263 20.5205 313.007 19.824 316.013 19.824V17.824C312.683 17.824 309.603 18.5995 306.793 20.1573L307.762 21.9067ZM316.013 19.824C319.019 19.824 321.745 20.5205 324.212 21.9041L325.191 20.1599C322.409 18.5995 319.343 17.824 316.013 17.824V19.824ZM324.217 21.9067C326.714 23.2905 328.661 25.2083 330.074 27.6733L331.809 26.6787C330.214 23.8957 328.001 21.7175 325.186 20.1573L324.217 21.9067ZM330.078 27.6812C331.517 30.1392 332.245 32.9222 332.245 36.056H334.245C334.245 32.5978 333.437 29.4608 331.804 26.6708L330.078 27.6812ZM332.245 36.056C332.245 39.1897 331.517 41.9908 330.076 44.4834L331.807 45.4846C333.437 42.6652 334.245 39.5143 334.245 36.056H332.245ZM330.078 44.4788C328.631 46.9512 326.679 48.8718 324.212 50.2559L325.191 52.0001C327.971 50.4402 330.18 48.2648 331.804 45.4892L330.078 44.4788ZM324.212 50.2559C321.745 51.6395 319.019 52.336 316.013 52.336V54.336C319.343 54.336 322.409 53.5605 325.191 52.0001L324.212 50.2559ZM316.013 46.848C318.948 46.848 321.378 45.8571 323.191 43.826L321.699 42.494C320.313 44.0469 318.454 44.848 316.013 44.848V46.848ZM323.185 43.8333C325.019 41.8195 325.893 39.1929 325.893 36.056H323.893C323.893 38.8071 323.136 40.9165 321.706 42.4867L323.185 43.8333ZM325.893 36.056C325.893 32.8912 325.021 30.2587 323.179 28.2721L321.712 29.6319C323.134 31.1653 323.893 33.2688 323.893 36.056H325.893ZM323.191 28.286C321.378 26.2549 318.948 25.264 316.013 25.264V27.264C318.454 27.264 320.313 28.0651 321.699 29.618L323.191 28.286ZM316.013 25.264C313.056 25.264 310.599 26.2318 308.752 28.2241L310.219 29.5839C311.635 28.0562 313.531 27.264 316.013 27.264V25.264ZM308.745 28.2313C306.937 30.2203 306.085 32.8675 306.085 36.056H308.085C308.085 33.2285 308.833 31.1077 310.225 29.5767L308.745 28.2313ZM306.085 36.056C306.085 39.2166 306.939 41.8578 308.739 43.874L310.231 42.542C308.831 40.9742 308.085 38.8474 308.085 36.056H306.085ZM308.752 43.8879C310.599 45.8802 313.056 46.848 316.013 46.848V44.848C313.531 44.848 311.635 44.0558 310.219 42.5281L308.752 43.8879ZM362.916 53L362.04 53.4826L362.325 54H362.916V53ZM355.908 40.28L356.784 39.7974L356.498 39.28H355.908V40.28ZM353.94 40.28V39.28H352.94V40.28H353.94ZM353.94 53V54H354.94V53H353.94ZM345.732 53H344.732V54H345.732V53ZM345.732 19.304V18.304H344.732V19.304H345.732ZM366.276 20.696L365.828 21.5904L365.835 21.5934L366.276 20.696ZM370.5 24.536L369.63 25.0303L369.635 25.0377L370.5 24.536ZM369.972 35.912L369.163 35.3238L369.156 35.3336L369.972 35.912ZM364.404 39.656L364.117 38.6978L362.9 39.0615L363.54 40.1595L364.404 39.656ZM372.18 53V54H373.92L373.044 52.4965L372.18 53ZM353.94 34.472H352.94V35.472H353.94V34.472ZM362.388 33.368L361.696 32.646L361.688 32.6534L361.681 32.6609L362.388 33.368ZM362.388 27.224L361.681 27.9311L361.688 27.9386L361.696 27.946L362.388 27.224ZM353.94 26.12V25.12H352.94V26.12H353.94ZM363.792 52.5174L356.784 39.7974L355.032 40.7626L362.04 53.4826L363.792 52.5174ZM355.908 39.28H353.94V41.28H355.908V39.28ZM352.94 40.28V53H354.94V40.28H352.94ZM353.94 52H345.732V54H353.94V52ZM346.732 53V19.304H344.732V53H346.732ZM345.732 20.304H359.508V18.304H345.732V20.304ZM359.508 20.304C362.051 20.304 364.145 20.7485 365.828 21.5904L366.723 19.8016C364.695 18.7875 362.277 18.304 359.508 18.304V20.304ZM365.835 21.5934C367.565 22.4441 368.813 23.5932 369.63 25.0303L371.369 24.0417C370.33 22.2148 368.762 20.8039 366.717 19.7985L365.835 21.5934ZM369.635 25.0377C370.468 26.4742 370.892 28.091 370.892 29.912H372.892C372.892 27.765 372.388 25.7978 371.365 24.0343L369.635 25.0377ZM370.892 29.912C370.892 31.9473 370.315 33.74 369.163 35.3238L370.78 36.5002C372.189 34.564 372.892 32.3567 372.892 29.912H370.892ZM369.156 35.3336C368.061 36.8782 366.41 38.013 364.117 38.6978L364.69 40.6142C367.325 39.827 369.387 38.4658 370.787 36.4904L369.156 35.3336ZM363.54 40.1595L371.316 53.5035L373.044 52.4965L365.268 39.1525L363.54 40.1595ZM372.18 52H362.916V54H372.18V52ZM353.94 35.472H359.028V33.472H353.94V35.472ZM359.028 35.472C360.679 35.472 362.101 35.0684 363.095 34.0751L361.681 32.6609C361.202 33.1396 360.385 33.472 359.028 33.472V35.472ZM363.08 34.09C364.093 33.1185 364.54 31.7885 364.54 30.248H362.54C362.54 31.3955 362.218 32.1455 361.696 32.646L363.08 34.09ZM364.54 30.248C364.54 28.7551 364.084 27.4643 363.08 26.502L361.696 27.946C362.228 28.4557 362.54 29.1809 362.54 30.248H364.54ZM363.095 26.5169C362.101 25.5236 360.679 25.12 359.028 25.12V27.12C360.385 27.12 361.202 27.4524 361.681 27.9311L363.095 26.5169ZM359.028 25.12H353.94V27.12H359.028V25.12ZM352.94 26.12V34.472H354.94V26.12H352.94ZM427.392 35.528L428.265 36.0166L428.269 36.0093L427.392 35.528ZM423.264 39.416L422.793 38.5341L423.264 39.416ZM411.264 40.904V39.904H410.264V40.904H411.264ZM411.264 53V54H412.264V53H411.264ZM403.056 53H402.056V54H403.056V53ZM403.056 19.304V18.304H402.056V19.304H403.056ZM423.168 20.696L423.615 19.8016L423.168 20.696ZM411.264 25.928V24.928H410.264V25.928H411.264ZM411.264 34.376H410.264V35.376H411.264V34.376ZM427.736 30.152C427.736 31.9442 427.327 33.5695 426.515 35.0467L428.269 36.0093C429.25 34.2225 429.736 32.2638 429.736 30.152H427.736ZM426.52 35.0394C425.73 36.4491 424.506 37.6185 422.793 38.5341L423.735 40.2979C425.734 39.2295 427.262 37.8069 428.265 36.0166L426.52 35.0394ZM422.793 38.5341C421.119 39.4284 418.989 39.904 416.352 39.904V41.904C419.22 41.904 421.697 41.3876 423.735 40.2979L422.793 38.5341ZM416.352 39.904H411.264V41.904H416.352V39.904ZM410.264 40.904V53H412.264V40.904H410.264ZM411.264 52H403.056V54H411.264V52ZM404.056 53V19.304H402.056V53H404.056ZM403.056 20.304H416.352V18.304H403.056V20.304ZM416.352 20.304C418.929 20.304 421.038 20.7493 422.721 21.5904L423.615 19.8016C421.586 18.7867 419.151 18.304 416.352 18.304V20.304ZM422.721 21.5904C424.419 22.4395 425.655 23.5885 426.475 25.0303L428.213 24.0417C427.177 22.2195 425.629 20.8085 423.615 19.8016L422.721 21.5904ZM426.475 25.0303C427.307 26.4935 427.736 28.1912 427.736 30.152H429.736C429.736 27.8888 429.237 25.8424 428.213 24.0417L426.475 25.0303ZM415.728 35.376C417.433 35.376 418.898 34.9774 419.924 33.994L418.54 32.55C418.03 33.0386 417.159 33.376 415.728 33.376V35.376ZM419.924 33.994C420.938 33.0225 421.384 31.6925 421.384 30.152H419.384C419.384 31.2995 419.062 32.0495 418.54 32.55L419.924 33.994ZM421.384 30.152C421.384 28.6115 420.938 27.2815 419.924 26.31L418.54 27.754C419.062 28.2545 419.384 29.0045 419.384 30.152H421.384ZM419.924 26.31C418.898 25.3266 417.433 24.928 415.728 24.928V26.928C417.159 26.928 418.03 27.2654 418.54 27.754L419.924 26.31ZM415.728 24.928H411.264V26.928H415.728V24.928ZM410.264 25.928V34.376H412.264V25.928H410.264ZM411.264 35.376H415.728V33.376H411.264V35.376ZM448.129 51.128L447.64 52.0002L447.644 52.0027L448.129 51.128ZM441.841 44.984L440.975 45.4846L440.979 45.4908L440.983 45.497L441.841 44.984ZM441.841 27.176L440.983 26.663L440.978 26.6708L441.841 27.176ZM448.129 21.032L447.644 20.1573L447.64 20.1599L448.129 21.032ZM465.553 21.032L465.064 21.9042L465.068 21.9067L465.553 21.032ZM471.793 27.176L470.926 27.6733L470.93 27.6812L471.793 27.176ZM471.793 44.984L472.656 45.4892L472.659 45.4846L471.793 44.984ZM465.553 51.128L466.042 52.0001L465.553 51.128ZM463.297 43.16L462.558 42.4866L462.551 42.494L463.297 43.16ZM463.297 28.952L462.551 29.618L462.557 29.625L462.564 29.6319L463.297 28.952ZM450.337 28.904L449.604 28.224L449.597 28.2313L450.337 28.904ZM450.337 43.208L449.591 43.874L449.597 43.881L449.604 43.8879L450.337 43.208ZM456.865 52.336C453.859 52.336 451.115 51.6395 448.614 50.2533L447.644 52.0027C450.455 53.5605 453.535 54.336 456.865 54.336V52.336ZM448.618 50.2559C446.149 48.8707 444.179 46.9476 442.7 44.471L440.983 45.497C442.639 48.2684 444.861 50.4413 447.64 52.0001L448.618 50.2559ZM442.707 44.4834C441.265 41.9908 440.537 39.1897 440.537 36.056H438.537C438.537 39.5143 439.345 42.6652 440.975 45.4846L442.707 44.4834ZM440.537 36.056C440.537 32.9222 441.265 30.1392 442.704 27.6812L440.978 26.6708C439.345 29.4608 438.537 32.5978 438.537 36.056H440.537ZM442.7 27.689C444.179 25.2124 446.149 23.2893 448.618 21.9041L447.64 20.1599C444.861 21.7187 442.639 23.8916 440.983 26.663L442.7 27.689ZM448.614 21.9067C451.115 20.5205 453.859 19.824 456.865 19.824V17.824C453.535 17.824 450.455 18.5995 447.644 20.1573L448.614 21.9067ZM456.865 19.824C459.871 19.824 462.597 20.5205 465.064 21.9041L466.042 20.1599C463.261 18.5995 460.195 17.824 456.865 17.824V19.824ZM465.068 21.9067C467.565 23.2905 469.513 25.2083 470.926 27.6733L472.661 26.6787C471.066 23.8957 468.853 21.7175 466.038 20.1573L465.068 21.9067ZM470.93 27.6812C472.369 30.1392 473.097 32.9222 473.097 36.056H475.097C475.097 32.5978 474.289 29.4608 472.656 26.6708L470.93 27.6812ZM473.097 36.056C473.097 39.1897 472.369 41.9908 470.927 44.4834L472.659 45.4846C474.289 42.6652 475.097 39.5143 475.097 36.056H473.097ZM470.93 44.4788C469.483 46.9512 467.531 48.8718 465.064 50.2559L466.042 52.0001C468.823 50.4402 471.031 48.2648 472.656 45.4892L470.93 44.4788ZM465.064 50.2559C462.597 51.6395 459.871 52.336 456.865 52.336V54.336C460.195 54.336 463.261 53.5605 466.042 52.0001L465.064 50.2559ZM456.865 46.848C459.8 46.848 462.23 45.8571 464.043 43.826L462.551 42.494C461.165 44.0469 459.306 44.848 456.865 44.848V46.848ZM464.036 43.8333C465.871 41.8195 466.745 39.1929 466.745 36.056H464.745C464.745 38.8071 463.988 40.9165 462.558 42.4867L464.036 43.8333ZM466.745 36.056C466.745 32.8912 465.873 30.2587 464.03 28.2721L462.564 29.6319C463.986 31.1653 464.745 33.2688 464.745 36.056H466.745ZM464.043 28.286C462.23 26.2549 459.8 25.264 456.865 25.264V27.264C459.306 27.264 461.165 28.0651 462.551 29.618L464.043 28.286ZM456.865 25.264C453.908 25.264 451.451 26.2318 449.604 28.2241L451.07 29.5839C452.487 28.0562 454.383 27.264 456.865 27.264V25.264ZM449.597 28.2313C447.789 30.2203 446.937 32.8675 446.937 36.056H448.937C448.937 33.2285 449.685 31.1077 451.077 29.5767L449.597 28.2313ZM446.937 36.056C446.937 39.2166 447.791 41.8578 449.591 43.874L451.083 42.542C449.683 40.9742 448.937 38.8474 448.937 36.056H446.937ZM449.604 43.8879C451.451 45.8802 453.908 46.848 456.865 46.848V44.848C454.383 44.848 452.487 44.0558 451.07 42.5281L449.604 43.8879ZM492.152 52.136L491.772 53.0613L492.152 52.136ZM487.448 48.584L486.642 49.1761L486.649 49.1866L487.448 48.584ZM485.624 42.92V41.92H484.594L484.624 42.949L485.624 42.92ZM494.36 42.92L495.354 42.818L495.262 41.92H494.36V42.92ZM495.656 45.8L494.981 46.5385L494.99 46.5467L494.999 46.5546L495.656 45.8ZM501.416 45.944L502.027 46.7353L502.038 46.7268L502.049 46.718L501.416 45.944ZM501.608 41.528L500.9 42.2351L500.911 42.2452L500.921 42.255L501.608 41.528ZM499.544 40.184L499.141 41.0993L499.147 41.1022L499.154 41.105L499.544 40.184ZM496.088 38.984L495.792 39.9395L495.802 39.9424L496.088 38.984ZM487.208 33.992L488.005 33.3889L487.208 33.992ZM489.128 21.512L489.74 22.3026L489.747 22.2972L489.128 21.512ZM506.984 21.512L506.364 22.2972L506.371 22.3025L506.984 21.512ZM510.632 28.904V29.904H511.683L511.63 28.8536L510.632 28.904ZM501.752 28.904L500.753 28.9627L500.809 29.904H501.752V28.904ZM500.552 26.36L499.895 27.1146L499.905 27.1229L499.915 27.131L500.552 26.36ZM495.32 26.216L495.964 26.9809L495.975 26.9712L495.986 26.9612L495.32 26.216ZM495.944 31.016L496.454 30.1561L495.944 31.016ZM500.743 32.984L501.064 32.0366L501.051 32.0326L500.743 32.984ZM506.023 35.096L505.576 35.9905L505.585 35.9946L506.023 35.096ZM509.576 38.024L508.785 38.6366L509.576 38.024ZM509.576 48.2L508.73 47.6654L508.727 47.6716L508.723 47.6778L509.576 48.2ZM505.352 51.944L504.904 51.0496L505.352 51.944ZM498.776 52.336C496.42 52.336 494.344 51.9538 492.531 51.2107L491.772 53.0613C493.863 53.9182 496.203 54.336 498.776 54.336V52.336ZM492.531 51.2107C490.732 50.4735 489.313 49.3956 488.246 47.9814L486.649 49.1866C487.95 50.9084 489.667 52.1985 491.772 53.0613L492.531 51.2107ZM488.253 47.9919C487.237 46.6091 486.682 44.9245 486.623 42.891L484.624 42.949C484.693 45.3315 485.354 47.4229 486.642 49.1761L488.253 47.9919ZM485.624 43.92H494.36V41.92H485.624V43.92ZM493.365 43.022C493.511 44.4488 494.021 45.6613 494.981 46.5385L496.33 45.0615C495.819 44.5947 495.464 43.8872 495.354 42.818L493.365 43.022ZM494.999 46.5546C495.954 47.385 497.164 47.76 498.536 47.76V45.76C497.539 45.76 496.829 45.495 496.312 45.0454L494.999 46.5546ZM498.536 47.76C499.893 47.76 501.094 47.4566 502.027 46.7353L500.804 45.1527C500.329 45.5194 499.61 45.76 498.536 45.76V47.76ZM502.049 46.718C503.008 45.9333 503.472 44.853 503.472 43.592H501.472C501.472 44.315 501.231 44.8027 500.782 45.17L502.049 46.718ZM503.472 43.592C503.472 42.5004 503.081 41.5443 502.294 40.801L500.921 42.255C501.286 42.5997 501.472 43.0196 501.472 43.592H503.472ZM502.315 40.8209C501.665 40.1714 500.863 39.6566 499.933 39.263L499.154 41.105C499.888 41.4154 500.462 41.7966 500.9 42.2351L502.315 40.8209ZM499.946 39.2687C499.089 38.8917 497.891 38.4778 496.373 38.0256L495.802 39.9424C497.292 40.3862 498.398 40.7723 499.141 41.0993L499.946 39.2687ZM496.383 38.0285C494.235 37.3652 492.512 36.7107 491.198 36.0694L490.321 37.8666C491.76 38.5693 493.588 39.2588 495.792 39.9395L496.383 38.0285ZM491.198 36.0694C489.974 35.4714 488.91 34.5851 488.005 33.3889L486.41 34.5951C487.489 36.0229 488.793 37.1206 490.321 37.8666L491.198 36.0694ZM488.005 33.3889C487.178 32.2944 486.72 30.8126 486.72 28.856H484.72C484.72 31.1234 485.253 33.0656 486.41 34.5951L488.005 33.3889ZM486.72 28.856C486.72 25.9968 487.737 23.8541 489.74 22.3025L488.515 20.7214C485.974 22.6899 484.72 25.4432 484.72 28.856H486.72ZM489.747 22.2972C491.801 20.6772 494.525 19.824 498.008 19.824V17.824C494.194 17.824 490.998 18.7628 488.508 20.7268L489.747 22.2972ZM498.008 19.824C501.559 19.824 504.313 20.6795 506.364 22.2972L507.603 20.7268C505.11 18.7605 501.88 17.824 498.008 17.824V19.824ZM506.371 22.3025C508.387 23.8641 509.486 26.0437 509.633 28.9544L511.63 28.8536C511.457 25.4283 510.124 22.6799 507.596 20.7214L506.371 22.3025ZM510.632 27.904H501.752V29.904H510.632V27.904ZM502.75 28.8453C502.672 27.5232 502.17 26.3997 501.188 25.589L499.915 27.131C500.405 27.5363 500.703 28.1088 500.753 28.9627L502.75 28.8453ZM501.208 25.6054C500.258 24.7794 499.067 24.4 497.72 24.4V26.4C498.676 26.4 499.373 26.6606 499.895 27.1146L501.208 25.6054ZM497.72 24.4C496.537 24.4 495.482 24.729 494.653 25.4708L495.986 26.9612C496.373 26.615 496.918 26.4 497.72 26.4V24.4ZM494.675 25.4511C493.787 26.199 493.408 27.2646 493.408 28.472H495.408C495.408 27.6954 495.636 27.257 495.964 26.9809L494.675 25.4511ZM493.408 28.472C493.408 29.9514 494.14 31.1083 495.433 31.8759L496.454 30.1561C495.699 29.7077 495.408 29.1686 495.408 28.472H493.408ZM495.433 31.8759C496.555 32.5422 498.241 33.2254 500.436 33.9354L501.051 32.0326C498.894 31.3346 497.38 30.7058 496.454 30.1561L495.433 31.8759ZM500.423 33.9313C502.576 34.6594 504.289 35.3466 505.576 35.9904L506.471 34.2016C505.07 33.5014 503.263 32.7806 501.064 32.0367L500.423 33.9313ZM505.585 35.9946C506.815 36.5955 507.881 37.4704 508.785 38.6366L510.366 37.4114C509.286 36.0176 507.984 34.9405 506.462 34.1974L505.585 35.9946ZM508.785 38.6366C509.611 39.702 510.064 41.1184 510.064 42.968H512.064C512.064 40.7856 511.524 38.906 510.366 37.4114L508.785 38.6366ZM510.064 42.968C510.064 44.7057 509.618 46.2631 508.73 47.6654L510.421 48.7346C511.517 47.0009 512.064 45.0703 512.064 42.968H510.064ZM508.723 47.6778C507.873 49.0664 506.615 50.1942 504.904 51.0496L505.799 52.8384C507.8 51.8378 509.358 50.4696 510.428 48.7222L508.723 47.6778ZM504.904 51.0496C503.214 51.8946 501.182 52.336 498.776 52.336V54.336C501.425 54.336 503.777 53.8494 505.799 52.8384L504.904 51.0496ZM532.243 19.304H533.243V18.304H532.243V19.304ZM532.243 53V54H533.243V53H532.243ZM524.035 53H523.035V54H524.035V53ZM524.035 19.304V18.304H523.035V19.304H524.035ZM531.243 19.304V53H533.243V19.304H531.243ZM532.243 52H524.035V54H532.243V52ZM525.035 53V19.304H523.035V53H525.035ZM524.035 20.304H532.243V18.304H524.035V20.304ZM570.351 19.304H571.351V18.304H570.351V19.304ZM570.351 25.88V26.88H571.351V25.88H570.351ZM561.423 25.88V24.88H560.423V25.88H561.423ZM561.423 53V54H562.423V53H561.423ZM553.215 53H552.215V54H553.215V53ZM553.215 25.88H554.215V24.88H553.215V25.88ZM544.287 25.88H543.287V26.88H544.287V25.88ZM544.287 19.304V18.304H543.287V19.304H544.287ZM569.351 19.304V25.88H571.351V19.304H569.351ZM570.351 24.88H561.423V26.88H570.351V24.88ZM560.423 25.88V53H562.423V25.88H560.423ZM561.423 52H553.215V54H561.423V52ZM554.215 53V25.88H552.215V53H554.215ZM553.215 24.88H544.287V26.88H553.215V24.88ZM545.287 25.88V19.304H543.287V25.88H545.287ZM544.287 20.304H570.351V18.304H544.287V20.304ZM590.598 19.304H591.598V18.304H590.598V19.304ZM590.598 53V54H591.598V53H590.598ZM582.39 53H581.39V54H582.39V53ZM582.39 19.304V18.304H581.39V19.304H582.39ZM589.598 19.304V53H591.598V19.304H589.598ZM590.598 52H582.39V54H590.598V52ZM583.39 53V19.304H581.39V53H583.39ZM582.39 20.304H590.598V18.304H582.39V20.304ZM636.099 19.304L637.041 19.6383L637.514 18.304H636.099V19.304ZM624.147 53V54H624.853L625.089 53.3343L624.147 53ZM613.875 53L612.932 53.3343L613.168 54H613.875V53ZM601.923 19.304V18.304H600.507L600.98 19.6383L601.923 19.304ZM610.659 19.304L611.609 18.9921L611.383 18.304H610.659V19.304ZM619.011 44.744L618.06 45.0559L619.008 47.9416L619.96 45.0575L619.011 44.744ZM627.411 19.304V18.304H626.688L626.461 18.9905L627.411 19.304ZM635.156 18.9697L623.204 52.6657L625.089 53.3343L637.041 19.6383L635.156 18.9697ZM624.147 52H613.875V54H624.147V52ZM614.817 52.6657L602.865 18.9697L600.98 19.6383L612.932 53.3343L614.817 52.6657ZM601.923 20.304H610.659V18.304H601.923V20.304ZM609.708 19.6159L618.06 45.0559L619.961 44.4321L611.609 18.9921L609.708 19.6159ZM619.96 45.0575L628.36 19.6175L626.461 18.9905L618.061 44.4305L619.96 45.0575ZM627.411 20.304H636.099V18.304H627.411V20.304ZM655.657 25.88V24.88H654.657V25.88H655.657ZM655.657 32.696H654.657V33.696H655.657V32.696ZM666.649 32.696H667.649V31.696H666.649V32.696ZM666.649 39.032V40.032H667.649V39.032H666.649ZM655.657 39.032V38.032H654.657V39.032H655.657ZM655.657 46.424H654.657V47.424H655.657V46.424ZM668.089 46.424H669.089V45.424H668.089V46.424ZM668.089 53V54H669.089V53H668.089ZM647.449 53H646.449V54H647.449V53ZM647.449 19.304V18.304H646.449V19.304H647.449ZM668.089 19.304H669.089V18.304H668.089V19.304ZM668.089 25.88V26.88H669.089V25.88H668.089ZM654.657 25.88V32.696H656.657V25.88H654.657ZM655.657 33.696H666.649V31.696H655.657V33.696ZM665.649 32.696V39.032H667.649V32.696H665.649ZM666.649 38.032H655.657V40.032H666.649V38.032ZM654.657 39.032V46.424H656.657V39.032H654.657ZM655.657 47.424H668.089V45.424H655.657V47.424ZM667.089 46.424V53H669.089V46.424H667.089ZM668.089 52H647.449V54H668.089V52ZM648.449 53V19.304H646.449V53H648.449ZM647.449 20.304H668.089V18.304H647.449V20.304ZM667.089 19.304V25.88H669.089V19.304H667.089ZM668.089 24.88H655.657V26.88H668.089V24.88ZM745.798 19.304L746.765 19.5563L747.092 18.304H745.798V19.304ZM737.014 53V54H737.786L737.981 53.2523L737.014 53ZM727.078 53L726.106 53.2356L726.291 54H727.078V53ZM721.702 30.824L722.674 30.5884L720.732 30.5805L721.702 30.824ZM716.134 53V54H716.914L717.104 53.2435L716.134 53ZM706.198 53L705.228 53.2458L705.42 54H706.198V53ZM697.654 19.304V18.304H696.369L696.684 19.5498L697.654 19.304ZM706.438 19.304L707.419 19.1101L707.259 18.304H706.438V19.304ZM711.286 43.832L710.305 44.0259L712.257 44.0696L711.286 43.832ZM717.286 19.304V18.304H716.501L716.314 19.0664L717.286 19.304ZM726.31 19.304L727.283 19.0754L727.102 18.304H726.31V19.304ZM732.07 43.832L731.096 44.0606L733.05 44.0277L732.07 43.832ZM736.966 19.304V18.304H736.146L735.985 19.1083L736.966 19.304ZM744.83 19.0517L736.046 52.7477L737.981 53.2523L746.765 19.5563L744.83 19.0517ZM737.014 52H727.078V54H737.014V52ZM728.05 52.7644L722.674 30.5884L720.73 31.0596L726.106 53.2356L728.05 52.7644ZM720.732 30.5805L715.164 52.7565L717.104 53.2435L722.672 31.0675L720.732 30.5805ZM716.134 52H706.198V54H716.134V52ZM707.167 52.7542L698.623 19.0582L696.684 19.5498L705.228 53.2458L707.167 52.7542ZM697.654 20.304H706.438V18.304H697.654V20.304ZM705.457 19.4979L710.305 44.0259L712.267 43.6381L707.419 19.1101L705.457 19.4979ZM712.257 44.0696L718.257 19.5416L716.314 19.0664L710.314 43.5944L712.257 44.0696ZM717.286 20.304H726.31V18.304H717.286V20.304ZM725.336 19.5326L731.096 44.0606L733.043 43.6034L727.283 19.0754L725.336 19.5326ZM733.05 44.0277L737.946 19.4997L735.985 19.1083L731.089 43.6363L733.05 44.0277ZM736.966 20.304H745.798V18.304H736.966V20.304ZM765.034 51.128L764.545 52.0002L764.549 52.0027L765.034 51.128ZM758.746 44.984L757.88 45.4846L757.884 45.4908L757.888 45.497L758.746 44.984ZM758.746 27.176L757.888 26.663L757.883 26.6708L758.746 27.176ZM765.034 21.032L764.549 20.1573L764.545 20.1599L765.034 21.032ZM782.458 21.032L781.969 21.9042L781.973 21.9067L782.458 21.032ZM788.698 27.176L787.831 27.6733L787.835 27.6812L788.698 27.176ZM788.698 44.984L789.561 45.4892L789.564 45.4846L788.698 44.984ZM782.458 51.128L782.947 52.0001L782.458 51.128ZM780.202 43.16L779.463 42.4866L779.456 42.494L780.202 43.16ZM780.202 28.952L779.456 29.618L779.462 29.625L779.469 29.6319L780.202 28.952ZM767.242 28.904L766.509 28.224L766.502 28.2313L767.242 28.904ZM767.242 43.208L766.496 43.874L766.503 43.881L766.509 43.8879L767.242 43.208ZM773.77 52.336C770.764 52.336 768.02 51.6395 765.519 50.2533L764.549 52.0027C767.36 53.5605 770.44 54.336 773.77 54.336V52.336ZM765.523 50.2559C763.054 48.8707 761.084 46.9476 759.605 44.471L757.888 45.497C759.544 48.2684 761.766 50.4413 764.545 52.0001L765.523 50.2559ZM759.612 44.4834C758.17 41.9908 757.442 39.1897 757.442 36.056H755.442C755.442 39.5143 756.25 42.6652 757.88 45.4846L759.612 44.4834ZM757.442 36.056C757.442 32.9222 758.17 30.1392 759.609 27.6812L757.883 26.6708C756.25 29.4608 755.442 32.5978 755.442 36.056H757.442ZM759.605 27.689C761.084 25.2124 763.054 23.2893 765.523 21.9041L764.545 20.1599C761.766 21.7187 759.544 23.8916 757.888 26.663L759.605 27.689ZM765.519 21.9067C768.02 20.5205 770.764 19.824 773.77 19.824V17.824C770.44 17.824 767.36 18.5995 764.549 20.1573L765.519 21.9067ZM773.77 19.824C776.776 19.824 779.502 20.5205 781.969 21.9041L782.947 20.1599C780.166 18.5995 777.1 17.824 773.77 17.824V19.824ZM781.973 21.9067C784.47 23.2905 786.418 25.2083 787.831 27.6733L789.566 26.6787C787.971 23.8957 785.758 21.7175 782.943 20.1573L781.973 21.9067ZM787.835 27.6812C789.274 30.1392 790.002 32.9222 790.002 36.056H792.002C792.002 32.5978 791.194 29.4608 789.561 26.6708L787.835 27.6812ZM790.002 36.056C790.002 39.1897 789.274 41.9908 787.833 44.4834L789.564 45.4846C791.194 42.6652 792.002 39.5143 792.002 36.056H790.002ZM787.835 44.4788C786.388 46.9512 784.436 48.8718 781.969 50.2559L782.947 52.0001C785.728 50.4402 787.936 48.2648 789.561 45.4892L787.835 44.4788ZM781.969 50.2559C779.502 51.6395 776.776 52.336 773.77 52.336V54.336C777.1 54.336 780.166 53.5605 782.947 52.0001L781.969 50.2559ZM773.77 46.848C776.705 46.848 779.135 45.8571 780.948 43.826L779.456 42.494C778.07 44.0469 776.211 44.848 773.77 44.848V46.848ZM780.941 43.8333C782.776 41.8195 783.65 39.1929 783.65 36.056H781.65C781.65 38.8071 780.893 40.9165 779.463 42.4867L780.941 43.8333ZM783.65 36.056C783.65 32.8912 782.778 30.2587 780.935 28.2721L779.469 29.6319C780.891 31.1653 781.65 33.2688 781.65 36.056H783.65ZM780.948 28.286C779.135 26.2549 776.705 25.264 773.77 25.264V27.264C776.211 27.264 778.07 28.0651 779.456 29.618L780.948 28.286ZM773.77 25.264C770.813 25.264 768.356 26.2318 766.509 28.2241L767.975 29.5839C769.392 28.0562 771.288 27.264 773.77 27.264V25.264ZM766.502 28.2313C764.694 30.2203 763.842 32.8675 763.842 36.056H765.842C765.842 33.2285 766.59 31.1077 767.982 29.5767L766.502 28.2313ZM763.842 36.056C763.842 39.2166 764.696 41.8578 766.496 43.874L767.988 42.542C766.588 40.9742 765.842 38.8474 765.842 36.056H763.842ZM766.509 43.8879C768.356 45.8802 770.813 46.848 773.77 46.848V44.848C771.288 44.848 769.392 44.0558 767.975 42.5281L766.509 43.8879ZM820.672 53L819.797 53.4826L820.082 54H820.672V53ZM813.664 40.28L814.54 39.7974L814.255 39.28H813.664V40.28ZM811.696 40.28V39.28H810.696V40.28H811.696ZM811.696 53V54H812.696V53H811.696ZM803.488 53H802.488V54H803.488V53ZM803.488 19.304V18.304H802.488V19.304H803.488ZM824.032 20.696L823.585 21.5904L823.591 21.5934L824.032 20.696ZM828.256 24.536L827.387 25.0303L827.391 25.0377L828.256 24.536ZM827.728 35.912L826.92 35.3238L826.913 35.3336L827.728 35.912ZM822.16 39.656L821.874 38.6978L820.657 39.0615L821.296 40.1595L822.16 39.656ZM829.936 53V54H831.677L830.8 52.4965L829.936 53ZM811.696 34.472H810.696V35.472H811.696V34.472ZM820.144 33.368L819.453 32.646L819.445 32.6534L819.437 32.6609L820.144 33.368ZM820.144 27.224L819.437 27.9311L819.445 27.9386L819.453 27.946L820.144 27.224ZM811.696 26.12V25.12H810.696V26.12H811.696ZM821.548 52.5174L814.54 39.7974L812.789 40.7626L819.797 53.4826L821.548 52.5174ZM813.664 39.28H811.696V41.28H813.664V39.28ZM810.696 40.28V53H812.696V40.28H810.696ZM811.696 52H803.488V54H811.696V52ZM804.488 53V19.304H802.488V53H804.488ZM803.488 20.304H817.264V18.304H803.488V20.304ZM817.264 20.304C819.807 20.304 821.901 20.7485 823.585 21.5904L824.48 19.8016C822.451 18.7875 820.034 18.304 817.264 18.304V20.304ZM823.591 21.5934C825.322 22.4441 826.57 23.5932 827.387 25.0303L829.126 24.0417C828.087 22.2148 826.519 20.8039 824.474 19.7985L823.591 21.5934ZM827.391 25.0377C828.225 26.4742 828.648 28.091 828.648 29.912H830.648C830.648 27.765 830.144 25.7978 829.121 24.0343L827.391 25.0377ZM828.648 29.912C828.648 31.9473 828.072 33.74 826.92 35.3238L828.537 36.5002C829.945 34.564 830.648 32.3567 830.648 29.912H828.648ZM826.913 35.3336C825.817 36.8782 824.167 38.013 821.874 38.6978L822.447 40.6142C825.082 39.827 827.143 38.4658 828.544 36.4904L826.913 35.3336ZM821.296 40.1595L829.072 53.5035L830.8 52.4965L823.024 39.1525L821.296 40.1595ZM829.936 52H820.672V54H829.936V52ZM811.696 35.472H816.784V33.472H811.696V35.472ZM816.784 35.472C818.435 35.472 819.858 35.0684 820.852 34.0751L819.437 32.6609C818.959 33.1396 818.142 33.472 816.784 33.472V35.472ZM820.836 34.09C821.85 33.1185 822.296 31.7885 822.296 30.248H820.296C820.296 31.3955 819.975 32.1455 819.453 32.646L820.836 34.09ZM822.296 30.248C822.296 28.7551 821.84 27.4643 820.836 26.502L819.453 27.946C819.984 28.4557 820.296 29.1809 820.296 30.248H822.296ZM820.852 26.5169C819.858 25.5236 818.435 25.12 816.784 25.12V27.12C818.142 27.12 818.959 27.4524 819.437 27.9311L820.852 26.5169ZM816.784 25.12H811.696V27.12H816.784V25.12ZM810.696 26.12V34.472H812.696V26.12H810.696ZM864.657 21.416L865.125 20.5325L864.657 21.416ZM870.801 27.368L869.929 27.8583L869.933 27.8648L869.937 27.8712L870.801 27.368ZM870.801 44.936L869.934 44.4375L869.929 44.4457L870.801 44.936ZM864.609 50.888L864.145 50.0022L864.141 50.0045L864.609 50.888ZM842.721 53H841.721V54H842.721V53ZM842.721 19.304V18.304H841.721V19.304H842.721ZM850.929 26.312V25.312H849.929V26.312H850.929ZM850.929 45.896H849.929V46.896H850.929V45.896ZM855.345 20.304C858.763 20.304 861.701 20.9808 864.189 22.2995L865.125 20.5325C862.301 19.0352 859.031 18.304 855.345 18.304V20.304ZM864.189 22.2995C866.68 23.62 868.586 25.4694 869.929 27.8583L871.673 26.8777C870.136 24.1466 867.946 22.028 865.125 20.5325L864.189 22.2995ZM869.937 27.8712C871.308 30.2263 872.009 32.976 872.009 36.152H874.009C874.009 32.672 873.238 29.5657 871.665 26.8648L869.937 27.8712ZM872.009 36.152C872.009 39.2938 871.309 42.0462 869.934 44.4375L871.668 45.4345C873.237 42.7058 874.009 39.6022 874.009 36.152H872.009ZM869.929 44.4457C868.587 46.8315 866.668 48.6807 864.145 50.0022L865.073 51.7738C867.926 50.2793 870.135 48.1605 871.673 45.4263L869.929 44.4457ZM864.141 50.0045C861.652 51.3239 858.73 52 855.345 52V54C859 54 862.254 53.2681 865.077 51.7715L864.141 50.0045ZM855.345 52H842.721V54H855.345V52ZM843.721 53V19.304H841.721V53H843.721ZM842.721 20.304H855.345V18.304H842.721V20.304ZM854.817 46.896C858.106 46.896 860.802 45.9929 862.765 44.0657L861.365 42.6383C859.872 44.1031 857.736 44.896 854.817 44.896V46.896ZM862.765 44.0657C864.735 42.1324 865.657 39.4449 865.657 36.152H863.657C863.657 39.0671 862.851 41.1796 861.365 42.6383L862.765 44.0657ZM865.657 36.152C865.657 32.8581 864.735 30.1597 862.772 28.1969L861.358 29.6111C862.851 31.1043 863.657 33.2379 863.657 36.152H865.657ZM862.772 28.1969C860.809 26.2341 858.111 25.312 854.817 25.312V27.312C857.731 27.312 859.865 28.1179 861.358 29.6111L862.772 28.1969ZM854.817 25.312H850.929V27.312H854.817V25.312ZM849.929 26.312V45.896H851.929V26.312H849.929ZM850.929 46.896H854.817V44.896H850.929V46.896ZM891.084 52.136L890.705 53.0613L891.084 52.136ZM886.38 48.584L885.574 49.1761L885.582 49.1866L886.38 48.584ZM884.556 42.92V41.92H883.527L883.556 42.949L884.556 42.92ZM893.292 42.92L894.287 42.818L894.195 41.92H893.292V42.92ZM894.588 45.8L893.914 46.5385L893.923 46.5467L893.932 46.5546L894.588 45.8ZM900.348 45.944L900.959 46.7353L900.971 46.7268L900.981 46.718L900.348 45.944ZM900.54 41.528L899.833 42.2351L899.843 42.2452L899.853 42.255L900.54 41.528ZM898.476 40.184L898.073 41.0993L898.08 41.1022L898.086 41.105L898.476 40.184ZM895.02 38.984L894.725 39.9395L894.735 39.9424L895.02 38.984ZM886.14 33.992L886.938 33.3889L886.14 33.992ZM888.06 21.512L888.672 22.3026L888.679 22.2972L888.06 21.512ZM905.916 21.512L905.297 22.2972L905.304 22.3025L905.916 21.512ZM909.564 28.904V29.904H910.616L910.563 28.8536L909.564 28.904ZM900.684 28.904L899.686 28.9627L899.741 29.904H900.684V28.904ZM899.484 26.36L898.828 27.1146L898.837 27.1229L898.847 27.131L899.484 26.36ZM894.252 26.216L894.896 26.9809L894.908 26.9712L894.919 26.9612L894.252 26.216ZM894.876 31.016L895.387 30.1561L894.876 31.016ZM899.676 32.984L899.996 32.0366L899.984 32.0326L899.676 32.984ZM904.956 35.096L904.509 35.9905L904.517 35.9946L904.956 35.096ZM908.508 38.024L907.718 38.6366L908.508 38.024ZM908.508 48.2L907.663 47.6654L907.659 47.6716L907.655 47.6778L908.508 48.2ZM904.284 51.944L903.837 51.0496L904.284 51.944ZM897.708 52.336C895.353 52.336 893.276 51.9538 891.463 51.2107L890.705 53.0613C892.796 53.9182 895.135 54.336 897.708 54.336V52.336ZM891.463 51.2107C889.665 50.4735 888.246 49.3956 887.178 47.9814L885.582 49.1866C886.882 50.9084 888.599 52.1985 890.705 53.0613L891.463 51.2107ZM887.186 47.9919C886.17 46.6091 885.615 44.9245 885.556 42.891L883.556 42.949C883.625 45.3315 884.286 47.4229 885.574 49.1761L887.186 47.9919ZM884.556 43.92H893.292V41.92H884.556V43.92ZM892.297 43.022C892.444 44.4488 892.953 45.6613 893.914 46.5385L895.262 45.0615C894.751 44.5947 894.396 43.8872 894.287 42.818L892.297 43.022ZM893.932 46.5546C894.887 47.385 896.097 47.76 897.468 47.76V45.76C896.471 45.76 895.761 45.495 895.244 45.0454L893.932 46.5546ZM897.468 47.76C898.825 47.76 900.026 47.4566 900.959 46.7353L899.737 45.1527C899.262 45.5194 898.543 45.76 897.468 45.76V47.76ZM900.981 46.718C901.94 45.9333 902.404 44.853 902.404 43.592H900.404C900.404 44.315 900.164 44.8027 899.715 45.17L900.981 46.718ZM902.404 43.592C902.404 42.5004 902.014 41.5443 901.227 40.801L899.853 42.255C900.218 42.5997 900.404 43.0196 900.404 43.592H902.404ZM901.247 40.8209C900.598 40.1714 899.796 39.6566 898.866 39.263L898.086 41.105C898.82 41.4154 899.394 41.7966 899.833 42.2351L901.247 40.8209ZM898.879 39.2687C898.022 38.8917 896.823 38.4778 895.306 38.0256L894.735 39.9424C896.225 40.3862 897.33 40.7723 898.073 41.0993L898.879 39.2687ZM895.315 38.0285C893.167 37.3652 891.444 36.7107 890.131 36.0694L889.253 37.8666C890.692 38.5693 892.521 39.2588 894.725 39.9395L895.315 38.0285ZM890.131 36.0694C888.906 35.4714 887.842 34.5851 886.938 33.3889L885.342 34.5951C886.422 36.0229 887.726 37.1206 889.253 37.8666L890.131 36.0694ZM886.938 33.3889C886.11 32.2944 885.652 30.8126 885.652 28.856H883.652C883.652 31.1234 884.186 33.0656 885.342 34.5951L886.938 33.3889ZM885.652 28.856C885.652 25.9968 886.669 23.8541 888.672 22.3025L887.448 20.7214C884.907 22.6899 883.652 25.4432 883.652 28.856H885.652ZM888.679 22.2972C890.733 20.6772 893.457 19.824 896.94 19.824V17.824C893.127 17.824 889.931 18.7628 887.441 20.7268L888.679 22.2972ZM896.94 19.824C900.492 19.824 903.246 20.6795 905.297 22.2972L906.535 20.7268C904.042 18.7605 900.812 17.824 896.94 17.824V19.824ZM905.304 22.3025C907.32 23.8641 908.418 26.0437 908.565 28.9544L910.563 28.8536C910.39 25.4283 909.057 22.6799 906.528 20.7214L905.304 22.3025ZM909.564 27.904H900.684V29.904H909.564V27.904ZM901.682 28.8453C901.605 27.5232 901.102 26.3997 900.121 25.589L898.847 27.131C899.338 27.5363 899.636 28.1088 899.686 28.9627L901.682 28.8453ZM900.14 25.6054C899.19 24.7794 897.999 24.4 896.652 24.4V26.4C897.609 26.4 898.306 26.6606 898.828 27.1146L900.14 25.6054ZM896.652 24.4C895.47 24.4 894.414 24.729 893.585 25.4708L894.919 26.9612C895.306 26.615 895.85 26.4 896.652 26.4V24.4ZM893.608 25.4511C892.72 26.199 892.34 27.2646 892.34 28.472H894.34C894.34 27.6954 894.568 27.257 894.896 26.9809L893.608 25.4511ZM892.34 28.472C892.34 29.9514 893.073 31.1083 894.365 31.8759L895.387 30.1561C894.631 29.7077 894.34 29.1686 894.34 28.472H892.34ZM894.365 31.8759C895.488 32.5422 897.174 33.2254 899.368 33.9354L899.984 32.0326C897.827 31.3346 896.312 30.7058 895.387 30.1561L894.365 31.8759ZM899.356 33.9313C901.508 34.6594 903.221 35.3466 904.509 35.9904L905.403 34.2016C904.003 33.5014 902.196 32.7806 899.996 32.0367L899.356 33.9313ZM904.517 35.9946C905.748 36.5955 906.814 37.4704 907.718 38.6366L909.298 37.4114C908.218 36.0176 906.916 34.9405 905.395 34.1974L904.517 35.9946ZM907.718 38.6366C908.543 39.702 908.996 41.1184 908.996 42.968H910.996C910.996 40.7856 910.457 38.906 909.298 37.4114L907.718 38.6366ZM908.996 42.968C908.996 44.7057 908.55 46.2631 907.663 47.6654L909.353 48.7346C910.45 47.0009 910.996 45.0703 910.996 42.968H908.996ZM907.655 47.6778C906.805 49.0664 905.548 50.1942 903.837 51.0496L904.731 52.8384C906.733 51.8378 908.291 50.4696 909.361 48.7222L907.655 47.6778ZM903.837 51.0496C902.147 51.8946 900.114 52.336 897.708 52.336V54.336C900.358 54.336 902.709 53.8494 904.731 52.8384L903.837 51.0496ZM923.255 52.136L922.561 52.8558L922.574 52.8684L922.588 52.8806L923.255 52.136ZM923.255 45.752L922.574 45.0201L922.567 45.0261L922.561 45.0322L923.255 45.752ZM930.263 45.752L929.569 46.4718L929.575 46.4779L929.582 46.4839L930.263 45.752ZM930.263 52.136L930.944 52.8688L930.945 52.8679L930.263 52.136ZM926.807 52.384C925.573 52.384 924.639 52.0336 923.923 51.3914L922.588 52.8806C923.727 53.9024 925.162 54.384 926.807 54.384V52.384ZM923.949 51.4162C923.249 50.7412 922.911 49.9453 922.911 48.968H920.911C920.911 50.4867 921.469 51.8028 922.561 52.8558L923.949 51.4162ZM922.911 48.968C922.911 47.9509 923.255 47.1414 923.949 46.4718L922.561 45.0322C921.464 46.0906 920.911 47.4251 920.911 48.968H922.911ZM923.937 46.4839C924.654 45.8158 925.583 45.456 926.807 45.456V43.456C925.151 43.456 923.712 43.9602 922.574 45.0201L923.937 46.4839ZM926.807 45.456C927.993 45.456 928.884 45.8116 929.569 46.4718L930.957 45.0322C929.85 43.9644 928.437 43.456 926.807 43.456V45.456ZM929.582 46.4839C930.304 47.1567 930.655 47.9626 930.655 48.968H932.655C932.655 47.4134 932.078 46.0753 930.945 45.0201L929.582 46.4839ZM930.655 48.968C930.655 49.9334 930.31 50.7258 929.582 51.4041L930.945 52.8679C932.072 51.8182 932.655 50.4986 932.655 48.968H930.655ZM929.583 51.4032C928.9 52.0375 928.004 52.384 926.807 52.384V54.384C928.427 54.384 929.835 53.8985 930.944 52.8688L929.583 51.4032Z" fill="black" fill-opacity="0.5"/>
</g>
<g filter="url(#filter1_i_48_17)">
<circle cx="529.5" cy="315.5" r="14.5" transform="rotate(180 529.5 315.5)" fill="url(#paint1_linear_48_17)"/>
</g>
<circle cx="529.5" cy="315.5" r="12" transform="rotate(180 529.5 315.5)" stroke="url(#paint2_linear_48_17)" stroke-width="5"/>
<g filter="url(#filter2_d_48_17)">
<circle cx="484.5" cy="315.5" r="14.5" transform="rotate(180 484.5 315.5)" fill="url(#paint3_linear_48_17)" shape-rendering="crispEdges"/>
<circle cx="484.5" cy="315.5" r="7.5" transform="rotate(180 484.5 315.5)" stroke="url(#paint4_linear_48_17)" stroke-width="14" shape-rendering="crispEdges"/>
</g>
<g filter="url(#filter3_i_48_17)">
<circle cx="439.5" cy="315.5" r="14.5" transform="rotate(180 439.5 315.5)" fill="url(#paint5_linear_48_17)"/>
</g>
<circle cx="439.5" cy="315.5" r="12" transform="rotate(180 439.5 315.5)" stroke="url(#paint6_linear_48_17)" stroke-width="5"/>
<defs>
<filter id="filter0_d_48_17" x="0.0458984" y="8.82397" width="974.609" height="84.5601" filterUnits="userSpaceOnUse" color-interpolation-filters="sRGB">
<feFlood flood-opacity="0" result="BackgroundImageFix"/>
<feColorMatrix in="SourceAlpha" type="matrix" values="0 0 0 0 0 0 0 0 0 0 0 0 0 0 0 0 0 0 127 0" result="hardAlpha"/>
<feOffset dx="18" dy="15"/>
<feGaussianBlur stdDeviation="12.5"/>
<feComposite in2="hardAlpha" operator="out"/>
<feColorMatrix type="matrix" values="0 0 0 0 0 0 0 0 0 0 0 0 0 0 0 0 0 0 0.57 0"/>
<feBlend mode="normal" in2="BackgroundImageFix" result="effect1_dropShadow_48_17"/>
<feBlend mode="normal" in="SourceGraphic" in2="effect1_dropShadow_48_17" result="shape"/>
</filter>
<filter id="filter1_i_48_17" x="515" y="301" width="47" height="44" filterUnits="userSpaceOnUse" color-interpolation-filters="sRGB">
<feFlood flood-opacity="0" result="BackgroundImageFix"/>
<feBlend mode="normal" in="SourceGraphic" in2="BackgroundImageFix" result="shape"/>
<feColorMatrix in="SourceAlpha" type="matrix" values="0 0 0 0 0 0 0 0 0 0 0 0 0 0 0 0 0 0 127 0" result="hardAlpha"/>
<feOffset dx="18" dy="15"/>
<feGaussianBlur stdDeviation="12.5"/>
<feComposite in2="hardAlpha" operator="arithmetic" k2="-1" k3="1"/>
<feColorMatrix type="matrix" values="0 0 0 0 0 0 0 0 0 0 0 0 0 0 0 0 0 0 0.57 0"/>
<feBlend mode="normal" in2="shape" result="effect1_innerShadow_48_17"/>
</filter>
<filter id="filter2_d_48_17" x="463" y="291" width="79" height="79" filterUnits="userSpaceOnUse" color-interpolation-filters="sRGB">
<feFlood flood-opacity="0" result="BackgroundImageFix"/>
<feColorMatrix in="SourceAlpha" type="matrix" values="0 0 0 0 0 0 0 0 0 0 0 0 0 0 0 0 0 0 127 0" result="hardAlpha"/>
<feOffset dx="18" dy="15"/>
<feGaussianBlur stdDeviation="12.5"/>
<feComposite in2="hardAlpha" operator="out"/>
<feColorMatrix type="matrix" values="0 0 0 0 0 0 0 0 0 0 0 0 0 0 0 0 0 0 0.57 0"/>
<feBlend mode="normal" in2="BackgroundImageFix" result="effect1_dropShadow_48_17"/>
<feBlend mode="normal" in="SourceGraphic" in2="effect1_dropShadow_48_17" result="shape"/>
</filter>
<filter id="filter3_i_48_17" x="425" y="301" width="47" height="44" filterUnits="userSpaceOnUse" color-interpolation-filters="sRGB">
<feFlood flood-opacity="0" result="BackgroundImageFix"/>
<feBlend mode="normal" in="SourceGraphic" in2="BackgroundImageFix" result="shape"/>
<feColorMatrix in="SourceAlpha" type="matrix" values="0 0 0 0 0 0 0 0 0 0 0 0 0 0 0 0 0 0 127 0" result="hardAlpha"/>
<feOffset dx="18" dy="15"/>
<feGaussianBlur stdDeviation="12.5"/>
<feComposite in2="hardAlpha" operator="arithmetic" k2="-1" k3="1"/>
<feColorMatrix type="matrix" values="0 0 0 0 0 0 0 0 0 0 0 0 0 0 0 0 0 0 0.57 0"/>
<feBlend mode="normal" in2="shape" result="effect1_innerShadow_48_17"/>
</filter>
<linearGradient id="paint0_linear_48_17" x1="29.2303" y1="2.83817" x2="106.352" y2="289.598" gradientUnits="userSpaceOnUse">
<stop stop-color="#FB37FF"/>
<stop offset="0.421875" stop-color="#9B6FEE"/>
<stop offset="0.682292" stop-color="#18B2DE"/>
<stop offset="1" stop-color="#7B7FEA" stop-opacity="0"/>
</linearGradient>
<linearGradient id="paint1_linear_48_17" x1="515.66" y1="301.963" x2="548.593" y2="311.189" gradientUnits="userSpaceOnUse">
<stop stop-color="#3A81BF"/>
<stop offset="1" stop-color="#41305A" stop-opacity="0.03"/>
</linearGradient>
<linearGradient id="paint2_linear_48_17" x1="515.756" y1="302.143" x2="548.712" y2="311.64" gradientUnits="userSpaceOnUse">
<stop stop-color="#FB37FF"/>
<stop offset="0.425065" stop-color="#9B6FEE"/>
<stop offset="0.519704" stop-color="#7B7FEA" stop-opacity="0"/>
<stop offset="1" stop-color="#18B2DE"/>
</linearGradient>
<linearGradient id="paint3_linear_48_17" x1="470.66" y1="301.963" x2="503.593" y2="311.189" gradientUnits="userSpaceOnUse">
<stop stop-color="#3A81BF"/>
<stop offset="1" stop-color="#41305A" stop-opacity="0.03"/>
</linearGradient>
<linearGradient id="paint4_linear_48_17" x1="470.756" y1="302.143" x2="503.712" y2="311.64" gradientUnits="userSpaceOnUse">
<stop stop-color="#FB37FF"/>
<stop offset="0.425065" stop-color="#9B6FEE"/>
<stop offset="0.519704" stop-color="#7B7FEA" stop-opacity="0"/>
<stop offset="1" stop-color="#18B2DE"/>
</linearGradient>
<linearGradient id="paint5_linear_48_17" x1="425.66" y1="301.963" x2="458.593" y2="311.189" gradientUnits="userSpaceOnUse">
<stop stop-color="#3A81BF"/>
<stop offset="1" stop-color="#41305A" stop-opacity="0.03"/>
</linearGradient>
<linearGradient id="paint6_linear_48_17" x1="425.756" y1="302.143" x2="458.712" y2="311.64" gradientUnits="userSpaceOnUse">
<stop stop-color="#FB37FF"/>
<stop offset="0.425065" stop-color="#9B6FEE"/>
<stop offset="0.519704" stop-color="#7B7FEA" stop-opacity="0"/>
<stop offset="1" stop-color="#18B2DE"/>
</linearGradient>
</defs>
</svg>
