<svg width="996" height="328" viewBox="0 0 996 328" fill="none" xmlns="http://www.w3.org/2000/svg">
<g filter="url(#filter0_d_48_18)">
<path d="M7.87401 36.104C7.87401 32.776 8.59401 29.816 10.034 27.224C11.474 24.6 13.474 22.568 16.034 21.128C18.626 19.656 21.554 18.92 24.818 18.92C28.818 18.92 32.242 19.976 35.09 22.088C37.938 24.2 39.842 27.08 40.802 30.728H31.778C31.106 29.32 30.146 28.248 28.898 27.512C27.682 26.776 26.29 26.408 24.722 26.408C22.194 26.408 20.146 27.288 18.578 29.048C17.01 30.808 16.226 33.16 16.226 36.104C16.226 39.048 17.01 41.4 18.578 43.16C20.146 44.92 22.194 45.8 24.722 45.8C26.29 45.8 27.682 45.432 28.898 44.696C30.146 43.96 31.106 42.888 31.778 41.48H40.802C39.842 45.128 37.938 48.008 35.09 50.12C32.242 52.2 28.818 53.24 24.818 53.24C21.554 53.24 18.626 52.52 16.034 51.08C13.474 49.608 11.474 47.576 10.034 44.984C8.59401 42.392 7.87401 39.432 7.87401 36.104ZM61.9565 46.664H72.7085V53H53.7485V19.304H61.9565V46.664ZM92.7515 19.304V53H84.5435V19.304H92.7515ZM105.228 36.104C105.228 32.776 105.948 29.816 107.388 27.224C108.828 24.6 110.828 22.568 113.388 21.128C115.98 19.656 118.908 18.92 122.172 18.92C126.172 18.92 129.596 19.976 132.444 22.088C135.292 24.2 137.196 27.08 138.156 30.728H129.132C128.46 29.32 127.5 28.248 126.252 27.512C125.036 26.776 123.644 26.408 122.076 26.408C119.548 26.408 117.5 27.288 115.932 29.048C114.364 30.808 113.58 33.16 113.58 36.104C113.58 39.048 114.364 41.4 115.932 43.16C117.5 44.92 119.548 45.8 122.076 45.8C123.644 45.8 125.036 45.432 126.252 44.696C127.5 43.96 128.46 42.888 129.132 41.48H138.156C137.196 45.128 135.292 48.008 132.444 50.12C129.596 52.2 126.172 53.24 122.172 53.24C118.908 53.24 115.98 52.52 113.388 51.08C110.828 49.608 108.828 47.576 107.388 44.984C105.948 42.392 105.228 39.432 105.228 36.104ZM170.638 53L159.31 38.12V53H151.102V19.304H159.31V34.088L170.542 19.304H180.19L167.134 35.816L180.67 53H170.638ZM231.223 32.744V39.56H210.103V32.744H231.223ZM286.375 19.304V25.88H272.647V32.984H282.919V39.368H272.647V53H264.439V19.304H286.375ZM314.545 53.336C311.377 53.336 308.465 52.6 305.809 51.128C303.185 49.656 301.089 47.608 299.521 44.984C297.985 42.328 297.217 39.352 297.217 36.056C297.217 32.76 297.985 29.8 299.521 27.176C301.089 24.552 303.185 22.504 305.809 21.032C308.465 19.56 311.377 18.824 314.545 18.824C317.713 18.824 320.609 19.56 323.233 21.032C325.889 22.504 327.969 24.552 329.473 27.176C331.009 29.8 331.777 32.76 331.777 36.056C331.777 39.352 331.009 42.328 329.473 44.984C327.937 47.608 325.857 49.656 323.233 51.128C320.609 52.6 317.713 53.336 314.545 53.336ZM314.545 45.848C317.233 45.848 319.377 44.952 320.977 43.16C322.609 41.368 323.425 39 323.425 36.056C323.425 33.08 322.609 30.712 320.977 28.952C319.377 27.16 317.233 26.264 314.545 26.264C311.825 26.264 309.649 27.144 308.017 28.904C306.417 30.664 305.617 33.048 305.617 36.056C305.617 39.032 306.417 41.416 308.017 43.208C309.649 44.968 311.825 45.848 314.545 45.848ZM361.447 53L354.439 40.28H352.471V53H344.263V19.304H358.039C360.695 19.304 362.951 19.768 364.807 20.696C366.695 21.624 368.103 22.904 369.031 24.536C369.959 26.136 370.423 27.928 370.423 29.912C370.423 32.152 369.783 34.152 368.503 35.912C367.255 37.672 365.399 38.92 362.935 39.656L370.711 53H361.447ZM352.471 34.472H357.559C359.063 34.472 360.183 34.104 360.919 33.368C361.687 32.632 362.071 31.592 362.071 30.248C362.071 28.968 361.687 27.96 360.919 27.224C360.183 26.488 359.063 26.12 357.559 26.12H352.471V34.472ZM431.731 53H423.523L409.795 32.216V53H401.587V19.304H409.795L423.523 40.184V19.304H431.731V53ZM453.809 25.88V32.696H464.801V39.032H453.809V46.424H466.241V53H445.601V19.304H466.241V25.88H453.809ZM501.858 29.96C501.25 28.84 500.37 27.992 499.218 27.416C498.098 26.808 496.77 26.504 495.234 26.504C492.578 26.504 490.45 27.384 488.85 29.144C487.25 30.872 486.45 33.192 486.45 36.104C486.45 39.208 487.282 41.64 488.946 43.4C490.642 45.128 492.962 45.992 495.906 45.992C497.922 45.992 499.618 45.48 500.994 44.456C502.402 43.432 503.426 41.96 504.066 40.04H493.65V33.992H511.506V41.624C510.898 43.672 509.858 45.576 508.386 47.336C506.946 49.096 505.106 50.52 502.866 51.608C500.626 52.696 498.098 53.24 495.282 53.24C491.954 53.24 488.978 52.52 486.354 51.08C483.762 49.608 481.73 47.576 480.258 44.984C478.818 42.392 478.098 39.432 478.098 36.104C478.098 32.776 478.818 29.816 480.258 27.224C481.73 24.6 483.762 22.568 486.354 21.128C488.946 19.656 491.906 18.92 495.234 18.92C499.266 18.92 502.658 19.896 505.41 21.848C508.194 23.8 510.034 26.504 510.93 29.96H501.858ZM544.948 47.048H532.372L530.356 53H521.764L533.956 19.304H543.46L555.652 53H546.964L544.948 47.048ZM542.836 40.712L538.66 28.376L534.532 40.712H542.836ZM591.523 19.304V25.88H582.595V53H574.387V25.88H565.459V19.304H591.523ZM611.77 19.304V53H603.562V19.304H611.77ZM657.27 19.304L645.318 53H635.046L623.094 19.304H631.83L640.182 44.744L648.582 19.304H657.27ZM676.829 25.88V32.696H687.821V39.032H676.829V46.424H689.261V53H668.621V19.304H689.261V25.88H676.829ZM766.97 19.304L758.186 53H748.25L742.874 30.824L737.306 53H727.37L718.826 19.304H727.61L732.458 43.832L738.458 19.304H747.482L753.242 43.832L758.138 19.304H766.97ZM794.942 53.336C791.774 53.336 788.862 52.6 786.206 51.128C783.582 49.656 781.486 47.608 779.918 44.984C778.382 42.328 777.614 39.352 777.614 36.056C777.614 32.76 778.382 29.8 779.918 27.176C781.486 24.552 783.582 22.504 786.206 21.032C788.862 19.56 791.774 18.824 794.942 18.824C798.11 18.824 801.006 19.56 803.63 21.032C806.286 22.504 808.366 24.552 809.87 27.176C811.406 29.8 812.174 32.76 812.174 36.056C812.174 39.352 811.406 42.328 809.87 44.984C808.334 47.608 806.254 49.656 803.63 51.128C801.006 52.6 798.11 53.336 794.942 53.336ZM794.942 45.848C797.63 45.848 799.774 44.952 801.374 43.16C803.006 41.368 803.822 39 803.822 36.056C803.822 33.08 803.006 30.712 801.374 28.952C799.774 27.16 797.63 26.264 794.942 26.264C792.222 26.264 790.046 27.144 788.414 28.904C786.814 30.664 786.014 33.048 786.014 36.056C786.014 39.032 786.814 41.416 788.414 43.208C790.046 44.968 792.222 45.848 794.942 45.848ZM841.844 53L834.836 40.28H832.868V53H824.66V19.304H838.436C841.092 19.304 843.348 19.768 845.204 20.696C847.092 21.624 848.5 22.904 849.428 24.536C850.356 26.136 850.82 27.928 850.82 29.912C850.82 32.152 850.18 34.152 848.9 35.912C847.652 37.672 845.796 38.92 843.332 39.656L851.108 53H841.844ZM832.868 34.472H837.956C839.46 34.472 840.58 34.104 841.316 33.368C842.084 32.632 842.468 31.592 842.468 30.248C842.468 28.968 842.084 27.96 841.316 27.224C840.58 26.488 839.46 26.12 837.956 26.12H832.868V34.472ZM876.517 19.304C880.069 19.304 883.173 20.008 885.829 21.416C888.485 22.824 890.533 24.808 891.973 27.368C893.445 29.896 894.181 32.824 894.181 36.152C894.181 39.448 893.445 42.376 891.973 44.936C890.533 47.496 888.469 49.48 885.781 50.888C883.125 52.296 880.037 53 876.517 53H863.893V19.304H876.517ZM875.989 45.896C879.093 45.896 881.509 45.048 883.237 43.352C884.965 41.656 885.829 39.256 885.829 36.152C885.829 33.048 884.965 30.632 883.237 28.904C881.509 27.176 879.093 26.312 875.989 26.312H872.101V45.896H875.989ZM918.88 53.336C916.416 53.336 914.208 52.936 912.256 52.136C910.304 51.336 908.736 50.152 907.552 48.584C906.4 47.016 905.792 45.128 905.728 42.92H914.464C914.592 44.168 915.024 45.128 915.76 45.8C916.496 46.44 917.456 46.76 918.64 46.76C919.856 46.76 920.816 46.488 921.52 45.944C922.224 45.368 922.576 44.584 922.576 43.592C922.576 42.76 922.288 42.072 921.712 41.528C921.168 40.984 920.48 40.536 919.648 40.184C918.848 39.832 917.696 39.432 916.192 38.984C914.016 38.312 912.24 37.64 910.864 36.968C909.488 36.296 908.304 35.304 907.312 33.992C906.32 32.68 905.824 30.968 905.824 28.856C905.824 25.72 906.96 23.272 909.232 21.512C911.504 19.72 914.464 18.824 918.112 18.824C921.824 18.824 924.816 19.72 927.088 21.512C929.36 23.272 930.576 25.736 930.736 28.904H921.856C921.792 27.816 921.392 26.968 920.656 26.36C919.92 25.72 918.976 25.4 917.824 25.4C916.832 25.4 916.032 25.672 915.424 26.216C914.816 26.728 914.512 27.48 914.512 28.472C914.512 29.56 915.024 30.408 916.048 31.016C917.072 31.624 918.672 32.28 920.848 32.984C923.024 33.72 924.784 34.424 926.128 35.096C927.504 35.768 928.688 36.744 929.68 38.024C930.672 39.304 931.168 40.952 931.168 42.968C931.168 44.888 930.672 46.632 929.68 48.2C928.72 49.768 927.312 51.016 925.456 51.944C923.6 52.872 921.408 53.336 918.88 53.336ZM947.979 53.384C946.539 53.384 945.355 52.968 944.427 52.136C943.531 51.272 943.083 50.216 943.083 48.968C943.083 47.688 943.531 46.616 944.427 45.752C945.355 44.888 946.539 44.456 947.979 44.456C949.387 44.456 950.539 44.888 951.435 45.752C952.363 46.616 952.827 47.688 952.827 48.968C952.827 50.216 952.363 51.272 951.435 52.136C950.539 52.968 949.387 53.384 947.979 53.384Z" fill="url(#paint0_linear_48_18)" shape-rendering="crispEdges"/>
<path d="M10.034 27.224L10.9082 27.7097L10.9107 27.7051L10.034 27.224ZM16.034 21.128L16.5243 21.9996L16.5278 21.9976L16.034 21.128ZM35.09 22.088L35.6857 21.2848L35.09 22.088ZM40.802 30.728V31.728H42.0992L41.7691 30.4735L40.802 30.728ZM31.778 30.728L30.8755 31.1587L31.1472 31.728H31.778V30.728ZM28.898 27.512L28.3802 28.3676L28.39 28.3734L28.898 27.512ZM18.578 29.048L19.3247 29.7132L18.578 29.048ZM28.898 44.696L28.39 43.8346L28.3802 43.8405L28.898 44.696ZM31.778 41.48V40.48H31.1472L30.8755 41.0493L31.778 41.48ZM40.802 41.48L41.7691 41.7345L42.0992 40.48H40.802V41.48ZM35.09 50.12L35.6798 50.9276L35.6857 50.9232L35.09 50.12ZM16.034 51.08L15.5355 51.9469L15.5419 51.9506L15.5484 51.9542L16.034 51.08ZM10.034 44.984L10.9082 44.4984L10.034 44.984ZM8.87401 36.104C8.87401 32.9248 9.5604 30.1356 10.9082 27.7096L9.15985 26.7384C7.62761 29.4964 6.87401 32.6272 6.87401 36.104H8.87401ZM10.9107 27.7051C12.2627 25.2415 14.1302 23.3462 16.5243 21.9996L15.5437 20.2564C12.8178 21.7898 10.6854 23.9585 9.15734 26.7429L10.9107 27.7051ZM16.5278 21.9976C18.9553 20.619 21.7102 19.92 24.818 19.92V17.92C21.3978 17.92 18.2968 18.693 15.5402 20.2584L16.5278 21.9976ZM24.818 19.92C28.6323 19.92 31.8404 20.9231 34.4944 22.8912L35.6857 21.2848C32.6436 19.0288 29.0038 17.92 24.818 17.92V19.92ZM34.4944 22.8912C37.1476 24.8588 38.9288 27.5392 39.8349 30.9825L41.7691 30.4735C40.7552 26.6208 38.7284 23.5412 35.6857 21.2848L34.4944 22.8912ZM40.802 29.728H31.778V31.728H40.802V29.728ZM32.6805 30.2973C31.9297 28.7241 30.8387 27.4956 29.406 26.6506L28.39 28.3734C29.4533 29.0004 30.2823 29.9159 30.8755 31.1587L32.6805 30.2973ZM29.4158 26.6565C28.0278 25.8164 26.4532 25.408 24.722 25.408V27.408C26.1269 27.408 27.3362 27.7356 28.3802 28.3675L29.4158 26.6565ZM24.722 25.408C21.9321 25.408 19.6041 26.393 17.8313 28.3828L19.3247 29.7132C20.6879 28.183 22.4559 27.408 24.722 27.408V25.408ZM17.8313 28.3828C16.0624 30.3683 15.226 32.9781 15.226 36.104H17.226C17.226 33.3419 17.9576 31.2477 19.3247 29.7132L17.8313 28.3828ZM15.226 36.104C15.226 39.2299 16.0624 41.8397 17.8313 43.8252L19.3247 42.4948C17.9576 40.9603 17.226 38.8661 17.226 36.104H15.226ZM17.8313 43.8252C19.6041 45.815 21.9321 46.8 24.722 46.8V44.8C22.4559 44.8 20.6879 44.025 19.3247 42.4948L17.8313 43.8252ZM24.722 46.8C26.4532 46.8 28.0278 46.3916 29.4158 45.5515L28.3802 43.8405C27.3362 44.4724 26.1269 44.8 24.722 44.8V46.8ZM29.406 45.5574C30.8387 44.7124 31.9297 43.4839 32.6805 41.9107L30.8755 41.0493C30.2823 42.2921 29.4533 43.2076 28.39 43.8346L29.406 45.5574ZM31.778 42.48H40.802V40.48H31.778V42.48ZM39.8349 41.2255C38.9288 44.6688 37.1476 47.3492 34.4944 49.3168L35.6857 50.9232C38.7284 48.6668 40.7552 45.5872 41.7691 41.7345L39.8349 41.2255ZM34.5002 49.3124C31.8459 51.251 28.6357 52.24 24.818 52.24V54.24C29.0004 54.24 32.6381 53.149 35.6798 50.9276L34.5002 49.3124ZM24.818 52.24C21.7064 52.24 18.9485 51.5552 16.5197 50.2058L15.5484 51.9542C18.3035 53.4848 21.4016 54.24 24.818 54.24V52.24ZM16.5325 50.2131C14.1307 48.8321 12.2603 46.9322 10.9082 44.4984L9.15985 45.4696C10.6877 48.2198 12.8173 50.3839 15.5355 51.9469L16.5325 50.2131ZM10.9082 44.4984C9.5604 42.0724 8.87401 39.2832 8.87401 36.104H6.87401C6.87401 39.5808 7.62761 42.7116 9.15985 45.4696L10.9082 44.4984ZM61.9565 46.664H60.9565V47.664H61.9565V46.664ZM72.7085 46.664H73.7085V45.664H72.7085V46.664ZM72.7085 53V54H73.7085V53H72.7085ZM53.7485 53H52.7485V54H53.7485V53ZM53.7485 19.304V18.304H52.7485V19.304H53.7485ZM61.9565 19.304H62.9565V18.304H61.9565V19.304ZM61.9565 47.664H72.7085V45.664H61.9565V47.664ZM71.7085 46.664V53H73.7085V46.664H71.7085ZM72.7085 52H53.7485V54H72.7085V52ZM54.7485 53V19.304H52.7485V53H54.7485ZM53.7485 20.304H61.9565V18.304H53.7485V20.304ZM60.9565 19.304V46.664H62.9565V19.304H60.9565ZM92.7515 19.304H93.7515V18.304H92.7515V19.304ZM92.7515 53V54H93.7515V53H92.7515ZM84.5435 53H83.5435V54H84.5435V53ZM84.5435 19.304V18.304H83.5435V19.304H84.5435ZM91.7515 19.304V53H93.7515V19.304H91.7515ZM92.7515 52H84.5435V54H92.7515V52ZM85.5435 53V19.304H83.5435V53H85.5435ZM84.5435 20.304H92.7515V18.304H84.5435V20.304ZM107.388 27.224L108.262 27.7097L108.264 27.7051L107.388 27.224ZM113.388 21.128L113.878 21.9996L113.882 21.9976L113.388 21.128ZM132.444 22.088L133.039 21.2848L132.444 22.088ZM138.156 30.728V31.728H139.453L139.123 30.4735L138.156 30.728ZM129.132 30.728L128.229 31.1587L128.501 31.728H129.132V30.728ZM126.252 27.512L125.734 28.3676L125.744 28.3734L126.252 27.512ZM115.932 29.048L116.678 29.7132L115.932 29.048ZM126.252 44.696L125.744 43.8346L125.734 43.8405L126.252 44.696ZM129.132 41.48V40.48H128.501L128.229 41.0493L129.132 41.48ZM138.156 41.48L139.123 41.7345L139.453 40.48H138.156V41.48ZM132.444 50.12L133.034 50.9276L133.039 50.9232L132.444 50.12ZM113.388 51.08L112.889 51.9469L112.896 51.9506L112.902 51.9542L113.388 51.08ZM107.388 44.984L108.262 44.4984L107.388 44.984ZM106.228 36.104C106.228 32.9248 106.914 30.1356 108.262 27.7096L106.514 26.7384C104.981 29.4964 104.228 32.6272 104.228 36.104H106.228ZM108.264 27.7051C109.616 25.2415 111.484 23.3462 113.878 21.9996L112.897 20.2564C110.172 21.7898 108.039 23.9585 106.511 26.7429L108.264 27.7051ZM113.882 21.9976C116.309 20.619 119.064 19.92 122.172 19.92V17.92C118.752 17.92 115.651 18.693 112.894 20.2584L113.882 21.9976ZM122.172 19.92C125.986 19.92 129.194 20.9231 131.848 22.8912L133.039 21.2848C129.997 19.0288 126.358 17.92 122.172 17.92V19.92ZM131.848 22.8912C134.501 24.8588 136.283 27.5392 137.189 30.9825L139.123 30.4735C138.109 26.6208 136.082 23.5412 133.039 21.2848L131.848 22.8912ZM138.156 29.728H129.132V31.728H138.156V29.728ZM130.034 30.2973C129.283 28.7241 128.192 27.4956 126.76 26.6506L125.744 28.3734C126.807 29.0004 127.636 29.9159 128.229 31.1587L130.034 30.2973ZM126.77 26.6565C125.382 25.8164 123.807 25.408 122.076 25.408V27.408C123.481 27.408 124.69 27.7356 125.734 28.3675L126.77 26.6565ZM122.076 25.408C119.286 25.408 116.958 26.393 115.185 28.3828L116.678 29.7132C118.042 28.183 119.81 27.408 122.076 27.408V25.408ZM115.185 28.3828C113.416 30.3683 112.58 32.9781 112.58 36.104H114.58C114.58 33.3419 115.311 31.2477 116.678 29.7132L115.185 28.3828ZM112.58 36.104C112.58 39.2299 113.416 41.8397 115.185 43.8252L116.678 42.4948C115.311 40.9603 114.58 38.8661 114.58 36.104H112.58ZM115.185 43.8252C116.958 45.815 119.286 46.8 122.076 46.8V44.8C119.81 44.8 118.042 44.025 116.678 42.4948L115.185 43.8252ZM122.076 46.8C123.807 46.8 125.382 46.3916 126.77 45.5515L125.734 43.8405C124.69 44.4724 123.481 44.8 122.076 44.8V46.8ZM126.76 45.5574C128.192 44.7124 129.283 43.4839 130.034 41.9107L128.229 41.0493C127.636 42.2921 126.807 43.2076 125.744 43.8346L126.76 45.5574ZM129.132 42.48H138.156V40.48H129.132V42.48ZM137.189 41.2255C136.283 44.6688 134.501 47.3492 131.848 49.3168L133.039 50.9232C136.082 48.6668 138.109 45.5872 139.123 41.7345L137.189 41.2255ZM131.854 49.3124C129.2 51.251 125.989 52.24 122.172 52.24V54.24C126.354 54.24 129.992 53.149 133.034 50.9276L131.854 49.3124ZM122.172 52.24C119.06 52.24 116.302 51.5552 113.873 50.2058L112.902 51.9542C115.657 53.4848 118.755 54.24 122.172 54.24V52.24ZM113.886 50.2131C111.484 48.8321 109.614 46.9322 108.262 44.4984L106.514 45.4696C108.041 48.2198 110.171 50.3839 112.889 51.9469L113.886 50.2131ZM108.262 44.4984C106.914 42.0724 106.228 39.2832 106.228 36.104H104.228C104.228 39.5808 104.981 42.7116 106.514 45.4696L108.262 44.4984ZM170.638 53L169.843 53.6057L170.143 54H170.638V53ZM159.31 38.12L160.106 37.5143L158.31 35.1556V38.12H159.31ZM159.31 53V54H160.31V53H159.31ZM151.102 53H150.102V54H151.102V53ZM151.102 19.304V18.304H150.102V19.304H151.102ZM159.31 19.304H160.31V18.304H159.31V19.304ZM159.31 34.088H158.31V37.0573L160.107 34.693L159.31 34.088ZM170.542 19.304V18.304H170.046L169.746 18.699L170.542 19.304ZM180.19 19.304L180.975 19.9242L182.256 18.304H180.19V19.304ZM167.134 35.816L166.35 35.1958L165.86 35.8148L166.349 36.4348L167.134 35.816ZM180.67 53V54H182.731L181.456 52.3812L180.67 53ZM171.434 52.3943L160.106 37.5143L158.515 38.7257L169.843 53.6057L171.434 52.3943ZM158.31 38.12V53H160.31V38.12H158.31ZM159.31 52H151.102V54H159.31V52ZM152.102 53V19.304H150.102V53H152.102ZM151.102 20.304H159.31V18.304H151.102V20.304ZM158.31 19.304V34.088H160.31V19.304H158.31ZM160.107 34.693L171.339 19.909L169.746 18.699L158.514 33.483L160.107 34.693ZM170.542 20.304H180.19V18.304H170.542V20.304ZM179.406 18.6838L166.35 35.1958L167.919 36.4362L180.975 19.9242L179.406 18.6838ZM166.349 36.4348L179.885 53.6188L181.456 52.3812L167.92 35.1972L166.349 36.4348ZM180.67 52H170.638V54H180.67V52ZM231.223 32.744H232.223V31.744H231.223V32.744ZM231.223 39.56V40.56H232.223V39.56H231.223ZM210.103 39.56H209.103V40.56H210.103V39.56ZM210.103 32.744V31.744H209.103V32.744H210.103ZM230.223 32.744V39.56H232.223V32.744H230.223ZM231.223 38.56H210.103V40.56H231.223V38.56ZM211.103 39.56V32.744H209.103V39.56H211.103ZM210.103 33.744H231.223V31.744H210.103V33.744ZM286.375 19.304H287.375V18.304H286.375V19.304ZM286.375 25.88V26.88H287.375V25.88H286.375ZM272.647 25.88V24.88H271.647V25.88H272.647ZM272.647 32.984H271.647V33.984H272.647V32.984ZM282.919 32.984H283.919V31.984H282.919V32.984ZM282.919 39.368V40.368H283.919V39.368H282.919ZM272.647 39.368V38.368H271.647V39.368H272.647ZM272.647 53V54H273.647V53H272.647ZM264.439 53H263.439V54H264.439V53ZM264.439 19.304V18.304H263.439V19.304H264.439ZM285.375 19.304V25.88H287.375V19.304H285.375ZM286.375 24.88H272.647V26.88H286.375V24.88ZM271.647 25.88V32.984H273.647V25.88H271.647ZM272.647 33.984H282.919V31.984H272.647V33.984ZM281.919 32.984V39.368H283.919V32.984H281.919ZM282.919 38.368H272.647V40.368H282.919V38.368ZM271.647 39.368V53H273.647V39.368H271.647ZM272.647 52H264.439V54H272.647V52ZM265.439 53V19.304H263.439V53H265.439ZM264.439 20.304H286.375V18.304H264.439V20.304ZM305.809 51.128L305.319 52.0002L305.324 52.0027L305.809 51.128ZM299.521 44.984L298.655 45.4846L298.658 45.4908L298.662 45.497L299.521 44.984ZM299.521 27.176L298.662 26.663L298.658 26.6708L299.521 27.176ZM305.809 21.032L305.324 20.1573L305.319 20.1599L305.809 21.032ZM323.233 21.032L322.743 21.9042L322.748 21.9067L323.233 21.032ZM329.473 27.176L328.605 27.6733L328.609 27.6812L329.473 27.176ZM329.473 44.984L330.336 45.4892L330.338 45.4846L329.473 44.984ZM323.233 51.128L323.722 52.0001L323.233 51.128ZM320.977 43.16L320.237 42.4866L320.231 42.494L320.977 43.16ZM320.977 28.952L320.231 29.618L320.237 29.625L320.243 29.6319L320.977 28.952ZM308.017 28.904L307.283 28.224L307.277 28.2313L308.017 28.904ZM308.017 43.208L307.271 43.874L307.277 43.881L307.283 43.8879L308.017 43.208ZM314.544 52.336C311.538 52.336 308.794 51.6395 306.293 50.2533L305.324 52.0027C308.135 53.5605 311.215 54.336 314.544 54.336V52.336ZM306.298 50.2559C303.829 48.8707 301.859 46.9476 300.379 44.471L298.662 45.497C300.318 48.2684 302.54 50.4413 305.319 52.0001L306.298 50.2559ZM300.386 44.4834C298.945 41.9908 298.217 39.1897 298.217 36.056H296.217C296.217 39.5143 297.024 42.6652 298.655 45.4846L300.386 44.4834ZM298.217 36.056C298.217 32.9222 298.945 30.1392 300.384 27.6812L298.658 26.6708C297.024 29.4608 296.217 32.5978 296.217 36.056H298.217ZM300.379 27.689C301.859 25.2124 303.829 23.2893 306.298 21.9041L305.319 20.1599C302.54 21.7187 300.318 23.8916 298.662 26.663L300.379 27.689ZM306.293 21.9067C308.794 20.5205 311.538 19.824 314.544 19.824V17.824C311.215 17.824 308.135 18.5995 305.324 20.1573L306.293 21.9067ZM314.544 19.824C317.551 19.824 320.277 20.5205 322.743 21.9041L323.722 20.1599C320.94 18.5995 317.874 17.824 314.544 17.824V19.824ZM322.748 21.9067C325.245 23.2905 327.192 25.2083 328.605 27.6733L330.34 26.6787C328.745 23.8957 326.532 21.7175 323.717 20.1573L322.748 21.9067ZM328.609 27.6812C330.048 30.1392 330.777 32.9222 330.777 36.056H332.777C332.777 32.5978 331.969 29.4608 330.336 26.6708L328.609 27.6812ZM330.777 36.056C330.777 39.1897 330.048 41.9908 328.607 44.4834L330.338 45.4846C331.969 42.6652 332.777 39.5143 332.777 36.056H330.777ZM328.609 44.4788C327.162 46.9512 325.211 48.8718 322.743 50.2559L323.722 52.0001C326.502 50.4402 328.711 48.2648 330.336 45.4892L328.609 44.4788ZM322.743 50.2559C320.277 51.6395 317.551 52.336 314.544 52.336V54.336C317.874 54.336 320.94 53.5605 323.722 52.0001L322.743 50.2559ZM314.544 46.848C317.48 46.848 319.909 45.8571 321.722 43.826L320.231 42.494C318.844 44.0469 316.985 44.848 314.544 44.848V46.848ZM321.716 43.8333C323.55 41.8195 324.424 39.1929 324.424 36.056H322.424C322.424 38.8071 321.667 40.9165 320.237 42.4867L321.716 43.8333ZM324.424 36.056C324.424 32.8912 323.552 30.2587 321.71 28.2721L320.243 29.6319C321.665 31.1653 322.424 33.2688 322.424 36.056H324.424ZM321.722 28.286C319.909 26.2549 317.48 25.264 314.544 25.264V27.264C316.985 27.264 318.844 28.0651 320.231 29.618L321.722 28.286ZM314.544 25.264C311.587 25.264 309.131 26.2318 307.283 28.2241L308.75 29.5839C310.166 28.0562 312.062 27.264 314.544 27.264V25.264ZM307.277 28.2313C305.468 30.2203 304.617 32.8675 304.617 36.056H306.617C306.617 33.2285 307.365 31.1077 308.756 29.5767L307.277 28.2313ZM304.617 36.056C304.617 39.2166 305.47 41.8578 307.271 43.874L308.762 42.542C307.363 40.9742 306.617 38.8474 306.617 36.056H304.617ZM307.283 43.8879C309.131 45.8802 311.587 46.848 314.544 46.848V44.848C312.062 44.848 310.166 44.0558 308.75 42.5281L307.283 43.8879ZM361.447 53L360.571 53.4826L360.856 54H361.447V53ZM354.439 40.28L355.315 39.7974L355.03 39.28H354.439V40.28ZM352.471 40.28V39.28H351.471V40.28H352.471ZM352.471 53V54H353.471V53H352.471ZM344.263 53H343.263V54H344.263V53ZM344.263 19.304V18.304H343.263V19.304H344.263ZM364.807 20.696L364.36 21.5904L364.366 21.5934L364.807 20.696ZM369.031 24.536L368.162 25.0303L368.166 25.0377L369.031 24.536ZM368.503 35.912L367.694 35.3238L367.687 35.3336L368.503 35.912ZM362.935 39.656L362.649 38.6978L361.431 39.0615L362.071 40.1595L362.935 39.656ZM370.711 53V54H372.451L371.575 52.4965L370.711 53ZM352.471 34.472H351.471V35.472H352.471V34.472ZM360.919 33.368L360.227 32.646L360.219 32.6534L360.212 32.6609L360.919 33.368ZM360.919 27.224L360.212 27.9311L360.219 27.9386L360.227 27.946L360.919 27.224ZM352.471 26.12V25.12H351.471V26.12H352.471ZM362.323 52.5174L355.315 39.7974L353.563 40.7626L360.571 53.4826L362.323 52.5174ZM354.439 39.28H352.471V41.28H354.439V39.28ZM351.471 40.28V53H353.471V40.28H351.471ZM352.471 52H344.263V54H352.471V52ZM345.263 53V19.304H343.263V53H345.263ZM344.263 20.304H358.039V18.304H344.263V20.304ZM358.039 20.304C360.582 20.304 362.676 20.7485 364.36 21.5904L365.254 19.8016C363.226 18.7875 360.808 18.304 358.039 18.304V20.304ZM364.366 21.5934C366.096 22.4441 367.344 23.5932 368.162 25.0303L369.9 24.0417C368.861 22.2148 367.293 20.8039 365.248 19.7985L364.366 21.5934ZM368.166 25.0377C368.999 26.4742 369.423 28.091 369.423 29.912H371.423C371.423 27.765 370.919 25.7978 369.896 24.0343L368.166 25.0377ZM369.423 29.912C369.423 31.9473 368.846 33.74 367.694 35.3238L369.312 36.5002C370.72 34.564 371.423 32.3567 371.423 29.912H369.423ZM367.687 35.3336C366.592 36.8782 364.941 38.013 362.649 38.6978L363.221 40.6142C365.857 39.827 367.918 38.4658 369.319 36.4904L367.687 35.3336ZM362.071 40.1595L369.847 53.5035L371.575 52.4965L363.799 39.1525L362.071 40.1595ZM370.711 52H361.447V54H370.711V52ZM352.471 35.472H357.559V33.472H352.471V35.472ZM357.559 35.472C359.21 35.472 360.633 35.0684 361.626 34.0751L360.212 32.6609C359.733 33.1396 358.916 33.472 357.559 33.472V35.472ZM361.611 34.09C362.625 33.1185 363.071 31.7885 363.071 30.248H361.071C361.071 31.3955 360.749 32.1455 360.227 32.646L361.611 34.09ZM363.071 30.248C363.071 28.7551 362.615 27.4643 361.611 26.502L360.227 27.946C360.759 28.4557 361.071 29.1809 361.071 30.248H363.071ZM361.626 26.5169C360.633 25.5236 359.21 25.12 357.559 25.12V27.12C358.916 27.12 359.733 27.4524 360.212 27.9311L361.626 26.5169ZM357.559 25.12H352.471V27.12H357.559V25.12ZM351.471 26.12V34.472H353.471V26.12H351.471ZM431.731 53V54H432.731V53H431.731ZM423.523 53L422.689 53.5511L422.985 54H423.523V53ZM409.795 32.216L410.63 31.6649L408.795 28.8876V32.216H409.795ZM409.795 53V54H410.795V53H409.795ZM401.587 53H400.587V54H401.587V53ZM401.587 19.304V18.304H400.587V19.304H401.587ZM409.795 19.304L410.631 18.7546L410.335 18.304H409.795V19.304ZM423.523 40.184L422.688 40.7334L424.523 43.5252V40.184H423.523ZM423.523 19.304V18.304H422.523V19.304H423.523ZM431.731 19.304H432.731V18.304H431.731V19.304ZM431.731 52H423.523V54H431.731V52ZM424.358 52.4489L410.63 31.6649L408.961 32.7671L422.689 53.5511L424.358 52.4489ZM408.795 32.216V53H410.795V32.216H408.795ZM409.795 52H401.587V54H409.795V52ZM402.587 53V19.304H400.587V53H402.587ZM401.587 20.304H409.795V18.304H401.587V20.304ZM408.96 19.8534L422.688 40.7334L424.359 39.6346L410.631 18.7546L408.96 19.8534ZM424.523 40.184V19.304H422.523V40.184H424.523ZM423.523 20.304H431.731V18.304H423.523V20.304ZM430.731 19.304V53H432.731V19.304H430.731ZM453.809 25.88V24.88H452.809V25.88H453.809ZM453.809 32.696H452.809V33.696H453.809V32.696ZM464.801 32.696H465.801V31.696H464.801V32.696ZM464.801 39.032V40.032H465.801V39.032H464.801ZM453.809 39.032V38.032H452.809V39.032H453.809ZM453.809 46.424H452.809V47.424H453.809V46.424ZM466.241 46.424H467.241V45.424H466.241V46.424ZM466.241 53V54H467.241V53H466.241ZM445.601 53H444.601V54H445.601V53ZM445.601 19.304V18.304H444.601V19.304H445.601ZM466.241 19.304H467.241V18.304H466.241V19.304ZM466.241 25.88V26.88H467.241V25.88H466.241ZM452.809 25.88V32.696H454.809V25.88H452.809ZM453.809 33.696H464.801V31.696H453.809V33.696ZM463.801 32.696V39.032H465.801V32.696H463.801ZM464.801 38.032H453.809V40.032H464.801V38.032ZM452.809 39.032V46.424H454.809V39.032H452.809ZM453.809 47.424H466.241V45.424H453.809V47.424ZM465.241 46.424V53H467.241V46.424H465.241ZM466.241 52H445.601V54H466.241V52ZM446.601 53V19.304H444.601V53H446.601ZM445.601 20.304H466.241V18.304H445.601V20.304ZM465.241 19.304V25.88H467.241V19.304H465.241ZM466.241 24.88H453.809V26.88H466.241V24.88ZM501.858 29.96L500.979 30.4371L501.263 30.96H501.858V29.96ZM499.218 27.416L498.741 28.2949L498.755 28.3029L498.771 28.3104L499.218 27.416ZM488.85 29.144L489.584 29.8234L489.59 29.8167L488.85 29.144ZM488.946 43.4L488.219 44.087L488.226 44.0938L488.232 44.1005L488.946 43.4ZM500.994 44.456L500.406 43.6472L500.397 43.6538L500.994 44.456ZM504.066 40.04L505.014 40.3562L505.453 39.04H504.066V40.04ZM493.65 40.04H492.65V41.04H493.65V40.04ZM493.65 33.992V32.992H492.65V33.992H493.65ZM511.506 33.992H512.506V32.992H511.506V33.992ZM511.506 41.624L512.464 41.9086L512.506 41.7693V41.624H511.506ZM508.386 47.336L507.619 46.6944L507.612 46.7028L508.386 47.336ZM502.866 51.608L502.429 50.7085L502.866 51.608ZM486.354 51.08L485.86 51.9496L485.866 51.9532L485.873 51.9567L486.354 51.08ZM480.258 44.984L479.384 45.4697L479.388 45.4778L480.258 44.984ZM480.258 27.224L479.386 26.7347L479.384 26.7384L480.258 27.224ZM486.354 21.128L486.839 22.0022L486.848 21.9976L486.354 21.128ZM505.41 21.848L504.831 22.6637L504.836 22.6668L505.41 21.848ZM510.93 29.96V30.96H512.222L511.898 29.709L510.93 29.96ZM502.737 29.4829C502.03 28.1808 500.998 27.1881 499.665 26.5216L498.771 28.3104C499.741 28.7959 500.47 29.4992 500.979 30.4371L502.737 29.4829ZM499.695 26.5371C498.401 25.8349 496.902 25.504 495.234 25.504V27.504C496.637 27.504 497.794 27.7811 498.741 28.2949L499.695 26.5371ZM495.234 25.504C492.333 25.504 489.923 26.4773 488.11 28.4713L489.59 29.8167C490.977 28.2907 492.823 27.504 495.234 27.504V25.504ZM488.116 28.4646C486.307 30.4186 485.45 33.0025 485.45 36.104H487.45C487.45 33.3815 488.193 31.3253 489.584 29.8234L488.116 28.4646ZM485.45 36.104C485.45 39.3888 486.334 42.0934 488.219 44.087L489.672 42.713C488.229 41.1866 487.45 39.0272 487.45 36.104H485.45ZM488.232 44.1005C490.155 46.0602 492.755 46.992 495.906 46.992V44.992C493.168 44.992 491.128 44.1958 489.659 42.6995L488.232 44.1005ZM495.906 46.992C498.098 46.992 500.013 46.4321 501.591 45.2582L500.397 43.6538C499.222 44.5279 497.746 44.992 495.906 44.992V46.992ZM501.582 45.2647C503.185 44.0991 504.32 42.4408 505.014 40.3562L503.117 39.7238C502.532 41.4792 501.619 42.7649 500.406 43.6473L501.582 45.2647ZM504.066 39.04H493.65V41.04H504.066V39.04ZM494.65 40.04V33.992H492.65V40.04H494.65ZM493.65 34.992H511.506V32.992H493.65V34.992ZM510.506 33.992V41.624H512.506V33.992H510.506ZM510.547 41.3394C509.981 43.2471 509.01 45.0313 507.619 46.6944L509.153 47.9776C510.706 46.1207 511.815 44.0969 512.464 41.9086L510.547 41.3394ZM507.612 46.7028C506.272 48.3403 504.551 49.6777 502.429 50.7085L503.303 52.5075C505.66 51.3623 507.62 49.8517 509.16 47.9692L507.612 46.7028ZM502.429 50.7085C500.342 51.7222 497.966 52.24 495.282 52.24V54.24C498.229 54.24 500.91 53.6698 503.303 52.5075L502.429 50.7085ZM495.282 52.24C492.103 52.24 489.295 51.5537 486.835 50.2033L485.873 51.9567C488.66 53.4863 491.805 54.24 495.282 54.24V52.24ZM486.848 50.2104C484.412 48.8275 482.51 46.9253 481.127 44.4902L479.388 45.4778C480.949 48.2267 483.111 50.3885 485.86 51.9496L486.848 50.2104ZM481.132 44.4984C479.784 42.0724 479.098 39.2832 479.098 36.104H477.098C477.098 39.5808 477.851 42.7116 479.384 45.4696L481.132 44.4984ZM479.098 36.104C479.098 32.9248 479.784 30.1356 481.132 27.7096L479.384 26.7384C477.851 29.4964 477.098 32.6272 477.098 36.104H479.098ZM481.13 27.7133C482.513 25.2484 484.412 23.3508 486.839 22.0022L485.868 20.2538C483.112 21.7852 480.947 23.9516 479.386 26.7347L481.13 27.7133ZM486.848 21.9976C489.272 20.6207 492.058 19.92 495.234 19.92V17.92C491.753 17.92 488.619 18.6913 485.86 20.2584L486.848 21.9976ZM495.234 19.92C499.1 19.92 502.279 20.8535 504.831 22.6636L505.988 21.0323C503.036 18.9385 499.432 17.92 495.234 17.92V19.92ZM504.836 22.6668C507.415 24.4751 509.122 26.9725 509.962 30.211L511.898 29.709C510.945 26.0355 508.973 23.1249 505.984 21.0292L504.836 22.6668ZM510.93 28.96H501.858V30.96H510.93V28.96ZM544.948 47.048L545.895 46.7272L545.665 46.048H544.948V47.048ZM532.372 47.048V46.048H531.655L531.425 46.7272L532.372 47.048ZM530.356 53V54H531.073L531.303 53.3208L530.356 53ZM521.764 53L520.824 52.6598L520.339 54H521.764V53ZM533.956 19.304V18.304H533.255L533.016 18.9638L533.956 19.304ZM543.46 19.304L544.401 18.9638L544.162 18.304H543.46V19.304ZM555.652 53V54H557.078L556.593 52.6598L555.652 53ZM546.964 53L546.017 53.3208L546.247 54H546.964V53ZM542.836 40.712V41.712H544.23L543.783 40.3914L542.836 40.712ZM538.66 28.376L539.607 28.0554L538.655 25.2411L537.712 28.0587L538.66 28.376ZM534.532 40.712L533.584 40.3947L533.143 41.712H534.532V40.712ZM544.948 46.048H532.372V48.048H544.948V46.048ZM531.425 46.7272L529.409 52.6792L531.303 53.3208L533.319 47.3688L531.425 46.7272ZM530.356 52H521.764V54H530.356V52ZM522.705 53.3402L534.897 19.6442L533.016 18.9638L520.824 52.6598L522.705 53.3402ZM533.956 20.304H543.46V18.304H533.956V20.304ZM542.52 19.6442L554.712 53.3402L556.593 52.6598L544.401 18.9638L542.52 19.6442ZM555.652 52H546.964V54H555.652V52ZM547.911 52.6792L545.895 46.7272L544.001 47.3688L546.017 53.3208L547.911 52.6792ZM543.783 40.3914L539.607 28.0554L537.713 28.6966L541.889 41.0326L543.783 40.3914ZM537.712 28.0587L533.584 40.3947L535.481 41.0293L539.609 28.6933L537.712 28.0587ZM534.532 41.712H542.836V39.712H534.532V41.712ZM591.523 19.304H592.523V18.304H591.523V19.304ZM591.523 25.88V26.88H592.523V25.88H591.523ZM582.595 25.88V24.88H581.595V25.88H582.595ZM582.595 53V54H583.595V53H582.595ZM574.387 53H573.387V54H574.387V53ZM574.387 25.88H575.387V24.88H574.387V25.88ZM565.459 25.88H564.459V26.88H565.459V25.88ZM565.459 19.304V18.304H564.459V19.304H565.459ZM590.523 19.304V25.88H592.523V19.304H590.523ZM591.523 24.88H582.595V26.88H591.523V24.88ZM581.595 25.88V53H583.595V25.88H581.595ZM582.595 52H574.387V54H582.595V52ZM575.387 53V25.88H573.387V53H575.387ZM574.387 24.88H565.459V26.88H574.387V24.88ZM566.459 25.88V19.304H564.459V25.88H566.459ZM565.459 20.304H591.523V18.304H565.459V20.304ZM611.77 19.304H612.77V18.304H611.77V19.304ZM611.77 53V54H612.77V53H611.77ZM603.562 53H602.562V54H603.562V53ZM603.562 19.304V18.304H602.562V19.304H603.562ZM610.77 19.304V53H612.77V19.304H610.77ZM611.77 52H603.562V54H611.77V52ZM604.562 53V19.304H602.562V53H604.562ZM603.562 20.304H611.77V18.304H603.562V20.304ZM657.27 19.304L658.213 19.6383L658.686 18.304H657.27V19.304ZM645.318 53V54H646.025L646.261 53.3343L645.318 53ZM635.046 53L634.104 53.3343L634.34 54H635.046V53ZM623.094 19.304V18.304H621.679L622.152 19.6383L623.094 19.304ZM631.831 19.304L632.781 18.9921L632.555 18.304H631.831V19.304ZM640.182 44.744L639.232 45.0559L640.18 47.9416L641.132 45.0575L640.182 44.744ZM648.582 19.304V18.304H647.86L647.633 18.9905L648.582 19.304ZM656.328 18.9697L644.376 52.6657L646.261 53.3343L658.213 19.6383L656.328 18.9697ZM645.318 52H635.046V54H645.318V52ZM635.989 52.6657L624.037 18.9697L622.152 19.6383L634.104 53.3343L635.989 52.6657ZM623.094 20.304H631.831V18.304H623.094V20.304ZM630.88 19.6159L639.232 45.0559L641.133 44.4321L632.781 18.9921L630.88 19.6159ZM641.132 45.0575L649.532 19.6175L647.633 18.9905L639.233 44.4305L641.132 45.0575ZM648.582 20.304H657.27V18.304H648.582V20.304ZM676.829 25.88V24.88H675.829V25.88H676.829ZM676.829 32.696H675.829V33.696H676.829V32.696ZM687.821 32.696H688.821V31.696H687.821V32.696ZM687.821 39.032V40.032H688.821V39.032H687.821ZM676.829 39.032V38.032H675.829V39.032H676.829ZM676.829 46.424H675.829V47.424H676.829V46.424ZM689.261 46.424H690.261V45.424H689.261V46.424ZM689.261 53V54H690.261V53H689.261ZM668.621 53H667.621V54H668.621V53ZM668.621 19.304V18.304H667.621V19.304H668.621ZM689.261 19.304H690.261V18.304H689.261V19.304ZM689.261 25.88V26.88H690.261V25.88H689.261ZM675.829 25.88V32.696H677.829V25.88H675.829ZM676.829 33.696H687.821V31.696H676.829V33.696ZM686.821 32.696V39.032H688.821V32.696H686.821ZM687.821 38.032H676.829V40.032H687.821V38.032ZM675.829 39.032V46.424H677.829V39.032H675.829ZM676.829 47.424H689.261V45.424H676.829V47.424ZM688.261 46.424V53H690.261V46.424H688.261ZM689.261 52H668.621V54H689.261V52ZM669.621 53V19.304H667.621V53H669.621ZM668.621 20.304H689.261V18.304H668.621V20.304ZM688.261 19.304V25.88H690.261V19.304H688.261ZM689.261 24.88H676.829V26.88H689.261V24.88ZM766.97 19.304L767.937 19.5563L768.264 18.304H766.97V19.304ZM758.186 53V54H758.958L759.153 53.2523L758.186 53ZM748.25 53L747.278 53.2356L747.463 54H748.25V53ZM742.874 30.824L743.845 30.5884L741.904 30.5805L742.874 30.824ZM737.306 53V54H738.086L738.276 53.2435L737.306 53ZM727.37 53L726.4 53.2458L726.592 54H727.37V53ZM718.826 19.304V18.304H717.54L717.856 19.5498L718.826 19.304ZM727.61 19.304L728.591 19.1101L728.431 18.304H727.61V19.304ZM732.458 43.832L731.477 44.0259L733.429 44.0696L732.458 43.832ZM738.458 19.304V18.304H737.673L737.486 19.0664L738.458 19.304ZM747.482 19.304L748.455 19.0754L748.274 18.304H747.482V19.304ZM753.242 43.832L752.268 44.0606L754.222 44.0277L753.242 43.832ZM758.138 19.304V18.304H757.318L757.157 19.1083L758.138 19.304ZM766.002 19.0517L757.218 52.7477L759.153 53.2523L767.937 19.5563L766.002 19.0517ZM758.186 52H748.25V54H758.186V52ZM749.221 52.7644L743.845 30.5884L741.902 31.0596L747.278 53.2356L749.221 52.7644ZM741.904 30.5805L736.336 52.7565L738.276 53.2435L743.844 31.0675L741.904 30.5805ZM737.306 52H727.37V54H737.306V52ZM728.339 52.7542L719.795 19.0582L717.856 19.5498L726.4 53.2458L728.339 52.7542ZM718.826 20.304H727.61V18.304H718.826V20.304ZM726.629 19.4979L731.477 44.0259L733.439 43.6381L728.591 19.1101L726.629 19.4979ZM733.429 44.0696L739.429 19.5416L737.486 19.0664L731.486 43.5944L733.429 44.0696ZM738.458 20.304H747.482V18.304H738.458V20.304ZM746.508 19.5326L752.268 44.0606L754.215 43.6034L748.455 19.0754L746.508 19.5326ZM754.222 44.0277L759.118 19.4997L757.157 19.1083L752.261 43.6363L754.222 44.0277ZM758.138 20.304H766.97V18.304H758.138V20.304ZM786.206 51.128L785.717 52.0002L785.721 52.0027L786.206 51.128ZM779.918 44.984L779.052 45.4846L779.056 45.4908L779.06 45.497L779.918 44.984ZM779.918 27.176L779.06 26.663L779.055 26.6708L779.918 27.176ZM786.206 21.032L785.721 20.1573L785.717 20.1599L786.206 21.032ZM803.63 21.032L803.141 21.9042L803.145 21.9067L803.63 21.032ZM809.87 27.176L809.002 27.6733L809.007 27.6812L809.87 27.176ZM809.87 44.984L810.733 45.4892L810.736 45.4846L809.87 44.984ZM803.63 51.128L804.119 52.0001L803.63 51.128ZM801.374 43.16L800.635 42.4866L800.628 42.494L801.374 43.16ZM801.374 28.952L800.628 29.618L800.634 29.625L800.641 29.6319L801.374 28.952ZM788.414 28.904L787.681 28.224L787.674 28.2313L788.414 28.904ZM788.414 43.208L787.668 43.874L787.674 43.881L787.681 43.8879L788.414 43.208ZM794.942 52.336C791.936 52.336 789.192 51.6395 786.691 50.2533L785.721 52.0027C788.532 53.5605 791.612 54.336 794.942 54.336V52.336ZM786.695 50.2559C784.226 48.8707 782.256 46.9476 780.776 44.471L779.06 45.497C780.716 48.2684 782.938 50.4413 785.717 52.0001L786.695 50.2559ZM780.784 44.4834C779.342 41.9908 778.614 39.1897 778.614 36.056H776.614C776.614 39.5143 777.422 42.6652 779.052 45.4846L780.784 44.4834ZM778.614 36.056C778.614 32.9222 779.342 30.1392 780.781 27.6812L779.055 26.6708C777.422 29.4608 776.614 32.5978 776.614 36.056H778.614ZM780.776 27.689C782.256 25.2124 784.226 23.2893 786.695 21.9041L785.717 20.1599C782.938 21.7187 780.716 23.8916 779.06 26.663L780.776 27.689ZM786.691 21.9067C789.192 20.5205 791.936 19.824 794.942 19.824V17.824C791.612 17.824 788.532 18.5995 785.721 20.1573L786.691 21.9067ZM794.942 19.824C797.948 19.824 800.674 20.5205 803.141 21.9041L804.119 20.1599C801.338 18.5995 798.272 17.824 794.942 17.824V19.824ZM803.145 21.9067C805.642 23.2905 807.59 25.2083 809.002 27.6733L810.738 26.6787C809.142 23.8957 806.93 21.7175 804.115 20.1573L803.145 21.9067ZM809.007 27.6812C810.446 30.1392 811.174 32.9222 811.174 36.056H813.174C813.174 32.5978 812.366 29.4608 810.733 26.6708L809.007 27.6812ZM811.174 36.056C811.174 39.1897 810.446 41.9908 809.004 44.4834L810.736 45.4846C812.366 42.6652 813.174 39.5143 813.174 36.056H811.174ZM809.007 44.4788C807.56 46.9512 805.608 48.8718 803.141 50.2559L804.119 52.0001C806.9 50.4402 809.108 48.2648 810.733 45.4892L809.007 44.4788ZM803.141 50.2559C800.674 51.6395 797.948 52.336 794.942 52.336V54.336C798.272 54.336 801.338 53.5605 804.119 52.0001L803.141 50.2559ZM794.942 46.848C797.877 46.848 800.307 45.8571 802.12 43.826L800.628 42.494C799.242 44.0469 797.383 44.848 794.942 44.848V46.848ZM802.113 43.8333C803.947 41.8195 804.822 39.1929 804.822 36.056H802.822C802.822 38.8071 802.065 40.9165 800.635 42.4867L802.113 43.8333ZM804.822 36.056C804.822 32.8912 803.949 30.2587 802.107 28.2721L800.641 29.6319C802.063 31.1653 802.822 33.2688 802.822 36.056H804.822ZM802.12 28.286C800.307 26.2549 797.877 25.264 794.942 25.264V27.264C797.383 27.264 799.242 28.0651 800.628 29.618L802.12 28.286ZM794.942 25.264C791.985 25.264 789.528 26.2318 787.681 28.2241L789.147 29.5839C790.564 28.0562 792.459 27.264 794.942 27.264V25.264ZM787.674 28.2313C785.866 30.2203 785.014 32.8675 785.014 36.056H787.014C787.014 33.2285 787.762 31.1077 789.154 29.5767L787.674 28.2313ZM785.014 36.056C785.014 39.2166 785.868 41.8578 787.668 43.874L789.16 42.542C787.76 40.9742 787.014 38.8474 787.014 36.056H785.014ZM787.681 43.8879C789.528 45.8802 791.985 46.848 794.942 46.848V44.848C792.459 44.848 790.564 44.0558 789.147 42.5281L787.681 43.8879ZM841.844 53L840.968 53.4826L841.254 54H841.844V53ZM834.836 40.28L835.712 39.7974L835.427 39.28H834.836V40.28ZM832.868 40.28V39.28H831.868V40.28H832.868ZM832.868 53V54H833.868V53H832.868ZM824.66 53H823.66V54H824.66V53ZM824.66 19.304V18.304H823.66V19.304H824.66ZM845.204 20.696L844.757 21.5904L844.763 21.5934L845.204 20.696ZM849.428 24.536L848.559 25.0303L848.563 25.0377L849.428 24.536ZM848.9 35.912L848.092 35.3238L848.085 35.3336L848.9 35.912ZM843.332 39.656L843.046 38.6978L841.828 39.0615L842.468 40.1595L843.332 39.656ZM851.108 53V54H852.848L851.972 52.4965L851.108 53ZM832.868 34.472H831.868V35.472H832.868V34.472ZM841.316 33.368L840.624 32.646L840.617 32.6534L840.609 32.6609L841.316 33.368ZM841.316 27.224L840.609 27.9311L840.617 27.9386L840.624 27.946L841.316 27.224ZM832.868 26.12V25.12H831.868V26.12H832.868ZM842.72 52.5174L835.712 39.7974L833.96 40.7626L840.968 53.4826L842.72 52.5174ZM834.836 39.28H832.868V41.28H834.836V39.28ZM831.868 40.28V53H833.868V40.28H831.868ZM832.868 52H824.66V54H832.868V52ZM825.66 53V19.304H823.66V53H825.66ZM824.66 20.304H838.436V18.304H824.66V20.304ZM838.436 20.304C840.979 20.304 843.073 20.7485 844.757 21.5904L845.652 19.8016C843.623 18.7875 841.205 18.304 838.436 18.304V20.304ZM844.763 21.5934C846.494 22.4441 847.742 23.5932 848.559 25.0303L850.298 24.0417C849.259 22.2148 847.691 20.8039 845.645 19.7985L844.763 21.5934ZM848.563 25.0377C849.396 26.4742 849.82 28.091 849.82 29.912H851.82C851.82 27.765 851.316 25.7978 850.293 24.0343L848.563 25.0377ZM849.82 29.912C849.82 31.9473 849.243 33.74 848.092 35.3238L849.709 36.5002C851.117 34.564 851.82 32.3567 851.82 29.912H849.82ZM848.085 35.3336C846.989 36.8782 845.339 38.013 843.046 38.6978L843.619 40.6142C846.254 39.827 848.315 38.4658 849.716 36.4904L848.085 35.3336ZM842.468 40.1595L850.244 53.5035L851.972 52.4965L844.196 39.1525L842.468 40.1595ZM851.108 52H841.844V54H851.108V52ZM832.868 35.472H837.956V33.472H832.868V35.472ZM837.956 35.472C839.607 35.472 841.03 35.0684 842.023 34.0751L840.609 32.6609C840.13 33.1396 839.313 33.472 837.956 33.472V35.472ZM842.008 34.09C843.022 33.1185 843.468 31.7885 843.468 30.248H841.468C841.468 31.3955 841.147 32.1455 840.624 32.646L842.008 34.09ZM843.468 30.248C843.468 28.7551 843.012 27.4643 842.008 26.502L840.624 27.946C841.156 28.4557 841.468 29.1809 841.468 30.248H843.468ZM842.023 26.5169C841.03 25.5236 839.607 25.12 837.956 25.12V27.12C839.313 27.12 840.13 27.4524 840.609 27.9311L842.023 26.5169ZM837.956 25.12H832.868V27.12H837.956V25.12ZM831.868 26.12V34.472H833.868V26.12H831.868ZM885.829 21.416L886.297 20.5325L885.829 21.416ZM891.973 27.368L891.101 27.8583L891.105 27.8648L891.109 27.8712L891.973 27.368ZM891.973 44.936L891.106 44.4375L891.101 44.4457L891.973 44.936ZM885.781 50.888L885.317 50.0022L885.312 50.0045L885.781 50.888ZM863.893 53H862.893V54H863.893V53ZM863.893 19.304V18.304H862.893V19.304H863.893ZM872.101 26.312V25.312H871.101V26.312H872.101ZM872.101 45.896H871.101V46.896H872.101V45.896ZM876.517 20.304C879.935 20.304 882.873 20.9808 885.36 22.2995L886.297 20.5325C883.473 19.0352 880.203 18.304 876.517 18.304V20.304ZM885.36 22.2995C887.851 23.62 889.758 25.4694 891.101 27.8583L892.844 26.8777C891.308 24.1466 889.118 22.028 886.297 20.5325L885.36 22.2995ZM891.109 27.8712C892.48 30.2263 893.181 32.976 893.181 36.152H895.181C895.181 32.672 894.41 29.5657 892.837 26.8648L891.109 27.8712ZM893.181 36.152C893.181 39.2938 892.481 42.0462 891.106 44.4375L892.84 45.4345C894.409 42.7058 895.181 39.6022 895.181 36.152H893.181ZM891.101 44.4457C889.759 46.8315 887.84 48.6807 885.317 50.0022L886.245 51.7738C889.098 50.2793 891.306 48.1605 892.844 45.4263L891.101 44.4457ZM885.312 50.0045C882.824 51.3239 879.902 52 876.517 52V54C880.172 54 883.426 53.2681 886.249 51.7715L885.312 50.0045ZM876.517 52H863.893V54H876.517V52ZM864.893 53V19.304H862.893V53H864.893ZM863.893 20.304H876.517V18.304H863.893V20.304ZM875.989 46.896C879.278 46.896 881.974 45.9929 883.937 44.0657L882.536 42.6383C881.044 44.1031 878.908 44.896 875.989 44.896V46.896ZM883.937 44.0657C885.907 42.1324 886.829 39.4449 886.829 36.152H884.829C884.829 39.0671 884.023 41.1796 882.536 42.6383L883.937 44.0657ZM886.829 36.152C886.829 32.8581 885.907 30.1597 883.944 28.1969L882.53 29.6111C884.023 31.1043 884.829 33.2379 884.829 36.152H886.829ZM883.944 28.1969C881.981 26.2341 879.283 25.312 875.989 25.312V27.312C878.903 27.312 881.037 28.1179 882.53 29.6111L883.944 28.1969ZM875.989 25.312H872.101V27.312H875.989V25.312ZM871.101 26.312V45.896H873.101V26.312H871.101ZM872.101 46.896H875.989V44.896H872.101V46.896ZM912.256 52.136L911.877 53.0613L912.256 52.136ZM907.552 48.584L906.746 49.1761L906.754 49.1866L907.552 48.584ZM905.728 42.92V41.92H904.698L904.728 42.949L905.728 42.92ZM914.464 42.92L915.459 42.818L915.367 41.92H914.464V42.92ZM915.76 45.8L915.086 46.5385L915.095 46.5467L915.104 46.5546L915.76 45.8ZM921.52 45.944L922.131 46.7353L922.142 46.7268L922.153 46.718L921.52 45.944ZM921.712 41.528L921.005 42.2351L921.015 42.2452L921.025 42.255L921.712 41.528ZM919.648 40.184L919.245 41.0993L919.252 41.1022L919.258 41.105L919.648 40.184ZM916.192 38.984L915.897 39.9395L915.906 39.9424L916.192 38.984ZM907.312 33.992L908.11 33.3889L907.312 33.992ZM909.232 21.512L909.844 22.3026L909.851 22.2972L909.232 21.512ZM927.088 21.512L926.469 22.2972L926.476 22.3025L927.088 21.512ZM930.736 28.904V29.904H931.788L931.735 28.8536L930.736 28.904ZM921.856 28.904L920.858 28.9627L920.913 29.904H921.856V28.904ZM920.656 26.36L920 27.1146L920.009 27.1229L920.019 27.131L920.656 26.36ZM915.424 26.216L916.068 26.9809L916.08 26.9712L916.091 26.9612L915.424 26.216ZM916.048 31.016L916.558 30.1561L916.048 31.016ZM920.848 32.984L921.168 32.0366L921.156 32.0326L920.848 32.984ZM926.128 35.096L925.681 35.9905L925.689 35.9946L926.128 35.096ZM929.68 38.024L928.89 38.6366L929.68 38.024ZM929.68 48.2L928.835 47.6654L928.831 47.6716L928.827 47.6778L929.68 48.2ZM925.456 51.944L925.009 51.0496L925.456 51.944ZM918.88 52.336C916.524 52.336 914.448 51.9538 912.635 51.2107L911.877 53.0613C913.967 53.9182 916.307 54.336 918.88 54.336V52.336ZM912.635 51.2107C910.836 50.4735 909.418 49.3956 908.35 47.9814L906.754 49.1866C908.054 50.9084 909.771 52.1985 911.877 53.0613L912.635 51.2107ZM908.358 47.9919C907.342 46.6091 906.786 44.9245 906.727 42.891L904.728 42.949C904.797 45.3315 905.458 47.4229 906.746 49.1761L908.358 47.9919ZM905.728 43.92H914.464V41.92H905.728V43.92ZM913.469 43.022C913.615 44.4488 914.125 45.6613 915.086 46.5385L916.434 45.0615C915.923 44.5947 915.568 43.8872 915.459 42.818L913.469 43.022ZM915.104 46.5546C916.059 47.385 917.269 47.76 918.64 47.76V45.76C917.643 45.76 916.933 45.495 916.416 45.0454L915.104 46.5546ZM918.64 47.76C919.997 47.76 921.198 47.4566 922.131 46.7353L920.908 45.1527C920.434 45.5194 919.715 45.76 918.64 45.76V47.76ZM922.153 46.718C923.112 45.9333 923.576 44.853 923.576 43.592H921.576C921.576 44.315 921.336 44.8027 920.887 45.17L922.153 46.718ZM923.576 43.592C923.576 42.5004 923.186 41.5443 922.399 40.801L921.025 42.255C921.39 42.5997 921.576 43.0196 921.576 43.592H923.576ZM922.419 40.8209C921.77 40.1714 920.968 39.6566 920.038 39.263L919.258 41.105C919.992 41.4154 920.566 41.7966 921.005 42.2351L922.419 40.8209ZM920.051 39.2687C919.194 38.8917 917.995 38.4778 916.477 38.0256L915.906 39.9424C917.397 40.3862 918.502 40.7723 919.245 41.0993L920.051 39.2687ZM916.487 38.0285C914.339 37.3652 912.616 36.7107 911.303 36.0694L910.425 37.8666C911.864 38.5693 913.693 39.2588 915.897 39.9395L916.487 38.0285ZM911.303 36.0694C910.078 35.4714 909.014 34.5851 908.11 33.3889L906.514 34.5951C907.594 36.0229 908.898 37.1206 910.425 37.8666L911.303 36.0694ZM908.11 33.3889C907.282 32.2944 906.824 30.8126 906.824 28.856H904.824C904.824 31.1234 905.358 33.0656 906.514 34.5951L908.11 33.3889ZM906.824 28.856C906.824 25.9968 907.841 23.8541 909.844 22.3025L908.62 20.7214C906.078 22.6899 904.824 25.4432 904.824 28.856H906.824ZM909.851 22.2972C911.905 20.6772 914.629 19.824 918.112 19.824V17.824C914.299 17.824 911.103 18.7628 908.613 20.7268L909.851 22.2972ZM918.112 19.824C921.664 19.824 924.418 20.6795 926.469 22.2972L927.707 20.7268C925.214 18.7605 921.984 17.824 918.112 17.824V19.824ZM926.476 22.3025C928.491 23.8641 929.59 26.0437 929.737 28.9544L931.735 28.8536C931.562 25.4283 930.228 22.6799 927.7 20.7214L926.476 22.3025ZM930.736 27.904H921.856V29.904H930.736V27.904ZM922.854 28.8453C922.776 27.5232 922.274 26.3997 921.293 25.589L920.019 27.131C920.51 27.5363 920.807 28.1088 920.858 28.9627L922.854 28.8453ZM921.312 25.6054C920.362 24.7794 919.171 24.4 917.824 24.4V26.4C918.781 26.4 919.478 26.6606 920 27.1146L921.312 25.6054ZM917.824 24.4C916.642 24.4 915.586 24.729 914.757 25.4708L916.091 26.9612C916.478 26.615 917.022 26.4 917.824 26.4V24.4ZM914.78 25.4511C913.892 26.199 913.512 27.2646 913.512 28.472H915.512C915.512 27.6954 915.74 27.257 916.068 26.9809L914.78 25.4511ZM913.512 28.472C913.512 29.9514 914.245 31.1083 915.537 31.8759L916.558 30.1561C915.803 29.7077 915.512 29.1686 915.512 28.472H913.512ZM915.537 31.8759C916.66 32.5422 918.345 33.2254 920.54 33.9354L921.156 32.0326C918.998 31.3346 917.484 30.7058 916.558 30.1561L915.537 31.8759ZM920.528 33.9313C922.68 34.6594 924.393 35.3466 925.681 35.9904L926.575 34.2016C925.175 33.5014 923.368 32.7806 921.168 32.0367L920.528 33.9313ZM925.689 35.9946C926.92 36.5955 927.986 37.4704 928.89 38.6366L930.47 37.4114C929.39 36.0176 928.088 34.9405 926.567 34.1974L925.689 35.9946ZM928.89 38.6366C929.715 39.702 930.168 41.1184 930.168 42.968H932.168C932.168 40.7856 931.629 38.906 930.47 37.4114L928.89 38.6366ZM930.168 42.968C930.168 44.7057 929.722 46.2631 928.835 47.6654L930.525 48.7346C931.622 47.0009 932.168 45.0703 932.168 42.968H930.168ZM928.827 47.6778C927.977 49.0664 926.719 50.1942 925.009 51.0496L925.903 52.8384C927.904 51.8378 929.463 50.4696 930.533 48.7222L928.827 47.6778ZM925.009 51.0496C923.319 51.8946 921.286 52.336 918.88 52.336V54.336C921.53 54.336 923.881 53.8494 925.903 52.8384L925.009 51.0496ZM944.427 52.136L943.733 52.8558L943.746 52.8684L943.76 52.8806L944.427 52.136ZM944.427 45.752L943.746 45.0201L943.739 45.0261L943.733 45.0322L944.427 45.752ZM951.435 45.752L950.741 46.4718L950.747 46.4779L950.754 46.4839L951.435 45.752ZM951.435 52.136L952.116 52.8688L952.117 52.8679L951.435 52.136ZM947.979 52.384C946.745 52.384 945.811 52.0336 945.095 51.3914L943.76 52.8806C944.899 53.9024 946.333 54.384 947.979 54.384V52.384ZM945.121 51.4162C944.421 50.7412 944.083 49.9453 944.083 48.968H942.083C942.083 50.4867 942.641 51.8028 943.733 52.8558L945.121 51.4162ZM944.083 48.968C944.083 47.9509 944.427 47.1414 945.121 46.4718L943.733 45.0322C942.635 46.0906 942.083 47.4251 942.083 48.968H944.083ZM945.109 46.4839C945.826 45.8158 946.755 45.456 947.979 45.456V43.456C946.323 43.456 944.884 43.9602 943.746 45.0201L945.109 46.4839ZM947.979 45.456C949.165 45.456 950.056 45.8116 950.741 46.4718L952.129 45.0322C951.022 43.9644 949.609 43.456 947.979 43.456V45.456ZM950.754 46.4839C951.476 47.1567 951.827 47.9626 951.827 48.968H953.827C953.827 47.4134 953.25 46.0753 952.117 45.0201L950.754 46.4839ZM951.827 48.968C951.827 49.9334 951.482 50.7258 950.754 51.4041L952.117 52.8679C953.244 51.8182 953.827 50.4986 953.827 48.968H951.827ZM950.755 51.4032C950.072 52.0375 949.176 52.384 947.979 52.384V54.384C949.599 54.384 951.007 53.8985 952.116 52.8688L950.755 51.4032Z" fill="black" fill-opacity="0.5"/>
</g>
<g filter="url(#filter1_i_48_18)">
<circle cx="540.5" cy="313.5" r="14.5" transform="rotate(180 540.5 313.5)" fill="url(#paint1_linear_48_18)"/>
</g>
<circle cx="540.5" cy="313.5" r="7.5" transform="rotate(180 540.5 313.5)" stroke="url(#paint2_linear_48_18)" stroke-width="14"/>
<g filter="url(#filter2_i_48_18)">
<circle cx="495.5" cy="313.5" r="14.5" transform="rotate(180 495.5 313.5)" fill="url(#paint3_linear_48_18)"/>
</g>
<circle cx="495.5" cy="313.5" r="12" transform="rotate(180 495.5 313.5)" stroke="url(#paint4_linear_48_18)" stroke-width="5"/>
<g filter="url(#filter3_i_48_18)">
<circle cx="450.5" cy="313.5" r="14.5" transform="rotate(180 450.5 313.5)" fill="url(#paint5_linear_48_18)"/>
</g>
<circle cx="450.5" cy="313.5" r="12" transform="rotate(180 450.5 313.5)" stroke="url(#paint6_linear_48_18)" stroke-width="5"/>
<defs>
<filter id="filter0_d_48_18" x="0.874023" y="8.82397" width="994.953" height="84.5601" filterUnits="userSpaceOnUse" color-interpolation-filters="sRGB">
<feFlood flood-opacity="0" result="BackgroundImageFix"/>
<feColorMatrix in="SourceAlpha" type="matrix" values="0 0 0 0 0 0 0 0 0 0 0 0 0 0 0 0 0 0 127 0" result="hardAlpha"/>
<feOffset dx="18" dy="15"/>
<feGaussianBlur stdDeviation="12.5"/>
<feComposite in2="hardAlpha" operator="out"/>
<feColorMatrix type="matrix" values="0 0 0 0 0 0 0 0 0 0 0 0 0 0 0 0 0 0 0.57 0"/>
<feBlend mode="normal" in2="BackgroundImageFix" result="effect1_dropShadow_48_18"/>
<feBlend mode="normal" in="SourceGraphic" in2="effect1_dropShadow_48_18" result="shape"/>
</filter>
<filter id="filter1_i_48_18" x="526" y="299" width="47" height="44" filterUnits="userSpaceOnUse" color-interpolation-filters="sRGB">
<feFlood flood-opacity="0" result="BackgroundImageFix"/>
<feBlend mode="normal" in="SourceGraphic" in2="BackgroundImageFix" result="shape"/>
<feColorMatrix in="SourceAlpha" type="matrix" values="0 0 0 0 0 0 0 0 0 0 0 0 0 0 0 0 0 0 127 0" result="hardAlpha"/>
<feOffset dx="18" dy="15"/>
<feGaussianBlur stdDeviation="12.5"/>
<feComposite in2="hardAlpha" operator="arithmetic" k2="-1" k3="1"/>
<feColorMatrix type="matrix" values="0 0 0 0 0 0 0 0 0 0 0 0 0 0 0 0 0 0 0.57 0"/>
<feBlend mode="normal" in2="shape" result="effect1_innerShadow_48_18"/>
</filter>
<filter id="filter2_i_48_18" x="481" y="299" width="47" height="44" filterUnits="userSpaceOnUse" color-interpolation-filters="sRGB">
<feFlood flood-opacity="0" result="BackgroundImageFix"/>
<feBlend mode="normal" in="SourceGraphic" in2="BackgroundImageFix" result="shape"/>
<feColorMatrix in="SourceAlpha" type="matrix" values="0 0 0 0 0 0 0 0 0 0 0 0 0 0 0 0 0 0 127 0" result="hardAlpha"/>
<feOffset dx="18" dy="15"/>
<feGaussianBlur stdDeviation="12.5"/>
<feComposite in2="hardAlpha" operator="arithmetic" k2="-1" k3="1"/>
<feColorMatrix type="matrix" values="0 0 0 0 0 0 0 0 0 0 0 0 0 0 0 0 0 0 0.57 0"/>
<feBlend mode="normal" in2="shape" result="effect1_innerShadow_48_18"/>
</filter>
<filter id="filter3_i_48_18" x="436" y="299" width="47" height="44" filterUnits="userSpaceOnUse" color-interpolation-filters="sRGB">
<feFlood flood-opacity="0" result="BackgroundImageFix"/>
<feBlend mode="normal" in="SourceGraphic" in2="BackgroundImageFix" result="shape"/>
<feColorMatrix in="SourceAlpha" type="matrix" values="0 0 0 0 0 0 0 0 0 0 0 0 0 0 0 0 0 0 127 0" result="hardAlpha"/>
<feOffset dx="18" dy="15"/>
<feGaussianBlur stdDeviation="12.5"/>
<feComposite in2="hardAlpha" operator="arithmetic" k2="-1" k3="1"/>
<feColorMatrix type="matrix" values="0 0 0 0 0 0 0 0 0 0 0 0 0 0 0 0 0 0 0.57 0"/>
<feBlend mode="normal" in2="shape" result="effect1_innerShadow_48_18"/>
</filter>
<linearGradient id="paint0_linear_48_18" x1="30.752" y1="2.83817" x2="106.462" y2="290.407" gradientUnits="userSpaceOnUse">
<stop stop-color="#FB37FF"/>
<stop offset="0.421875" stop-color="#9B6FEE"/>
<stop offset="0.682292" stop-color="#18B2DE"/>
<stop offset="1" stop-color="#7B7FEA" stop-opacity="0"/>
</linearGradient>
<linearGradient id="paint1_linear_48_18" x1="526.66" y1="299.963" x2="559.593" y2="309.189" gradientUnits="userSpaceOnUse">
<stop stop-color="#3A81BF"/>
<stop offset="1" stop-color="#41305A" stop-opacity="0.03"/>
</linearGradient>
<linearGradient id="paint2_linear_48_18" x1="526.756" y1="300.143" x2="559.712" y2="309.64" gradientUnits="userSpaceOnUse">
<stop stop-color="#FB37FF"/>
<stop offset="0.425065" stop-color="#9B6FEE"/>
<stop offset="0.519704" stop-color="#7B7FEA" stop-opacity="0"/>
<stop offset="1" stop-color="#18B2DE"/>
</linearGradient>
<linearGradient id="paint3_linear_48_18" x1="481.66" y1="299.963" x2="514.593" y2="309.189" gradientUnits="userSpaceOnUse">
<stop stop-color="#3A81BF"/>
<stop offset="1" stop-color="#41305A" stop-opacity="0.03"/>
</linearGradient>
<linearGradient id="paint4_linear_48_18" x1="481.756" y1="300.143" x2="514.712" y2="309.64" gradientUnits="userSpaceOnUse">
<stop stop-color="#FB37FF"/>
<stop offset="0.425065" stop-color="#9B6FEE"/>
<stop offset="0.519704" stop-color="#7B7FEA" stop-opacity="0"/>
<stop offset="1" stop-color="#18B2DE"/>
</linearGradient>
<linearGradient id="paint5_linear_48_18" x1="436.66" y1="299.963" x2="469.593" y2="309.189" gradientUnits="userSpaceOnUse">
<stop stop-color="#3A81BF"/>
<stop offset="1" stop-color="#41305A" stop-opacity="0.03"/>
</linearGradient>
<linearGradient id="paint6_linear_48_18" x1="436.756" y1="300.143" x2="469.712" y2="309.64" gradientUnits="userSpaceOnUse">
<stop stop-color="#FB37FF"/>
<stop offset="0.425065" stop-color="#9B6FEE"/>
<stop offset="0.519704" stop-color="#7B7FEA" stop-opacity="0"/>
<stop offset="1" stop-color="#18B2DE"/>
</linearGradient>
</defs>
</svg>
