<svg width="1440" height="1024" viewBox="0 0 1440 1024" fill="none" xmlns="http://www.w3.org/2000/svg">
<g clip-path="url(#clip0_1_166)">
<rect width="1440" height="1024" fill="#20062E"/>
<g filter="url(#filter0_f_1_166)">
<circle cx="308.5" cy="273.5" r="100.5" fill="#FB37FF"/>
</g>
<g filter="url(#filter1_f_1_166)">
<circle cx="1189.5" cy="727.5" r="100.5" fill="#1882DE"/>
</g>
<g filter="url(#filter2_i_1_166)">
<rect x="62" y="780" width="79" height="66" rx="15" fill="url(#paint0_linear_1_166)"/>
</g>
<rect x="64.5" y="782.5" width="74" height="61" rx="12.5" stroke="url(#paint1_linear_1_166)" stroke-width="5"/>
<g filter="url(#filter3_i_1_166)">
<rect width="79" height="66" rx="15" transform="matrix(1 0 0 -1 1266 195)" fill="url(#paint2_linear_1_166)"/>
</g>
<rect x="2.5" y="-2.5" width="74" height="61" rx="12.5" transform="matrix(1 0 0 -1 1266 190)" stroke="url(#paint3_linear_1_166)" stroke-width="5"/>
<g filter="url(#filter4_i_1_166)">
<rect width="79" height="66" rx="15" transform="matrix(1 0 0 -1 1305 239)" fill="url(#paint4_linear_1_166)"/>
</g>
<rect x="2.5" y="-2.5" width="74" height="61" rx="12.5" transform="matrix(1 0 0 -1 1305 234)" stroke="url(#paint5_linear_1_166)" stroke-width="5"/>
<g filter="url(#filter5_i_1_166)">
<rect x="181" y="879" width="79" height="66" rx="15" transform="rotate(180 181 879)" fill="url(#paint6_linear_1_166)"/>
</g>
<rect x="178.5" y="876.5" width="74" height="61" rx="12.5" transform="rotate(180 178.5 876.5)" stroke="url(#paint7_linear_1_166)" stroke-width="5"/>
<g filter="url(#filter6_i_1_166)">
<rect width="79" height="66" rx="15" transform="matrix(-1 0 0 1 1385 96)" fill="url(#paint8_linear_1_166)"/>
</g>
<rect x="-2.5" y="2.5" width="74" height="61" rx="12.5" transform="matrix(-1 0 0 1 1380 96)" stroke="url(#paint9_linear_1_166)" stroke-width="5"/>
<g filter="url(#filter7_i_1_166)">
<rect x="127" y="929" width="79" height="66" rx="15" transform="rotate(180 127 929)" fill="url(#paint10_linear_1_166)"/>
</g>
<rect x="124.5" y="926.5" width="74" height="61" rx="12.5" transform="rotate(180 124.5 926.5)" stroke="url(#paint11_linear_1_166)" stroke-width="5"/>
<g filter="url(#filter8_i_1_166)">
<rect width="79" height="66" rx="15" transform="matrix(-1 0 0 1 1331 46)" fill="url(#paint12_linear_1_166)"/>
</g>
<rect x="-2.5" y="2.5" width="74" height="61" rx="12.5" transform="matrix(-1 0 0 1 1326 46)" stroke="url(#paint13_linear_1_166)" stroke-width="5"/>
<g filter="url(#filter9_i_1_166)">
<circle cx="94.5" cy="92.5" r="46.5" fill="url(#paint14_linear_1_166)"/>
</g>
<circle cx="94.5" cy="92.5" r="44" stroke="url(#paint15_linear_1_166)" stroke-width="5"/>
<g filter="url(#filter10_i_1_166)">
<circle cx="1336.5" cy="929.5" r="46.5" transform="rotate(180 1336.5 929.5)" fill="url(#paint16_linear_1_166)"/>
</g>
<circle cx="1336.5" cy="929.5" r="44" transform="rotate(180 1336.5 929.5)" stroke="url(#paint17_linear_1_166)" stroke-width="5"/>
<g filter="url(#filter11_i_1_166)">
<circle cx="105.5" cy="217.5" r="28.5" fill="url(#paint18_linear_1_166)"/>
</g>
<circle cx="105.5" cy="217.5" r="26" stroke="url(#paint19_linear_1_166)" stroke-width="5"/>
<g filter="url(#filter12_i_1_166)">
<circle cx="1325.5" cy="804.5" r="28.5" transform="rotate(180 1325.5 804.5)" fill="url(#paint20_linear_1_166)"/>
</g>
<circle cx="1325.5" cy="804.5" r="26" transform="rotate(180 1325.5 804.5)" stroke="url(#paint21_linear_1_166)" stroke-width="5"/>
<g filter="url(#filter13_i_1_166)">
<circle cx="76.5" cy="245.5" r="28.5" fill="url(#paint22_linear_1_166)"/>
</g>
<circle cx="76.5" cy="245.5" r="26" stroke="url(#paint23_linear_1_166)" stroke-width="5"/>
<g filter="url(#filter14_i_1_166)">
<circle cx="1354.5" cy="776.5" r="28.5" transform="rotate(180 1354.5 776.5)" fill="url(#paint24_linear_1_166)"/>
</g>
<circle cx="1354.5" cy="776.5" r="26" transform="rotate(180 1354.5 776.5)" stroke="url(#paint25_linear_1_166)" stroke-width="5"/>
<g filter="url(#filter15_i_1_166)">
<path d="M380.234 216.86C377.154 217.14 374.448 217.28 372.114 217.28C369.874 217.28 367.868 217.093 366.094 216.72C364.788 209.813 364.134 204.307 364.134 200.2C364.134 196 364.181 191.753 364.274 187.46L339.494 186.9C339.121 185.127 338.934 183.213 338.934 181.16C338.934 179.107 339.074 177.007 339.354 174.86C346.634 173.553 352.888 172.9 358.114 172.9H364.554L365.114 145.32C366.888 144.947 368.894 144.76 371.134 144.76C373.468 144.76 376.174 144.9 379.254 145.18C380.468 151.993 381.074 157.967 381.074 163.1V173.32L406.554 173.88C406.928 175.653 407.114 177.613 407.114 179.76C407.114 181.813 406.974 183.82 406.694 185.78C399.414 187.18 394.094 187.88 390.734 187.88C387.374 187.88 384.014 187.833 380.654 187.74L380.234 216.86Z" fill="url(#paint26_linear_1_166)"/>
</g>
<path d="M380.234 216.86L380.687 221.839L385.169 221.432L385.234 216.932L380.234 216.86ZM366.094 216.72L361.181 217.649L361.801 220.926L365.064 221.613L366.094 216.72ZM364.274 187.46L369.273 187.569L369.382 182.574L364.387 182.461L364.274 187.46ZM339.494 186.9L334.602 187.93L335.418 191.809L339.381 191.899L339.494 186.9ZM339.354 174.86L338.471 169.939L334.87 170.585L334.396 174.213L339.354 174.86ZM364.554 172.9V177.9H369.454L369.553 173.001L364.554 172.9ZM365.114 145.32L364.084 140.427L360.196 141.246L360.115 145.218L365.114 145.32ZM379.254 145.18L384.177 144.303L383.508 140.546L379.707 140.201L379.254 145.18ZM381.074 173.32H376.074V178.211L380.964 178.319L381.074 173.32ZM406.554 173.88L411.447 172.85L410.63 168.968L406.664 168.881L406.554 173.88ZM406.694 185.78L407.639 190.69L411.14 190.017L411.644 186.487L406.694 185.78ZM380.654 187.74L380.793 182.742L375.728 182.601L375.655 187.668L380.654 187.74ZM379.782 211.881C376.807 212.151 374.257 212.28 372.114 212.28V222.28C374.638 222.28 377.502 222.129 380.687 221.839L379.782 211.881ZM372.114 212.28C370.143 212.28 368.491 212.115 367.124 211.827L365.064 221.613C367.245 222.072 369.606 222.28 372.114 222.28V212.28ZM371.007 215.791C369.724 209.007 369.134 203.852 369.134 200.2H359.134C359.134 204.762 359.851 210.619 361.181 217.649L371.007 215.791ZM369.134 200.2C369.134 196.037 369.181 191.827 369.273 187.569L359.275 187.351C359.181 191.68 359.134 195.963 359.134 200.2H369.134ZM364.387 182.461L339.607 181.901L339.381 191.899L364.161 192.459L364.387 182.461ZM344.387 185.87C344.094 184.477 343.934 182.912 343.934 181.16H333.934C333.934 183.515 334.148 185.777 334.602 187.93L344.387 185.87ZM343.934 181.16C343.934 179.334 344.059 177.45 344.312 175.507L334.396 174.213C334.09 176.563 333.934 178.879 333.934 181.16H343.934ZM340.238 179.781C347.336 178.507 353.277 177.9 358.114 177.9V167.9C352.498 167.9 345.933 168.599 338.471 169.939L340.238 179.781ZM358.114 177.9H364.554V167.9H358.114V177.9ZM369.553 173.001L370.113 145.422L360.115 145.218L359.555 172.798L369.553 173.001ZM366.144 150.213C367.511 149.925 369.163 149.76 371.134 149.76V139.76C368.626 139.76 366.265 139.968 364.084 140.427L366.144 150.213ZM371.134 149.76C373.277 149.76 375.827 149.889 378.802 150.159L379.707 140.201C376.522 139.911 373.658 139.76 371.134 139.76V149.76ZM374.332 146.057C375.51 152.673 376.074 158.342 376.074 163.1H386.074C386.074 157.592 385.425 151.313 384.177 144.303L374.332 146.057ZM376.074 163.1V173.32H386.074V163.1H376.074ZM380.964 178.319L406.444 178.879L406.664 168.881L381.184 168.321L380.964 178.319ZM401.662 174.91C401.952 176.289 402.114 177.898 402.114 179.76H412.114C412.114 177.329 411.903 175.017 411.447 172.85L401.662 174.91ZM402.114 179.76C402.114 181.585 401.99 183.356 401.745 185.073L411.644 186.487C411.959 184.284 412.114 182.041 412.114 179.76H402.114ZM405.75 180.87C398.501 182.264 393.583 182.88 390.734 182.88V192.88C394.606 192.88 400.327 192.096 407.639 190.69L405.75 180.87ZM390.734 182.88C387.421 182.88 384.107 182.834 380.793 182.742L380.515 192.738C383.922 192.833 387.328 192.88 390.734 192.88V182.88ZM375.655 187.668L375.235 216.788L385.234 216.932L385.654 187.812L375.655 187.668Z" fill="url(#paint27_linear_1_166)"/>
<g filter="url(#filter16_i_1_166)">
<path d="M1363.23 585.86C1360.15 586.14 1357.45 586.28 1355.11 586.28C1352.87 586.28 1350.87 586.093 1349.09 585.72C1347.79 578.813 1347.13 573.307 1347.13 569.2C1347.13 565 1347.18 560.753 1347.27 556.46L1322.49 555.9C1322.12 554.127 1321.93 552.213 1321.93 550.16C1321.93 548.107 1322.07 546.007 1322.35 543.86C1329.63 542.553 1335.89 541.9 1341.11 541.9H1347.55L1348.11 514.32C1349.89 513.947 1351.89 513.76 1354.13 513.76C1356.47 513.76 1359.17 513.9 1362.25 514.18C1363.47 520.993 1364.07 526.967 1364.07 532.1V542.32L1389.55 542.88C1389.93 544.653 1390.11 546.613 1390.11 548.76C1390.11 550.813 1389.97 552.82 1389.69 554.78C1382.41 556.18 1377.09 556.88 1373.73 556.88C1370.37 556.88 1367.01 556.833 1363.65 556.74L1363.23 585.86Z" fill="url(#paint28_linear_1_166)"/>
</g>
<path d="M1363.23 585.86L1363.69 590.839L1368.17 590.432L1368.23 585.932L1363.23 585.86ZM1349.09 585.72L1344.18 586.649L1344.8 589.926L1348.06 590.613L1349.09 585.72ZM1347.27 556.46L1352.27 556.569L1352.38 551.574L1347.39 551.461L1347.27 556.46ZM1322.49 555.9L1317.6 556.93L1318.42 560.809L1322.38 560.899L1322.49 555.9ZM1322.35 543.86L1321.47 538.939L1317.87 539.585L1317.4 543.213L1322.35 543.86ZM1347.55 541.9V546.9H1352.45L1352.55 542.001L1347.55 541.9ZM1348.11 514.32L1347.08 509.427L1343.2 510.246L1343.12 514.218L1348.11 514.32ZM1362.25 514.18L1367.18 513.303L1366.51 509.546L1362.71 509.201L1362.25 514.18ZM1364.07 542.32H1359.07V547.211L1363.96 547.319L1364.07 542.32ZM1389.55 542.88L1394.45 541.85L1393.63 537.968L1389.66 537.881L1389.55 542.88ZM1389.69 554.78L1390.64 559.69L1394.14 559.017L1394.64 555.487L1389.69 554.78ZM1363.65 556.74L1363.79 551.742L1358.73 551.601L1358.65 556.668L1363.65 556.74ZM1362.78 580.881C1359.81 581.151 1357.26 581.28 1355.11 581.28V591.28C1357.64 591.28 1360.5 591.129 1363.69 590.839L1362.78 580.881ZM1355.11 581.28C1353.14 581.28 1351.49 581.115 1350.12 580.827L1348.06 590.613C1350.24 591.072 1352.61 591.28 1355.11 591.28V581.28ZM1354.01 584.791C1352.72 578.007 1352.13 572.852 1352.13 569.2H1342.13C1342.13 573.762 1342.85 579.619 1344.18 586.649L1354.01 584.791ZM1352.13 569.2C1352.13 565.037 1352.18 560.827 1352.27 556.569L1342.28 556.351C1342.18 560.68 1342.13 564.963 1342.13 569.2H1352.13ZM1347.39 551.461L1322.61 550.901L1322.38 560.899L1347.16 561.459L1347.39 551.461ZM1327.39 554.87C1327.09 553.477 1326.93 551.912 1326.93 550.16H1316.93C1316.93 552.515 1317.15 554.777 1317.6 556.93L1327.39 554.87ZM1326.93 550.16C1326.93 548.334 1327.06 546.45 1327.31 544.507L1317.4 543.213C1317.09 545.563 1316.93 547.879 1316.93 550.16H1326.93ZM1323.24 548.781C1330.34 547.507 1336.28 546.9 1341.11 546.9V536.9C1335.5 536.9 1328.93 537.599 1321.47 538.939L1323.24 548.781ZM1341.11 546.9H1347.55V536.9H1341.11V546.9ZM1352.55 542.001L1353.11 514.422L1343.12 514.218L1342.56 541.798L1352.55 542.001ZM1349.14 519.213C1350.51 518.925 1352.16 518.76 1354.13 518.76V508.76C1351.63 508.76 1349.26 508.968 1347.08 509.427L1349.14 519.213ZM1354.13 518.76C1356.28 518.76 1358.83 518.889 1361.8 519.159L1362.71 509.201C1359.52 508.911 1356.66 508.76 1354.13 508.76V518.76ZM1357.33 515.057C1358.51 521.673 1359.07 527.342 1359.07 532.1H1369.07C1369.07 526.592 1368.43 520.313 1367.18 513.303L1357.33 515.057ZM1359.07 532.1V542.32H1369.07V532.1H1359.07ZM1363.96 547.319L1389.44 547.879L1389.66 537.881L1364.18 537.321L1363.96 547.319ZM1384.66 543.91C1384.95 545.289 1385.11 546.898 1385.11 548.76H1395.11C1395.11 546.329 1394.9 544.017 1394.45 541.85L1384.66 543.91ZM1385.11 548.76C1385.11 550.585 1384.99 552.356 1384.74 554.073L1394.64 555.487C1394.96 553.284 1395.11 551.041 1395.11 548.76H1385.11ZM1388.75 549.87C1381.5 551.264 1376.58 551.88 1373.73 551.88V561.88C1377.61 561.88 1383.33 561.096 1390.64 559.69L1388.75 549.87ZM1373.73 551.88C1370.42 551.88 1367.11 551.834 1363.79 551.742L1363.52 561.738C1366.92 561.833 1370.33 561.88 1373.73 561.88V551.88ZM1358.65 556.668L1358.23 585.788L1368.23 585.932L1368.65 556.812L1358.65 556.668Z" fill="url(#paint29_linear_1_166)"/>
<g filter="url(#filter17_i_1_166)">
<path d="M1039.23 219.86C1036.15 220.14 1033.45 220.28 1031.11 220.28C1028.87 220.28 1026.87 220.093 1025.09 219.72C1023.79 212.813 1023.13 207.307 1023.13 203.2C1023.13 199 1023.18 194.753 1023.27 190.46L998.494 189.9C998.121 188.127 997.934 186.213 997.934 184.16C997.934 182.107 998.074 180.007 998.354 177.86C1005.63 176.553 1011.89 175.9 1017.11 175.9H1023.55L1024.11 148.32C1025.89 147.947 1027.89 147.76 1030.13 147.76C1032.47 147.76 1035.17 147.9 1038.25 148.18C1039.47 154.993 1040.07 160.967 1040.07 166.1V176.32L1065.55 176.88C1065.93 178.653 1066.11 180.613 1066.11 182.76C1066.11 184.813 1065.97 186.82 1065.69 188.78C1058.41 190.18 1053.09 190.88 1049.73 190.88C1046.37 190.88 1043.01 190.833 1039.65 190.74L1039.23 219.86Z" fill="url(#paint30_linear_1_166)"/>
</g>
<path d="M1039.23 219.86L1039.69 224.839L1044.17 224.432L1044.23 219.932L1039.23 219.86ZM1025.09 219.72L1020.18 220.649L1020.8 223.926L1024.06 224.613L1025.09 219.72ZM1023.27 190.46L1028.27 190.569L1028.38 185.574L1023.39 185.461L1023.27 190.46ZM998.494 189.9L993.602 190.93L994.418 194.809L998.381 194.899L998.494 189.9ZM998.354 177.86L997.471 172.939L993.87 173.585L993.396 177.213L998.354 177.86ZM1023.55 175.9V180.9H1028.45L1028.55 176.001L1023.55 175.9ZM1024.11 148.32L1023.08 143.427L1019.2 144.246L1019.12 148.218L1024.11 148.32ZM1038.25 148.18L1043.18 147.303L1042.51 143.546L1038.71 143.201L1038.25 148.18ZM1040.07 176.32H1035.07V181.211L1039.96 181.319L1040.07 176.32ZM1065.55 176.88L1070.45 175.85L1069.63 171.968L1065.66 171.881L1065.55 176.88ZM1065.69 188.78L1066.64 193.69L1070.14 193.017L1070.64 189.487L1065.69 188.78ZM1039.65 190.74L1039.79 185.742L1034.73 185.601L1034.65 190.668L1039.65 190.74ZM1038.78 214.881C1035.81 215.151 1033.26 215.28 1031.11 215.28V225.28C1033.64 225.28 1036.5 225.129 1039.69 224.839L1038.78 214.881ZM1031.11 215.28C1029.14 215.28 1027.49 215.115 1026.12 214.827L1024.06 224.613C1026.24 225.072 1028.61 225.28 1031.11 225.28V215.28ZM1030.01 218.791C1028.72 212.007 1028.13 206.852 1028.13 203.2H1018.13C1018.13 207.762 1018.85 213.619 1020.18 220.649L1030.01 218.791ZM1028.13 203.2C1028.13 199.037 1028.18 194.827 1028.27 190.569L1018.28 190.351C1018.18 194.68 1018.13 198.963 1018.13 203.2H1028.13ZM1023.39 185.461L998.607 184.901L998.381 194.899L1023.16 195.459L1023.39 185.461ZM1003.39 188.87C1003.09 187.477 1002.93 185.912 1002.93 184.16H992.934C992.934 186.515 993.148 188.777 993.602 190.93L1003.39 188.87ZM1002.93 184.16C1002.93 182.334 1003.06 180.45 1003.31 178.507L993.396 177.213C993.09 179.563 992.934 181.879 992.934 184.16H1002.93ZM999.238 182.781C1006.34 181.507 1012.28 180.9 1017.11 180.9V170.9C1011.5 170.9 1004.93 171.599 997.471 172.939L999.238 182.781ZM1017.11 180.9H1023.55V170.9H1017.11V180.9ZM1028.55 176.001L1029.11 148.422L1019.12 148.218L1018.56 175.798L1028.55 176.001ZM1025.14 153.213C1026.51 152.925 1028.16 152.76 1030.13 152.76V142.76C1027.63 142.76 1025.26 142.968 1023.08 143.427L1025.14 153.213ZM1030.13 152.76C1032.28 152.76 1034.83 152.889 1037.8 153.159L1038.71 143.201C1035.52 142.911 1032.66 142.76 1030.13 142.76V152.76ZM1033.33 149.057C1034.51 155.673 1035.07 161.342 1035.07 166.1H1045.07C1045.07 160.592 1044.43 154.313 1043.18 147.303L1033.33 149.057ZM1035.07 166.1V176.32H1045.07V166.1H1035.07ZM1039.96 181.319L1065.44 181.879L1065.66 171.881L1040.18 171.321L1039.96 181.319ZM1060.66 177.91C1060.95 179.289 1061.11 180.898 1061.11 182.76H1071.11C1071.11 180.329 1070.9 178.017 1070.45 175.85L1060.66 177.91ZM1061.11 182.76C1061.11 184.585 1060.99 186.356 1060.74 188.073L1070.64 189.487C1070.96 187.284 1071.11 185.041 1071.11 182.76H1061.11ZM1064.75 183.87C1057.5 185.264 1052.58 185.88 1049.73 185.88V195.88C1053.61 195.88 1059.33 195.096 1066.64 193.69L1064.75 183.87ZM1049.73 185.88C1046.42 185.88 1043.11 185.834 1039.79 185.742L1039.52 195.738C1042.92 195.833 1046.33 195.88 1049.73 195.88V185.88ZM1034.65 190.668L1034.23 219.788L1044.23 219.932L1044.65 190.812L1034.65 190.668Z" fill="url(#paint31_linear_1_166)"/>
<g filter="url(#filter18_i_1_166)">
<path d="M766.234 968.86C763.154 969.14 760.448 969.28 758.114 969.28C755.874 969.28 753.868 969.093 752.094 968.72C750.788 961.813 750.134 956.307 750.134 952.2C750.134 948 750.181 943.753 750.274 939.46L725.494 938.9C725.121 937.127 724.934 935.213 724.934 933.16C724.934 931.107 725.074 929.007 725.354 926.86C732.634 925.553 738.888 924.9 744.114 924.9H750.554L751.114 897.32C752.888 896.947 754.894 896.76 757.134 896.76C759.468 896.76 762.174 896.9 765.254 897.18C766.468 903.993 767.074 909.967 767.074 915.1V925.32L792.554 925.88C792.928 927.653 793.114 929.613 793.114 931.76C793.114 933.813 792.974 935.82 792.694 937.78C785.414 939.18 780.094 939.88 776.734 939.88C773.374 939.88 770.014 939.833 766.654 939.74L766.234 968.86Z" fill="url(#paint32_linear_1_166)"/>
</g>
<path d="M766.234 968.86L766.687 973.839L771.169 973.432L771.234 968.932L766.234 968.86ZM752.094 968.72L747.181 969.649L747.801 972.926L751.064 973.613L752.094 968.72ZM750.274 939.46L755.273 939.569L755.382 934.574L750.387 934.461L750.274 939.46ZM725.494 938.9L720.602 939.93L721.418 943.809L725.381 943.899L725.494 938.9ZM725.354 926.86L724.471 921.939L720.87 922.585L720.396 926.213L725.354 926.86ZM750.554 924.9V929.9H755.454L755.553 925.001L750.554 924.9ZM751.114 897.32L750.084 892.427L746.196 893.246L746.115 897.218L751.114 897.32ZM765.254 897.18L770.177 896.303L769.508 892.546L765.707 892.201L765.254 897.18ZM767.074 925.32H762.074V930.211L766.964 930.319L767.074 925.32ZM792.554 925.88L797.447 924.85L796.63 920.968L792.664 920.881L792.554 925.88ZM792.694 937.78L793.639 942.69L797.14 942.017L797.644 938.487L792.694 937.78ZM766.654 939.74L766.793 934.742L761.728 934.601L761.655 939.668L766.654 939.74ZM765.782 963.881C762.807 964.151 760.257 964.28 758.114 964.28V974.28C760.638 974.28 763.502 974.129 766.687 973.839L765.782 963.881ZM758.114 964.28C756.143 964.28 754.491 964.115 753.124 963.827L751.064 973.613C753.245 974.072 755.606 974.28 758.114 974.28V964.28ZM757.007 967.791C755.724 961.007 755.134 955.852 755.134 952.2H745.134C745.134 956.762 745.851 962.619 747.181 969.649L757.007 967.791ZM755.134 952.2C755.134 948.037 755.181 943.827 755.273 939.569L745.275 939.351C745.181 943.68 745.134 947.963 745.134 952.2H755.134ZM750.387 934.461L725.607 933.901L725.381 943.899L750.161 944.459L750.387 934.461ZM730.387 937.87C730.094 936.477 729.934 934.912 729.934 933.16H719.934C719.934 935.515 720.148 937.777 720.602 939.93L730.387 937.87ZM729.934 933.16C729.934 931.334 730.059 929.45 730.312 927.507L720.396 926.213C720.09 928.563 719.934 930.879 719.934 933.16H729.934ZM726.238 931.781C733.336 930.507 739.277 929.9 744.114 929.9V919.9C738.498 919.9 731.933 920.599 724.471 921.939L726.238 931.781ZM744.114 929.9H750.554V919.9H744.114V929.9ZM755.553 925.001L756.113 897.422L746.115 897.218L745.555 924.798L755.553 925.001ZM752.144 902.213C753.511 901.925 755.163 901.76 757.134 901.76V891.76C754.626 891.76 752.265 891.968 750.084 892.427L752.144 902.213ZM757.134 901.76C759.277 901.76 761.827 901.889 764.802 902.159L765.707 892.201C762.522 891.911 759.658 891.76 757.134 891.76V901.76ZM760.332 898.057C761.51 904.673 762.074 910.342 762.074 915.1H772.074C772.074 909.592 771.425 903.313 770.177 896.303L760.332 898.057ZM762.074 915.1V925.32H772.074V915.1H762.074ZM766.964 930.319L792.444 930.879L792.664 920.881L767.184 920.321L766.964 930.319ZM787.662 926.91C787.952 928.289 788.114 929.898 788.114 931.76H798.114C798.114 929.329 797.903 927.017 797.447 924.85L787.662 926.91ZM788.114 931.76C788.114 933.585 787.99 935.356 787.745 937.073L797.644 938.487C797.959 936.284 798.114 934.041 798.114 931.76H788.114ZM791.75 932.87C784.501 934.264 779.583 934.88 776.734 934.88V944.88C780.606 944.88 786.327 944.096 793.639 942.69L791.75 932.87ZM776.734 934.88C773.421 934.88 770.107 934.834 766.793 934.742L766.515 944.738C769.922 944.833 773.328 944.88 776.734 944.88V934.88ZM761.655 939.668L761.235 968.788L771.234 968.932L771.654 939.812L761.655 939.668Z" fill="url(#paint33_linear_1_166)"/>
<g filter="url(#filter19_i_1_166)">
<path d="M756.835 72.5C757.115 74.8333 757.255 76.8867 757.255 78.66L756.695 84.4C749.415 85.8 743.208 86.5 738.075 86.5L686.135 85.52C685.575 82.9067 685.295 80.9467 685.295 79.64L685.995 73.62C693.275 72.22 699.528 71.52 704.755 71.52L756.835 72.5Z" fill="url(#paint34_linear_1_166)"/>
</g>
<path d="M756.835 72.5L761.799 71.9043L761.281 67.5828L756.929 67.5009L756.835 72.5ZM757.255 78.66L762.231 79.1455L762.255 78.9033V78.66H757.255ZM756.695 84.4L757.639 89.31L761.308 88.6044L761.671 84.8855L756.695 84.4ZM738.075 86.5L737.981 91.4991L738.028 91.5H738.075V86.5ZM686.135 85.52L681.246 86.5676L682.077 90.4443L686.041 90.5191L686.135 85.52ZM685.295 79.64L680.328 79.0625L680.295 79.3503V79.64H685.295ZM685.995 73.62L685.051 68.71L681.452 69.4021L681.028 73.0425L685.995 73.62ZM704.755 71.52L704.849 66.5209L704.802 66.52H704.755V71.52ZM751.871 73.0957C752.134 75.2907 752.255 77.1377 752.255 78.66H762.255C762.255 76.6356 762.096 74.376 761.799 71.9043L751.871 73.0957ZM752.279 78.1745L751.719 83.9145L761.671 84.8855L762.231 79.1455L752.279 78.1745ZM755.751 79.49C748.658 80.854 742.786 81.5 738.075 81.5V91.5C743.631 91.5 750.172 90.746 757.639 89.31L755.751 79.49ZM738.169 81.5009L686.229 80.5209L686.041 90.5191L737.981 91.4991L738.169 81.5009ZM691.024 84.4724C690.478 81.9243 690.295 80.3927 690.295 79.64H680.295C680.295 81.5007 680.672 83.8891 681.246 86.5676L691.024 84.4724ZM690.261 80.2175L690.961 74.1975L681.028 73.0425L680.328 79.0625L690.261 80.2175ZM686.939 78.53C694.026 77.1672 699.946 76.52 704.755 76.52V66.52C699.111 66.52 692.524 67.2728 685.051 68.71L686.939 78.53ZM704.661 76.5191L756.741 77.4991L756.929 67.5009L704.849 66.5209L704.661 76.5191Z" fill="url(#paint35_linear_1_166)"/>
<g filter="url(#filter20_i_1_166)">
<path d="M1124.83 855.5C1125.11 857.833 1125.25 859.887 1125.25 861.66L1124.69 867.4C1117.41 868.8 1111.21 869.5 1106.07 869.5L1054.13 868.52C1053.57 865.907 1053.29 863.947 1053.29 862.64L1053.99 856.62C1061.27 855.22 1067.53 854.52 1072.75 854.52L1124.83 855.5Z" fill="url(#paint36_linear_1_166)"/>
</g>
<path d="M1124.83 855.5L1129.8 854.904L1129.28 850.583L1124.93 850.501L1124.83 855.5ZM1125.25 861.66L1130.23 862.145L1130.25 861.903V861.66H1125.25ZM1124.69 867.4L1125.64 872.31L1129.31 871.604L1129.67 867.885L1124.69 867.4ZM1106.07 869.5L1105.98 874.499L1106.03 874.5H1106.07V869.5ZM1054.13 868.52L1049.25 869.568L1050.08 873.444L1054.04 873.519L1054.13 868.52ZM1053.29 862.64L1048.33 862.062L1048.29 862.35V862.64H1053.29ZM1053.99 856.62L1053.05 851.71L1049.45 852.402L1049.03 856.042L1053.99 856.62ZM1072.75 854.52L1072.85 849.521L1072.8 849.52H1072.75V854.52ZM1119.87 856.096C1120.13 858.291 1120.25 860.138 1120.25 861.66H1130.25C1130.25 859.636 1130.1 857.376 1129.8 854.904L1119.87 856.096ZM1120.28 861.175L1119.72 866.915L1129.67 867.885L1130.23 862.145L1120.28 861.175ZM1123.75 862.49C1116.66 863.854 1110.79 864.5 1106.07 864.5V874.5C1111.63 874.5 1118.17 873.746 1125.64 872.31L1123.75 862.49ZM1106.17 864.501L1054.23 863.521L1054.04 873.519L1105.98 874.499L1106.17 864.501ZM1059.02 867.472C1058.48 864.924 1058.29 863.393 1058.29 862.64H1048.29C1048.29 864.501 1048.67 866.889 1049.25 869.568L1059.02 867.472ZM1058.26 863.217L1058.96 857.198L1049.03 856.042L1048.33 862.062L1058.26 863.217ZM1054.94 861.53C1062.03 860.167 1067.95 859.52 1072.75 859.52V849.52C1067.11 849.52 1060.52 850.273 1053.05 851.71L1054.94 861.53ZM1072.66 859.519L1124.74 860.499L1124.93 850.501L1072.85 849.521L1072.66 859.519Z" fill="url(#paint37_linear_1_166)"/>
<g filter="url(#filter21_i_1_166)">
<path d="M463.835 914.5C464.115 916.833 464.255 918.887 464.255 920.66L463.695 926.4C456.415 927.8 450.208 928.5 445.075 928.5L393.135 927.52C392.575 924.907 392.295 922.947 392.295 921.64L392.995 915.62C400.275 914.22 406.528 913.52 411.755 913.52L463.835 914.5Z" fill="url(#paint38_linear_1_166)"/>
</g>
<path d="M463.835 914.5L468.799 913.904L468.281 909.583L463.929 909.501L463.835 914.5ZM464.255 920.66L469.231 921.145L469.255 920.903V920.66H464.255ZM463.695 926.4L464.639 931.31L468.308 930.604L468.671 926.885L463.695 926.4ZM445.075 928.5L444.981 933.499L445.028 933.5H445.075V928.5ZM393.135 927.52L388.246 928.568L389.077 932.444L393.041 932.519L393.135 927.52ZM392.295 921.64L387.328 921.062L387.295 921.35V921.64H392.295ZM392.995 915.62L392.051 910.71L388.452 911.402L388.028 915.042L392.995 915.62ZM411.755 913.52L411.849 908.521L411.802 908.52H411.755V913.52ZM458.871 915.096C459.134 917.291 459.255 919.138 459.255 920.66H469.255C469.255 918.636 469.096 916.376 468.799 913.904L458.871 915.096ZM459.279 920.175L458.719 925.915L468.671 926.885L469.231 921.145L459.279 920.175ZM462.751 921.49C455.658 922.854 449.786 923.5 445.075 923.5V933.5C450.631 933.5 457.172 932.746 464.639 931.31L462.751 921.49ZM445.169 923.501L393.229 922.521L393.041 932.519L444.981 933.499L445.169 923.501ZM398.024 926.472C397.478 923.924 397.295 922.393 397.295 921.64H387.295C387.295 923.501 387.672 925.889 388.246 928.568L398.024 926.472ZM397.261 922.217L397.961 916.198L388.028 915.042L387.328 921.062L397.261 922.217ZM393.939 920.53C401.026 919.167 406.946 918.52 411.755 918.52V908.52C406.111 908.52 399.524 909.273 392.051 910.71L393.939 920.53ZM411.661 918.519L463.741 919.499L463.929 909.501L411.849 908.521L411.661 918.519Z" fill="url(#paint39_linear_1_166)"/>
<g filter="url(#filter22_i_1_166)">
<path d="M148.835 462.5C149.115 464.833 149.255 466.887 149.255 468.66L148.695 474.4C141.415 475.8 135.208 476.5 130.075 476.5L78.1349 475.52C77.5749 472.907 77.2949 470.947 77.2949 469.64L77.9949 463.62C85.2749 462.22 91.5283 461.52 96.7549 461.52L148.835 462.5Z" fill="url(#paint40_linear_1_166)"/>
</g>
<path d="M148.835 462.5L153.799 461.904L153.281 457.583L148.929 457.501L148.835 462.5ZM149.255 468.66L154.231 469.145L154.255 468.903V468.66H149.255ZM148.695 474.4L149.639 479.31L153.308 478.604L153.671 474.885L148.695 474.4ZM130.075 476.5L129.981 481.499L130.028 481.5H130.075V476.5ZM78.1349 475.52L73.2459 476.568L74.0766 480.444L78.0406 480.519L78.1349 475.52ZM77.2949 469.64L72.3284 469.062L72.2949 469.35V469.64H77.2949ZM77.9949 463.62L77.0507 458.71L73.4517 459.402L73.0284 463.042L77.9949 463.62ZM96.7549 461.52L96.849 456.521L96.802 456.52H96.7549V461.52ZM143.871 463.096C144.134 465.291 144.255 467.138 144.255 468.66H154.255C154.255 466.636 154.096 464.376 153.799 461.904L143.871 463.096ZM144.279 468.175L143.719 473.915L153.671 474.885L154.231 469.145L144.279 468.175ZM147.751 469.49C140.658 470.854 134.786 471.5 130.075 471.5V481.5C135.631 481.5 142.172 480.746 149.639 479.31L147.751 469.49ZM130.169 471.501L78.2292 470.521L78.0406 480.519L129.981 481.499L130.169 471.501ZM83.0239 474.472C82.4779 471.924 82.2949 470.393 82.2949 469.64H72.2949C72.2949 471.501 72.6719 473.889 73.2459 476.568L83.0239 474.472ZM82.2615 470.217L82.9615 464.198L73.0284 463.042L72.3284 469.062L82.2615 470.217ZM78.9392 468.53C86.0257 467.167 91.946 466.52 96.7549 466.52V456.52C91.1105 456.52 84.5241 457.273 77.0507 458.71L78.9392 468.53ZM96.6609 466.519L148.741 467.499L148.929 457.501L96.849 456.521L96.6609 466.519Z" fill="url(#paint41_linear_1_166)"/>
</g>
<rect x="3.5" y="3.5" width="1433" height="1017" stroke="black" stroke-width="7"/>
<defs>
<filter id="filter0_f_1_166" x="8" y="-27" width="601" height="601" filterUnits="userSpaceOnUse" color-interpolation-filters="sRGB">
<feFlood flood-opacity="0" result="BackgroundImageFix"/>
<feBlend mode="normal" in="SourceGraphic" in2="BackgroundImageFix" result="shape"/>
<feGaussianBlur stdDeviation="100" result="effect1_foregroundBlur_1_166"/>
</filter>
<filter id="filter1_f_1_166" x="889" y="427" width="601" height="601" filterUnits="userSpaceOnUse" color-interpolation-filters="sRGB">
<feFlood flood-opacity="0" result="BackgroundImageFix"/>
<feBlend mode="normal" in="SourceGraphic" in2="BackgroundImageFix" result="shape"/>
<feGaussianBlur stdDeviation="100" result="effect1_foregroundBlur_1_166"/>
</filter>
<filter id="filter2_i_1_166" x="62" y="780" width="97" height="81" filterUnits="userSpaceOnUse" color-interpolation-filters="sRGB">
<feFlood flood-opacity="0" result="BackgroundImageFix"/>
<feBlend mode="normal" in="SourceGraphic" in2="BackgroundImageFix" result="shape"/>
<feColorMatrix in="SourceAlpha" type="matrix" values="0 0 0 0 0 0 0 0 0 0 0 0 0 0 0 0 0 0 127 0" result="hardAlpha"/>
<feOffset dx="18" dy="15"/>
<feGaussianBlur stdDeviation="12.5"/>
<feComposite in2="hardAlpha" operator="arithmetic" k2="-1" k3="1"/>
<feColorMatrix type="matrix" values="0 0 0 0 0 0 0 0 0 0 0 0 0 0 0 0 0 0 0.57 0"/>
<feBlend mode="normal" in2="shape" result="effect1_innerShadow_1_166"/>
</filter>
<filter id="filter3_i_1_166" x="1266" y="129" width="97" height="81" filterUnits="userSpaceOnUse" color-interpolation-filters="sRGB">
<feFlood flood-opacity="0" result="BackgroundImageFix"/>
<feBlend mode="normal" in="SourceGraphic" in2="BackgroundImageFix" result="shape"/>
<feColorMatrix in="SourceAlpha" type="matrix" values="0 0 0 0 0 0 0 0 0 0 0 0 0 0 0 0 0 0 127 0" result="hardAlpha"/>
<feOffset dx="18" dy="15"/>
<feGaussianBlur stdDeviation="12.5"/>
<feComposite in2="hardAlpha" operator="arithmetic" k2="-1" k3="1"/>
<feColorMatrix type="matrix" values="0 0 0 0 0 0 0 0 0 0 0 0 0 0 0 0 0 0 0.57 0"/>
<feBlend mode="normal" in2="shape" result="effect1_innerShadow_1_166"/>
</filter>
<filter id="filter4_i_1_166" x="1305" y="173" width="97" height="81" filterUnits="userSpaceOnUse" color-interpolation-filters="sRGB">
<feFlood flood-opacity="0" result="BackgroundImageFix"/>
<feBlend mode="normal" in="SourceGraphic" in2="BackgroundImageFix" result="shape"/>
<feColorMatrix in="SourceAlpha" type="matrix" values="0 0 0 0 0 0 0 0 0 0 0 0 0 0 0 0 0 0 127 0" result="hardAlpha"/>
<feOffset dx="18" dy="15"/>
<feGaussianBlur stdDeviation="12.5"/>
<feComposite in2="hardAlpha" operator="arithmetic" k2="-1" k3="1"/>
<feColorMatrix type="matrix" values="0 0 0 0 0 0 0 0 0 0 0 0 0 0 0 0 0 0 0.57 0"/>
<feBlend mode="normal" in2="shape" result="effect1_innerShadow_1_166"/>
</filter>
<filter id="filter5_i_1_166" x="102" y="813" width="97" height="81" filterUnits="userSpaceOnUse" color-interpolation-filters="sRGB">
<feFlood flood-opacity="0" result="BackgroundImageFix"/>
<feBlend mode="normal" in="SourceGraphic" in2="BackgroundImageFix" result="shape"/>
<feColorMatrix in="SourceAlpha" type="matrix" values="0 0 0 0 0 0 0 0 0 0 0 0 0 0 0 0 0 0 127 0" result="hardAlpha"/>
<feOffset dx="18" dy="15"/>
<feGaussianBlur stdDeviation="12.5"/>
<feComposite in2="hardAlpha" operator="arithmetic" k2="-1" k3="1"/>
<feColorMatrix type="matrix" values="0 0 0 0 0 0 0 0 0 0 0 0 0 0 0 0 0 0 0.57 0"/>
<feBlend mode="normal" in2="shape" result="effect1_innerShadow_1_166"/>
</filter>
<filter id="filter6_i_1_166" x="1306" y="96" width="97" height="81" filterUnits="userSpaceOnUse" color-interpolation-filters="sRGB">
<feFlood flood-opacity="0" result="BackgroundImageFix"/>
<feBlend mode="normal" in="SourceGraphic" in2="BackgroundImageFix" result="shape"/>
<feColorMatrix in="SourceAlpha" type="matrix" values="0 0 0 0 0 0 0 0 0 0 0 0 0 0 0 0 0 0 127 0" result="hardAlpha"/>
<feOffset dx="18" dy="15"/>
<feGaussianBlur stdDeviation="12.5"/>
<feComposite in2="hardAlpha" operator="arithmetic" k2="-1" k3="1"/>
<feColorMatrix type="matrix" values="0 0 0 0 0 0 0 0 0 0 0 0 0 0 0 0 0 0 0.57 0"/>
<feBlend mode="normal" in2="shape" result="effect1_innerShadow_1_166"/>
</filter>
<filter id="filter7_i_1_166" x="48" y="863" width="97" height="81" filterUnits="userSpaceOnUse" color-interpolation-filters="sRGB">
<feFlood flood-opacity="0" result="BackgroundImageFix"/>
<feBlend mode="normal" in="SourceGraphic" in2="BackgroundImageFix" result="shape"/>
<feColorMatrix in="SourceAlpha" type="matrix" values="0 0 0 0 0 0 0 0 0 0 0 0 0 0 0 0 0 0 127 0" result="hardAlpha"/>
<feOffset dx="18" dy="15"/>
<feGaussianBlur stdDeviation="12.5"/>
<feComposite in2="hardAlpha" operator="arithmetic" k2="-1" k3="1"/>
<feColorMatrix type="matrix" values="0 0 0 0 0 0 0 0 0 0 0 0 0 0 0 0 0 0 0.57 0"/>
<feBlend mode="normal" in2="shape" result="effect1_innerShadow_1_166"/>
</filter>
<filter id="filter8_i_1_166" x="1252" y="46" width="97" height="81" filterUnits="userSpaceOnUse" color-interpolation-filters="sRGB">
<feFlood flood-opacity="0" result="BackgroundImageFix"/>
<feBlend mode="normal" in="SourceGraphic" in2="BackgroundImageFix" result="shape"/>
<feColorMatrix in="SourceAlpha" type="matrix" values="0 0 0 0 0 0 0 0 0 0 0 0 0 0 0 0 0 0 127 0" result="hardAlpha"/>
<feOffset dx="18" dy="15"/>
<feGaussianBlur stdDeviation="12.5"/>
<feComposite in2="hardAlpha" operator="arithmetic" k2="-1" k3="1"/>
<feColorMatrix type="matrix" values="0 0 0 0 0 0 0 0 0 0 0 0 0 0 0 0 0 0 0.57 0"/>
<feBlend mode="normal" in2="shape" result="effect1_innerShadow_1_166"/>
</filter>
<filter id="filter9_i_1_166" x="48" y="46" width="111" height="108" filterUnits="userSpaceOnUse" color-interpolation-filters="sRGB">
<feFlood flood-opacity="0" result="BackgroundImageFix"/>
<feBlend mode="normal" in="SourceGraphic" in2="BackgroundImageFix" result="shape"/>
<feColorMatrix in="SourceAlpha" type="matrix" values="0 0 0 0 0 0 0 0 0 0 0 0 0 0 0 0 0 0 127 0" result="hardAlpha"/>
<feOffset dx="18" dy="15"/>
<feGaussianBlur stdDeviation="12.5"/>
<feComposite in2="hardAlpha" operator="arithmetic" k2="-1" k3="1"/>
<feColorMatrix type="matrix" values="0 0 0 0 0 0 0 0 0 0 0 0 0 0 0 0 0 0 0.57 0"/>
<feBlend mode="normal" in2="shape" result="effect1_innerShadow_1_166"/>
</filter>
<filter id="filter10_i_1_166" x="1290" y="883" width="111" height="108" filterUnits="userSpaceOnUse" color-interpolation-filters="sRGB">
<feFlood flood-opacity="0" result="BackgroundImageFix"/>
<feBlend mode="normal" in="SourceGraphic" in2="BackgroundImageFix" result="shape"/>
<feColorMatrix in="SourceAlpha" type="matrix" values="0 0 0 0 0 0 0 0 0 0 0 0 0 0 0 0 0 0 127 0" result="hardAlpha"/>
<feOffset dx="18" dy="15"/>
<feGaussianBlur stdDeviation="12.5"/>
<feComposite in2="hardAlpha" operator="arithmetic" k2="-1" k3="1"/>
<feColorMatrix type="matrix" values="0 0 0 0 0 0 0 0 0 0 0 0 0 0 0 0 0 0 0.57 0"/>
<feBlend mode="normal" in2="shape" result="effect1_innerShadow_1_166"/>
</filter>
<filter id="filter11_i_1_166" x="77" y="189" width="75" height="72" filterUnits="userSpaceOnUse" color-interpolation-filters="sRGB">
<feFlood flood-opacity="0" result="BackgroundImageFix"/>
<feBlend mode="normal" in="SourceGraphic" in2="BackgroundImageFix" result="shape"/>
<feColorMatrix in="SourceAlpha" type="matrix" values="0 0 0 0 0 0 0 0 0 0 0 0 0 0 0 0 0 0 127 0" result="hardAlpha"/>
<feOffset dx="18" dy="15"/>
<feGaussianBlur stdDeviation="12.5"/>
<feComposite in2="hardAlpha" operator="arithmetic" k2="-1" k3="1"/>
<feColorMatrix type="matrix" values="0 0 0 0 0 0 0 0 0 0 0 0 0 0 0 0 0 0 0.57 0"/>
<feBlend mode="normal" in2="shape" result="effect1_innerShadow_1_166"/>
</filter>
<filter id="filter12_i_1_166" x="1297" y="776" width="75" height="72" filterUnits="userSpaceOnUse" color-interpolation-filters="sRGB">
<feFlood flood-opacity="0" result="BackgroundImageFix"/>
<feBlend mode="normal" in="SourceGraphic" in2="BackgroundImageFix" result="shape"/>
<feColorMatrix in="SourceAlpha" type="matrix" values="0 0 0 0 0 0 0 0 0 0 0 0 0 0 0 0 0 0 127 0" result="hardAlpha"/>
<feOffset dx="18" dy="15"/>
<feGaussianBlur stdDeviation="12.5"/>
<feComposite in2="hardAlpha" operator="arithmetic" k2="-1" k3="1"/>
<feColorMatrix type="matrix" values="0 0 0 0 0 0 0 0 0 0 0 0 0 0 0 0 0 0 0.57 0"/>
<feBlend mode="normal" in2="shape" result="effect1_innerShadow_1_166"/>
</filter>
<filter id="filter13_i_1_166" x="48" y="217" width="75" height="72" filterUnits="userSpaceOnUse" color-interpolation-filters="sRGB">
<feFlood flood-opacity="0" result="BackgroundImageFix"/>
<feBlend mode="normal" in="SourceGraphic" in2="BackgroundImageFix" result="shape"/>
<feColorMatrix in="SourceAlpha" type="matrix" values="0 0 0 0 0 0 0 0 0 0 0 0 0 0 0 0 0 0 127 0" result="hardAlpha"/>
<feOffset dx="18" dy="15"/>
<feGaussianBlur stdDeviation="12.5"/>
<feComposite in2="hardAlpha" operator="arithmetic" k2="-1" k3="1"/>
<feColorMatrix type="matrix" values="0 0 0 0 0 0 0 0 0 0 0 0 0 0 0 0 0 0 0.57 0"/>
<feBlend mode="normal" in2="shape" result="effect1_innerShadow_1_166"/>
</filter>
<filter id="filter14_i_1_166" x="1326" y="748" width="75" height="72" filterUnits="userSpaceOnUse" color-interpolation-filters="sRGB">
<feFlood flood-opacity="0" result="BackgroundImageFix"/>
<feBlend mode="normal" in="SourceGraphic" in2="BackgroundImageFix" result="shape"/>
<feColorMatrix in="SourceAlpha" type="matrix" values="0 0 0 0 0 0 0 0 0 0 0 0 0 0 0 0 0 0 127 0" result="hardAlpha"/>
<feOffset dx="18" dy="15"/>
<feGaussianBlur stdDeviation="12.5"/>
<feComposite in2="hardAlpha" operator="arithmetic" k2="-1" k3="1"/>
<feColorMatrix type="matrix" values="0 0 0 0 0 0 0 0 0 0 0 0 0 0 0 0 0 0 0.57 0"/>
<feBlend mode="normal" in2="shape" result="effect1_innerShadow_1_166"/>
</filter>
<filter id="filter15_i_1_166" x="338.934" y="144.76" width="86.1802" height="87.52" filterUnits="userSpaceOnUse" color-interpolation-filters="sRGB">
<feFlood flood-opacity="0" result="BackgroundImageFix"/>
<feBlend mode="normal" in="SourceGraphic" in2="BackgroundImageFix" result="shape"/>
<feColorMatrix in="SourceAlpha" type="matrix" values="0 0 0 0 0 0 0 0 0 0 0 0 0 0 0 0 0 0 127 0" result="hardAlpha"/>
<feOffset dx="18" dy="15"/>
<feGaussianBlur stdDeviation="12.5"/>
<feComposite in2="hardAlpha" operator="arithmetic" k2="-1" k3="1"/>
<feColorMatrix type="matrix" values="0 0 0 0 0 0 0 0 0 0 0 0 0 0 0 0 0 0 0.57 0"/>
<feBlend mode="normal" in2="shape" result="effect1_innerShadow_1_166"/>
</filter>
<filter id="filter16_i_1_166" x="1321.93" y="513.76" width="86.1802" height="87.52" filterUnits="userSpaceOnUse" color-interpolation-filters="sRGB">
<feFlood flood-opacity="0" result="BackgroundImageFix"/>
<feBlend mode="normal" in="SourceGraphic" in2="BackgroundImageFix" result="shape"/>
<feColorMatrix in="SourceAlpha" type="matrix" values="0 0 0 0 0 0 0 0 0 0 0 0 0 0 0 0 0 0 127 0" result="hardAlpha"/>
<feOffset dx="18" dy="15"/>
<feGaussianBlur stdDeviation="12.5"/>
<feComposite in2="hardAlpha" operator="arithmetic" k2="-1" k3="1"/>
<feColorMatrix type="matrix" values="0 0 0 0 0 0 0 0 0 0 0 0 0 0 0 0 0 0 0.57 0"/>
<feBlend mode="normal" in2="shape" result="effect1_innerShadow_1_166"/>
</filter>
<filter id="filter17_i_1_166" x="997.934" y="147.76" width="86.1802" height="87.52" filterUnits="userSpaceOnUse" color-interpolation-filters="sRGB">
<feFlood flood-opacity="0" result="BackgroundImageFix"/>
<feBlend mode="normal" in="SourceGraphic" in2="BackgroundImageFix" result="shape"/>
<feColorMatrix in="SourceAlpha" type="matrix" values="0 0 0 0 0 0 0 0 0 0 0 0 0 0 0 0 0 0 127 0" result="hardAlpha"/>
<feOffset dx="18" dy="15"/>
<feGaussianBlur stdDeviation="12.5"/>
<feComposite in2="hardAlpha" operator="arithmetic" k2="-1" k3="1"/>
<feColorMatrix type="matrix" values="0 0 0 0 0 0 0 0 0 0 0 0 0 0 0 0 0 0 0.57 0"/>
<feBlend mode="normal" in2="shape" result="effect1_innerShadow_1_166"/>
</filter>
<filter id="filter18_i_1_166" x="724.934" y="896.76" width="86.1802" height="87.52" filterUnits="userSpaceOnUse" color-interpolation-filters="sRGB">
<feFlood flood-opacity="0" result="BackgroundImageFix"/>
<feBlend mode="normal" in="SourceGraphic" in2="BackgroundImageFix" result="shape"/>
<feColorMatrix in="SourceAlpha" type="matrix" values="0 0 0 0 0 0 0 0 0 0 0 0 0 0 0 0 0 0 127 0" result="hardAlpha"/>
<feOffset dx="18" dy="15"/>
<feGaussianBlur stdDeviation="12.5"/>
<feComposite in2="hardAlpha" operator="arithmetic" k2="-1" k3="1"/>
<feColorMatrix type="matrix" values="0 0 0 0 0 0 0 0 0 0 0 0 0 0 0 0 0 0 0.57 0"/>
<feBlend mode="normal" in2="shape" result="effect1_innerShadow_1_166"/>
</filter>
<filter id="filter19_i_1_166" x="685.295" y="71.52" width="89.96" height="29.98" filterUnits="userSpaceOnUse" color-interpolation-filters="sRGB">
<feFlood flood-opacity="0" result="BackgroundImageFix"/>
<feBlend mode="normal" in="SourceGraphic" in2="BackgroundImageFix" result="shape"/>
<feColorMatrix in="SourceAlpha" type="matrix" values="0 0 0 0 0 0 0 0 0 0 0 0 0 0 0 0 0 0 127 0" result="hardAlpha"/>
<feOffset dx="18" dy="15"/>
<feGaussianBlur stdDeviation="12.5"/>
<feComposite in2="hardAlpha" operator="arithmetic" k2="-1" k3="1"/>
<feColorMatrix type="matrix" values="0 0 0 0 0 0 0 0 0 0 0 0 0 0 0 0 0 0 0.57 0"/>
<feBlend mode="normal" in2="shape" result="effect1_innerShadow_1_166"/>
</filter>
<filter id="filter20_i_1_166" x="1053.29" y="854.52" width="89.96" height="29.98" filterUnits="userSpaceOnUse" color-interpolation-filters="sRGB">
<feFlood flood-opacity="0" result="BackgroundImageFix"/>
<feBlend mode="normal" in="SourceGraphic" in2="BackgroundImageFix" result="shape"/>
<feColorMatrix in="SourceAlpha" type="matrix" values="0 0 0 0 0 0 0 0 0 0 0 0 0 0 0 0 0 0 127 0" result="hardAlpha"/>
<feOffset dx="18" dy="15"/>
<feGaussianBlur stdDeviation="12.5"/>
<feComposite in2="hardAlpha" operator="arithmetic" k2="-1" k3="1"/>
<feColorMatrix type="matrix" values="0 0 0 0 0 0 0 0 0 0 0 0 0 0 0 0 0 0 0.57 0"/>
<feBlend mode="normal" in2="shape" result="effect1_innerShadow_1_166"/>
</filter>
<filter id="filter21_i_1_166" x="392.295" y="913.52" width="89.96" height="29.98" filterUnits="userSpaceOnUse" color-interpolation-filters="sRGB">
<feFlood flood-opacity="0" result="BackgroundImageFix"/>
<feBlend mode="normal" in="SourceGraphic" in2="BackgroundImageFix" result="shape"/>
<feColorMatrix in="SourceAlpha" type="matrix" values="0 0 0 0 0 0 0 0 0 0 0 0 0 0 0 0 0 0 127 0" result="hardAlpha"/>
<feOffset dx="18" dy="15"/>
<feGaussianBlur stdDeviation="12.5"/>
<feComposite in2="hardAlpha" operator="arithmetic" k2="-1" k3="1"/>
<feColorMatrix type="matrix" values="0 0 0 0 0 0 0 0 0 0 0 0 0 0 0 0 0 0 0.57 0"/>
<feBlend mode="normal" in2="shape" result="effect1_innerShadow_1_166"/>
</filter>
<filter id="filter22_i_1_166" x="77.2949" y="461.52" width="89.96" height="29.98" filterUnits="userSpaceOnUse" color-interpolation-filters="sRGB">
<feFlood flood-opacity="0" result="BackgroundImageFix"/>
<feBlend mode="normal" in="SourceGraphic" in2="BackgroundImageFix" result="shape"/>
<feColorMatrix in="SourceAlpha" type="matrix" values="0 0 0 0 0 0 0 0 0 0 0 0 0 0 0 0 0 0 127 0" result="hardAlpha"/>
<feOffset dx="18" dy="15"/>
<feGaussianBlur stdDeviation="12.5"/>
<feComposite in2="hardAlpha" operator="arithmetic" k2="-1" k3="1"/>
<feColorMatrix type="matrix" values="0 0 0 0 0 0 0 0 0 0 0 0 0 0 0 0 0 0 0.57 0"/>
<feBlend mode="normal" in2="shape" result="effect1_innerShadow_1_166"/>
</filter>
<linearGradient id="paint0_linear_1_166" x1="63.7974" y1="782.191" x2="150.772" y2="811.355" gradientUnits="userSpaceOnUse">
<stop stop-color="#3A81BF"/>
<stop offset="1" stop-color="#41305A" stop-opacity="0.03"/>
</linearGradient>
<linearGradient id="paint1_linear_1_166" x1="64.0605" y1="782.602" x2="150.952" y2="812.574" gradientUnits="userSpaceOnUse">
<stop stop-color="#FB37FF"/>
<stop offset="0.425065" stop-color="#9B6FEE"/>
<stop offset="0.519704" stop-color="#7B7FEA" stop-opacity="0"/>
<stop offset="1" stop-color="#18B2DE"/>
</linearGradient>
<linearGradient id="paint2_linear_1_166" x1="1.79745" y1="2.19087" x2="88.7718" y2="31.3555" gradientUnits="userSpaceOnUse">
<stop stop-color="#3A81BF"/>
<stop offset="1" stop-color="#41305A" stop-opacity="0.03"/>
</linearGradient>
<linearGradient id="paint3_linear_1_166" x1="2.06049" y1="2.60166" x2="88.9517" y2="32.5737" gradientUnits="userSpaceOnUse">
<stop stop-color="#FB37FF"/>
<stop offset="0.425065" stop-color="#9B6FEE"/>
<stop offset="0.519704" stop-color="#7B7FEA" stop-opacity="0"/>
<stop offset="1" stop-color="#18B2DE"/>
</linearGradient>
<linearGradient id="paint4_linear_1_166" x1="1.79745" y1="2.19087" x2="88.7718" y2="31.3555" gradientUnits="userSpaceOnUse">
<stop stop-color="#3A81BF"/>
<stop offset="1" stop-color="#41305A" stop-opacity="0.03"/>
</linearGradient>
<linearGradient id="paint5_linear_1_166" x1="2.06049" y1="2.60166" x2="88.9517" y2="32.5737" gradientUnits="userSpaceOnUse">
<stop stop-color="#FB37FF"/>
<stop offset="0.425065" stop-color="#9B6FEE"/>
<stop offset="0.519704" stop-color="#7B7FEA" stop-opacity="0"/>
<stop offset="1" stop-color="#18B2DE"/>
</linearGradient>
<linearGradient id="paint6_linear_1_166" x1="182.797" y1="881.191" x2="269.772" y2="910.355" gradientUnits="userSpaceOnUse">
<stop stop-color="#3A81BF"/>
<stop offset="1" stop-color="#41305A" stop-opacity="0.03"/>
</linearGradient>
<linearGradient id="paint7_linear_1_166" x1="183.06" y1="881.602" x2="269.952" y2="911.574" gradientUnits="userSpaceOnUse">
<stop stop-color="#FB37FF"/>
<stop offset="0.425065" stop-color="#9B6FEE"/>
<stop offset="0.519704" stop-color="#7B7FEA" stop-opacity="0"/>
<stop offset="1" stop-color="#18B2DE"/>
</linearGradient>
<linearGradient id="paint8_linear_1_166" x1="1.79745" y1="2.19087" x2="88.7718" y2="31.3555" gradientUnits="userSpaceOnUse">
<stop stop-color="#3A81BF"/>
<stop offset="1" stop-color="#41305A" stop-opacity="0.03"/>
</linearGradient>
<linearGradient id="paint9_linear_1_166" x1="2.06049" y1="2.60166" x2="88.9517" y2="32.5737" gradientUnits="userSpaceOnUse">
<stop stop-color="#FB37FF"/>
<stop offset="0.425065" stop-color="#9B6FEE"/>
<stop offset="0.519704" stop-color="#7B7FEA" stop-opacity="0"/>
<stop offset="1" stop-color="#18B2DE"/>
</linearGradient>
<linearGradient id="paint10_linear_1_166" x1="128.797" y1="931.191" x2="215.772" y2="960.355" gradientUnits="userSpaceOnUse">
<stop stop-color="#3A81BF"/>
<stop offset="1" stop-color="#41305A" stop-opacity="0.03"/>
</linearGradient>
<linearGradient id="paint11_linear_1_166" x1="129.06" y1="931.602" x2="215.952" y2="961.574" gradientUnits="userSpaceOnUse">
<stop stop-color="#FB37FF"/>
<stop offset="0.425065" stop-color="#9B6FEE"/>
<stop offset="0.519704" stop-color="#7B7FEA" stop-opacity="0"/>
<stop offset="1" stop-color="#18B2DE"/>
</linearGradient>
<linearGradient id="paint12_linear_1_166" x1="1.79745" y1="2.19087" x2="88.7718" y2="31.3555" gradientUnits="userSpaceOnUse">
<stop stop-color="#3A81BF"/>
<stop offset="1" stop-color="#41305A" stop-opacity="0.03"/>
</linearGradient>
<linearGradient id="paint13_linear_1_166" x1="2.06049" y1="2.60166" x2="88.9517" y2="32.5737" gradientUnits="userSpaceOnUse">
<stop stop-color="#FB37FF"/>
<stop offset="0.425065" stop-color="#9B6FEE"/>
<stop offset="0.519704" stop-color="#7B7FEA" stop-opacity="0"/>
<stop offset="1" stop-color="#18B2DE"/>
</linearGradient>
<linearGradient id="paint14_linear_1_166" x1="50.116" y1="49.0871" x2="155.728" y2="78.6737" gradientUnits="userSpaceOnUse">
<stop stop-color="#3A81BF"/>
<stop offset="1" stop-color="#41305A" stop-opacity="0.03"/>
</linearGradient>
<linearGradient id="paint15_linear_1_166" x1="50.4256" y1="49.666" x2="156.109" y2="80.1215" gradientUnits="userSpaceOnUse">
<stop stop-color="#FB37FF"/>
<stop offset="0.425065" stop-color="#9B6FEE"/>
<stop offset="0.519704" stop-color="#7B7FEA" stop-opacity="0"/>
<stop offset="1" stop-color="#18B2DE"/>
</linearGradient>
<linearGradient id="paint16_linear_1_166" x1="1292.12" y1="886.087" x2="1397.73" y2="915.674" gradientUnits="userSpaceOnUse">
<stop stop-color="#3A81BF"/>
<stop offset="1" stop-color="#41305A" stop-opacity="0.03"/>
</linearGradient>
<linearGradient id="paint17_linear_1_166" x1="1292.43" y1="886.666" x2="1398.11" y2="917.121" gradientUnits="userSpaceOnUse">
<stop stop-color="#FB37FF"/>
<stop offset="0.425065" stop-color="#9B6FEE"/>
<stop offset="0.519704" stop-color="#7B7FEA" stop-opacity="0"/>
<stop offset="1" stop-color="#18B2DE"/>
</linearGradient>
<linearGradient id="paint18_linear_1_166" x1="78.2969" y1="190.892" x2="143.027" y2="209.026" gradientUnits="userSpaceOnUse">
<stop stop-color="#3A81BF"/>
<stop offset="1" stop-color="#41305A" stop-opacity="0.03"/>
</linearGradient>
<linearGradient id="paint19_linear_1_166" x1="78.4867" y1="191.247" x2="143.261" y2="209.913" gradientUnits="userSpaceOnUse">
<stop stop-color="#FB37FF"/>
<stop offset="0.425065" stop-color="#9B6FEE"/>
<stop offset="0.519704" stop-color="#7B7FEA" stop-opacity="0"/>
<stop offset="1" stop-color="#18B2DE"/>
</linearGradient>
<linearGradient id="paint20_linear_1_166" x1="1298.3" y1="777.892" x2="1363.03" y2="796.026" gradientUnits="userSpaceOnUse">
<stop stop-color="#3A81BF"/>
<stop offset="1" stop-color="#41305A" stop-opacity="0.03"/>
</linearGradient>
<linearGradient id="paint21_linear_1_166" x1="1298.49" y1="778.247" x2="1363.26" y2="796.913" gradientUnits="userSpaceOnUse">
<stop stop-color="#FB37FF"/>
<stop offset="0.425065" stop-color="#9B6FEE"/>
<stop offset="0.519704" stop-color="#7B7FEA" stop-opacity="0"/>
<stop offset="1" stop-color="#18B2DE"/>
</linearGradient>
<linearGradient id="paint22_linear_1_166" x1="49.2969" y1="218.892" x2="114.027" y2="237.026" gradientUnits="userSpaceOnUse">
<stop stop-color="#3A81BF"/>
<stop offset="1" stop-color="#41305A" stop-opacity="0.03"/>
</linearGradient>
<linearGradient id="paint23_linear_1_166" x1="49.4867" y1="219.247" x2="114.261" y2="237.913" gradientUnits="userSpaceOnUse">
<stop stop-color="#FB37FF"/>
<stop offset="0.425065" stop-color="#9B6FEE"/>
<stop offset="0.519704" stop-color="#7B7FEA" stop-opacity="0"/>
<stop offset="1" stop-color="#18B2DE"/>
</linearGradient>
<linearGradient id="paint24_linear_1_166" x1="1327.3" y1="749.892" x2="1392.03" y2="768.026" gradientUnits="userSpaceOnUse">
<stop stop-color="#3A81BF"/>
<stop offset="1" stop-color="#41305A" stop-opacity="0.03"/>
</linearGradient>
<linearGradient id="paint25_linear_1_166" x1="1327.49" y1="750.247" x2="1392.26" y2="768.913" gradientUnits="userSpaceOnUse">
<stop stop-color="#FB37FF"/>
<stop offset="0.425065" stop-color="#9B6FEE"/>
<stop offset="0.519704" stop-color="#7B7FEA" stop-opacity="0"/>
<stop offset="1" stop-color="#18B2DE"/>
</linearGradient>
<linearGradient id="paint26_linear_1_166" x1="336.684" y1="82.0415" x2="426.153" y2="92.2325" gradientUnits="userSpaceOnUse">
<stop stop-color="#3A81BF"/>
<stop offset="1" stop-color="#41305A" stop-opacity="0.03"/>
</linearGradient>
<linearGradient id="paint27_linear_1_166" x1="336.93" y1="83.1743" x2="426.773" y2="93.7011" gradientUnits="userSpaceOnUse">
<stop stop-color="#FB37FF"/>
<stop offset="0.425065" stop-color="#9B6FEE"/>
<stop offset="0.519704" stop-color="#7B7FEA" stop-opacity="0"/>
<stop offset="1" stop-color="#18B2DE"/>
</linearGradient>
<linearGradient id="paint28_linear_1_166" x1="1319.68" y1="451.041" x2="1409.15" y2="461.233" gradientUnits="userSpaceOnUse">
<stop stop-color="#3A81BF"/>
<stop offset="1" stop-color="#41305A" stop-opacity="0.03"/>
</linearGradient>
<linearGradient id="paint29_linear_1_166" x1="1319.93" y1="452.174" x2="1409.77" y2="462.701" gradientUnits="userSpaceOnUse">
<stop stop-color="#FB37FF"/>
<stop offset="0.425065" stop-color="#9B6FEE"/>
<stop offset="0.519704" stop-color="#7B7FEA" stop-opacity="0"/>
<stop offset="1" stop-color="#18B2DE"/>
</linearGradient>
<linearGradient id="paint30_linear_1_166" x1="995.684" y1="85.0415" x2="1085.15" y2="95.2325" gradientUnits="userSpaceOnUse">
<stop stop-color="#3A81BF"/>
<stop offset="1" stop-color="#41305A" stop-opacity="0.03"/>
</linearGradient>
<linearGradient id="paint31_linear_1_166" x1="995.93" y1="86.1743" x2="1085.77" y2="96.7011" gradientUnits="userSpaceOnUse">
<stop stop-color="#FB37FF"/>
<stop offset="0.425065" stop-color="#9B6FEE"/>
<stop offset="0.519704" stop-color="#7B7FEA" stop-opacity="0"/>
<stop offset="1" stop-color="#18B2DE"/>
</linearGradient>
<linearGradient id="paint32_linear_1_166" x1="722.684" y1="834.041" x2="812.153" y2="844.233" gradientUnits="userSpaceOnUse">
<stop stop-color="#3A81BF"/>
<stop offset="1" stop-color="#41305A" stop-opacity="0.03"/>
</linearGradient>
<linearGradient id="paint33_linear_1_166" x1="722.93" y1="835.174" x2="812.773" y2="845.701" gradientUnits="userSpaceOnUse">
<stop stop-color="#FB37FF"/>
<stop offset="0.425065" stop-color="#9B6FEE"/>
<stop offset="0.519704" stop-color="#7B7FEA" stop-opacity="0"/>
<stop offset="1" stop-color="#18B2DE"/>
</linearGradient>
<linearGradient id="paint34_linear_1_166" x1="686.615" y1="-79.9585" x2="772.545" y2="-70.5675" gradientUnits="userSpaceOnUse">
<stop stop-color="#3A81BF"/>
<stop offset="1" stop-color="#41305A" stop-opacity="0.03"/>
</linearGradient>
<linearGradient id="paint35_linear_1_166" x1="686.852" y1="-78.8257" x2="773.145" y2="-69.1246" gradientUnits="userSpaceOnUse">
<stop stop-color="#FB37FF"/>
<stop offset="0.425065" stop-color="#9B6FEE"/>
<stop offset="0.519704" stop-color="#7B7FEA" stop-opacity="0"/>
<stop offset="1" stop-color="#18B2DE"/>
</linearGradient>
<linearGradient id="paint36_linear_1_166" x1="1054.62" y1="703.041" x2="1140.55" y2="712.433" gradientUnits="userSpaceOnUse">
<stop stop-color="#3A81BF"/>
<stop offset="1" stop-color="#41305A" stop-opacity="0.03"/>
</linearGradient>
<linearGradient id="paint37_linear_1_166" x1="1054.85" y1="704.174" x2="1141.14" y2="713.875" gradientUnits="userSpaceOnUse">
<stop stop-color="#FB37FF"/>
<stop offset="0.425065" stop-color="#9B6FEE"/>
<stop offset="0.519704" stop-color="#7B7FEA" stop-opacity="0"/>
<stop offset="1" stop-color="#18B2DE"/>
</linearGradient>
<linearGradient id="paint38_linear_1_166" x1="393.615" y1="762.041" x2="479.545" y2="771.433" gradientUnits="userSpaceOnUse">
<stop stop-color="#3A81BF"/>
<stop offset="1" stop-color="#41305A" stop-opacity="0.03"/>
</linearGradient>
<linearGradient id="paint39_linear_1_166" x1="393.852" y1="763.174" x2="480.145" y2="772.875" gradientUnits="userSpaceOnUse">
<stop stop-color="#FB37FF"/>
<stop offset="0.425065" stop-color="#9B6FEE"/>
<stop offset="0.519704" stop-color="#7B7FEA" stop-opacity="0"/>
<stop offset="1" stop-color="#18B2DE"/>
</linearGradient>
<linearGradient id="paint40_linear_1_166" x1="78.6154" y1="310.041" x2="164.545" y2="319.433" gradientUnits="userSpaceOnUse">
<stop stop-color="#3A81BF"/>
<stop offset="1" stop-color="#41305A" stop-opacity="0.03"/>
</linearGradient>
<linearGradient id="paint41_linear_1_166" x1="78.8518" y1="311.174" x2="165.145" y2="320.875" gradientUnits="userSpaceOnUse">
<stop stop-color="#FB37FF"/>
<stop offset="0.425065" stop-color="#9B6FEE"/>
<stop offset="0.519704" stop-color="#7B7FEA" stop-opacity="0"/>
<stop offset="1" stop-color="#18B2DE"/>
</linearGradient>
<clipPath id="clip0_1_166">
<rect width="1440" height="1024" fill="white"/>
</clipPath>
</defs>
</svg>
