<svg width="503" height="367" viewBox="0 0 503 367" fill="none" xmlns="http://www.w3.org/2000/svg">
<g filter="url(#filter0_d_48_23)">
<path d="M21.2265 319.664H31.9785V326H13.0185V292.304H21.2265V319.664ZM52.0215 298.88V305.696H63.0135V312.032H52.0215V319.424H64.4535V326H43.8135V292.304H64.4535V298.88H52.0215ZM109.334 292.304L97.3822 326H87.1102L75.1582 292.304H83.8942L92.2462 317.744L100.646 292.304H109.334ZM128.893 298.88V305.696H139.885V312.032H128.893V319.424H141.325V326H120.685V292.304H141.325V298.88H128.893ZM162.781 319.664H173.533V326H154.573V292.304H162.781V319.664ZM202.068 309.104C202.068 305.776 202.788 302.816 204.228 300.224C205.668 297.6 207.668 295.568 210.228 294.128C212.82 292.656 215.748 291.92 219.012 291.92C223.012 291.92 226.436 292.976 229.284 295.088C232.132 297.2 234.036 300.08 234.996 303.728H225.972C225.3 302.32 224.34 301.248 223.092 300.512C221.876 299.776 220.484 299.408 218.916 299.408C216.388 299.408 214.34 300.288 212.772 302.048C211.204 303.808 210.42 306.16 210.42 309.104C210.42 312.048 211.204 314.4 212.772 316.16C214.34 317.92 216.388 318.8 218.916 318.8C220.484 318.8 221.876 318.432 223.092 317.696C224.34 316.96 225.3 315.888 225.972 314.48H234.996C234.036 318.128 232.132 321.008 229.284 323.12C226.436 325.2 223.012 326.24 219.012 326.24C215.748 326.24 212.82 325.52 210.228 324.08C207.668 322.608 205.668 320.576 204.228 317.984C202.788 315.392 202.068 312.432 202.068 309.104ZM256.151 319.664H266.903V326H247.943V292.304H256.151V319.664ZM286.946 298.88V305.696H297.938V312.032H286.946V319.424H299.378V326H278.738V292.304H299.378V298.88H286.946ZM333.603 320.048H321.027L319.011 326H310.419L322.611 292.304H332.115L344.307 326H335.619L333.603 320.048ZM331.491 313.712L327.315 301.376L323.187 313.712H331.491ZM373.121 326L366.113 313.28H364.145V326H355.937V292.304H369.713C372.369 292.304 374.625 292.768 376.481 293.696C378.369 294.624 379.777 295.904 380.705 297.536C381.633 299.136 382.097 300.928 382.097 302.912C382.097 305.152 381.457 307.152 380.177 308.912C378.929 310.672 377.073 311.92 374.609 312.656L382.385 326H373.121ZM364.145 307.472H369.233C370.737 307.472 371.857 307.104 372.593 306.368C373.361 305.632 373.745 304.592 373.745 303.248C373.745 301.968 373.361 300.96 372.593 300.224C371.857 299.488 370.737 299.12 369.233 299.12H364.145V307.472ZM403.378 298.88V305.696H414.37V312.032H403.378V319.424H415.81V326H395.17V292.304H415.81V298.88H403.378ZM441.683 292.304C445.235 292.304 448.339 293.008 450.995 294.416C453.651 295.824 455.699 297.808 457.139 300.368C458.611 302.896 459.347 305.824 459.347 309.152C459.347 312.448 458.611 315.376 457.139 317.936C455.699 320.496 453.635 322.48 450.947 323.888C448.291 325.296 445.203 326 441.683 326H429.059V292.304H441.683ZM441.155 318.896C444.259 318.896 446.675 318.048 448.403 316.352C450.131 314.656 450.995 312.256 450.995 309.152C450.995 306.048 450.131 303.632 448.403 301.904C446.675 300.176 444.259 299.312 441.155 299.312H437.267V318.896H441.155Z" fill="url(#paint0_linear_48_23)" shape-rendering="crispEdges"/>
<path d="M21.2265 319.664H20.2265V320.664H21.2265V319.664ZM31.9785 319.664H32.9785V318.664H31.9785V319.664ZM31.9785 326V327H32.9785V326H31.9785ZM13.0185 326H12.0185V327H13.0185V326ZM13.0185 292.304V291.304H12.0185V292.304H13.0185ZM21.2265 292.304H22.2265V291.304H21.2265V292.304ZM21.2265 320.664H31.9785V318.664H21.2265V320.664ZM30.9785 319.664V326H32.9785V319.664H30.9785ZM31.9785 325H13.0185V327H31.9785V325ZM14.0185 326V292.304H12.0185V326H14.0185ZM13.0185 293.304H21.2265V291.304H13.0185V293.304ZM20.2265 292.304V319.664H22.2265V292.304H20.2265ZM52.0215 298.88V297.88H51.0215V298.88H52.0215ZM52.0215 305.696H51.0215V306.696H52.0215V305.696ZM63.0135 305.696H64.0135V304.696H63.0135V305.696ZM63.0135 312.032V313.032H64.0135V312.032H63.0135ZM52.0215 312.032V311.032H51.0215V312.032H52.0215ZM52.0215 319.424H51.0215V320.424H52.0215V319.424ZM64.4535 319.424H65.4535V318.424H64.4535V319.424ZM64.4535 326V327H65.4535V326H64.4535ZM43.8135 326H42.8135V327H43.8135V326ZM43.8135 292.304V291.304H42.8135V292.304H43.8135ZM64.4535 292.304H65.4535V291.304H64.4535V292.304ZM64.4535 298.88V299.88H65.4535V298.88H64.4535ZM51.0215 298.88V305.696H53.0215V298.88H51.0215ZM52.0215 306.696H63.0135V304.696H52.0215V306.696ZM62.0135 305.696V312.032H64.0135V305.696H62.0135ZM63.0135 311.032H52.0215V313.032H63.0135V311.032ZM51.0215 312.032V319.424H53.0215V312.032H51.0215ZM52.0215 320.424H64.4535V318.424H52.0215V320.424ZM63.4535 319.424V326H65.4535V319.424H63.4535ZM64.4535 325H43.8135V327H64.4535V325ZM44.8135 326V292.304H42.8135V326H44.8135ZM43.8135 293.304H64.4535V291.304H43.8135V293.304ZM63.4535 292.304V298.88H65.4535V292.304H63.4535ZM64.4535 297.88H52.0215V299.88H64.4535V297.88ZM109.334 292.304L110.277 292.638L110.75 291.304H109.334V292.304ZM97.3822 326V327H98.0886L98.3247 326.334L97.3822 326ZM87.1102 326L86.1678 326.334L86.4039 327H87.1102V326ZM75.1582 292.304V291.304H73.7425L74.2158 292.638L75.1582 292.304ZM83.8942 292.304L84.8444 291.992L84.6185 291.304H83.8942V292.304ZM92.2462 317.744L91.2961 318.056L92.2435 320.942L93.1958 318.058L92.2462 317.744ZM100.646 292.304V291.304H99.9233L99.6967 291.99L100.646 292.304ZM108.392 291.97L96.4398 325.666L98.3247 326.334L110.277 292.638L108.392 291.97ZM97.3822 325H87.1102V327H97.3822V325ZM88.0527 325.666L76.1007 291.97L74.2158 292.638L86.1678 326.334L88.0527 325.666ZM75.1582 293.304H83.8942V291.304H75.1582V293.304ZM82.9441 292.616L91.2961 318.056L93.1964 317.432L84.8444 291.992L82.9441 292.616ZM93.1958 318.058L101.596 292.618L99.6967 291.99L91.2967 317.43L93.1958 318.058ZM100.646 293.304H109.334V291.304H100.646V293.304ZM128.893 298.88V297.88H127.893V298.88H128.893ZM128.893 305.696H127.893V306.696H128.893V305.696ZM139.885 305.696H140.885V304.696H139.885V305.696ZM139.885 312.032V313.032H140.885V312.032H139.885ZM128.893 312.032V311.032H127.893V312.032H128.893ZM128.893 319.424H127.893V320.424H128.893V319.424ZM141.325 319.424H142.325V318.424H141.325V319.424ZM141.325 326V327H142.325V326H141.325ZM120.685 326H119.685V327H120.685V326ZM120.685 292.304V291.304H119.685V292.304H120.685ZM141.325 292.304H142.325V291.304H141.325V292.304ZM141.325 298.88V299.88H142.325V298.88H141.325ZM127.893 298.88V305.696H129.893V298.88H127.893ZM128.893 306.696H139.885V304.696H128.893V306.696ZM138.885 305.696V312.032H140.885V305.696H138.885ZM139.885 311.032H128.893V313.032H139.885V311.032ZM127.893 312.032V319.424H129.893V312.032H127.893ZM128.893 320.424H141.325V318.424H128.893V320.424ZM140.325 319.424V326H142.325V319.424H140.325ZM141.325 325H120.685V327H141.325V325ZM121.685 326V292.304H119.685V326H121.685ZM120.685 293.304H141.325V291.304H120.685V293.304ZM140.325 292.304V298.88H142.325V292.304H140.325ZM141.325 297.88H128.893V299.88H141.325V297.88ZM162.781 319.664H161.781V320.664H162.781V319.664ZM173.533 319.664H174.533V318.664H173.533V319.664ZM173.533 326V327H174.533V326H173.533ZM154.573 326H153.573V327H154.573V326ZM154.573 292.304V291.304H153.573V292.304H154.573ZM162.781 292.304H163.781V291.304H162.781V292.304ZM162.781 320.664H173.533V318.664H162.781V320.664ZM172.533 319.664V326H174.533V319.664H172.533ZM173.533 325H154.573V327H173.533V325ZM155.573 326V292.304H153.573V326H155.573ZM154.573 293.304H162.781V291.304H154.573V293.304ZM161.781 292.304V319.664H163.781V292.304H161.781ZM204.228 300.224L205.103 300.71L205.105 300.705L204.228 300.224ZM210.228 294.128L210.719 295L210.722 294.998L210.228 294.128ZM229.284 295.088L229.88 294.285L229.284 295.088ZM234.996 303.728V304.728H236.294L235.963 303.474L234.996 303.728ZM225.972 303.728L225.07 304.159L225.342 304.728H225.972V303.728ZM223.092 300.512L222.575 301.368L222.584 301.373L223.092 300.512ZM212.772 302.048L213.519 302.713H213.519L212.772 302.048ZM223.092 317.696L222.584 316.835L222.575 316.84L223.092 317.696ZM225.972 314.48V313.48H225.342L225.07 314.049L225.972 314.48ZM234.996 314.48L235.963 314.734L236.294 313.48H234.996V314.48ZM229.284 323.12L229.874 323.928L229.88 323.923L229.284 323.12ZM210.228 324.08L209.73 324.947L209.736 324.951L209.743 324.954L210.228 324.08ZM204.228 317.984L205.103 317.498L204.228 317.984ZM203.068 309.104C203.068 305.925 203.755 303.136 205.103 300.71L203.354 299.738C201.822 302.496 201.068 305.627 201.068 309.104H203.068ZM205.105 300.705C206.457 298.241 208.325 296.346 210.719 295L209.738 293.256C207.012 294.79 204.88 296.959 203.352 299.743L205.105 300.705ZM210.722 294.998C213.15 293.619 215.905 292.92 219.012 292.92V290.92C215.592 290.92 212.491 291.693 209.735 293.258L210.722 294.998ZM219.012 292.92C222.827 292.92 226.035 293.923 228.689 295.891L229.88 294.285C226.838 292.029 223.198 290.92 219.012 290.92V292.92ZM228.689 295.891C231.342 297.859 233.123 300.539 234.029 303.982L235.963 303.474C234.95 299.621 232.923 296.541 229.88 294.285L228.689 295.891ZM234.996 302.728H225.972V304.728H234.996V302.728ZM226.875 303.297C226.124 301.724 225.033 300.496 223.6 299.651L222.584 301.373C223.648 302 224.477 302.916 225.07 304.159L226.875 303.297ZM223.61 299.656C222.222 298.816 220.648 298.408 218.916 298.408V300.408C220.321 300.408 221.531 300.736 222.575 301.367L223.61 299.656ZM218.916 298.408C216.126 298.408 213.798 299.393 212.026 301.383L213.519 302.713C214.882 301.183 216.65 300.408 218.916 300.408V298.408ZM212.026 301.383C210.257 303.368 209.42 305.978 209.42 309.104H211.42C211.42 306.342 212.152 304.248 213.519 302.713L212.026 301.383ZM209.42 309.104C209.42 312.23 210.257 314.84 212.026 316.825L213.519 315.495C212.152 313.96 211.42 311.866 211.42 309.104H209.42ZM212.026 316.825C213.798 318.815 216.126 319.8 218.916 319.8V317.8C216.65 317.8 214.882 317.025 213.519 315.495L212.026 316.825ZM218.916 319.8C220.648 319.8 222.222 319.392 223.61 318.551L222.575 316.84C221.531 317.472 220.321 317.8 218.916 317.8V319.8ZM223.6 318.557C225.033 317.712 226.124 316.484 226.875 314.911L225.07 314.049C224.477 315.292 223.648 316.208 222.584 316.835L223.6 318.557ZM225.972 315.48H234.996V313.48H225.972V315.48ZM234.029 314.226C233.123 317.669 231.342 320.349 228.689 322.317L229.88 323.923C232.923 321.667 234.95 318.587 235.963 314.734L234.029 314.226ZM228.695 322.312C226.04 324.251 222.83 325.24 219.012 325.24V327.24C223.195 327.24 226.832 326.149 229.874 323.928L228.695 322.312ZM219.012 325.24C215.901 325.24 213.143 324.555 210.714 323.206L209.743 324.954C212.498 326.485 215.596 327.24 219.012 327.24V325.24ZM210.727 323.213C208.325 321.832 206.455 319.932 205.103 317.498L203.354 318.47C204.882 321.22 207.012 323.384 209.73 324.947L210.727 323.213ZM205.103 317.498C203.755 315.072 203.068 312.283 203.068 309.104H201.068C201.068 312.581 201.822 315.712 203.354 318.47L205.103 317.498ZM256.151 319.664H255.151V320.664H256.151V319.664ZM266.903 319.664H267.903V318.664H266.903V319.664ZM266.903 326V327H267.903V326H266.903ZM247.943 326H246.943V327H247.943V326ZM247.943 292.304V291.304H246.943V292.304H247.943ZM256.151 292.304H257.151V291.304H256.151V292.304ZM256.151 320.664H266.903V318.664H256.151V320.664ZM265.903 319.664V326H267.903V319.664H265.903ZM266.903 325H247.943V327H266.903V325ZM248.943 326V292.304H246.943V326H248.943ZM247.943 293.304H256.151V291.304H247.943V293.304ZM255.151 292.304V319.664H257.151V292.304H255.151ZM286.946 298.88V297.88H285.946V298.88H286.946ZM286.946 305.696H285.946V306.696H286.946V305.696ZM297.938 305.696H298.938V304.696H297.938V305.696ZM297.938 312.032V313.032H298.938V312.032H297.938ZM286.946 312.032V311.032H285.946V312.032H286.946ZM286.946 319.424H285.946V320.424H286.946V319.424ZM299.378 319.424H300.378V318.424H299.378V319.424ZM299.378 326V327H300.378V326H299.378ZM278.738 326H277.738V327H278.738V326ZM278.738 292.304V291.304H277.738V292.304H278.738ZM299.378 292.304H300.378V291.304H299.378V292.304ZM299.378 298.88V299.88H300.378V298.88H299.378ZM285.946 298.88V305.696H287.946V298.88H285.946ZM286.946 306.696H297.938V304.696H286.946V306.696ZM296.938 305.696V312.032H298.938V305.696H296.938ZM297.938 311.032H286.946V313.032H297.938V311.032ZM285.946 312.032V319.424H287.946V312.032H285.946ZM286.946 320.424H299.378V318.424H286.946V320.424ZM298.378 319.424V326H300.378V319.424H298.378ZM299.378 325H278.738V327H299.378V325ZM279.738 326V292.304H277.738V326H279.738ZM278.738 293.304H299.378V291.304H278.738V293.304ZM298.378 292.304V298.88H300.378V292.304H298.378ZM299.378 297.88H286.946V299.88H299.378V297.88ZM333.603 320.048L334.55 319.727L334.32 319.048H333.603V320.048ZM321.027 320.048V319.048H320.31L320.079 319.727L321.027 320.048ZM319.011 326V327H319.728L319.958 326.321L319.011 326ZM310.419 326L309.478 325.66L308.993 327H310.419V326ZM322.611 292.304V291.304H321.909L321.67 291.964L322.611 292.304ZM332.115 292.304L333.055 291.964L332.816 291.304H332.115V292.304ZM344.307 326V327H345.732L345.247 325.66L344.307 326ZM335.619 326L334.671 326.321L334.902 327H335.619V326ZM331.491 313.712V314.712H332.885L332.438 313.391L331.491 313.712ZM327.315 301.376L328.262 301.055L327.309 298.241L326.366 301.059L327.315 301.376ZM323.187 313.712L322.238 313.395L321.798 314.712H323.187V313.712ZM333.603 319.048H321.027V321.048H333.603V319.048ZM320.079 319.727L318.063 325.679L319.958 326.321L321.974 320.369L320.079 319.727ZM319.011 325H310.419V327H319.011V325ZM311.359 326.34L323.551 292.644L321.67 291.964L309.478 325.66L311.359 326.34ZM322.611 293.304H332.115V291.304H322.611V293.304ZM331.174 292.644L343.366 326.34L345.247 325.66L333.055 291.964L331.174 292.644ZM344.307 325H335.619V327H344.307V325ZM336.566 325.679L334.55 319.727L332.655 320.369L334.671 326.321L336.566 325.679ZM332.438 313.391L328.262 301.055L326.367 301.697L330.543 314.033L332.438 313.391ZM326.366 301.059L322.238 313.395L324.135 314.029L328.263 301.693L326.366 301.059ZM323.187 314.712H331.491V312.712H323.187V314.712ZM373.121 326L372.245 326.483L372.53 327H373.121V326ZM366.113 313.28L366.989 312.797L366.704 312.28H366.113V313.28ZM364.145 313.28V312.28H363.145V313.28H364.145ZM364.145 326V327H365.145V326H364.145ZM355.937 326H354.937V327H355.937V326ZM355.937 292.304V291.304H354.937V292.304H355.937ZM376.481 293.696L376.034 294.59L376.04 294.593L376.481 293.696ZM380.705 297.536L379.836 298.03L379.84 298.038L380.705 297.536ZM380.177 308.912L379.368 308.324L379.362 308.334L380.177 308.912ZM374.609 312.656L374.323 311.698L373.105 312.062L373.745 313.159L374.609 312.656ZM382.385 326V327H384.125L383.249 325.497L382.385 326ZM364.145 307.472H363.145V308.472H364.145V307.472ZM372.593 306.368L371.901 305.646L371.894 305.653L371.886 305.661L372.593 306.368ZM372.593 300.224L371.886 300.931L371.894 300.939L371.901 300.946L372.593 300.224ZM364.145 299.12V298.12H363.145V299.12H364.145ZM373.997 325.517L366.989 312.797L365.237 313.763L372.245 326.483L373.997 325.517ZM366.113 312.28H364.145V314.28H366.113V312.28ZM363.145 313.28V326H365.145V313.28H363.145ZM364.145 325H355.937V327H364.145V325ZM356.937 326V292.304H354.937V326H356.937ZM355.937 293.304H369.713V291.304H355.937V293.304ZM369.713 293.304C372.256 293.304 374.35 293.749 376.034 294.59L376.928 292.802C374.9 291.787 372.482 291.304 369.713 291.304V293.304ZM376.04 294.593C377.771 295.444 379.019 296.593 379.836 298.03L381.575 297.042C380.536 295.215 378.968 293.804 376.922 292.799L376.04 294.593ZM379.84 298.038C380.673 299.474 381.097 301.091 381.097 302.912H383.097C383.097 300.765 382.593 298.798 381.57 297.034L379.84 298.038ZM381.097 302.912C381.097 304.947 380.52 306.74 379.368 308.324L380.986 309.5C382.394 307.564 383.097 305.357 383.097 302.912H381.097ZM379.362 308.334C378.266 309.878 376.616 311.013 374.323 311.698L374.895 313.614C377.531 312.827 379.592 311.466 380.993 309.49L379.362 308.334ZM373.745 313.159L381.521 326.503L383.249 325.497L375.473 312.153L373.745 313.159ZM382.385 325H373.121V327H382.385V325ZM364.145 308.472H369.233V306.472H364.145V308.472ZM369.233 308.472C370.884 308.472 372.307 308.068 373.3 307.075L371.886 305.661C371.407 306.14 370.59 306.472 369.233 306.472V308.472ZM373.285 307.09C374.299 306.119 374.745 304.788 374.745 303.248H372.745C372.745 304.396 372.424 305.145 371.901 305.646L373.285 307.09ZM374.745 303.248C374.745 301.755 374.289 300.464 373.285 299.502L371.901 300.946C372.433 301.456 372.745 302.181 372.745 303.248H374.745ZM373.3 299.517C372.307 298.524 370.884 298.12 369.233 298.12V300.12C370.59 300.12 371.407 300.452 371.886 300.931L373.3 299.517ZM369.233 298.12H364.145V300.12H369.233V298.12ZM363.145 299.12V307.472H365.145V299.12H363.145ZM403.378 298.88V297.88H402.378V298.88H403.378ZM403.378 305.696H402.378V306.696H403.378V305.696ZM414.37 305.696H415.37V304.696H414.37V305.696ZM414.37 312.032V313.032H415.37V312.032H414.37ZM403.378 312.032V311.032H402.378V312.032H403.378ZM403.378 319.424H402.378V320.424H403.378V319.424ZM415.81 319.424H416.81V318.424H415.81V319.424ZM415.81 326V327H416.81V326H415.81ZM395.17 326H394.17V327H395.17V326ZM395.17 292.304V291.304H394.17V292.304H395.17ZM415.81 292.304H416.81V291.304H415.81V292.304ZM415.81 298.88V299.88H416.81V298.88H415.81ZM402.378 298.88V305.696H404.378V298.88H402.378ZM403.378 306.696H414.37V304.696H403.378V306.696ZM413.37 305.696V312.032H415.37V305.696H413.37ZM414.37 311.032H403.378V313.032H414.37V311.032ZM402.378 312.032V319.424H404.378V312.032H402.378ZM403.378 320.424H415.81V318.424H403.378V320.424ZM414.81 319.424V326H416.81V319.424H414.81ZM415.81 325H395.17V327H415.81V325ZM396.17 326V292.304H394.17V326H396.17ZM395.17 293.304H415.81V291.304H395.17V293.304ZM414.81 292.304V298.88H416.81V292.304H414.81ZM415.81 297.88H403.378V299.88H415.81V297.88ZM450.995 294.416L451.463 293.532L450.995 294.416ZM457.139 300.368L456.267 300.858L456.271 300.865L456.274 300.871L457.139 300.368ZM457.139 317.936L456.272 317.438L456.267 317.446L457.139 317.936ZM450.947 323.888L450.483 323.002L450.478 323.004L450.947 323.888ZM429.059 326H428.059V327H429.059V326ZM429.059 292.304V291.304H428.059V292.304H429.059ZM437.267 299.312V298.312H436.267V299.312H437.267ZM437.267 318.896H436.267V319.896H437.267V318.896ZM441.683 293.304C445.101 293.304 448.038 293.981 450.526 295.3L451.463 293.532C448.639 292.035 445.368 291.304 441.683 291.304V293.304ZM450.526 295.3C453.017 296.62 454.923 298.469 456.267 300.858L458.01 299.878C456.474 297.147 454.284 295.028 451.463 293.532L450.526 295.3ZM456.274 300.871C457.646 303.226 458.347 305.976 458.347 309.152H460.347C460.347 305.672 459.575 302.566 458.003 299.865L456.274 300.871ZM458.347 309.152C458.347 312.294 457.647 315.046 456.272 317.438L458.005 318.434C459.574 315.706 460.347 312.602 460.347 309.152H458.347ZM456.267 317.446C454.925 319.831 453.005 321.681 450.483 323.002L451.411 324.774C454.264 323.279 456.472 321.161 458.01 318.426L456.267 317.446ZM450.478 323.004C447.989 324.324 445.067 325 441.683 325V327C445.338 327 448.592 326.268 451.415 324.772L450.478 323.004ZM441.683 325H429.059V327H441.683V325ZM430.059 326V292.304H428.059V326H430.059ZM429.059 293.304H441.683V291.304H429.059V293.304ZM441.155 319.896C444.443 319.896 447.139 318.993 449.103 317.066L447.702 315.638C446.21 317.103 444.074 317.896 441.155 317.896V319.896ZM449.103 317.066C451.073 315.132 451.995 312.445 451.995 309.152H449.995C449.995 312.067 449.188 314.18 447.702 315.638L449.103 317.066ZM451.995 309.152C451.995 305.858 451.072 303.16 449.11 301.197L447.695 302.611C449.189 304.104 449.995 306.238 449.995 309.152H451.995ZM449.11 301.197C447.147 299.234 444.448 298.312 441.155 298.312V300.312C444.069 300.312 446.202 301.118 447.695 302.611L449.11 301.197ZM441.155 298.312H437.267V300.312H441.155V298.312ZM436.267 299.312V318.896H438.267V299.312H436.267ZM437.267 319.896H441.155V317.896H437.267V319.896Z" fill="black" fill-opacity="0.5"/>
</g>
<g filter="url(#filter1_i_48_23)">
<path d="M329 140L329.987 157.298C330.632 168.596 330.954 174.244 334.79 177.031C338.625 179.818 344.097 178.379 355.041 175.501L371.798 171.094L355.651 177.378C345.106 181.482 339.833 183.535 338.368 188.044C336.903 192.553 339.962 197.313 346.081 206.831L355.45 221.406L344.484 207.992C337.322 199.23 333.741 194.85 329 194.85C324.259 194.85 320.678 199.23 313.516 207.992L302.55 221.406L311.919 206.831C318.038 197.313 321.097 192.553 319.632 188.044C318.167 183.535 312.894 181.482 302.349 177.378L286.202 171.094L302.959 175.501C313.903 178.379 319.375 179.818 323.21 177.031C327.046 174.244 327.368 168.596 328.013 157.298L329 140Z" fill="url(#paint1_linear_48_23)"/>
</g>
<path d="M372.704 173.424L371.162 168.676L354.405 173.083C348.859 174.542 344.959 175.561 341.963 175.907C339.035 176.245 337.451 175.875 336.259 175.009C335.067 174.143 334.225 172.75 333.642 169.861C333.045 166.905 332.81 162.882 332.483 157.156L331.496 139.858L326.504 139.858L325.517 157.155C325.19 162.882 324.955 166.905 324.358 169.861C323.775 172.75 322.933 174.143 321.741 175.009C320.549 175.875 318.965 176.245 316.037 175.907C313.041 175.561 309.141 174.542 303.595 173.083L286.838 168.676L285.296 173.424L301.442 179.708C306.787 181.788 310.541 183.256 313.168 184.737C315.735 186.184 316.799 187.415 317.255 188.816C317.71 190.217 317.572 191.839 316.346 194.519C315.091 197.261 312.917 200.655 309.816 205.479L300.447 220.054L304.485 222.988L315.451 209.574C319.081 205.133 321.637 202.017 323.857 199.976C326.027 197.982 327.527 197.35 329 197.35C330.473 197.35 331.973 197.982 334.143 199.976C336.363 202.017 338.919 205.133 342.549 209.574L353.515 222.988L357.553 220.054L348.184 205.479C345.083 200.655 342.909 197.261 341.654 194.519C340.428 191.839 340.29 190.217 340.745 188.816C341.201 187.415 342.265 186.184 344.832 184.737C347.459 183.256 351.213 181.788 356.558 179.708L372.704 173.424Z" stroke="url(#paint2_linear_48_23)" stroke-width="5"/>
<g filter="url(#filter2_i_48_23)">
<path d="M227 140L227.987 157.298C228.632 168.596 228.954 174.244 232.79 177.031C236.625 179.818 242.097 178.379 253.041 175.501L269.798 171.094L253.651 177.378C243.106 181.482 237.833 183.535 236.368 188.044C234.903 192.553 237.962 197.313 244.081 206.831L253.45 221.406L242.484 207.992C235.322 199.23 231.741 194.85 227 194.85C222.259 194.85 218.678 199.23 211.516 207.992L200.55 221.406L209.919 206.831C216.038 197.313 219.097 192.553 217.632 188.044C216.167 183.535 210.894 181.482 200.349 177.378L184.202 171.094L200.959 175.501C211.903 178.379 217.375 179.818 221.21 177.031C225.046 174.244 225.368 168.596 226.013 157.298L227 140Z" fill="url(#paint3_linear_48_23)"/>
</g>
<path d="M270.704 173.424L269.162 168.676L252.405 173.083C246.859 174.542 242.959 175.561 239.963 175.907C237.035 176.245 235.451 175.875 234.259 175.009C233.067 174.143 232.225 172.75 231.642 169.861C231.045 166.905 230.81 162.882 230.483 157.156L229.496 139.858L224.504 139.858L223.517 157.155C223.19 162.882 222.955 166.905 222.358 169.861C221.775 172.75 220.933 174.143 219.741 175.009C218.549 175.875 216.965 176.245 214.037 175.907C211.041 175.561 207.141 174.542 201.595 173.083L184.838 168.676L183.296 173.424L199.442 179.708C204.787 181.788 208.541 183.256 211.168 184.737C213.735 186.184 214.799 187.415 215.255 188.816C215.71 190.217 215.572 191.839 214.346 194.519C213.091 197.261 210.917 200.655 207.816 205.479L198.447 220.054L202.485 222.988L213.451 209.574C217.081 205.133 219.637 202.017 221.857 199.976C224.027 197.982 225.527 197.35 227 197.35C228.473 197.35 229.973 197.982 232.143 199.976C234.363 202.017 236.919 205.133 240.549 209.574L251.515 222.988L255.553 220.054L246.184 205.479C243.083 200.655 240.909 197.261 239.654 194.519C238.428 191.839 238.29 190.217 238.745 188.816C239.201 187.415 240.265 186.184 242.832 184.737C245.459 183.256 249.213 181.788 254.558 179.708L270.704 173.424Z" stroke="url(#paint4_linear_48_23)" stroke-width="5"/>
<g filter="url(#filter3_i_48_23)">
<path d="M125 140L125.987 157.298C126.632 168.596 126.954 174.244 130.79 177.031C134.625 179.818 140.097 178.379 151.041 175.501L167.798 171.094L151.651 177.378C141.106 181.482 135.833 183.535 134.368 188.044C132.903 192.553 135.962 197.313 142.081 206.831L151.45 221.406L140.484 207.992C133.322 199.23 129.741 194.85 125 194.85C120.259 194.85 116.678 199.23 109.516 207.992L98.5497 221.406L107.919 206.831C114.038 197.313 117.097 192.553 115.632 188.044C114.167 183.535 108.894 181.482 98.3488 177.378L82.2025 171.094L98.9587 175.501C109.903 178.379 115.375 179.818 119.21 177.031C123.046 174.244 123.368 168.596 124.013 157.298L125 140Z" fill="url(#paint5_linear_48_23)"/>
</g>
<path d="M168.704 173.424L167.162 168.676L150.405 173.083C144.859 174.542 140.959 175.561 137.963 175.907C135.035 176.245 133.451 175.875 132.259 175.009C131.067 174.143 130.225 172.75 129.642 169.861C129.045 166.905 128.81 162.882 128.483 157.156L127.496 139.858L122.504 139.858L121.517 157.155C121.19 162.882 120.955 166.905 120.358 169.861C119.775 172.75 118.933 174.143 117.741 175.009C116.549 175.875 114.965 176.245 112.037 175.907C109.041 175.561 105.141 174.542 99.5946 173.083L82.8383 168.676L81.2957 173.424L97.442 179.708C102.787 181.788 106.541 183.256 109.168 184.737C111.735 186.184 112.799 187.415 113.255 188.816C113.71 190.217 113.572 191.839 112.346 194.519C111.091 197.261 108.917 200.655 105.816 205.479L96.4467 220.054L100.485 222.988L111.451 209.574C115.081 205.133 117.637 202.017 119.857 199.976C122.027 197.982 123.527 197.35 125 197.35C126.473 197.35 127.973 197.982 130.143 199.976C132.363 202.017 134.919 205.133 138.549 209.574L149.515 222.988L153.553 220.054L144.184 205.479C141.083 200.655 138.909 197.261 137.654 194.519C136.428 191.839 136.29 190.217 136.745 188.816C137.201 187.415 138.265 186.184 140.832 184.737C143.459 183.256 147.213 181.788 152.558 179.708L168.704 173.424Z" stroke="url(#paint6_linear_48_23)" stroke-width="5"/>
<g filter="url(#filter4_d_48_23)">
<path d="M7.41515 44.88C7.41515 40.72 8.31515 37.02 10.1152 33.78C11.9152 30.5 14.4152 27.96 17.6152 26.16C20.8552 24.32 24.5152 23.4 28.5952 23.4C33.5952 23.4 37.8752 24.72 41.4352 27.36C44.9952 30 47.3752 33.6 48.5752 38.16H37.2952C36.4552 36.4 35.2552 35.06 33.6952 34.14C32.1752 33.22 30.4352 32.76 28.4752 32.76C25.3152 32.76 22.7552 33.86 20.7952 36.06C18.8352 38.26 17.8552 41.2 17.8552 44.88C17.8552 48.56 18.8352 51.5 20.7952 53.7C22.7552 55.9 25.3152 57 28.4752 57C30.4352 57 32.1752 56.54 33.6952 55.62C35.2552 54.7 36.4552 53.36 37.2952 51.6H48.5752C47.3752 56.16 44.9952 59.76 41.4352 62.4C37.8752 65 33.5952 66.3 28.5952 66.3C24.5152 66.3 20.8552 65.4 17.6152 63.6C14.4152 61.76 11.9152 59.22 10.1152 55.98C8.31515 52.74 7.41515 49.04 7.41515 44.88ZM84.6783 66.42C80.7183 66.42 77.0783 65.5 73.7583 63.66C70.4783 61.82 67.8583 59.26 65.8983 55.98C63.9783 52.66 63.0183 48.94 63.0183 44.82C63.0183 40.7 63.9783 37 65.8983 33.72C67.8583 30.44 70.4783 27.88 73.7583 26.04C77.0783 24.2 80.7183 23.28 84.6783 23.28C88.6383 23.28 92.2583 24.2 95.5383 26.04C98.8583 27.88 101.458 30.44 103.338 33.72C105.258 37 106.218 40.7 106.218 44.82C106.218 48.94 105.258 52.66 103.338 55.98C101.418 59.26 98.8183 61.82 95.5383 63.66C92.2583 65.5 88.6383 66.42 84.6783 66.42ZM84.6783 57.06C88.0383 57.06 90.7183 55.94 92.7183 53.7C94.7583 51.46 95.7783 48.5 95.7783 44.82C95.7783 41.1 94.7583 38.14 92.7183 35.94C90.7183 33.7 88.0383 32.58 84.6783 32.58C81.2783 32.58 78.5583 33.68 76.5183 35.88C74.5183 38.08 73.5183 41.06 73.5183 44.82C73.5183 48.54 74.5183 51.52 76.5183 53.76C78.5583 55.96 81.2783 57.06 84.6783 57.06ZM159.506 66H149.246L132.086 40.02V66H121.826V23.88H132.086L149.246 49.98V23.88H159.506V66ZM204.803 37.2C204.043 35.8 202.943 34.74 201.503 34.02C200.103 33.26 198.443 32.88 196.523 32.88C193.203 32.88 190.543 33.98 188.543 36.18C186.543 38.34 185.543 41.24 185.543 44.88C185.543 48.76 186.583 51.8 188.663 54C190.783 56.16 193.683 57.24 197.363 57.24C199.883 57.24 202.003 56.6 203.723 55.32C205.483 54.04 206.763 52.2 207.563 49.8H194.543V42.24H216.863V51.78C216.103 54.34 214.803 56.72 212.963 58.92C211.163 61.12 208.863 62.9 206.063 64.26C203.263 65.62 200.103 66.3 196.583 66.3C192.423 66.3 188.703 65.4 185.423 63.6C182.183 61.76 179.643 59.22 177.803 55.98C176.003 52.74 175.103 49.04 175.103 44.88C175.103 40.72 176.003 37.02 177.803 33.78C179.643 30.5 182.183 27.96 185.423 26.16C188.663 24.32 192.363 23.4 196.523 23.4C201.563 23.4 205.803 24.62 209.243 27.06C212.723 29.5 215.023 32.88 216.143 37.2H204.803ZM253.927 66L245.167 50.1H242.707V66H232.447V23.88H249.667C252.987 23.88 255.807 24.46 258.127 25.62C260.487 26.78 262.247 28.38 263.407 30.42C264.567 32.42 265.147 34.66 265.147 37.14C265.147 39.94 264.347 42.44 262.747 44.64C261.187 46.84 258.867 48.4 255.787 49.32L265.507 66H253.927ZM242.707 42.84H249.067C250.947 42.84 252.347 42.38 253.267 41.46C254.227 40.54 254.707 39.24 254.707 37.56C254.707 35.96 254.227 34.7 253.267 33.78C252.347 32.86 250.947 32.4 249.067 32.4H242.707V42.84ZM307.707 58.56H291.987L289.467 66H278.727L293.967 23.88H305.847L321.087 66H310.227L307.707 58.56ZM305.067 50.64L299.847 35.22L294.687 50.64H305.067ZM365.925 23.88V32.1H354.765V66H344.505V32.1H333.345V23.88H365.925ZM396.215 66.42C393.135 66.42 390.375 65.92 387.935 64.92C385.495 63.92 383.535 62.44 382.055 60.48C380.615 58.52 379.855 56.16 379.775 53.4H390.695C390.855 54.96 391.395 56.16 392.315 57C393.235 57.8 394.435 58.2 395.915 58.2C397.435 58.2 398.635 57.86 399.515 57.18C400.395 56.46 400.835 55.48 400.835 54.24C400.835 53.2 400.475 52.34 399.755 51.66C399.075 50.98 398.215 50.42 397.175 49.98C396.175 49.54 394.735 49.04 392.855 48.48C390.135 47.64 387.915 46.8 386.195 45.96C384.475 45.12 382.995 43.88 381.755 42.24C380.515 40.6 379.895 38.46 379.895 35.82C379.895 31.9 381.315 28.84 384.155 26.64C386.995 24.4 390.695 23.28 395.255 23.28C399.895 23.28 403.635 24.4 406.475 26.64C409.315 28.84 410.835 31.92 411.035 35.88H399.935C399.855 34.52 399.355 33.46 398.435 32.7C397.515 31.9 396.335 31.5 394.895 31.5C393.655 31.5 392.655 31.84 391.895 32.52C391.135 33.16 390.755 34.1 390.755 35.34C390.755 36.7 391.395 37.76 392.675 38.52C393.955 39.28 395.955 40.1 398.675 40.98C401.395 41.9 403.595 42.78 405.275 43.62C406.995 44.46 408.475 45.68 409.715 47.28C410.955 48.88 411.575 50.94 411.575 53.46C411.575 55.86 410.955 58.04 409.715 60C408.515 61.96 406.755 63.52 404.435 64.68C402.115 65.84 399.375 66.42 396.215 66.42ZM441.289 22.38L440.089 51.12H431.389L430.189 22.38H441.289ZM435.889 66.48C434.089 66.48 432.609 65.96 431.449 64.92C430.329 63.84 429.769 62.52 429.769 60.96C429.769 59.36 430.329 58.02 431.449 56.94C432.609 55.86 434.089 55.32 435.889 55.32C437.649 55.32 439.089 55.86 440.209 56.94C441.369 58.02 441.949 59.36 441.949 60.96C441.949 62.52 441.369 63.84 440.209 64.92C439.089 65.96 437.649 66.48 435.889 66.48Z" fill="url(#paint7_linear_48_23)" shape-rendering="crispEdges"/>
<path d="M10.1152 33.78L10.9893 34.2656L10.9918 34.2611L10.1152 33.78ZM17.6152 26.16L18.1054 27.0316L18.109 27.0296L17.6152 26.16ZM41.4352 27.36L42.0308 26.5568L41.4352 27.36ZM48.5752 38.16V39.16H49.8724L49.5422 37.9055L48.5752 38.16ZM37.2952 38.16L36.3927 38.5907L36.6644 39.16H37.2952V38.16ZM33.6952 34.14L33.1773 34.9956L33.1872 35.0014L33.6952 34.14ZM20.7952 36.06L21.5418 36.7252L20.7952 36.06ZM33.6952 55.62L33.1871 54.7586L33.1773 54.7645L33.6952 55.62ZM37.2952 51.6V50.6H36.6644L36.3927 51.1693L37.2952 51.6ZM48.5752 51.6L49.5422 51.8545L49.8724 50.6H48.5752V51.6ZM41.4352 62.4L42.025 63.2076L42.0308 63.2032L41.4352 62.4ZM17.6152 63.6L17.1167 64.4669L17.1231 64.4706L17.1295 64.4742L17.6152 63.6ZM10.1152 55.98L10.9893 55.4944L10.1152 55.98ZM8.41515 44.88C8.41515 40.8688 9.28154 37.3396 10.9893 34.2656L9.24099 33.2944C7.34876 36.7004 6.41515 40.5712 6.41515 44.88H8.41515ZM10.9918 34.2611C12.7038 31.1415 15.0714 28.7382 18.1054 27.0316L17.1249 25.2884C13.7589 27.1818 11.1265 29.8585 9.23848 33.2989L10.9918 34.2611ZM18.109 27.0296C21.1844 25.283 24.6714 24.4 28.5951 24.4V22.4C24.3589 22.4 20.5259 23.357 17.1213 25.2904L18.109 27.0296ZM28.5951 24.4C33.4094 24.4 37.4736 25.6671 40.8395 28.1632L42.0308 26.5568C38.2767 23.7728 33.7809 22.4 28.5951 22.4V24.4ZM40.8395 28.1632C44.2048 30.6588 46.462 34.0592 47.6081 38.4145L49.5422 37.9055C48.2884 33.1408 45.7855 29.3412 42.0308 26.5568L40.8395 28.1632ZM48.5752 37.16H37.2952V39.16H48.5752V37.16ZM38.1976 37.7293C37.2788 35.8041 35.9479 34.3076 34.2031 33.2786L33.1872 35.0014C34.5624 35.8124 35.6315 36.9959 36.3927 38.5907L38.1976 37.7293ZM34.213 33.2845C32.521 32.2604 30.5983 31.76 28.4752 31.76V33.76C30.272 33.76 31.8293 34.1796 33.1773 34.9955L34.213 33.2845ZM28.4752 31.76C25.0532 31.76 22.2132 32.965 20.0485 35.3948L21.5418 36.7252C23.2971 34.755 25.5771 33.76 28.4752 33.76V31.76ZM20.0485 35.3948C17.8875 37.8203 16.8552 41.0181 16.8552 44.88H18.8552C18.8552 41.3819 19.7828 38.6997 21.5418 36.7252L20.0485 35.3948ZM16.8552 44.88C16.8552 48.7419 17.8875 51.9397 20.0485 54.3652L21.5418 53.0348C19.7828 51.0603 18.8552 48.3781 18.8552 44.88H16.8552ZM20.0485 54.3652C22.2132 56.795 25.0532 58 28.4752 58V56C25.5771 56 23.2971 55.005 21.5418 53.0348L20.0485 54.3652ZM28.4752 58C30.5983 58 32.521 57.4996 34.213 56.4755L33.1773 54.7645C31.8293 55.5804 30.272 56 28.4752 56V58ZM34.2031 56.4814C35.9479 55.4524 37.2788 53.9559 38.1976 52.0307L36.3927 51.1693C35.6315 52.7641 34.5624 53.9476 33.1872 54.7586L34.2031 56.4814ZM37.2952 52.6H48.5752V50.6H37.2952V52.6ZM47.6081 51.3455C46.462 55.7008 44.2048 59.1012 40.8395 61.5968L42.0308 63.2032C45.7855 60.4188 48.2884 56.6192 49.5422 51.8545L47.6081 51.3455ZM40.8454 61.5924C37.4791 64.051 33.4128 65.3 28.5951 65.3V67.3C33.7775 67.3 38.2712 65.949 42.0249 63.2076L40.8454 61.5924ZM28.5951 65.3C24.6676 65.3 21.1776 64.4352 18.1008 62.7258L17.1295 64.4742C20.5327 66.3648 24.3627 67.3 28.5951 67.3V65.3ZM18.1136 62.7331C15.0718 60.9841 12.7014 58.5762 10.9893 55.4944L9.24099 56.4656C11.1289 59.8638 13.7585 62.5359 17.1167 64.4669L18.1136 62.7331ZM10.9893 55.4944C9.28154 52.4204 8.41515 48.8912 8.41515 44.88H6.41515C6.41515 49.1888 7.34876 53.0596 9.24099 56.4656L10.9893 55.4944ZM73.7583 63.66L73.269 64.5322L73.2735 64.5347L73.7583 63.66ZM65.8983 55.98L65.0326 56.4806L65.0362 56.4868L65.0399 56.493L65.8983 55.98ZM65.8983 33.72L65.0398 33.207L65.0353 33.2148L65.8983 33.72ZM73.7583 26.04L73.2735 25.1653L73.269 25.1679L73.7583 26.04ZM95.5383 26.04L95.049 26.9122L95.0535 26.9147L95.5383 26.04ZM103.338 33.72L102.471 34.2173L102.475 34.2252L103.338 33.72ZM103.338 55.98L104.201 56.4852L104.204 56.4806L103.338 55.98ZM95.5383 63.66L96.0275 64.5321H96.0275L95.5383 63.66ZM92.7183 53.7L91.9789 53.0266L91.9723 53.034L92.7183 53.7ZM92.7183 35.94L91.9723 36.606L91.9786 36.613L91.985 36.6199L92.7183 35.94ZM76.5183 35.88L75.785 35.2L75.7783 35.2073L76.5183 35.88ZM76.5183 53.76L75.7723 54.426L75.7786 54.433L75.785 54.4399L76.5183 53.76ZM84.6783 65.42C80.8803 65.42 77.4082 64.5395 74.243 62.7853L73.2735 64.5347C76.7484 66.4605 80.5563 67.42 84.6783 67.42V65.42ZM74.2475 62.7879C71.1224 61.0347 68.6286 58.5996 66.7567 55.467L65.0399 56.493C67.0879 59.9203 69.8342 62.6053 73.269 64.5321L74.2475 62.7879ZM66.7639 55.4794C64.9385 52.3228 64.0183 48.7777 64.0183 44.82H62.0183C62.0183 49.1023 63.0181 52.9972 65.0326 56.4806L66.7639 55.4794ZM64.0183 44.82C64.0183 40.8622 64.9385 37.3392 66.7613 34.2252L65.0353 33.2148C63.0181 36.6608 62.0183 40.5378 62.0183 44.82H64.0183ZM66.7567 34.233C68.6286 31.1003 71.1224 28.6653 74.2475 26.9121L73.269 25.1679C69.8342 27.0947 67.0879 29.7796 65.0399 33.207L66.7567 34.233ZM74.243 26.9147C77.4082 25.1605 80.8803 24.28 84.6783 24.28V22.28C80.5563 22.28 76.7484 23.2395 73.2735 25.1653L74.243 26.9147ZM84.6783 24.28C88.4763 24.28 91.9265 25.1605 95.049 26.9121L96.0275 25.1679C92.5901 23.2395 88.8002 22.28 84.6783 22.28V24.28ZM95.0535 26.9147C98.2145 28.6665 100.682 31.0963 102.471 34.2173L104.206 33.2227C102.235 29.7837 99.502 27.0935 96.023 25.1653L95.0535 26.9147ZM102.475 34.2252C104.298 37.3392 105.218 40.8622 105.218 44.82H107.218C107.218 40.5378 106.218 36.6608 104.201 33.2148L102.475 34.2252ZM105.218 44.82C105.218 48.7777 104.298 52.3228 102.473 55.4794L104.204 56.4806C106.218 52.9972 107.218 49.1023 107.218 44.82H105.218ZM102.475 55.4748C100.644 58.6032 98.1723 61.0358 95.049 62.7879L96.0275 64.5321C99.4642 62.6042 102.193 59.9168 104.201 56.4852L102.475 55.4748ZM95.049 62.7879C91.9265 64.5395 88.4763 65.42 84.6783 65.42V67.42C88.8002 67.42 92.5901 66.4605 96.0275 64.5321L95.049 62.7879ZM84.6783 58.06C88.2854 58.06 91.2507 56.8451 93.4642 54.366L91.9723 53.034C90.1858 55.0349 87.7911 56.06 84.6783 56.06V58.06ZM93.4576 54.3733C95.6997 51.9115 96.7783 48.6929 96.7783 44.82H94.7783C94.7783 48.3071 93.8169 51.0085 91.9789 53.0267L93.4576 54.3733ZM96.7783 44.82C96.7783 40.9112 95.7017 37.6867 93.4515 35.2601L91.985 36.6199C93.8149 38.5933 94.7783 41.2888 94.7783 44.82H96.7783ZM93.4642 35.274C91.2507 32.7949 88.2854 31.58 84.6783 31.58V33.58C87.7911 33.58 90.1858 34.6051 91.9723 36.606L93.4642 35.274ZM84.6783 31.58C81.0408 31.58 78.0404 32.7678 75.785 35.2001L77.2515 36.5599C79.0762 34.5922 81.5157 33.58 84.6783 33.58V31.58ZM75.7783 35.2073C73.5701 37.6363 72.5183 40.8795 72.5183 44.82H74.5183C74.5183 41.2405 75.4664 38.5237 77.2582 36.5527L75.7783 35.2073ZM72.5183 44.82C72.5183 48.7246 73.5721 51.9618 75.7723 54.426L77.2642 53.094C75.4644 51.0782 74.5183 48.3554 74.5183 44.82H72.5183ZM75.785 54.4399C78.0404 56.8722 81.0408 58.06 84.6783 58.06V56.06C81.5157 56.06 79.0762 55.0478 77.2515 53.0801L75.785 54.4399ZM159.506 66V67H160.506V66H159.506ZM149.246 66L148.412 66.5511L148.708 67H149.246V66ZM132.086 40.02L132.921 39.4689L131.086 36.6916V40.02H132.086ZM132.086 66V67H133.086V66H132.086ZM121.826 66H120.826V67H121.826V66ZM121.826 23.88V22.88H120.826V23.88H121.826ZM132.086 23.88L132.922 23.3306L132.626 22.88H132.086V23.88ZM149.246 49.98L148.411 50.5294L150.246 53.3212V49.98H149.246ZM149.246 23.88V22.88H148.246V23.88H149.246ZM159.506 23.88H160.506V22.88H159.506V23.88ZM159.506 65H149.246V67H159.506V65ZM150.081 65.4489L132.921 39.4689L131.252 40.5711L148.412 66.5511L150.081 65.4489ZM131.086 40.02V66H133.086V40.02H131.086ZM132.086 65H121.826V67H132.086V65ZM122.826 66V23.88H120.826V66H122.826ZM121.826 24.88H132.086V22.88H121.826V24.88ZM131.251 24.4294L148.411 50.5294L150.082 49.4306L132.922 23.3306L131.251 24.4294ZM150.246 49.98V23.88H148.246V49.98H150.246ZM149.246 24.88H159.506V22.88H149.246V24.88ZM158.506 23.88V66H160.506V23.88H158.506ZM204.803 37.2L203.925 37.6771L204.208 38.2H204.803V37.2ZM201.503 34.02L201.026 34.8988L201.041 34.9069L201.056 34.9144L201.503 34.02ZM188.543 36.18L189.277 36.8594L189.283 36.8527L188.543 36.18ZM188.663 54L187.937 54.687L187.943 54.6938L187.95 54.7005L188.663 54ZM203.723 55.32L203.135 54.5112L203.126 54.5178L203.723 55.32ZM207.563 49.8L208.512 50.1162L208.951 48.8H207.563V49.8ZM194.543 49.8H193.543V50.8H194.543V49.8ZM194.543 42.24V41.24H193.543V42.24H194.543ZM216.863 42.24H217.863V41.24H216.863V42.24ZM216.863 51.78L217.822 52.0646L217.863 51.9253V51.78H216.863ZM212.963 58.92L212.196 58.2784L212.189 58.2868L212.963 58.92ZM206.063 64.26L205.627 63.3605L206.063 64.26ZM185.423 63.6L184.93 64.4696L184.936 64.4732L184.942 64.4767L185.423 63.6ZM177.803 55.98L176.929 56.4657L176.934 56.4738L177.803 55.98ZM177.803 33.78L176.931 33.2907L176.929 33.2944L177.803 33.78ZM185.423 26.16L185.909 27.0342L185.917 27.0296L185.423 26.16ZM209.243 27.06L208.665 27.8757L208.669 27.8788L209.243 27.06ZM216.143 37.2V38.2H217.436L217.111 36.949L216.143 37.2ZM205.682 36.7229C204.823 35.1408 203.572 33.9361 201.951 33.1256L201.056 34.9144C202.315 35.5439 203.263 36.4592 203.925 37.6771L205.682 36.7229ZM201.981 33.1411C200.407 32.2869 198.576 31.88 196.523 31.88V33.88C198.311 33.88 199.8 34.2331 201.026 34.8988L201.981 33.1411ZM196.523 31.88C192.958 31.88 190.016 33.0733 187.803 35.5073L189.283 36.8527C191.071 34.8867 193.449 33.88 196.523 33.88V31.88ZM187.81 35.5006C185.6 37.8867 184.543 41.0505 184.543 44.88H186.543C186.543 41.4295 187.486 38.7933 189.277 36.8594L187.81 35.5006ZM184.543 44.88C184.543 48.9408 185.636 52.2534 187.937 54.687L189.39 53.313C187.531 51.3466 186.543 48.5792 186.543 44.88H184.543ZM187.95 54.7005C190.297 57.0922 193.477 58.24 197.363 58.24V56.24C193.89 56.24 191.27 55.2278 189.377 53.2995L187.95 54.7005ZM197.363 58.24C200.06 58.24 202.399 57.5521 204.32 56.1222L203.126 54.5178C201.608 55.6479 199.707 56.24 197.363 56.24V58.24ZM204.312 56.1287C206.266 54.7071 207.657 52.6808 208.512 50.1162L206.615 49.4838C205.87 51.7192 204.7 53.3729 203.135 54.5113L204.312 56.1287ZM207.563 48.8H194.543V50.8H207.563V48.8ZM195.543 49.8V42.24H193.543V49.8H195.543ZM194.543 43.24H216.863V41.24H194.543V43.24ZM215.863 42.24V51.78H217.863V42.24H215.863ZM215.905 51.4954C215.186 53.9151 213.955 56.1753 212.196 58.2784L213.731 59.5616C215.651 57.2647 217.02 54.7649 217.822 52.0646L215.905 51.4954ZM212.189 58.2868C210.49 60.3643 208.309 62.0577 205.627 63.3605L206.5 65.1595C209.418 63.7423 211.837 61.8757 213.737 59.5532L212.189 58.2868ZM205.627 63.3605C202.98 64.6462 199.972 65.3 196.583 65.3V67.3C200.235 67.3 203.547 66.5938 206.5 65.1595L205.627 63.3605ZM196.583 65.3C192.572 65.3 189.021 64.4337 185.905 62.7233L184.942 64.4767C188.386 66.3663 192.274 67.3 196.583 67.3V65.3ZM185.917 62.7304C182.834 60.9795 180.424 58.5693 178.673 55.4862L176.934 56.4738C178.863 59.8707 181.533 62.5405 184.93 64.4696L185.917 62.7304ZM178.678 55.4944C176.97 52.4204 176.103 48.8912 176.103 44.88H174.103C174.103 49.1888 175.037 53.0596 176.929 56.4656L178.678 55.4944ZM176.103 44.88C176.103 40.8688 176.97 37.3396 178.678 34.2656L176.929 33.2944C175.037 36.7004 174.103 40.5712 174.103 44.88H176.103ZM178.676 34.2693C180.426 31.1484 182.834 28.7428 185.909 27.0342L184.938 25.2858C181.533 27.1772 178.861 29.8516 176.931 33.2907L178.676 34.2693ZM185.917 27.0296C188.99 25.2847 192.516 24.4 196.523 24.4V22.4C192.211 22.4 188.337 23.3553 184.93 25.2904L185.917 27.0296ZM196.523 24.4C201.397 24.4 205.425 25.5775 208.665 27.8756L209.822 26.2443C206.182 23.6625 201.729 22.4 196.523 22.4V24.4ZM208.669 27.8788C211.944 30.1751 214.112 33.3485 215.175 37.451L217.111 36.949C215.935 32.4115 213.502 28.8249 209.818 26.2412L208.669 27.8788ZM216.143 36.2H204.803V38.2H216.143V36.2ZM253.927 66L253.051 66.4826L253.336 67H253.927V66ZM245.167 50.1L246.042 49.6174L245.757 49.1H245.167V50.1ZM242.707 50.1V49.1H241.707V50.1H242.707ZM242.707 66V67H243.707V66H242.707ZM232.447 66H231.447V67H232.447V66ZM232.447 23.88V22.88H231.447V23.88H232.447ZM258.127 25.62L257.679 26.5144L257.685 26.5174L258.127 25.62ZM263.407 30.42L262.537 30.9143L262.542 30.9217L263.407 30.42ZM262.747 44.64L261.938 44.0518L261.931 44.0616L262.747 44.64ZM255.787 49.32L255.5 48.3618L254.283 48.7255L254.923 49.8235L255.787 49.32ZM265.507 66V67H267.247L266.371 65.4965L265.507 66ZM242.707 42.84H241.707V43.84H242.707V42.84ZM253.267 41.46L252.575 40.738L252.567 40.7454L252.559 40.7529L253.267 41.46ZM253.267 33.78L252.559 34.4871L252.567 34.4946L252.575 34.502L253.267 33.78ZM242.707 32.4V31.4H241.707V32.4H242.707ZM254.802 65.5174L246.042 49.6174L244.291 50.5826L253.051 66.4826L254.802 65.5174ZM245.167 49.1H242.707V51.1H245.167V49.1ZM241.707 50.1V66H243.707V50.1H241.707ZM242.707 65H232.447V67H242.707V65ZM233.447 66V23.88H231.447V66H233.447ZM232.447 24.88H249.667V22.88H232.447V24.88ZM249.667 24.88C252.873 24.88 255.532 25.4405 257.679 26.5144L258.574 24.7256C256.082 23.4795 253.1 22.88 249.667 22.88V24.88ZM257.685 26.5174C259.888 27.6001 261.488 29.0692 262.537 30.9143L264.276 29.9257C263.005 27.6908 261.085 25.9599 258.568 24.7225L257.685 26.5174ZM262.542 30.9217C263.607 32.7582 264.147 34.823 264.147 37.14H266.147C266.147 34.497 265.526 32.0818 264.272 29.9183L262.542 30.9217ZM264.147 37.14C264.147 39.7353 263.41 42.028 261.938 44.0518L263.555 45.2282C265.283 42.852 266.147 40.1447 266.147 37.14H264.147ZM261.931 44.0616C260.524 46.0462 258.409 47.493 255.5 48.3618L256.073 50.2782C259.324 49.307 261.85 47.6338 263.562 45.2184L261.931 44.0616ZM254.923 49.8235L264.643 66.5035L266.371 65.4965L256.651 48.8165L254.923 49.8235ZM265.507 65H253.927V67H265.507V65ZM242.707 43.84H249.067V41.84H242.707V43.84ZM249.067 43.84C251.093 43.84 252.796 43.3444 253.974 42.1671L252.559 40.7529C251.897 41.4156 250.8 41.84 249.067 41.84V43.84ZM253.958 42.182C255.164 41.0265 255.707 39.4365 255.707 37.56H253.707C253.707 39.0435 253.289 40.0535 252.575 40.738L253.958 42.182ZM255.707 37.56C255.707 35.7471 255.155 34.2043 253.958 33.058L252.575 34.502C253.299 35.1957 253.707 36.1729 253.707 37.56H255.707ZM253.974 33.0729C252.796 31.8956 251.093 31.4 249.067 31.4V33.4C250.8 33.4 251.897 33.8244 252.559 34.4871L253.974 33.0729ZM249.067 31.4H242.707V33.4H249.067V31.4ZM241.707 32.4V42.84H243.707V32.4H241.707ZM307.707 58.56L308.654 58.2392L308.424 57.56H307.707V58.56ZM291.987 58.56V57.56H291.27L291.04 58.2392L291.987 58.56ZM289.467 66V67H290.184L290.414 66.3208L289.467 66ZM278.727 66L277.787 65.6598L277.302 67H278.727V66ZM293.967 23.88V22.88H293.266L293.027 23.5398L293.967 23.88ZM305.847 23.88L306.788 23.5398L306.549 22.88H305.847V23.88ZM321.087 66V67H322.512L322.028 65.6598L321.087 66ZM310.227 66L309.28 66.3208L309.51 67H310.227V66ZM305.067 50.64V51.64H306.461L306.014 50.3194L305.067 50.64ZM299.847 35.22L300.794 34.8994L299.842 32.0851L298.899 34.9027L299.847 35.22ZM294.687 50.64L293.739 50.3227L293.298 51.64H294.687V50.64ZM307.707 57.56H291.987V59.56H307.707V57.56ZM291.04 58.2392L288.52 65.6792L290.414 66.3208L292.934 58.8808L291.04 58.2392ZM289.467 65H278.727V67H289.467V65ZM279.668 66.3402L294.908 24.2202L293.027 23.5398L277.787 65.6598L279.668 66.3402ZM293.967 24.88H305.847V22.88H293.967V24.88ZM304.907 24.2202L320.147 66.3402L322.028 65.6598L306.788 23.5398L304.907 24.2202ZM321.087 65H310.227V67H321.087V65ZM311.174 65.6792L308.654 58.2392L306.76 58.8808L309.28 66.3208L311.174 65.6792ZM306.014 50.3194L300.794 34.8994L298.9 35.5406L304.12 50.9606L306.014 50.3194ZM298.899 34.9027L293.739 50.3227L295.635 50.9573L300.796 35.5373L298.899 34.9027ZM294.687 51.64H305.067V49.64H294.687V51.64ZM365.925 23.88H366.925V22.88H365.925V23.88ZM365.925 32.1V33.1H366.925V32.1H365.925ZM354.765 32.1V31.1H353.765V32.1H354.765ZM354.765 66V67H355.765V66H354.765ZM344.505 66H343.505V67H344.505V66ZM344.505 32.1H345.505V31.1H344.505V32.1ZM333.345 32.1H332.345V33.1H333.345V32.1ZM333.345 23.88V22.88H332.345V23.88H333.345ZM364.925 23.88V32.1H366.925V23.88H364.925ZM365.925 31.1H354.765V33.1H365.925V31.1ZM353.765 32.1V66H355.765V32.1H353.765ZM354.765 65H344.505V67H354.765V65ZM345.505 66V32.1H343.505V66H345.505ZM344.505 31.1H333.345V33.1H344.505V31.1ZM334.345 32.1V23.88H332.345V32.1H334.345ZM333.345 24.88H365.925V22.88H333.345V24.88ZM387.935 64.92L387.555 65.8453L387.935 64.92ZM382.055 60.48L381.249 61.0721L381.257 61.0826L382.055 60.48ZM379.775 53.4V52.4H378.745L378.775 53.429L379.775 53.4ZM390.695 53.4L391.689 53.298L391.597 52.4H390.695V53.4ZM392.315 57L391.64 57.7385L391.649 57.7467L391.658 57.7546L392.315 57ZM399.515 57.18L400.126 57.9713L400.137 57.9628L400.148 57.954L399.515 57.18ZM399.755 51.66L399.048 52.3671L399.058 52.3772L399.068 52.387L399.755 51.66ZM397.175 49.98L396.772 50.8953L396.778 50.8982L396.785 50.901L397.175 49.98ZM392.855 48.48L392.56 49.4355L392.569 49.4384L392.855 48.48ZM381.755 42.24L382.552 41.6369L381.755 42.24ZM384.155 26.64L384.767 27.4306L384.774 27.4252L384.155 26.64ZM406.475 26.64L405.855 27.4252L405.862 27.4305L406.475 26.64ZM411.035 35.88V36.88H412.086L412.033 35.8296L411.035 35.88ZM399.935 35.88L398.936 35.9387L398.992 36.88H399.935V35.88ZM398.435 32.7L397.779 33.4546L397.788 33.4629L397.798 33.471L398.435 32.7ZM391.895 32.52L392.539 33.2849L392.55 33.2752L392.561 33.2652L391.895 32.52ZM392.675 38.52L393.185 37.6601L392.675 38.52ZM398.675 40.98L398.995 40.0326L398.982 40.0286L398.675 40.98ZM405.275 43.62L404.827 44.5145L404.836 44.5186L405.275 43.62ZM409.715 47.28L408.924 47.8926L409.715 47.28ZM409.715 60L408.87 59.4654L408.866 59.4716L408.862 59.4778L409.715 60ZM404.435 64.68L403.987 63.7856L404.435 64.68ZM396.215 65.42C393.243 65.42 390.615 64.9378 388.314 63.9947L387.555 65.8453C390.134 66.9022 393.026 67.42 396.215 67.42V65.42ZM388.314 63.9947C386.027 63.0575 384.217 61.6837 382.853 59.8774L381.257 61.0826C382.853 63.1964 384.962 64.7825 387.555 65.8453L388.314 63.9947ZM382.861 59.8879C381.557 58.1131 380.849 55.9565 380.774 53.371L378.775 53.429C378.86 56.3635 379.673 58.9269 381.249 61.0721L382.861 59.8879ZM379.775 54.4H390.695V52.4H379.775V54.4ZM389.7 53.502C389.878 55.2408 390.496 56.6933 391.64 57.7385L392.989 56.2615C392.294 55.6267 391.831 54.6792 391.689 53.298L389.7 53.502ZM391.658 57.7546C392.797 58.745 394.247 59.2 395.915 59.2V57.2C394.622 57.2 393.672 56.855 392.971 56.2454L391.658 57.7546ZM395.915 59.2C397.576 59.2 399.017 58.8286 400.126 57.9713L398.903 56.3887C398.253 56.8914 397.294 57.2 395.915 57.2V59.2ZM400.148 57.954C401.283 57.0253 401.835 55.749 401.835 54.24H399.835C399.835 55.211 399.506 55.8947 398.881 56.406L400.148 57.954ZM401.835 54.24C401.835 52.9404 401.372 51.8123 400.441 50.933L399.068 52.387C399.577 52.8677 399.835 53.4596 399.835 54.24H401.835ZM400.462 50.9529C399.676 50.1674 398.703 49.5406 397.564 49.059L396.785 50.901C397.727 51.2994 398.473 51.7926 399.048 52.3671L400.462 50.9529ZM397.577 49.0647C396.521 48.5997 395.034 48.0858 393.14 47.5216L392.569 49.4384C394.435 49.9942 395.829 50.4803 396.772 50.8953L397.577 49.0647ZM393.15 47.5245C390.458 46.6932 388.291 45.8707 386.634 45.0614L385.756 46.8586C387.539 47.7293 389.812 48.5868 392.56 49.4355L393.15 47.5245ZM386.634 45.0614C385.065 44.2954 383.705 43.1611 382.552 41.6369L380.957 42.8431C382.285 44.5989 383.884 45.9446 385.756 46.8586L386.634 45.0614ZM382.552 41.6369C381.477 40.2144 380.895 38.3046 380.895 35.82H378.895C378.895 38.6154 379.553 40.9856 380.957 42.8431L382.552 41.6369ZM380.895 35.82C380.895 32.1768 382.196 29.4221 384.767 27.4305L383.542 25.8494C380.433 28.2579 378.895 31.6232 378.895 35.82H380.895ZM384.774 27.4252C387.396 25.3572 390.86 24.28 395.255 24.28V22.28C390.53 22.28 386.594 23.4428 383.535 25.8548L384.774 27.4252ZM395.255 24.28C399.734 24.28 403.236 25.3595 405.855 27.4252L407.094 25.8548C404.033 23.4405 400.055 22.28 395.255 22.28V24.28ZM405.862 27.4305C408.446 29.4321 409.849 32.2277 410.036 35.9304L412.033 35.8296C411.82 31.6123 410.183 28.2479 407.087 25.8494L405.862 27.4305ZM411.035 34.88H399.935V36.88H411.035V34.88ZM400.933 35.8213C400.839 34.2272 400.237 32.8917 399.072 31.929L397.798 33.471C398.472 34.0283 398.87 34.8128 398.936 35.9387L400.933 35.8213ZM399.091 31.9454C397.957 30.9594 396.53 30.5 394.895 30.5V32.5C396.14 32.5 397.072 32.8406 397.779 33.4546L399.091 31.9454ZM394.895 30.5C393.464 30.5 392.209 30.897 391.228 31.7748L392.561 33.2652C393.1 32.783 393.845 32.5 394.895 32.5V30.5ZM391.251 31.7551C390.21 32.631 389.755 33.8846 389.755 35.34H391.755C391.755 34.3154 392.059 33.689 392.539 33.2849L391.251 31.7551ZM389.755 35.34C389.755 37.0914 390.615 38.4603 392.164 39.3799L393.185 37.6601C392.174 37.0597 391.755 36.3086 391.755 35.34H389.755ZM392.164 39.3799C393.542 40.1982 395.628 41.0454 398.367 41.9314L398.982 40.0286C396.281 39.1546 394.367 38.3618 393.185 37.6601L392.164 39.3799ZM398.354 41.9273C401.051 42.8394 403.204 43.7026 404.827 44.5144L405.722 42.7256C403.985 41.8574 401.738 40.9606 398.995 40.0327L398.354 41.9273ZM404.836 44.5186C406.41 45.2875 407.772 46.4064 408.924 47.8926L410.505 46.6674C409.177 44.9536 407.579 43.6325 405.714 42.7214L404.836 44.5186ZM408.924 47.8926C409.998 49.278 410.575 51.1064 410.575 53.46H412.575C412.575 50.7736 411.911 48.482 410.505 46.6674L408.924 47.8926ZM410.575 53.46C410.575 55.6777 410.005 57.6711 408.87 59.4654L410.56 60.5346C411.905 58.4089 412.575 56.0423 412.575 53.46H410.575ZM408.862 59.4778C407.772 61.2584 406.162 62.6982 403.987 63.7856L404.882 65.5744C407.347 64.3418 409.258 62.6616 410.568 60.5222L408.862 59.4778ZM403.987 63.7856C401.833 64.8626 399.253 65.42 396.215 65.42V67.42C399.497 67.42 402.396 66.8174 404.882 65.5744L403.987 63.7856ZM441.289 22.38L442.288 22.4217L442.331 21.38H441.289V22.38ZM440.089 51.12V52.12H441.048L441.088 51.1617L440.089 51.12ZM431.389 51.12L430.39 51.1617L430.43 52.12H431.389V51.12ZM430.189 22.38V21.38H429.146L429.19 22.4217L430.189 22.38ZM431.449 64.92L430.755 65.6398L430.768 65.6525L430.781 65.6646L431.449 64.92ZM431.449 56.94L430.767 56.2081L430.761 56.2141L430.755 56.2202L431.449 56.94ZM440.209 56.94L439.515 57.6598L439.521 57.6659L439.527 57.6719L440.209 56.94ZM440.209 64.92L440.889 65.6528L440.89 65.6519L440.209 64.92ZM440.29 22.3383L439.09 51.0783L441.088 51.1617L442.288 22.4217L440.29 22.3383ZM440.089 50.12H431.389V52.12H440.089V50.12ZM432.388 51.0783L431.188 22.3383L429.19 22.4217L430.39 51.1617L432.388 51.0783ZM430.189 23.38H441.289V21.38H430.189V23.38ZM435.889 65.48C434.294 65.48 433.065 65.0256 432.116 64.1754L430.781 65.6646C432.153 66.8944 433.883 67.48 435.889 67.48V65.48ZM432.143 64.2002C431.219 63.3092 430.769 62.2493 430.769 60.96H428.769C428.769 62.7907 429.439 64.3708 430.755 65.6398L432.143 64.2002ZM430.769 60.96C430.769 59.6229 431.224 58.5454 432.143 57.6598L430.755 56.2202C429.433 57.4946 428.769 59.0971 428.769 60.96H430.769ZM432.13 57.6719C433.08 56.7878 434.305 56.32 435.889 56.32V54.32C433.873 54.32 432.138 54.9322 430.767 56.2081L432.13 57.6719ZM435.889 56.32C437.427 56.32 438.606 56.7836 439.515 57.6598L440.903 56.2202C439.572 54.9364 437.871 54.32 435.889 54.32V56.32ZM439.527 57.6719C440.482 58.5607 440.949 59.6346 440.949 60.96H442.949C442.949 59.0854 442.256 57.4793 440.89 56.2081L439.527 57.6719ZM440.949 60.96C440.949 62.2374 440.488 63.2938 439.527 64.1881L440.89 65.6519C442.25 64.3862 442.949 62.8026 442.949 60.96H440.949ZM439.528 64.1872C438.621 65.0295 437.437 65.48 435.889 65.48V67.48C437.86 67.48 439.556 66.8905 440.889 65.6528L439.528 64.1872Z" fill="black" fill-opacity="0.5"/>
</g>
<defs>
<filter id="filter0_d_48_23" x="6.01953" y="281.92" width="496.328" height="84.3203" filterUnits="userSpaceOnUse" color-interpolation-filters="sRGB">
<feFlood flood-opacity="0" result="BackgroundImageFix"/>
<feColorMatrix in="SourceAlpha" type="matrix" values="0 0 0 0 0 0 0 0 0 0 0 0 0 0 0 0 0 0 127 0" result="hardAlpha"/>
<feOffset dx="18" dy="15"/>
<feGaussianBlur stdDeviation="12.5"/>
<feComposite in2="hardAlpha" operator="out"/>
<feColorMatrix type="matrix" values="0 0 0 0 0 0 0 0 0 0 0 0 0 0 0 0 0 0 0.57 0"/>
<feBlend mode="normal" in2="BackgroundImageFix" result="effect1_dropShadow_48_23"/>
<feBlend mode="normal" in="SourceGraphic" in2="effect1_dropShadow_48_23" result="shape"/>
</filter>
<filter id="filter1_i_48_23" x="284.391" y="139.715" width="107.219" height="99.855" filterUnits="userSpaceOnUse" color-interpolation-filters="sRGB">
<feFlood flood-opacity="0" result="BackgroundImageFix"/>
<feBlend mode="normal" in="SourceGraphic" in2="BackgroundImageFix" result="shape"/>
<feColorMatrix in="SourceAlpha" type="matrix" values="0 0 0 0 0 0 0 0 0 0 0 0 0 0 0 0 0 0 127 0" result="hardAlpha"/>
<feOffset dx="18" dy="15"/>
<feGaussianBlur stdDeviation="12.5"/>
<feComposite in2="hardAlpha" operator="arithmetic" k2="-1" k3="1"/>
<feColorMatrix type="matrix" values="0 0 0 0 0 0 0 0 0 0 0 0 0 0 0 0 0 0 0.57 0"/>
<feBlend mode="normal" in2="shape" result="effect1_innerShadow_48_23"/>
</filter>
<filter id="filter2_i_48_23" x="182.391" y="139.715" width="107.219" height="99.855" filterUnits="userSpaceOnUse" color-interpolation-filters="sRGB">
<feFlood flood-opacity="0" result="BackgroundImageFix"/>
<feBlend mode="normal" in="SourceGraphic" in2="BackgroundImageFix" result="shape"/>
<feColorMatrix in="SourceAlpha" type="matrix" values="0 0 0 0 0 0 0 0 0 0 0 0 0 0 0 0 0 0 127 0" result="hardAlpha"/>
<feOffset dx="18" dy="15"/>
<feGaussianBlur stdDeviation="12.5"/>
<feComposite in2="hardAlpha" operator="arithmetic" k2="-1" k3="1"/>
<feColorMatrix type="matrix" values="0 0 0 0 0 0 0 0 0 0 0 0 0 0 0 0 0 0 0.57 0"/>
<feBlend mode="normal" in2="shape" result="effect1_innerShadow_48_23"/>
</filter>
<filter id="filter3_i_48_23" x="80.3906" y="139.715" width="107.219" height="99.855" filterUnits="userSpaceOnUse" color-interpolation-filters="sRGB">
<feFlood flood-opacity="0" result="BackgroundImageFix"/>
<feBlend mode="normal" in="SourceGraphic" in2="BackgroundImageFix" result="shape"/>
<feColorMatrix in="SourceAlpha" type="matrix" values="0 0 0 0 0 0 0 0 0 0 0 0 0 0 0 0 0 0 127 0" result="hardAlpha"/>
<feOffset dx="18" dy="15"/>
<feGaussianBlur stdDeviation="12.5"/>
<feComposite in2="hardAlpha" operator="arithmetic" k2="-1" k3="1"/>
<feColorMatrix type="matrix" values="0 0 0 0 0 0 0 0 0 0 0 0 0 0 0 0 0 0 0.57 0"/>
<feBlend mode="normal" in2="shape" result="effect1_innerShadow_48_23"/>
</filter>
<filter id="filter4_d_48_23" x="0.414062" y="12.3799" width="484.535" height="94.1001" filterUnits="userSpaceOnUse" color-interpolation-filters="sRGB">
<feFlood flood-opacity="0" result="BackgroundImageFix"/>
<feColorMatrix in="SourceAlpha" type="matrix" values="0 0 0 0 0 0 0 0 0 0 0 0 0 0 0 0 0 0 127 0" result="hardAlpha"/>
<feOffset dx="18" dy="15"/>
<feGaussianBlur stdDeviation="12.5"/>
<feComposite in2="hardAlpha" operator="out"/>
<feColorMatrix type="matrix" values="0 0 0 0 0 0 0 0 0 0 0 0 0 0 0 0 0 0 0.57 0"/>
<feBlend mode="normal" in2="BackgroundImageFix" result="effect1_dropShadow_48_23"/>
<feBlend mode="normal" in="SourceGraphic" in2="effect1_dropShadow_48_23" result="shape"/>
</filter>
<linearGradient id="paint0_linear_48_23" x1="21.763" y1="275.838" x2="152.111" y2="511.129" gradientUnits="userSpaceOnUse">
<stop stop-color="#FB37FF"/>
<stop offset="0.421875" stop-color="#9B6FEE"/>
<stop offset="0.682292" stop-color="#18B2DE"/>
<stop offset="1" stop-color="#7B7FEA" stop-opacity="0"/>
</linearGradient>
<linearGradient id="paint1_linear_48_23" x1="286.048" y1="142.988" x2="388.253" y2="171.62" gradientUnits="userSpaceOnUse">
<stop stop-color="#3A81BF"/>
<stop offset="1" stop-color="#41305A" stop-opacity="0.03"/>
</linearGradient>
<linearGradient id="paint2_linear_48_23" x1="286.347" y1="143.548" x2="388.622" y2="173.021" gradientUnits="userSpaceOnUse">
<stop stop-color="#FB37FF"/>
<stop offset="0.425065" stop-color="#9B6FEE"/>
<stop offset="0.519704" stop-color="#7B7FEA" stop-opacity="0"/>
<stop offset="1" stop-color="#18B2DE"/>
</linearGradient>
<linearGradient id="paint3_linear_48_23" x1="184.048" y1="142.988" x2="286.253" y2="171.62" gradientUnits="userSpaceOnUse">
<stop stop-color="#3A81BF"/>
<stop offset="1" stop-color="#41305A" stop-opacity="0.03"/>
</linearGradient>
<linearGradient id="paint4_linear_48_23" x1="184.347" y1="143.548" x2="286.622" y2="173.021" gradientUnits="userSpaceOnUse">
<stop stop-color="#FB37FF"/>
<stop offset="0.425065" stop-color="#9B6FEE"/>
<stop offset="0.519704" stop-color="#7B7FEA" stop-opacity="0"/>
<stop offset="1" stop-color="#18B2DE"/>
</linearGradient>
<linearGradient id="paint5_linear_48_23" x1="82.0477" y1="142.988" x2="184.253" y2="171.62" gradientUnits="userSpaceOnUse">
<stop stop-color="#3A81BF"/>
<stop offset="1" stop-color="#41305A" stop-opacity="0.03"/>
</linearGradient>
<linearGradient id="paint6_linear_48_23" x1="82.3474" y1="143.548" x2="184.622" y2="173.021" gradientUnits="userSpaceOnUse">
<stop stop-color="#FB37FF"/>
<stop offset="0.425065" stop-color="#9B6FEE"/>
<stop offset="0.519704" stop-color="#7B7FEA" stop-opacity="0"/>
<stop offset="1" stop-color="#18B2DE"/>
</linearGradient>
<linearGradient id="paint7_linear_48_23" x1="16.5544" y1="3.54772" x2="197.569" y2="260.311" gradientUnits="userSpaceOnUse">
<stop stop-color="#FB37FF"/>
<stop offset="0.421875" stop-color="#9B6FEE"/>
<stop offset="0.682292" stop-color="#18B2DE"/>
<stop offset="1" stop-color="#7B7FEA" stop-opacity="0"/>
</linearGradient>
</defs>
</svg>
