<svg width="268" height="122" viewBox="0 0 268 122" fill="none" xmlns="http://www.w3.org/2000/svg">
<g filter="url(#filter0_d_1_191)">
<path d="M57.1223 33C55.8556 30.6667 54.0223 28.9 51.6223 27.7C49.2889 26.4333 46.5223 25.8 43.3223 25.8C37.7889 25.8 33.3556 27.6333 30.0223 31.3C26.6889 34.9 25.0223 39.7333 25.0223 45.8C25.0223 52.2667 26.7556 57.3333 30.2223 61C33.7556 64.6 38.5889 66.4 44.7223 66.4C48.9223 66.4 52.4556 65.3333 55.3223 63.2C58.2556 61.0667 60.3889 58 61.7223 54H40.0223V41.4H77.2223V57.3C75.9556 61.5667 73.7889 65.5333 70.7223 69.2C67.7223 72.8667 63.8889 75.8333 59.2223 78.1C54.5556 80.3667 49.2889 81.5 43.4223 81.5C36.4889 81.5 30.2889 80 24.8223 77C19.4223 73.9333 15.1889 69.7 12.1223 64.3C9.12227 58.9 7.62227 52.7333 7.62227 45.8C7.62227 38.8667 9.12227 32.7 12.1223 27.3C15.1889 21.8333 19.4223 17.6 24.8223 14.6C30.2223 11.5333 36.3889 10 43.3223 10C51.7223 10 58.7889 12.0333 64.5223 16.1C70.3223 20.1667 74.1556 25.8 76.0223 33H57.1223ZM120.294 24.5V38.7H143.194V51.9H120.294V67.3H146.194V81H103.194V10.8H146.194V24.5H120.294ZM224.296 10.8V24.5H205.696V81H188.596V24.5H169.996V10.8H224.296Z" fill="url(#paint0_linear_1_191)" shape-rendering="crispEdges"/>
<path d="M57.1223 33L56.2434 33.4771L56.5273 34H57.1223V33ZM51.6223 27.7L51.1452 28.5788L51.16 28.5869L51.1751 28.5944L51.6223 27.7ZM30.0223 31.3L30.7561 31.9794L30.7622 31.9727L30.0223 31.3ZM30.2223 61L29.4956 61.687L29.502 61.6938L29.5086 61.7005L30.2223 61ZM55.3223 63.2L54.7341 62.3912L54.7253 62.3978L55.3223 63.2ZM61.7223 54L62.6709 54.3162L63.1097 53H61.7223V54ZM40.0223 54H39.0223V55H40.0223V54ZM40.0223 41.4V40.4H39.0223V41.4H40.0223ZM77.2223 41.4H78.2223V40.4H77.2223V41.4ZM77.2223 57.3L78.1809 57.5846L78.2223 57.4453V57.3H77.2223ZM70.7223 69.2L69.9551 68.5584L69.9483 68.5668L70.7223 69.2ZM59.2223 78.1L58.7854 77.2005L59.2223 78.1ZM24.8223 77L24.3284 77.8696L24.3348 77.8732L24.3412 77.8767L24.8223 77ZM12.1223 64.3L11.2481 64.7857L11.2527 64.7938L12.1223 64.3ZM12.1223 27.3L11.2501 26.8107L11.2481 26.8144L12.1223 27.3ZM24.8223 14.6L25.3079 15.4742L25.3161 15.4696L24.8223 14.6ZM64.5223 16.1L63.9437 16.9157L63.9482 16.9188L64.5223 16.1ZM76.0223 33V34H77.3146L76.9903 32.749L76.0223 33ZM58.0011 32.5229C56.6356 30.0075 54.6506 28.0961 52.0695 26.8056L51.1751 28.5944C53.3939 29.7039 55.0756 31.3258 56.2434 33.4771L58.0011 32.5229ZM52.0994 26.8211C49.5923 25.4602 46.6549 24.8 43.3223 24.8V26.8C46.3896 26.8 48.9855 27.4065 51.1452 28.5788L52.0994 26.8211ZM43.3223 24.8C37.5437 24.8 32.8284 26.7266 29.2823 30.6273L30.7622 31.9727C33.8828 28.54 38.0342 26.8 43.3223 26.8V24.8ZM29.2885 30.6206C25.7459 34.4466 24.0223 39.5438 24.0223 45.8H26.0223C26.0223 39.9228 27.632 35.3533 30.756 31.9794L29.2885 30.6206ZM24.0223 45.8C24.0223 52.4475 25.808 57.7867 29.4956 61.687L30.9489 60.313C27.7032 56.88 26.0223 52.0859 26.0223 45.8H24.0223ZM29.5086 61.7005C33.2693 65.5322 38.3824 67.4 44.7223 67.4V65.4C38.7954 65.4 34.2419 63.6678 30.9359 60.2995L29.5086 61.7005ZM44.7223 67.4C49.0984 67.4 52.8512 66.2855 55.9193 64.0022L54.7253 62.3978C52.06 64.3812 48.7462 65.4 44.7223 65.4V67.4ZM55.9104 64.0087C59.0386 61.7337 61.2828 58.4808 62.6709 54.3162L60.7736 53.6838C59.4951 57.5192 57.4726 60.3996 54.7341 62.3913L55.9104 64.0087ZM61.7223 53H40.0223V55H61.7223V53ZM41.0223 54V41.4H39.0223V54H41.0223ZM40.0223 42.4H77.2223V40.4H40.0223V42.4ZM76.2223 41.4V57.3H78.2223V41.4H76.2223ZM76.2636 57.0154C75.0386 61.1418 72.9409 64.9886 69.9552 68.5584L71.4893 69.8416C74.637 66.0781 76.8726 61.9915 78.1809 57.5846L76.2636 57.0154ZM69.9483 68.5668C67.0485 72.111 63.3343 74.991 58.7854 77.2005L59.6592 78.9995C64.4436 76.6756 68.3961 73.6223 71.4962 69.8332L69.9483 68.5668ZM58.7854 77.2005C54.2717 79.3928 49.1575 80.5 43.4223 80.5V82.5C49.4204 82.5 54.8395 81.3405 59.6592 78.9995L58.7854 77.2005ZM43.4223 80.5C36.6379 80.5 30.6066 79.0337 25.3034 76.1233L24.3412 77.8767C29.9712 80.9663 36.3399 82.5 43.4223 82.5V80.5ZM25.3161 76.1304C20.0729 73.1528 15.9694 69.0493 12.9918 63.8062L11.2527 64.7938C14.4084 70.3507 18.7716 74.7138 24.3284 77.8696L25.3161 76.1304ZM12.9964 63.8144C10.0887 58.5804 8.62227 52.5846 8.62227 45.8H6.62227C6.62227 52.8821 8.15587 59.2196 11.2481 64.7856L12.9964 63.8144ZM8.62227 45.8C8.62227 39.0154 10.0887 33.0196 12.9964 27.7856L11.2481 26.8144C8.15587 32.3804 6.62227 38.7179 6.62227 45.8H8.62227ZM12.9944 27.7892C15.9718 22.4817 20.0724 18.3828 25.3079 15.4742L24.3366 13.7258C18.7721 16.8172 14.4061 21.1849 11.2501 26.8107L12.9944 27.7892ZM25.3161 15.4696C30.5486 12.498 36.5415 11 43.3223 11V9C36.2364 9 29.8959 10.5686 24.3284 13.7304L25.3161 15.4696ZM43.3223 11C51.5563 11 58.4103 12.9908 63.9437 16.9156L65.1008 15.2843C59.1675 11.0759 51.8882 9 43.3223 9V11ZM63.9482 16.9188C69.5432 20.8418 73.244 26.2685 75.0543 33.251L76.9903 32.749C75.0672 25.3315 71.1013 19.4916 65.0964 15.2812L63.9482 16.9188ZM76.0223 32H57.1223V34H76.0223V32ZM120.294 24.5V23.5H119.294V24.5H120.294ZM120.294 38.7H119.294V39.7H120.294V38.7ZM143.194 38.7H144.194V37.7H143.194V38.7ZM143.194 51.9V52.9H144.194V51.9H143.194ZM120.294 51.9V50.9H119.294V51.9H120.294ZM120.294 67.3H119.294V68.3H120.294V67.3ZM146.194 67.3H147.194V66.3H146.194V67.3ZM146.194 81V82H147.194V81H146.194ZM103.194 81H102.194V82H103.194V81ZM103.194 10.8V9.8H102.194V10.8H103.194ZM146.194 10.8H147.194V9.8H146.194V10.8ZM146.194 24.5V25.5H147.194V24.5H146.194ZM119.294 24.5V38.7H121.294V24.5H119.294ZM120.294 39.7H143.194V37.7H120.294V39.7ZM142.194 38.7V51.9H144.194V38.7H142.194ZM143.194 50.9H120.294V52.9H143.194V50.9ZM119.294 51.9V67.3H121.294V51.9H119.294ZM120.294 68.3H146.194V66.3H120.294V68.3ZM145.194 67.3V81H147.194V67.3H145.194ZM146.194 80H103.194V82H146.194V80ZM104.194 81V10.8H102.194V81H104.194ZM103.194 11.8H146.194V9.8H103.194V11.8ZM145.194 10.8V24.5H147.194V10.8H145.194ZM146.194 23.5H120.294V25.5H146.194V23.5ZM224.296 10.8H225.296V9.8H224.296V10.8ZM224.296 24.5V25.5H225.296V24.5H224.296ZM205.696 24.5V23.5H204.696V24.5H205.696ZM205.696 81V82H206.696V81H205.696ZM188.596 81H187.596V82H188.596V81ZM188.596 24.5H189.596V23.5H188.596V24.5ZM169.996 24.5H168.996V25.5H169.996V24.5ZM169.996 10.8V9.8H168.996V10.8H169.996ZM223.296 10.8V24.5H225.296V10.8H223.296ZM224.296 23.5H205.696V25.5H224.296V23.5ZM204.696 24.5V81H206.696V24.5H204.696ZM205.696 80H188.596V82H205.696V80ZM189.596 81V24.5H187.596V81H189.596ZM188.596 23.5H169.996V25.5H188.596V23.5ZM170.996 24.5V10.8H168.996V24.5H170.996ZM169.996 11.8H224.296V9.8H169.996V11.8Z" fill="black" fill-opacity="0.5"/>
</g>
<defs>
<filter id="filter0_d_1_191" x="0.62207" y="0" width="266.674" height="121.5" filterUnits="userSpaceOnUse" color-interpolation-filters="sRGB">
<feFlood flood-opacity="0" result="BackgroundImageFix"/>
<feColorMatrix in="SourceAlpha" type="matrix" values="0 0 0 0 0 0 0 0 0 0 0 0 0 0 0 0 0 0 127 0" result="hardAlpha"/>
<feOffset dx="18" dy="15"/>
<feGaussianBlur stdDeviation="12.5"/>
<feComposite in2="hardAlpha" operator="out"/>
<feColorMatrix type="matrix" values="0 0 0 0 0 0 0 0 0 0 0 0 0 0 0 0 0 0 0.57 0"/>
<feBlend mode="normal" in2="BackgroundImageFix" result="effect1_dropShadow_1_191"/>
<feBlend mode="normal" in="SourceGraphic" in2="effect1_dropShadow_1_191" result="shape"/>
</filter>
<linearGradient id="paint0_linear_1_191" x1="9.81632" y1="-23.0871" x2="241.712" y2="76.2618" gradientUnits="userSpaceOnUse">
<stop stop-color="#FB37FF"/>
<stop offset="0.421875" stop-color="#9B6FEE"/>
<stop offset="0.682292" stop-color="#18B2DE"/>
<stop offset="1" stop-color="#7B7FEA" stop-opacity="0"/>
</linearGradient>
</defs>
</svg>
