<svg width="265" height="124" viewBox="0 0 265 124" fill="none" xmlns="http://www.w3.org/2000/svg">
<g filter="url(#filter0_d_1_295)">
<path d="M56.8273 35C55.5607 32.6667 53.7273 30.9 51.3273 29.7C48.994 28.4333 46.2273 27.8 43.0273 27.8C37.494 27.8 33.0607 29.6333 29.7273 33.3C26.394 36.9 24.7273 41.7333 24.7273 47.8C24.7273 54.2667 26.4607 59.3333 29.9273 63C33.4607 66.6 38.294 68.4 44.4273 68.4C48.6273 68.4 52.1607 67.3333 55.0273 65.2C57.9607 63.0667 60.094 60 61.4273 56H39.7273V43.4H76.9273V59.3C75.6607 63.5667 73.494 67.5333 70.4273 71.2C67.4273 74.8667 63.594 77.8333 58.9273 80.1C54.2607 82.3667 48.994 83.5 43.1273 83.5C36.194 83.5 29.994 82 24.5273 79C19.1273 75.9333 14.894 71.7 11.8273 66.3C8.82734 60.9 7.32734 54.7333 7.32734 47.8C7.32734 40.8667 8.82734 34.7 11.8273 29.3C14.894 23.8333 19.1273 19.6 24.5273 16.6C29.9273 13.5333 36.094 12 43.0273 12C51.4273 12 58.494 14.0333 64.2273 18.1C70.0273 22.1667 73.8607 27.8 75.7273 35H56.8273ZM136.099 83.7C129.499 83.7 123.433 82.1667 117.899 79.1C112.433 76.0333 108.066 71.7667 104.799 66.3C101.599 60.7667 99.9992 54.5667 99.9992 47.7C99.9992 40.8333 101.599 34.6667 104.799 29.2C108.066 23.7333 112.433 19.4667 117.899 16.4C123.433 13.3333 129.499 11.8 136.099 11.8C142.699 11.8 148.733 13.3333 154.199 16.4C159.733 19.4667 164.066 23.7333 167.199 29.2C170.399 34.6667 171.999 40.8333 171.999 47.7C171.999 54.5667 170.399 60.7667 167.199 66.3C163.999 71.7667 159.666 76.0333 154.199 79.1C148.733 82.1667 142.699 83.7 136.099 83.7ZM136.099 68.1C141.699 68.1 146.166 66.2333 149.499 62.5C152.899 58.7667 154.599 53.8333 154.599 47.7C154.599 41.5 152.899 36.5667 149.499 32.9C146.166 29.1667 141.699 27.3 136.099 27.3C130.433 27.3 125.899 29.1333 122.499 32.8C119.166 36.4667 117.499 41.4333 117.499 47.7C117.499 53.9 119.166 58.8667 122.499 62.6C125.899 66.2667 130.433 68.1 136.099 68.1ZM220.513 10.3L218.513 58.2H204.013L202.013 10.3H220.513ZM211.513 83.8C208.513 83.8 206.046 82.9333 204.113 81.2C202.246 79.4 201.313 77.2 201.313 74.6C201.313 71.9333 202.246 69.7 204.113 67.9C206.046 66.1 208.513 65.2 211.513 65.2C214.446 65.2 216.846 66.1 218.713 67.9C220.646 69.7 221.613 71.9333 221.613 74.6C221.613 77.2 220.646 79.4 218.713 81.2C216.846 82.9333 214.446 83.8 211.513 83.8Z" fill="url(#paint0_linear_1_295)" shape-rendering="crispEdges"/>
<path d="M56.8273 35L55.9485 35.4771L56.2324 36H56.8273V35ZM51.3273 29.7L50.8503 30.5788L50.8651 30.5869L50.8801 30.5944L51.3273 29.7ZM29.7273 33.3L30.4611 33.9794L30.4673 33.9727L29.7273 33.3ZM29.9273 63L29.2007 63.687L29.2071 63.6938L29.2137 63.7005L29.9273 63ZM55.0273 65.2L54.4391 64.3912L54.4303 64.3978L55.0273 65.2ZM61.4273 56L62.376 56.3162L62.8148 55H61.4273V56ZM39.7273 56H38.7273V57H39.7273V56ZM39.7273 43.4V42.4H38.7273V43.4H39.7273ZM76.9273 43.4H77.9273V42.4H76.9273V43.4ZM76.9273 59.3L77.886 59.5846L77.9273 59.4453V59.3H76.9273ZM70.4273 71.2L69.6602 70.5584L69.6534 70.5668L70.4273 71.2ZM58.9273 80.1L58.4904 79.2005L58.9273 80.1ZM24.5273 79L24.0335 79.8696L24.0399 79.8732L24.0462 79.8767L24.5273 79ZM11.8273 66.3L10.9531 66.7857L10.9578 66.7938L11.8273 66.3ZM11.8273 29.3L10.9552 28.8107L10.9532 28.8144L11.8273 29.3ZM24.5273 16.6L25.013 17.4742L25.0212 17.4696L24.5273 16.6ZM64.2273 18.1L63.6488 18.9157L63.6533 18.9188L64.2273 18.1ZM75.7273 35V36H77.0197L76.6953 34.749L75.7273 35ZM57.7062 34.5229C56.3407 32.0075 54.3557 30.0961 51.7746 28.8056L50.8801 30.5944C53.099 31.7039 54.7807 33.3258 55.9485 35.4771L57.7062 34.5229ZM51.8044 28.8211C49.2974 27.4602 46.36 26.8 43.0273 26.8V28.8C46.0947 28.8 48.6906 29.4065 50.8503 30.5788L51.8044 28.8211ZM43.0273 26.8C37.2488 26.8 32.5335 28.7266 28.9874 32.6273L30.4673 33.9727C33.5879 30.54 37.7392 28.8 43.0273 28.8V26.8ZM28.9936 32.6206C25.4509 36.4466 23.7273 41.5438 23.7273 47.8H25.7273C25.7273 41.9228 27.3371 37.3533 30.4611 33.9794L28.9936 32.6206ZM23.7273 47.8C23.7273 54.4475 25.5131 59.7867 29.2007 63.687L30.654 62.313C27.4082 58.88 25.7273 54.0859 25.7273 47.8H23.7273ZM29.2137 63.7005C32.9744 67.5322 38.0875 69.4 44.4273 69.4V67.4C38.5005 67.4 33.9469 65.6678 30.641 62.2995L29.2137 63.7005ZM44.4273 69.4C48.8034 69.4 52.5563 68.2855 55.6244 66.0022L54.4303 64.3978C51.7651 66.3812 48.4513 67.4 44.4273 67.4V69.4ZM55.6155 66.0087C58.7436 63.7337 60.9878 60.4808 62.376 56.3162L60.4787 55.6838C59.2002 59.5192 57.1777 62.3996 54.4392 64.3913L55.6155 66.0087ZM61.4273 55H39.7273V57H61.4273V55ZM40.7273 56V43.4H38.7273V56H40.7273ZM39.7273 44.4H76.9273V42.4H39.7273V44.4ZM75.9273 43.4V59.3H77.9273V43.4H75.9273ZM75.9687 59.0154C74.7437 63.1418 72.646 66.9886 69.6603 70.5584L71.1944 71.8416C74.3421 68.0781 76.5777 63.9915 77.886 59.5846L75.9687 59.0154ZM69.6534 70.5668C66.7536 74.111 63.0393 76.991 58.4904 79.2005L59.3643 80.9995C64.1487 78.6756 68.1011 75.6223 71.2013 71.8332L69.6534 70.5668ZM58.4904 79.2005C53.9768 81.3928 48.8626 82.5 43.1273 82.5V84.5C49.1255 84.5 54.5446 83.3405 59.3643 80.9995L58.4904 79.2005ZM43.1273 82.5C36.343 82.5 30.3117 81.0337 25.0084 78.1233L24.0462 79.8767C29.6763 82.9663 36.045 84.5 43.1273 84.5V82.5ZM25.0212 78.1304C19.778 75.1528 15.6745 71.0493 12.6969 65.8062L10.9578 66.7938C14.1135 72.3507 18.4767 76.7138 24.0335 79.8696L25.0212 78.1304ZM12.7015 65.8144C9.79374 60.5804 8.32734 54.5846 8.32734 47.8H6.32734C6.32734 54.8821 7.86095 61.2196 10.9532 66.7856L12.7015 65.8144ZM8.32734 47.8C8.32734 41.0154 9.79374 35.0196 12.7015 29.7856L10.9532 28.8144C7.86095 34.3804 6.32734 40.7179 6.32734 47.8H8.32734ZM12.6995 29.7892C15.6769 24.4817 19.7775 20.3828 25.013 17.4742L24.0417 15.7258C18.4772 18.8172 14.1111 23.1849 10.9552 28.8107L12.6995 29.7892ZM25.0212 17.4696C30.2537 14.498 36.2465 13 43.0273 13V11C35.9415 11 29.601 12.5686 24.0335 15.7304L25.0212 17.4696ZM43.0273 13C51.2614 13 58.1154 14.9908 63.6488 18.9156L64.8059 17.2843C58.8726 13.0759 51.5933 11 43.0273 11V13ZM63.6533 18.9188C69.2483 22.8418 72.9491 28.2685 74.7593 35.251L76.6953 34.749C74.7723 27.3315 70.8064 21.4916 64.8014 17.2812L63.6533 18.9188ZM75.7273 34H56.8273V36H75.7273V34ZM117.899 79.1L117.41 79.9722L117.414 79.9747L117.899 79.1ZM104.799 66.3L103.934 66.8006L103.937 66.8068L103.941 66.813L104.799 66.3ZM104.799 29.2L103.941 28.687L103.936 28.6948L104.799 29.2ZM117.899 16.4L117.414 15.5253L117.41 15.5279L117.899 16.4ZM154.199 16.4L153.71 17.2722L153.714 17.2747L154.199 16.4ZM167.199 29.2L166.332 29.6973L166.336 29.7052L167.199 29.2ZM167.199 66.3L168.062 66.8052L168.065 66.8006L167.199 66.3ZM154.199 79.1L154.688 79.9721L154.199 79.1ZM149.499 62.5L148.76 61.8266L148.753 61.834L149.499 62.5ZM149.499 32.9L148.753 33.566L148.76 33.573L148.766 33.5799L149.499 32.9ZM122.499 32.8L121.766 32.12L121.759 32.1273L122.499 32.8ZM122.499 62.6L121.753 63.266L121.76 63.273L121.766 63.2799L122.499 62.6ZM136.099 82.7C129.661 82.7 123.762 81.2062 118.384 78.2253L117.414 79.9747C123.103 83.1272 129.337 84.7 136.099 84.7V82.7ZM118.388 78.2279C113.077 75.2481 108.836 71.1063 105.658 65.787L103.941 66.813C107.296 72.427 111.788 76.8186 117.41 79.9721L118.388 78.2279ZM105.665 65.7994C102.559 60.4295 100.999 54.4044 100.999 47.7H98.9992C98.9992 54.729 100.639 61.1039 103.934 66.8006L105.665 65.7994ZM100.999 47.7C100.999 40.9955 102.559 35.0058 105.662 29.7052L103.936 28.6948C100.639 34.3275 98.9992 40.6712 98.9992 47.7H100.999ZM105.658 29.713C108.836 24.3937 113.077 20.2519 118.388 17.2721L117.41 15.5279C111.788 18.6814 107.296 23.073 103.941 28.687L105.658 29.713ZM118.384 17.2747C123.762 14.2938 129.661 12.8 136.099 12.8V10.8C129.337 10.8 123.103 12.3728 117.414 15.5253L118.384 17.2747ZM136.099 12.8C142.537 12.8 148.401 14.2938 153.71 17.2721L154.688 15.5279C149.064 12.3729 142.861 10.8 136.099 10.8V12.8ZM153.714 17.2747C159.089 20.2532 163.289 24.3897 166.332 29.6973L168.067 28.7027C164.842 23.077 160.376 18.6801 154.684 15.5253L153.714 17.2747ZM166.336 29.7052C169.439 35.0058 170.999 40.9955 170.999 47.7H172.999C172.999 40.6712 171.359 34.3275 168.062 28.6948L166.336 29.7052ZM170.999 47.7C170.999 54.4044 169.439 60.4295 166.334 65.7994L168.065 66.8006C171.359 61.1039 172.999 54.729 172.999 47.7H170.999ZM166.336 65.7948C163.225 71.1098 159.02 75.2491 153.71 78.2279L154.688 79.9721C160.312 76.8176 164.773 72.4235 168.062 66.8052L166.336 65.7948ZM153.71 78.2279C148.401 81.2062 142.537 82.7 136.099 82.7V84.7C142.861 84.7 149.064 83.1271 154.688 79.9721L153.71 78.2279ZM136.099 69.1C141.946 69.1 146.698 67.1384 150.245 63.166L148.753 61.834C145.633 65.3282 141.452 67.1 136.099 67.1V69.1ZM150.239 63.1733C153.841 59.2181 155.599 54.0262 155.599 47.7H153.599C153.599 53.6405 151.958 58.3152 148.76 61.8267L150.239 63.1733ZM155.599 47.7C155.599 41.3112 153.843 36.1134 150.232 32.2201L148.766 33.5799C151.956 37.02 153.599 41.6888 153.599 47.7H155.599ZM150.245 32.234C146.698 28.2616 141.946 26.3 136.099 26.3V28.3C141.452 28.3 145.633 30.0718 148.753 33.566L150.245 32.234ZM136.099 26.3C130.195 26.3 125.381 28.2211 121.766 32.1201L123.232 33.4799C126.417 30.0455 130.67 28.3 136.099 28.3V26.3ZM121.759 32.1273C118.218 36.023 116.499 41.2528 116.499 47.7H118.499C118.499 41.6138 120.114 36.9103 123.239 33.4727L121.759 32.1273ZM116.499 47.7C116.499 54.0846 118.22 59.3085 121.753 63.266L123.245 61.934C120.112 58.4249 118.499 53.7154 118.499 47.7H116.499ZM121.766 63.2799C125.381 67.1788 130.195 69.1 136.099 69.1V67.1C130.67 67.1 126.417 65.3545 123.232 61.9201L121.766 63.2799ZM220.512 10.3L221.512 10.3417L221.555 9.3H220.512V10.3ZM218.512 58.2V59.2H219.472L219.512 58.2417L218.512 58.2ZM204.012 58.2L203.013 58.2417L203.053 59.2H204.012V58.2ZM202.012 10.3V9.3H200.97L201.013 10.3417L202.012 10.3ZM204.113 81.2L203.418 81.9198L203.431 81.9324L203.445 81.9446L204.113 81.2ZM204.113 67.9L203.431 67.1681L203.425 67.1741L203.418 67.1802L204.113 67.9ZM218.713 67.9L218.018 68.6198L218.025 68.6259L218.031 68.6319L218.713 67.9ZM218.713 81.2L219.393 81.9328L219.394 81.9319L218.713 81.2ZM219.513 10.2583L217.513 58.1583L219.512 58.2417L221.512 10.3417L219.513 10.2583ZM218.512 57.2H204.012V59.2H218.512V57.2ZM205.012 58.1583L203.012 10.2583L201.013 10.3417L203.013 58.2417L205.012 58.1583ZM202.012 11.3H220.512V9.3H202.012V11.3ZM211.512 82.8C208.718 82.8 206.502 81.999 204.78 80.4554L203.445 81.9446C205.59 83.8677 208.307 84.8 211.512 84.8V82.8ZM204.807 80.4802C203.136 78.8692 202.312 76.9293 202.312 74.6H200.312C200.312 77.4707 201.356 79.9308 203.418 81.9198L204.807 80.4802ZM202.312 74.6C202.312 72.1962 203.142 70.2254 204.807 68.6198L203.418 67.1802C201.35 69.1746 200.312 71.6705 200.312 74.6H202.312ZM204.794 68.6319C206.517 67.0278 208.728 66.2 211.512 66.2V64.2C208.297 64.2 205.575 65.1722 203.431 67.1681L204.794 68.6319ZM211.512 66.2C214.224 66.2 216.363 67.0236 218.018 68.6198L219.407 67.1802C217.329 65.1764 214.668 64.2 211.512 64.2V66.2ZM218.031 68.6319C219.759 70.2407 220.613 72.2079 220.613 74.6H222.613C222.613 71.6587 221.533 69.1593 219.394 67.1681L218.031 68.6319ZM220.613 74.6C220.613 76.9174 219.765 78.8538 218.031 80.4681L219.394 81.9319C221.527 79.9462 222.613 77.4826 222.613 74.6H220.613ZM218.032 80.4672C216.378 82.0028 214.234 82.8 211.512 82.8V84.8C214.657 84.8 217.313 83.8639 219.393 81.9328L218.032 80.4672Z" fill="black" fill-opacity="0.5"/>
</g>
<defs>
<filter id="filter0_d_1_295" x="0.327148" y="0.300049" width="264.285" height="123.5" filterUnits="userSpaceOnUse" color-interpolation-filters="sRGB">
<feFlood flood-opacity="0" result="BackgroundImageFix"/>
<feColorMatrix in="SourceAlpha" type="matrix" values="0 0 0 0 0 0 0 0 0 0 0 0 0 0 0 0 0 0 127 0" result="hardAlpha"/>
<feOffset dx="18" dy="15"/>
<feGaussianBlur stdDeviation="12.5"/>
<feComposite in2="hardAlpha" operator="out"/>
<feColorMatrix type="matrix" values="0 0 0 0 0 0 0 0 0 0 0 0 0 0 0 0 0 0 0.57 0"/>
<feBlend mode="normal" in2="BackgroundImageFix" result="effect1_dropShadow_1_295"/>
<feBlend mode="normal" in="SourceGraphic" in2="effect1_dropShadow_1_295" result="shape"/>
</filter>
<linearGradient id="paint0_linear_1_295" x1="9.92065" y1="-21.0871" x2="244.658" y2="81.2832" gradientUnits="userSpaceOnUse">
<stop stop-color="#FB37FF"/>
<stop offset="0.421875" stop-color="#9B6FEE"/>
<stop offset="0.682292" stop-color="#18B2DE"/>
<stop offset="1" stop-color="#7B7FEA" stop-opacity="0"/>
</linearGradient>
</defs>
</svg>
