<svg width="247" height="247" viewBox="0 0 247 247" fill="none" xmlns="http://www.w3.org/2000/svg">
<g filter="url(#filter0_i_34_57)">
<circle cx="123.5" cy="123.5" r="123.5" transform="rotate(180 123.5 123.5)" fill="url(#paint0_linear_34_57)"/>
</g>
<circle cx="123.5" cy="123.5" r="121" transform="rotate(180 123.5 123.5)" stroke="url(#paint1_linear_34_57)" stroke-width="5"/>
<g filter="url(#filter1_i_34_57)">
<path d="M129.234 168.86C126.154 169.14 123.448 169.28 121.114 169.28C118.874 169.28 116.868 169.093 115.094 168.72C113.788 161.813 113.134 156.307 113.134 152.2C113.134 148 113.181 143.753 113.274 139.46L88.4943 138.9C88.121 137.127 87.9343 135.213 87.9343 133.16C87.9343 131.107 88.0743 129.007 88.3543 126.86C95.6343 125.553 101.888 124.9 107.114 124.9H113.554L114.114 97.32C115.888 96.9467 117.894 96.76 120.134 96.76C122.468 96.76 125.174 96.9 128.254 97.18C129.468 103.993 130.074 109.967 130.074 115.1V125.32L155.554 125.88C155.928 127.653 156.114 129.613 156.114 131.76C156.114 133.813 155.974 135.82 155.694 137.78C148.414 139.18 143.094 139.88 139.734 139.88C136.374 139.88 133.014 139.833 129.654 139.74L129.234 168.86Z" fill="url(#paint2_linear_34_57)"/>
</g>
<path d="M129.234 168.86L129.687 173.839L134.169 173.432L134.234 168.932L129.234 168.86ZM115.094 168.72L110.181 169.649L110.801 172.926L114.064 173.613L115.094 168.72ZM113.274 139.46L118.273 139.569L118.382 134.574L113.387 134.461L113.274 139.46ZM88.4943 138.9L83.6015 139.93L84.4182 143.809L88.3813 143.899L88.4943 138.9ZM88.3543 126.86L87.471 121.939L83.8695 122.585L83.3963 126.213L88.3543 126.86ZM113.554 124.9V129.9H118.454L118.553 125.001L113.554 124.9ZM114.114 97.32L113.084 92.4272L109.196 93.2458L109.115 97.2185L114.114 97.32ZM128.254 97.18L133.177 96.3034L132.508 92.5461L128.707 92.2005L128.254 97.18ZM130.074 125.32H125.074V130.211L129.964 130.319L130.074 125.32ZM155.554 125.88L160.447 124.85L159.63 120.968L155.664 120.881L155.554 125.88ZM155.694 137.78L156.639 142.69L160.14 142.017L160.644 138.487L155.694 137.78ZM129.654 139.74L129.793 134.742L124.728 134.601L124.655 139.668L129.654 139.74ZM128.782 163.881C125.807 164.151 123.257 164.28 121.114 164.28V174.28C123.638 174.28 126.502 174.129 129.687 173.839L128.782 163.881ZM121.114 164.28C119.143 164.28 117.491 164.115 116.124 163.827L114.064 173.613C116.245 174.072 118.606 174.28 121.114 174.28V164.28ZM120.007 167.791C118.724 161.007 118.134 155.852 118.134 152.2H108.134C108.134 156.762 108.851 162.619 110.181 169.649L120.007 167.791ZM118.134 152.2C118.134 148.037 118.181 143.827 118.273 139.569L108.275 139.351C108.181 143.68 108.134 147.963 108.134 152.2H118.134ZM113.387 134.461L88.6073 133.901L88.3813 143.899L113.161 144.459L113.387 134.461ZM93.387 137.87C93.0937 136.477 92.9343 134.912 92.9343 133.16H82.9343C82.9343 135.515 83.1482 137.777 83.6015 139.93L93.387 137.87ZM92.9343 133.16C92.9343 131.334 93.0588 129.45 93.3123 127.507L83.3963 126.213C83.0898 128.563 82.9343 130.879 82.9343 133.16H92.9343ZM89.2376 131.781C96.3356 130.507 102.277 129.9 107.114 129.9V119.9C101.498 119.9 94.933 120.599 87.471 121.939L89.2376 131.781ZM107.114 129.9H113.554V119.9H107.114V129.9ZM118.553 125.001L119.113 97.4215L109.115 97.2185L108.555 124.798L118.553 125.001ZM115.144 102.213C116.511 101.925 118.163 101.76 120.134 101.76V91.76C117.626 91.76 115.265 91.9682 113.084 92.4272L115.144 102.213ZM120.134 101.76C122.277 101.76 124.827 101.889 127.802 102.159L128.707 92.2005C125.522 91.911 122.658 91.76 120.134 91.76V101.76ZM123.332 98.0566C124.51 104.673 125.074 110.342 125.074 115.1H135.074C135.074 109.592 134.425 103.313 133.177 96.3034L123.332 98.0566ZM125.074 115.1V125.32H135.074V115.1H125.074ZM129.964 130.319L155.444 130.879L155.664 120.881L130.184 120.321L129.964 130.319ZM150.662 126.91C150.952 128.289 151.114 129.898 151.114 131.76H161.114C161.114 129.329 160.903 127.017 160.447 124.85L150.662 126.91ZM151.114 131.76C151.114 133.585 150.99 135.356 150.745 137.073L160.644 138.487C160.959 136.284 161.114 134.041 161.114 131.76H151.114ZM154.75 132.87C147.501 134.264 142.583 134.88 139.734 134.88V144.88C143.606 144.88 149.327 144.096 156.639 142.69L154.75 132.87ZM139.734 134.88C136.421 134.88 133.107 134.834 129.793 134.742L129.515 144.738C132.922 144.833 136.328 144.88 139.734 144.88V134.88ZM124.655 139.668L124.235 168.788L134.234 168.932L134.654 139.812L124.655 139.668Z" fill="url(#paint3_linear_34_57)"/>
<defs>
<filter id="filter0_i_34_57" x="0" y="0" width="265" height="262" filterUnits="userSpaceOnUse" color-interpolation-filters="sRGB">
<feFlood flood-opacity="0" result="BackgroundImageFix"/>
<feBlend mode="normal" in="SourceGraphic" in2="BackgroundImageFix" result="shape"/>
<feColorMatrix in="SourceAlpha" type="matrix" values="0 0 0 0 0 0 0 0 0 0 0 0 0 0 0 0 0 0 127 0" result="hardAlpha"/>
<feOffset dx="18" dy="15"/>
<feGaussianBlur stdDeviation="12.5"/>
<feComposite in2="hardAlpha" operator="arithmetic" k2="-1" k3="1"/>
<feColorMatrix type="matrix" values="0 0 0 0 0 0 0 0 0 0 0 0 0 0 0 0 0 0 0.57 0"/>
<feBlend mode="normal" in2="shape" result="effect1_innerShadow_34_57"/>
</filter>
<filter id="filter1_i_34_57" x="87.9375" y="96.7598" width="86.1797" height="87.52" filterUnits="userSpaceOnUse" color-interpolation-filters="sRGB">
<feFlood flood-opacity="0" result="BackgroundImageFix"/>
<feBlend mode="normal" in="SourceGraphic" in2="BackgroundImageFix" result="shape"/>
<feColorMatrix in="SourceAlpha" type="matrix" values="0 0 0 0 0 0 0 0 0 0 0 0 0 0 0 0 0 0 127 0" result="hardAlpha"/>
<feOffset dx="18" dy="15"/>
<feGaussianBlur stdDeviation="12.5"/>
<feComposite in2="hardAlpha" operator="arithmetic" k2="-1" k3="1"/>
<feColorMatrix type="matrix" values="0 0 0 0 0 0 0 0 0 0 0 0 0 0 0 0 0 0 0.57 0"/>
<feBlend mode="normal" in2="shape" result="effect1_innerShadow_34_57"/>
</filter>
<linearGradient id="paint0_linear_34_57" x1="5.61987" y1="8.19917" x2="286.116" y2="86.7784" gradientUnits="userSpaceOnUse">
<stop offset="0.265076" stop-color="#42FF00"/>
<stop offset="1" stop-color="#04F31C" stop-opacity="0.03"/>
</linearGradient>
<linearGradient id="paint1_linear_34_57" x1="6.44229" y1="9.73651" x2="287.129" y2="90.6237" gradientUnits="userSpaceOnUse">
<stop stop-color="#FB37FF"/>
<stop offset="0.425065" stop-color="#9B6FEE"/>
<stop offset="0.519704" stop-color="#7B7FEA" stop-opacity="0"/>
<stop offset="1" stop-color="#18B2DE"/>
</linearGradient>
<linearGradient id="paint2_linear_34_57" x1="85.6837" y1="34.0415" x2="175.153" y2="44.2325" gradientUnits="userSpaceOnUse">
<stop stop-color="#3A81BF"/>
<stop offset="1" stop-color="#41305A" stop-opacity="0.03"/>
</linearGradient>
<linearGradient id="paint3_linear_34_57" x1="85.9301" y1="35.1743" x2="175.773" y2="45.7011" gradientUnits="userSpaceOnUse">
<stop stop-color="#FB37FF"/>
<stop offset="0.425065" stop-color="#9B6FEE"/>
<stop offset="0.519704" stop-color="#7B7FEA" stop-opacity="0"/>
<stop offset="1" stop-color="#18B2DE"/>
</linearGradient>
</defs>
</svg>
