<svg width="486" height="108" viewBox="0 0 486 108" fill="none" xmlns="http://www.w3.org/2000/svg">
<g filter="url(#filter0_d_1_49)">
<path d="M21.6337 56.44H39.5537V67H7.95374V10.84H21.6337V56.44ZM85.8387 67.56C80.5587 67.56 75.7054 66.3333 71.2787 63.88C66.9054 61.4267 63.4121 58.0133 60.7987 53.64C58.2387 49.2133 56.9587 44.2533 56.9587 38.76C56.9587 33.2667 58.2387 28.3333 60.7987 23.96C63.4121 19.5867 66.9054 16.1733 71.2787 13.72C75.7054 11.2667 80.5587 10.04 85.8387 10.04C91.1187 10.04 95.9454 11.2667 100.319 13.72C104.745 16.1733 108.212 19.5867 110.719 23.96C113.279 28.3333 114.559 33.2667 114.559 38.76C114.559 44.2533 113.279 49.2133 110.719 53.64C108.159 58.0133 104.692 61.4267 100.319 63.88C95.9454 66.3333 91.1187 67.56 85.8387 67.56ZM85.8387 55.08C90.3187 55.08 93.8921 53.5867 96.5587 50.6C99.2787 47.6133 100.639 43.6667 100.639 38.76C100.639 33.8 99.2787 29.8533 96.5587 26.92C93.8921 23.9333 90.3187 22.44 85.8387 22.44C81.3054 22.44 77.6787 23.9067 74.9587 26.84C72.2921 29.7733 70.9587 33.7467 70.9587 38.76C70.9587 43.72 72.2921 47.6933 74.9587 50.68C77.6787 53.6133 81.3054 55.08 85.8387 55.08ZM170.329 57.08H149.369L146.009 67H131.689L152.009 10.84H167.849L188.169 67H173.689L170.329 57.08ZM166.809 46.52L159.849 25.96L152.969 46.52H166.809ZM228.594 10.84C234.514 10.84 239.687 12.0133 244.114 14.36C248.54 16.7067 251.954 20.0133 254.354 24.28C256.807 28.4933 258.034 33.3733 258.034 38.92C258.034 44.4133 256.807 49.2933 254.354 53.56C251.954 57.8267 248.514 61.1333 244.034 63.48C239.607 65.8267 234.46 67 228.594 67H207.554V10.84H228.594ZM227.714 55.16C232.887 55.16 236.914 53.7467 239.794 50.92C242.674 48.0933 244.114 44.0933 244.114 38.92C244.114 33.7467 242.674 29.72 239.794 26.84C236.914 23.96 232.887 22.52 227.714 22.52H221.234V55.16H227.714ZM292.559 10.84V67H278.879V10.84H292.559ZM365.912 67H352.232L329.352 32.36V67H315.672V10.84H329.352L352.232 45.64V10.84H365.912V67ZM426.309 28.6C425.295 26.7333 423.829 25.32 421.909 24.36C420.042 23.3467 417.829 22.84 415.269 22.84C410.842 22.84 407.295 24.3067 404.629 27.24C401.962 30.12 400.629 33.9867 400.629 38.84C400.629 44.0133 402.015 48.0667 404.789 51C407.615 53.88 411.482 55.32 416.389 55.32C419.749 55.32 422.575 54.4667 424.869 52.76C427.215 51.0533 428.922 48.6 429.989 45.4H412.629V35.32H442.389V48.04C441.375 51.4533 439.642 54.6267 437.189 57.56C434.789 60.4933 431.722 62.8667 427.989 64.68C424.255 66.4933 420.042 67.4 415.349 67.4C409.802 67.4 404.842 66.2 400.469 63.8C396.149 61.3467 392.762 57.96 390.309 53.64C387.909 49.32 386.709 44.3867 386.709 38.84C386.709 33.2933 387.909 28.36 390.309 24.04C392.762 19.6667 396.149 16.28 400.469 13.88C404.789 11.4267 409.722 10.2 415.269 10.2C421.989 10.2 427.642 11.8267 432.229 15.08C436.869 18.3333 439.935 22.84 441.429 28.6H426.309Z" fill="url(#paint0_linear_1_49)" shape-rendering="crispEdges"/>
<path d="M21.6337 56.44H20.6337V57.44H21.6337V56.44ZM39.5537 56.44H40.5537V55.44H39.5537V56.44ZM39.5537 67V68H40.5537V67H39.5537ZM7.95375 67H6.95375V68H7.95375V67ZM7.95375 10.84V9.84H6.95375V10.84H7.95375ZM21.6337 10.84H22.6337V9.84H21.6337V10.84ZM21.6337 57.44H39.5537V55.44H21.6337V57.44ZM38.5537 56.44V67H40.5537V56.44H38.5537ZM39.5537 66H7.95375V68H39.5537V66ZM8.95375 67V10.84H6.95375V67H8.95375ZM7.95375 11.84H21.6337V9.84H7.95375V11.84ZM20.6337 10.84V56.44H22.6337V10.84H20.6337ZM71.2787 63.88L70.7895 64.7522L70.794 64.7547L71.2787 63.88ZM60.7987 53.64L59.9331 54.1406L59.9367 54.1468L59.9403 54.153L60.7987 53.64ZM60.7987 23.96L59.9403 23.447L59.9357 23.4548L60.7987 23.96ZM71.2787 13.72L70.794 12.8453L70.7895 12.8479L71.2787 13.72ZM100.319 13.72L99.8295 14.5922L99.834 14.5947L100.319 13.72ZM110.719 23.96L109.851 24.4573L109.856 24.4652L110.719 23.96ZM110.719 53.64L111.582 54.1452L111.584 54.1406L110.719 53.64ZM100.319 63.88L100.808 64.7521L100.319 63.88ZM96.5587 50.6L95.8194 49.9266L95.8128 49.934L96.5587 50.6ZM96.5587 26.92L95.8128 27.586L95.8191 27.593L95.8255 27.5999L96.5587 26.92ZM74.9587 26.84L74.2254 26.16L74.2188 26.1673L74.9587 26.84ZM74.9587 50.68L74.2128 51.346L74.2191 51.353L74.2255 51.3599L74.9587 50.68ZM85.8387 66.56C80.7207 66.56 76.0353 65.3728 71.7635 63.0053L70.794 64.7547C75.3755 67.2938 80.3968 68.56 85.8387 68.56V66.56ZM71.768 63.0079C67.5495 60.6414 64.1824 57.353 61.6572 53.127L59.9403 54.153C62.6417 58.6737 66.2613 62.2119 70.7895 64.7521L71.768 63.0079ZM61.6644 53.1394C59.1989 48.8762 57.9587 44.091 57.9587 38.76H55.9587C55.9587 44.4156 57.2785 49.5505 59.9331 54.1406L61.6644 53.1394ZM57.9587 38.76C57.9587 33.4288 59.1989 28.6725 61.6618 24.4652L59.9357 23.4548C57.2785 27.9942 55.9587 33.1045 55.9587 38.76H57.9587ZM61.6572 24.473C64.1824 20.247 67.5495 16.9586 71.768 14.5921L70.7895 12.8479C66.2613 15.3881 62.6417 18.9263 59.9403 23.447L61.6572 24.473ZM71.7635 14.5947C76.0353 12.2271 80.7207 11.04 85.8387 11.04V9.04C80.3968 9.04 75.3755 10.3062 70.794 12.8453L71.7635 14.5947ZM85.8387 11.04C90.9568 11.04 95.6136 12.2271 99.8295 14.5921L100.808 12.8479C96.2772 10.3062 91.2807 9.04 85.8387 9.04V11.04ZM99.834 14.5947C104.102 16.9599 107.436 20.243 109.851 24.4573L111.586 23.4627C108.989 18.9303 105.389 15.3868 100.803 12.8453L99.834 14.5947ZM109.856 24.4652C112.319 28.6725 113.559 33.4288 113.559 38.76H115.559C115.559 33.1045 114.239 27.9942 111.582 23.4548L109.856 24.4652ZM113.559 38.76C113.559 44.091 112.319 48.8762 109.853 53.1394L111.584 54.1406C114.239 49.5505 115.559 44.4156 115.559 38.76H113.559ZM109.856 53.1348C107.385 57.3565 104.046 60.6424 99.8295 63.0079L100.808 64.7521C105.338 62.2109 108.933 58.6702 111.582 54.1452L109.856 53.1348ZM99.8295 63.0079C95.6136 65.3729 90.9568 66.56 85.8387 66.56V68.56C91.2807 68.56 96.2772 67.2938 100.808 64.7521L99.8295 63.0079ZM85.8387 56.08C90.5659 56.08 94.4245 54.4918 97.3047 51.266L95.8128 49.934C93.3596 52.6816 90.0716 54.08 85.8387 54.08V56.08ZM97.2981 51.2733C100.22 48.0648 101.639 43.8595 101.639 38.76H99.6387C99.6387 43.4738 98.3374 47.1619 95.8194 49.9267L97.2981 51.2733ZM101.639 38.76C101.639 33.6112 100.222 29.4 97.292 26.2401L95.8255 27.5999C98.3353 30.3066 99.6387 33.9888 99.6387 38.76H101.639ZM97.3047 26.254C94.4245 23.0282 90.5659 21.44 85.8387 21.44V23.44C90.0716 23.44 93.3596 24.8384 95.8128 27.586L97.3047 26.254ZM85.8387 21.44C81.068 21.44 77.1608 22.9945 74.2255 26.1601L75.692 27.5199C78.1967 24.8188 81.5428 23.44 85.8387 23.44V21.44ZM74.2188 26.1673C71.3439 29.3297 69.9587 33.5662 69.9587 38.76H71.9587C71.9587 33.9272 73.2402 30.217 75.6987 27.5127L74.2188 26.1673ZM69.9587 38.76C69.9587 43.9046 71.3459 48.1351 74.2128 51.346L75.7047 50.014C73.2382 47.2515 71.9587 43.5354 71.9587 38.76H69.9587ZM74.2255 51.3599C77.1608 54.5255 81.068 56.08 85.8387 56.08V54.08C81.5428 54.08 78.1967 52.7012 75.692 50.0001L74.2255 51.3599ZM170.329 57.08L171.277 56.7592L171.046 56.08H170.329V57.08ZM149.369 57.08V56.08H148.652L148.422 56.7592L149.369 57.08ZM146.009 67V68H146.726L146.957 67.3208L146.009 67ZM131.689 67L130.749 66.6598L130.264 68H131.689V67ZM152.009 10.84V9.84H151.308L151.069 10.4998L152.009 10.84ZM167.849 10.84L168.79 10.4998L168.551 9.84H167.849V10.84ZM188.169 67V68H189.595L189.11 66.6598L188.169 67ZM173.689 67L172.742 67.3208L172.972 68H173.689V67ZM166.809 46.52V47.52H168.204L167.757 46.1993L166.809 46.52ZM159.849 25.96L160.797 25.6394L159.844 22.8251L158.901 25.6427L159.849 25.96ZM152.969 46.52L152.021 46.2027L151.58 47.52H152.969V46.52ZM170.329 56.08H149.369V58.08H170.329V56.08ZM148.422 56.7592L145.062 66.6792L146.957 67.3208L150.316 57.4008L148.422 56.7592ZM146.009 66H131.689V68H146.009V66ZM132.63 67.3402L152.95 11.1802L151.069 10.4998L130.749 66.6598L132.63 67.3402ZM152.009 11.84H167.849V9.84H152.009V11.84ZM166.909 11.1802L187.229 67.3402L189.11 66.6598L168.79 10.4998L166.909 11.1802ZM188.169 66H173.689V68H188.169V66ZM174.637 66.6792L171.277 56.7592L169.382 57.4008L172.742 67.3208L174.637 66.6792ZM167.757 46.1993L160.797 25.6394L158.902 26.2806L165.862 46.8406L167.757 46.1993ZM158.901 25.6427L152.021 46.2027L153.918 46.8373L160.798 26.2773L158.901 25.6427ZM152.969 47.52H166.809V45.52H152.969V47.52ZM244.114 14.36L244.582 13.4765L244.114 14.36ZM254.354 24.28L253.482 24.7703L253.486 24.7767L253.49 24.7832L254.354 24.28ZM254.354 53.56L253.487 53.0615L253.482 53.0697L254.354 53.56ZM244.034 63.48L243.57 62.5942L243.565 62.5965L244.034 63.48ZM207.554 67H206.554V68H207.554V67ZM207.554 10.84V9.84H206.554V10.84H207.554ZM221.234 22.52V21.52H220.234V22.52H221.234ZM221.234 55.16H220.234V56.16H221.234V55.16ZM228.594 11.84C234.38 11.84 239.387 12.9861 243.645 15.2435L244.582 13.4765C239.987 11.0406 234.647 9.84 228.594 9.84V11.84ZM243.645 15.2435C247.907 17.5027 251.178 20.6747 253.482 24.7703L255.225 23.7897C252.729 19.352 249.174 15.9107 244.582 13.4765L243.645 15.2435ZM253.49 24.7832C255.842 28.8237 257.034 33.5253 257.034 38.92H259.034C259.034 33.2213 257.772 28.163 255.218 23.7768L253.49 24.7832ZM257.034 38.92C257.034 44.2592 255.843 48.9636 253.487 53.0615L255.221 54.0585C257.771 49.6231 259.034 44.5675 259.034 38.92H257.034ZM253.482 53.0697C251.18 57.1621 247.884 60.3341 243.57 62.5942L244.498 64.3658C249.143 61.9326 252.727 58.4912 255.225 54.0503L253.482 53.0697ZM243.565 62.5965C239.306 64.8546 234.325 66 228.594 66V68C234.596 68 239.908 66.7988 244.502 64.3635L243.565 62.5965ZM228.594 66H207.554V68H228.594V66ZM208.554 67V10.84H206.554V67H208.554ZM207.554 11.84H228.594V9.84H207.554V11.84ZM227.714 56.16C233.072 56.16 237.379 54.6916 240.494 51.6337L239.093 50.2063C236.449 52.8017 232.702 54.16 227.714 54.16V56.16ZM240.494 51.6337C243.616 48.5697 245.114 44.2823 245.114 38.92H243.114C243.114 43.9044 241.732 47.6169 239.093 50.2063L240.494 51.6337ZM245.114 38.92C245.114 33.5567 243.616 29.2477 240.501 26.1329L239.087 27.5471C241.732 30.1923 243.114 33.9366 243.114 38.92H245.114ZM240.501 26.1329C237.386 23.0181 233.077 21.52 227.714 21.52V23.52C232.697 23.52 236.441 24.9019 239.087 27.5471L240.501 26.1329ZM227.714 21.52H221.234V23.52H227.714V21.52ZM220.234 22.52V55.16H222.234V22.52H220.234ZM221.234 56.16H227.714V54.16H221.234V56.16ZM292.559 10.84H293.559V9.84H292.559V10.84ZM292.559 67V68H293.559V67H292.559ZM278.879 67H277.879V68H278.879V67ZM278.879 10.84V9.84H277.879V10.84H278.879ZM291.559 10.84V67H293.559V10.84H291.559ZM292.559 66H278.879V68H292.559V66ZM279.879 67V10.84H277.879V67H279.879ZM278.879 11.84H292.559V9.84H278.879V11.84ZM365.913 67V68H366.913V67H365.913ZM352.232 67L351.398 67.5511L351.695 68H352.232V67ZM329.353 32.36L330.187 31.8089L328.353 29.0316V32.36H329.353ZM329.353 67V68H330.353V67H329.353ZM315.672 67H314.672V68H315.672V67ZM315.672 10.84V9.84H314.672V10.84H315.672ZM329.353 10.84L330.188 10.2906L329.892 9.84H329.353V10.84ZM352.232 45.64L351.397 46.1894L353.232 48.9812V45.64H352.232ZM352.232 10.84V9.84H351.232V10.84H352.232ZM365.913 10.84H366.913V9.84H365.913V10.84ZM365.913 66H352.232V68H365.913V66ZM353.067 66.4489L330.187 31.8089L328.518 32.9111L351.398 67.5511L353.067 66.4489ZM328.353 32.36V67H330.353V32.36H328.353ZM329.353 66H315.672V68H329.353V66ZM316.672 67V10.84H314.672V67H316.672ZM315.672 11.84H329.353V9.84H315.672V11.84ZM328.517 11.3894L351.397 46.1894L353.068 45.0906L330.188 10.2906L328.517 11.3894ZM353.232 45.64V10.84H351.232V45.64H353.232ZM352.232 11.84H365.913V9.84H352.232V11.84ZM364.913 10.84V67H366.913V10.84H364.913ZM426.309 28.6L425.43 29.0771L425.714 29.6H426.309V28.6ZM421.909 24.36L421.432 25.2388L421.446 25.2469L421.461 25.2544L421.909 24.36ZM404.629 27.24L405.362 27.9194L405.369 27.9127L404.629 27.24ZM404.789 51L404.062 51.687L404.068 51.6938L404.075 51.7005L404.789 51ZM424.869 52.76L424.281 51.9512L424.272 51.9578L424.869 52.76ZM429.989 45.4L430.937 45.7162L431.376 44.4H429.989V45.4ZM412.629 45.4H411.629V46.4H412.629V45.4ZM412.629 35.32V34.32H411.629V35.32H412.629ZM442.389 35.32H443.389V34.32H442.389V35.32ZM442.389 48.04L443.347 48.3246L443.389 48.1853V48.04H442.389ZM437.189 57.56L436.422 56.9184L436.415 56.9268L437.189 57.56ZM427.989 64.68L427.552 63.7805L427.989 64.68ZM400.469 63.8L399.975 64.6696L399.981 64.6732L399.988 64.6767L400.469 63.8ZM390.309 53.64L389.435 54.1257L389.439 54.1338L390.309 53.64ZM390.309 24.04L389.437 23.5507L389.435 23.5544L390.309 24.04ZM400.469 13.88L400.954 14.7542L400.963 14.7496L400.469 13.88ZM432.229 15.08L431.65 15.8957L431.655 15.8988L432.229 15.08ZM441.429 28.6V29.6H442.721L442.397 28.349L441.429 28.6ZM427.188 28.1229C426.075 26.0742 424.457 24.5161 422.356 23.4656L421.461 25.2544C423.2 26.1239 424.515 27.3925 425.43 29.0771L427.188 28.1229ZM422.386 23.4811C420.345 22.3735 417.961 21.84 415.269 21.84V23.84C417.696 23.84 419.739 24.3198 421.432 25.2388L422.386 23.4811ZM415.269 21.84C410.597 21.84 406.768 23.4 403.889 26.5673L405.369 27.9127C407.823 25.2134 411.087 23.84 415.269 23.84V21.84ZM403.895 26.5606C401.019 29.6666 399.629 33.7972 399.629 38.84H401.629C401.629 34.1762 402.905 30.5733 405.362 27.9194L403.895 26.5606ZM399.629 38.84C399.629 44.1941 401.068 48.52 404.062 51.687L405.515 50.313C402.963 47.6133 401.629 43.8325 401.629 38.84H399.629ZM404.075 51.7005C407.129 54.8122 411.276 56.32 416.389 56.32V54.32C411.689 54.32 408.102 52.9478 405.502 50.2995L404.075 51.7005ZM416.389 56.32C419.925 56.32 422.971 55.4188 425.466 53.5622L424.272 51.9578C422.18 53.5145 419.573 54.32 416.389 54.32V56.32ZM425.457 53.5687C427.998 51.7204 429.816 49.0808 430.937 45.7162L429.04 45.0838C428.028 48.1192 426.432 50.3863 424.281 51.9513L425.457 53.5687ZM429.989 44.4H412.629V46.4H429.989V44.4ZM413.629 45.4V35.32H411.629V45.4H413.629ZM412.629 36.32H442.389V34.32H412.629V36.32ZM441.389 35.32V48.04H443.389V35.32H441.389ZM441.43 47.7554C440.458 51.0285 438.794 54.0819 436.422 56.9184L437.956 58.2016C440.49 55.1714 442.292 51.8782 443.347 48.3246L441.43 47.7554ZM436.415 56.9268C434.115 59.7377 431.167 62.0244 427.552 63.7805L428.426 65.5795C432.277 63.709 435.463 61.249 437.963 58.1932L436.415 56.9268ZM427.552 63.7805C423.971 65.5195 419.911 66.4 415.349 66.4V68.4C420.174 68.4 424.539 67.4672 428.426 65.5795L427.552 63.7805ZM415.349 66.4C409.951 66.4 405.16 65.2337 400.95 62.9233L399.988 64.6767C404.524 67.1663 409.653 68.4 415.349 68.4V66.4ZM400.963 62.9304C396.799 60.5662 393.543 57.3093 391.178 53.1462L389.439 54.1338C391.982 58.6107 395.498 62.1272 399.975 64.6696L400.963 62.9304ZM391.183 53.1544C388.875 49.0004 387.709 44.2379 387.709 38.84H385.709C385.709 44.5354 386.942 49.6396 389.435 54.1256L391.183 53.1544ZM387.709 38.84C387.709 33.4421 388.875 28.6796 391.183 24.5256L389.435 23.5544C386.942 28.0404 385.709 33.1446 385.709 38.84H387.709ZM391.181 24.5293C393.545 20.315 396.799 17.0628 400.954 14.7542L399.983 13.0058C395.499 15.4972 391.979 19.0183 389.437 23.5508L391.181 24.5293ZM400.963 14.7496C405.115 12.3913 409.875 11.2 415.269 11.2V9.2C409.57 9.2 404.462 10.462 399.975 13.0104L400.963 14.7496ZM415.269 11.2C421.823 11.2 427.263 12.7841 431.65 15.8956L432.807 14.2643C428.021 10.8692 422.155 9.2 415.269 9.2V11.2ZM431.655 15.8988C436.09 19.0084 439.024 23.3085 440.461 28.851L442.397 28.349C440.847 22.3715 437.648 17.6582 432.803 14.2612L431.655 15.8988ZM441.429 27.6H426.309V29.6H441.429V27.6Z" fill="black" fill-opacity="0.5"/>
</g>
<defs>
<filter id="filter0_d_1_49" x="0.953857" y="0.0400391" width="484.435" height="107.52" filterUnits="userSpaceOnUse" color-interpolation-filters="sRGB">
<feFlood flood-opacity="0" result="BackgroundImageFix"/>
<feColorMatrix in="SourceAlpha" type="matrix" values="0 0 0 0 0 0 0 0 0 0 0 0 0 0 0 0 0 0 127 0" result="hardAlpha"/>
<feOffset dx="18" dy="15"/>
<feGaussianBlur stdDeviation="12.5"/>
<feComposite in2="hardAlpha" operator="out"/>
<feColorMatrix type="matrix" values="0 0 0 0 0 0 0 0 0 0 0 0 0 0 0 0 0 0 0.57 0"/>
<feBlend mode="normal" in2="BackgroundImageFix" result="effect1_dropShadow_1_49"/>
<feBlend mode="normal" in="SourceGraphic" in2="effect1_dropShadow_1_49" result="shape"/>
</filter>
<linearGradient id="paint0_linear_1_49" x1="-116.273" y1="-16.2697" x2="106.147" y2="367.238" gradientUnits="userSpaceOnUse">
<stop stop-color="#FB37FF"/>
<stop offset="0.421875" stop-color="#9B6FEE"/>
<stop offset="0.682292" stop-color="#18B2DE"/>
<stop offset="1" stop-color="#7B7FEA" stop-opacity="0"/>
</linearGradient>
</defs>
</svg>
