<svg width="530" height="108" viewBox="0 0 530 108" fill="none" xmlns="http://www.w3.org/2000/svg">
<g filter="url(#filter0_d_1_20)">
<path d="M57.4313 67H43.7513L20.8712 32.36V67H7.19125V10.84H20.8712L43.7513 45.64V10.84H57.4313V67ZM94.2275 21.8V33.16H112.547V43.72H94.2275V56.04H114.947V67H80.5475V10.84H114.947V21.8H94.2275ZM174.309 28.6C173.295 26.7333 171.829 25.32 169.909 24.36C168.042 23.3467 165.829 22.84 163.269 22.84C158.842 22.84 155.295 24.3067 152.629 27.24C149.962 30.12 148.629 33.9867 148.629 38.84C148.629 44.0133 150.015 48.0667 152.789 51C155.615 53.88 159.482 55.32 164.389 55.32C167.749 55.32 170.575 54.4667 172.869 52.76C175.215 51.0533 176.922 48.6 177.989 45.4H160.629V35.32H190.389V48.04C189.375 51.4533 187.642 54.6267 185.189 57.56C182.789 60.4933 179.722 62.8667 175.989 64.68C172.255 66.4933 168.042 67.4 163.349 67.4C157.802 67.4 152.842 66.2 148.469 63.8C144.149 61.3467 140.762 57.96 138.309 53.64C135.909 49.32 134.709 44.3867 134.709 38.84C134.709 33.2933 135.909 28.36 138.309 24.04C140.762 19.6667 144.149 16.28 148.469 13.88C152.789 11.4267 157.722 10.2 163.269 10.2C169.989 10.2 175.642 11.8267 180.229 15.08C184.869 18.3333 187.935 22.84 189.429 28.6H174.309ZM246.126 57.08H225.166L221.806 67H207.486L227.806 10.84H243.646L263.966 67H249.486L246.126 57.08ZM242.606 46.52L235.646 25.96L228.766 46.52H242.606ZM323.751 10.84V21.8H308.871V67H295.191V21.8H280.311V10.84H323.751ZM357.496 10.84V67H343.816V10.84H357.496ZM433.33 10.84L413.41 67H396.29L376.37 10.84H390.93L404.85 53.24L418.85 10.84H433.33ZM465.927 21.8V33.16H484.247V43.72H465.927V56.04H486.647V67H452.247V10.84H486.647V21.8H465.927Z" fill="url(#paint0_linear_1_20)" shape-rendering="crispEdges"/>
<path d="M57.4313 67V68H58.4313V67H57.4313ZM43.7513 67L42.9168 67.5511L43.2133 68H43.7513V67ZM20.8712 32.36L21.7057 31.8089L19.8712 29.0316V32.36H20.8712ZM20.8712 67V68H21.8712V67H20.8712ZM7.19125 67H6.19125V68H7.19125V67ZM7.19125 10.84V9.84H6.19125V10.84H7.19125ZM20.8712 10.84L21.7068 10.2906L21.4106 9.84H20.8712V10.84ZM43.7513 45.64L42.9157 46.1894L44.7513 48.9812V45.64H43.7513ZM43.7513 10.84V9.84H42.7513V10.84H43.7513ZM57.4313 10.84H58.4313V9.84H57.4313V10.84ZM57.4313 66H43.7513V68H57.4313V66ZM44.5857 66.4489L21.7057 31.8089L20.0368 32.9111L42.9168 67.5511L44.5857 66.4489ZM19.8712 32.36V67H21.8712V32.36H19.8712ZM20.8712 66H7.19125V68H20.8712V66ZM8.19125 67V10.84H6.19125V67H8.19125ZM7.19125 11.84H20.8712V9.84H7.19125V11.84ZM20.0357 11.3894L42.9157 46.1894L44.5868 45.0906L21.7068 10.2906L20.0357 11.3894ZM44.7513 45.64V10.84H42.7513V45.64H44.7513ZM43.7513 11.84H57.4313V9.84H43.7513V11.84ZM56.4313 10.84V67H58.4313V10.84H56.4313ZM94.2275 21.8V20.8H93.2275V21.8H94.2275ZM94.2275 33.16H93.2275V34.16H94.2275V33.16ZM112.547 33.16H113.547V32.16H112.547V33.16ZM112.547 43.72V44.72H113.547V43.72H112.547ZM94.2275 43.72V42.72H93.2275V43.72H94.2275ZM94.2275 56.04H93.2275V57.04H94.2275V56.04ZM114.947 56.04H115.947V55.04H114.947V56.04ZM114.947 67V68H115.947V67H114.947ZM80.5475 67H79.5475V68H80.5475V67ZM80.5475 10.84V9.84H79.5475V10.84H80.5475ZM114.947 10.84H115.947V9.84H114.947V10.84ZM114.947 21.8V22.8H115.947V21.8H114.947ZM93.2275 21.8V33.16H95.2275V21.8H93.2275ZM94.2275 34.16H112.547V32.16H94.2275V34.16ZM111.547 33.16V43.72H113.547V33.16H111.547ZM112.547 42.72H94.2275V44.72H112.547V42.72ZM93.2275 43.72V56.04H95.2275V43.72H93.2275ZM94.2275 57.04H114.947V55.04H94.2275V57.04ZM113.947 56.04V67H115.947V56.04H113.947ZM114.947 66H80.5475V68H114.947V66ZM81.5475 67V10.84H79.5475V67H81.5475ZM80.5475 11.84H114.947V9.84H80.5475V11.84ZM113.947 10.84V21.8H115.947V10.84H113.947ZM114.947 20.8H94.2275V22.8H114.947V20.8ZM174.309 28.6L173.43 29.0771L173.714 29.6H174.309V28.6ZM169.909 24.36L169.432 25.2388L169.446 25.2469L169.462 25.2544L169.909 24.36ZM152.629 27.24L153.363 27.9194L153.369 27.9127L152.629 27.24ZM152.789 51L152.062 51.687L152.069 51.6938L152.075 51.7005L152.789 51ZM172.869 52.76L172.281 51.9512L172.272 51.9578L172.869 52.76ZM177.989 45.4L178.937 45.7162L179.376 44.4H177.989V45.4ZM160.629 45.4H159.629V46.4H160.629V45.4ZM160.629 35.32V34.32H159.629V35.32H160.629ZM190.389 35.32H191.389V34.32H190.389V35.32ZM190.389 48.04L191.347 48.3246L191.389 48.1853V48.04H190.389ZM185.189 57.56L184.422 56.9184L184.415 56.9268L185.189 57.56ZM175.989 64.68L175.552 63.7805L175.552 63.7805L175.989 64.68ZM148.469 63.8L147.975 64.6696L147.981 64.6732L147.988 64.6767L148.469 63.8ZM138.309 53.64L137.435 54.1257L137.439 54.1338L138.309 53.64ZM138.309 24.04L137.437 23.5507L137.435 23.5544L138.309 24.04ZM148.469 13.88L148.954 14.7542L148.963 14.7496L148.469 13.88ZM180.229 15.08L179.65 15.8957L179.655 15.8988L180.229 15.08ZM189.429 28.6V29.6H190.721L190.397 28.349L189.429 28.6ZM175.188 28.1229C174.075 26.0742 172.457 24.5161 170.356 23.4656L169.462 25.2544C171.2 26.1239 172.515 27.3925 173.43 29.0771L175.188 28.1229ZM170.386 23.4811C168.345 22.3735 165.961 21.84 163.269 21.84V23.84C165.696 23.84 167.739 24.3198 169.432 25.2388L170.386 23.4811ZM163.269 21.84C158.597 21.84 154.768 23.4 151.889 26.5673L153.369 27.9127C155.823 25.2134 159.087 23.84 163.269 23.84V21.84ZM151.895 26.5606C149.019 29.6666 147.629 33.7972 147.629 38.84H149.629C149.629 34.1762 150.905 30.5733 153.363 27.9194L151.895 26.5606ZM147.629 38.84C147.629 44.1941 149.068 48.52 152.062 51.687L153.515 50.313C150.963 47.6133 149.629 43.8325 149.629 38.84H147.629ZM152.075 51.7005C155.129 54.8122 159.276 56.32 164.389 56.32V54.32C159.689 54.32 156.102 52.9478 153.502 50.2995L152.075 51.7005ZM164.389 56.32C167.925 56.32 170.971 55.4188 173.466 53.5622L172.272 51.9578C170.18 53.5145 167.573 54.32 164.389 54.32V56.32ZM173.457 53.5687C175.998 51.7204 177.816 49.0808 178.937 45.7162L177.04 45.0838C176.028 48.1192 174.432 50.3863 172.281 51.9513L173.457 53.5687ZM177.989 44.4H160.629V46.4H177.989V44.4ZM161.629 45.4V35.32H159.629V45.4H161.629ZM160.629 36.32H190.389V34.32H160.629V36.32ZM189.389 35.32V48.04H191.389V35.32H189.389ZM189.43 47.7554C188.458 51.0285 186.794 54.0819 184.422 56.9184L185.956 58.2016C188.49 55.1714 190.292 51.8782 191.347 48.3246L189.43 47.7554ZM184.415 56.9268C182.115 59.7377 179.167 62.0244 175.552 63.7805L176.426 65.5795C180.277 63.709 183.463 61.249 185.963 58.1932L184.415 56.9268ZM175.552 63.7805C171.972 65.5195 167.911 66.4 163.349 66.4V68.4C168.174 68.4 172.539 67.4672 176.426 65.5795L175.552 63.7805ZM163.349 66.4C157.951 66.4 153.16 65.2337 148.95 62.9233L147.988 64.6767C152.524 67.1663 157.653 68.4 163.349 68.4V66.4ZM148.963 62.9304C144.799 60.5662 141.543 57.3093 139.178 53.1462L137.439 54.1338C139.982 58.6107 143.498 62.1272 147.975 64.6696L148.963 62.9304ZM139.183 53.1544C136.875 49.0004 135.709 44.2379 135.709 38.84H133.709C133.709 44.5354 134.942 49.6396 137.435 54.1256L139.183 53.1544ZM135.709 38.84C135.709 33.4421 136.875 28.6796 139.183 24.5256L137.435 23.5544C134.942 28.0404 133.709 33.1446 133.709 38.84H135.709ZM139.181 24.5293C141.545 20.315 144.799 17.0628 148.954 14.7542L147.983 13.0058C143.499 15.4972 139.979 19.0183 137.437 23.5507L139.181 24.5293ZM148.963 14.7496C153.115 12.3913 157.875 11.2 163.269 11.2V9.2C157.57 9.2 152.462 10.462 147.975 13.0104L148.963 14.7496ZM163.269 11.2C169.823 11.2 175.263 12.7841 179.65 15.8956L180.807 14.2643C176.021 10.8692 170.155 9.2 163.269 9.2V11.2ZM179.655 15.8988C184.09 19.0084 187.024 23.3085 188.461 28.851L190.397 28.349C188.847 22.3715 185.648 17.6582 180.803 14.2612L179.655 15.8988ZM189.429 27.6H174.309V29.6H189.429V27.6ZM246.126 57.08L247.073 56.7592L246.843 56.08H246.126V57.08ZM225.166 57.08V56.08H224.449L224.219 56.7592L225.166 57.08ZM221.806 67V68H222.523L222.753 67.3208L221.806 67ZM207.486 67L206.546 66.6598L206.061 68H207.486V67ZM227.806 10.84V9.84H227.105L226.866 10.4998L227.806 10.84ZM243.646 10.84L244.587 10.4998L244.348 9.84H243.646V10.84ZM263.966 67V68H265.392L264.907 66.6598L263.966 67ZM249.486 67L248.539 67.3208L248.769 68H249.486V67ZM242.606 46.52V47.52H244.001L243.553 46.1994L242.606 46.52ZM235.646 25.96L236.593 25.6394L235.641 22.8251L234.698 25.6427L235.646 25.96ZM228.766 46.52L227.818 46.2027L227.377 47.52H228.766V46.52ZM246.126 56.08H225.166V58.08H246.126V56.08ZM224.219 56.7592L220.859 66.6792L222.753 67.3208L226.113 57.4008L224.219 56.7592ZM221.806 66H207.486V68H221.806V66ZM208.427 67.3402L228.747 11.1802L226.866 10.4998L206.546 66.6598L208.427 67.3402ZM227.806 11.84H243.646V9.84H227.806V11.84ZM242.706 11.1802L263.026 67.3402L264.907 66.6598L244.587 10.4998L242.706 11.1802ZM263.966 66H249.486V68H263.966V66ZM250.433 66.6792L247.073 56.7592L245.179 57.4008L248.539 67.3208L250.433 66.6792ZM243.553 46.1994L236.593 25.6394L234.699 26.2806L241.659 46.8406L243.553 46.1994ZM234.698 25.6427L227.818 46.2027L229.715 46.8373L236.595 26.2773L234.698 25.6427ZM228.766 47.52H242.606V45.52H228.766V47.52ZM323.751 10.84H324.751V9.84H323.751V10.84ZM323.751 21.8V22.8H324.751V21.8H323.751ZM308.871 21.8V20.8H307.871V21.8H308.871ZM308.871 67V68H309.871V67H308.871ZM295.191 67H294.191V68H295.191V67ZM295.191 21.8H296.191V20.8H295.191V21.8ZM280.311 21.8H279.311V22.8H280.311V21.8ZM280.311 10.84V9.84H279.311V10.84H280.311ZM322.751 10.84V21.8H324.751V10.84H322.751ZM323.751 20.8H308.871V22.8H323.751V20.8ZM307.871 21.8V67H309.871V21.8H307.871ZM308.871 66H295.191V68H308.871V66ZM296.191 67V21.8H294.191V67H296.191ZM295.191 20.8H280.311V22.8H295.191V20.8ZM281.311 21.8V10.84H279.311V21.8H281.311ZM280.311 11.84H323.751V9.84H280.311V11.84ZM357.496 10.84H358.496V9.84H357.496V10.84ZM357.496 67V68H358.496V67H357.496ZM343.816 67H342.816V68H343.816V67ZM343.816 10.84V9.84H342.816V10.84H343.816ZM356.496 10.84V67H358.496V10.84H356.496ZM357.496 66H343.816V68H357.496V66ZM344.816 67V10.84H342.816V67H344.816ZM343.816 11.84H357.496V9.84H343.816V11.84ZM433.33 10.84L434.272 11.1743L434.746 9.84H433.33V10.84ZM413.41 67V68H414.116L414.352 67.3343L413.41 67ZM396.29 67L395.348 67.3343L395.584 68H396.29V67ZM376.37 10.84V9.84H374.954L375.428 11.1743L376.37 10.84ZM390.93 10.84L391.88 10.5281L391.654 9.84H390.93V10.84ZM404.85 53.24L403.9 53.5519L404.847 56.4376L405.8 53.5535L404.85 53.24ZM418.85 10.84V9.84H418.127L417.9 10.5265L418.85 10.84ZM432.388 10.5057L412.468 66.6657L414.352 67.3343L434.272 11.1743L432.388 10.5057ZM413.41 66H396.29V68H413.41V66ZM397.232 66.6657L377.312 10.5057L375.428 11.1743L395.348 67.3343L397.232 66.6657ZM376.37 11.84H390.93V9.84H376.37V11.84ZM389.98 11.1519L403.9 53.5519L405.8 52.9281L391.88 10.5281L389.98 11.1519ZM405.8 53.5535L419.8 11.1535L417.9 10.5265L403.9 52.9265L405.8 53.5535ZM418.85 11.84H433.33V9.84H418.85V11.84ZM465.927 21.8V20.8H464.927V21.8H465.927ZM465.927 33.16H464.927V34.16H465.927V33.16ZM484.247 33.16H485.247V32.16H484.247V33.16ZM484.247 43.72V44.72H485.247V43.72H484.247ZM465.927 43.72V42.72H464.927V43.72H465.927ZM465.927 56.04H464.927V57.04H465.927V56.04ZM486.647 56.04H487.647V55.04H486.647V56.04ZM486.647 67V68H487.647V67H486.647ZM452.247 67H451.247V68H452.247V67ZM452.247 10.84V9.84H451.247V10.84H452.247ZM486.647 10.84H487.647V9.84H486.647V10.84ZM486.647 21.8V22.8H487.647V21.8H486.647ZM464.927 21.8V33.16H466.927V21.8H464.927ZM465.927 34.16H484.247V32.16H465.927V34.16ZM483.247 33.16V43.72H485.247V33.16H483.247ZM484.247 42.72H465.927V44.72H484.247V42.72ZM464.927 43.72V56.04H466.927V43.72H464.927ZM465.927 57.04H486.647V55.04H465.927V57.04ZM485.647 56.04V67H487.647V56.04H485.647ZM486.647 66H452.247V68H486.647V66ZM453.247 67V10.84H451.247V67H453.247ZM452.247 11.84H486.647V9.84H452.247V11.84ZM485.647 10.84V21.8H487.647V10.84H485.647ZM486.647 20.8H465.927V22.8H486.647V20.8Z" fill="black" fill-opacity="0.5"/>
</g>
<defs>
<filter id="filter0_d_1_20" x="0.191406" y="0.199951" width="529.456" height="107.2" filterUnits="userSpaceOnUse" color-interpolation-filters="sRGB">
<feFlood flood-opacity="0" result="BackgroundImageFix"/>
<feColorMatrix in="SourceAlpha" type="matrix" values="0 0 0 0 0 0 0 0 0 0 0 0 0 0 0 0 0 0 127 0" result="hardAlpha"/>
<feOffset dx="18" dy="15"/>
<feGaussianBlur stdDeviation="12.5"/>
<feComposite in2="hardAlpha" operator="out"/>
<feColorMatrix type="matrix" values="0 0 0 0 0 0 0 0 0 0 0 0 0 0 0 0 0 0 0.57 0"/>
<feBlend mode="normal" in2="BackgroundImageFix" result="effect1_dropShadow_1_20"/>
<feBlend mode="normal" in="SourceGraphic" in2="effect1_dropShadow_1_20" result="shape"/>
</filter>
<linearGradient id="paint0_linear_1_20" x1="-87.273" y1="-16.2697" x2="135.147" y2="367.238" gradientUnits="userSpaceOnUse">
<stop stop-color="#FB37FF"/>
<stop offset="0.421875" stop-color="#9B6FEE"/>
<stop offset="0.682292" stop-color="#18B2DE"/>
<stop offset="1" stop-color="#7B7FEA" stop-opacity="0"/>
</linearGradient>
</defs>
</svg>
