<svg width="425" height="120" viewBox="0 0 425 120" fill="none" xmlns="http://www.w3.org/2000/svg">
<g filter="url(#filter0_i_1_21)">
<rect width="425" height="120" rx="20" fill="url(#paint0_linear_1_21)"/>
<g filter="url(#filter1_d_1_21)">
<path d="M85.5484 77H77.3404L63.6124 56.216V77H55.4044V43.304H63.6124L77.3404 64.184V43.304H85.5484V77ZM107.626 49.88V56.696H118.618V63.032H107.626V70.424H120.058V77H99.4182V43.304H120.058V49.88H107.626ZM179.675 43.304L170.891 77H160.955L155.579 54.824L150.011 77H140.075L131.531 43.304H140.315L145.163 67.832L151.163 43.304H160.187L165.947 67.832L170.843 43.304H179.675ZM232.171 53.96C231.563 52.84 230.683 51.992 229.531 51.416C228.411 50.808 227.083 50.504 225.547 50.504C222.891 50.504 220.763 51.384 219.163 53.144C217.563 54.872 216.763 57.192 216.763 60.104C216.763 63.208 217.595 65.64 219.259 67.4C220.955 69.128 223.275 69.992 226.219 69.992C228.235 69.992 229.931 69.48 231.307 68.456C232.715 67.432 233.739 65.96 234.379 64.04H223.963V57.992H241.819V65.624C241.211 67.672 240.171 69.576 238.699 71.336C237.259 73.096 235.419 74.52 233.179 75.608C230.939 76.696 228.411 77.24 225.595 77.24C222.267 77.24 219.291 76.52 216.667 75.08C214.075 73.608 212.043 71.576 210.571 68.984C209.131 66.392 208.411 63.432 208.411 60.104C208.411 56.776 209.131 53.816 210.571 51.224C212.043 48.6 214.075 46.568 216.667 45.128C219.259 43.656 222.219 42.92 225.547 42.92C229.579 42.92 232.971 43.896 235.723 45.848C238.507 47.8 240.347 50.504 241.243 53.96H232.171ZM275.262 71.048H262.686L260.67 77H252.078L264.27 43.304H273.774L285.966 77H277.278L275.262 71.048ZM273.15 64.712L268.974 52.376L264.846 64.712H273.15ZM335.756 43.304V77H327.548V56.792L320.012 77H313.388L305.804 56.744V77H297.596V43.304H307.292L316.748 66.632L326.108 43.304H335.756ZM357.787 49.88V56.696H368.779V63.032H357.787V70.424H370.219V77H349.579V43.304H370.219V49.88H357.787Z" fill="url(#paint1_linear_1_21)" shape-rendering="crispEdges"/>
<path d="M85.5484 77V78H86.5484V77H85.5484ZM77.3404 77L76.506 77.5511L76.8025 78H77.3404V77ZM63.6124 56.216L64.4469 55.6649L62.6124 52.8876V56.216H63.6124ZM63.6124 77V78H64.6124V77H63.6124ZM55.4044 77H54.4044V78H55.4044V77ZM55.4044 43.304V42.304H54.4044V43.304H55.4044ZM63.6124 43.304L64.448 42.7546L64.1517 42.304H63.6124V43.304ZM77.3404 64.184L76.5049 64.7334L78.3404 67.5252V64.184H77.3404ZM77.3404 43.304V42.304H76.3404V43.304H77.3404ZM85.5484 43.304H86.5484V42.304H85.5484V43.304ZM85.5484 76H77.3404V78H85.5484V76ZM78.1749 76.4489L64.4469 55.6649L62.778 56.7671L76.506 77.5511L78.1749 76.4489ZM62.6124 56.216V77H64.6124V56.216H62.6124ZM63.6124 76H55.4044V78H63.6124V76ZM56.4044 77V43.304H54.4044V77H56.4044ZM55.4044 44.304H63.6124V42.304H55.4044V44.304ZM62.7769 43.8534L76.5049 64.7334L78.176 63.6346L64.448 42.7546L62.7769 43.8534ZM78.3404 64.184V43.304H76.3404V64.184H78.3404ZM77.3404 44.304H85.5484V42.304H77.3404V44.304ZM84.5484 43.304V77H86.5484V43.304H84.5484ZM107.626 49.88V48.88H106.626V49.88H107.626ZM107.626 56.696H106.626V57.696H107.626V56.696ZM118.618 56.696H119.618V55.696H118.618V56.696ZM118.618 63.032V64.032H119.618V63.032H118.618ZM107.626 63.032V62.032H106.626V63.032H107.626ZM107.626 70.424H106.626V71.424H107.626V70.424ZM120.058 70.424H121.058V69.424H120.058V70.424ZM120.058 77V78H121.058V77H120.058ZM99.4182 77H98.4182V78H99.4182V77ZM99.4182 43.304V42.304H98.4182V43.304H99.4182ZM120.058 43.304H121.058V42.304H120.058V43.304ZM120.058 49.88V50.88H121.058V49.88H120.058ZM106.626 49.88V56.696H108.626V49.88H106.626ZM107.626 57.696H118.618V55.696H107.626V57.696ZM117.618 56.696V63.032H119.618V56.696H117.618ZM118.618 62.032H107.626V64.032H118.618V62.032ZM106.626 63.032V70.424H108.626V63.032H106.626ZM107.626 71.424H120.058V69.424H107.626V71.424ZM119.058 70.424V77H121.058V70.424H119.058ZM120.058 76H99.4182V78H120.058V76ZM100.418 77V43.304H98.4182V77H100.418ZM99.4182 44.304H120.058V42.304H99.4182V44.304ZM119.058 43.304V49.88H121.058V43.304H119.058ZM120.058 48.88H107.626V50.88H120.058V48.88ZM179.675 43.304L180.643 43.5563L180.969 42.304H179.675V43.304ZM170.891 77V78H171.664L171.859 77.2523L170.891 77ZM160.955 77L159.983 77.2356L160.168 78H160.955V77ZM155.579 54.824L156.551 54.5884L154.609 54.5805L155.579 54.824ZM150.011 77V78H150.791L150.981 77.2435L150.011 77ZM140.075 77L139.106 77.2458L139.297 78H140.075V77ZM131.531 43.304V42.304H130.246L130.562 43.5498L131.531 43.304ZM140.315 43.304L141.296 43.1101L141.137 42.304H140.315V43.304ZM145.163 67.832L144.182 68.0259L146.134 68.0696L145.163 67.832ZM151.163 43.304V42.304H150.378L150.192 43.0664L151.163 43.304ZM160.187 43.304L161.16 43.0754L160.979 42.304H160.187V43.304ZM165.947 67.832L164.973 68.0606L166.928 68.0277L165.947 67.832ZM170.843 43.304V42.304H170.023L169.862 43.1083L170.843 43.304ZM178.707 43.0517L169.923 76.7477L171.859 77.2523L180.643 43.5563L178.707 43.0517ZM170.891 76H160.955V78H170.891V76ZM161.927 76.7644L156.551 54.5884L154.607 55.0596L159.983 77.2356L161.927 76.7644ZM154.609 54.5805L149.041 76.7565L150.981 77.2435L156.549 55.0675L154.609 54.5805ZM150.011 76H140.075V78H150.011V76ZM141.044 76.7542L132.5 43.0582L130.562 43.5498L139.106 77.2458L141.044 76.7542ZM131.531 44.304H140.315V42.304H131.531V44.304ZM139.334 43.4979L144.182 68.0259L146.144 67.6381L141.296 43.1101L139.334 43.4979ZM146.134 68.0696L152.134 43.5416L150.192 43.0664L144.192 67.5944L146.134 68.0696ZM151.163 44.304H160.187V42.304H151.163V44.304ZM159.213 43.5326L164.973 68.0606L166.92 67.6034L161.16 43.0754L159.213 43.5326ZM166.928 68.0277L171.824 43.4997L169.862 43.1083L164.966 67.6363L166.928 68.0277ZM170.843 44.304H179.675V42.304H170.843V44.304ZM232.171 53.96L231.292 54.4371L231.576 54.96H232.171V53.96ZM229.531 51.416L229.054 52.2949L229.069 52.3029L229.084 52.3104L229.531 51.416ZM219.163 53.144L219.897 53.8234L219.903 53.8167L219.163 53.144ZM219.259 67.4L218.533 68.087L218.539 68.0938L218.545 68.1005L219.259 67.4ZM231.307 68.456L230.719 67.6472L230.71 67.6538L231.307 68.456ZM234.379 64.04L235.328 64.3562L235.767 63.04H234.379V64.04ZM223.963 64.04H222.963V65.04H223.963V64.04ZM223.963 57.992V56.992H222.963V57.992H223.963ZM241.819 57.992H242.819V56.992H241.819V57.992ZM241.819 65.624L242.778 65.9086L242.819 65.7693V65.624H241.819ZM238.699 71.336L237.932 70.6944L237.925 70.7028L238.699 71.336ZM233.179 75.608L232.742 74.7085L233.179 75.608ZM216.667 75.08L216.173 75.9496L216.18 75.9532L216.186 75.9567L216.667 75.08ZM210.571 68.984L209.697 69.4697L209.702 69.4778L210.571 68.984ZM210.571 51.224L209.699 50.7347L209.697 50.7384L210.571 51.224ZM216.667 45.128L217.153 46.0022L217.161 45.9976L216.667 45.128ZM235.723 45.848L235.145 46.6637L235.149 46.6668L235.723 45.848ZM241.243 53.96V54.96H242.535L242.211 53.709L241.243 53.96ZM233.05 53.4829C232.343 52.1808 231.312 51.1881 229.978 50.5216L229.084 52.3104C230.055 52.7959 230.783 53.4992 231.292 54.4371L233.05 53.4829ZM230.008 50.5371C228.715 49.8349 227.216 49.504 225.547 49.504V51.504C226.951 51.504 228.108 51.7811 229.054 52.2949L230.008 50.5371ZM225.547 49.504C222.646 49.504 220.236 50.4773 218.423 52.4713L219.903 53.8167C221.29 52.2907 223.136 51.504 225.547 51.504V49.504ZM218.429 52.4646C216.62 54.4187 215.763 57.0025 215.763 60.104H217.763C217.763 57.3815 218.506 55.3253 219.897 53.8234L218.429 52.4646ZM215.763 60.104C215.763 63.3888 216.648 66.0934 218.533 68.087L219.986 66.713C218.543 65.1866 217.763 63.0272 217.763 60.104H215.763ZM218.545 68.1005C220.469 70.0602 223.069 70.992 226.219 70.992V68.992C223.482 68.992 221.441 68.1958 219.973 66.6995L218.545 68.1005ZM226.219 70.992C228.411 70.992 230.327 70.4321 231.904 69.2582L230.71 67.6538C229.536 68.5279 228.059 68.992 226.219 68.992V70.992ZM231.895 69.2647C233.498 68.0991 234.633 66.4408 235.328 64.3562L233.43 63.7238C232.845 65.4792 231.932 66.7649 230.719 67.6473L231.895 69.2647ZM234.379 63.04H223.963V65.04H234.379V63.04ZM224.963 64.04V57.992H222.963V64.04H224.963ZM223.963 58.992H241.819V56.992H223.963V58.992ZM240.819 57.992V65.624H242.819V57.992H240.819ZM240.861 65.3394C240.294 67.2471 239.323 69.0313 237.932 70.6944L239.466 71.9776C241.019 70.1207 242.128 68.0969 242.778 65.9086L240.861 65.3394ZM237.925 70.7028C236.585 72.3403 234.864 73.6777 232.742 74.7085L233.616 76.5075C235.974 75.3623 237.933 73.8517 239.473 71.9692L237.925 70.7028ZM232.742 74.7085C230.655 75.7222 228.28 76.24 225.595 76.24V78.24C228.543 78.24 231.223 77.6698 233.616 76.5075L232.742 74.7085ZM225.595 76.24C222.416 76.24 219.609 75.5537 217.148 74.2033L216.186 75.9567C218.973 77.4863 222.118 78.24 225.595 78.24V76.24ZM217.161 74.2104C214.726 72.8275 212.824 70.9253 211.441 68.4902L209.702 69.4778C211.263 72.2267 213.425 74.3885 216.173 75.9496L217.161 74.2104ZM211.445 68.4984C210.098 66.0724 209.411 63.2832 209.411 60.104H207.411C207.411 63.5808 208.165 66.7116 209.697 69.4696L211.445 68.4984ZM209.411 60.104C209.411 56.9248 210.098 54.1356 211.445 51.7096L209.697 50.7384C208.165 53.4964 207.411 56.6272 207.411 60.104H209.411ZM211.443 51.7133C212.826 49.2484 214.725 47.3508 217.153 46.0022L216.182 44.2538C213.425 45.7852 211.26 47.9516 209.699 50.7347L211.443 51.7133ZM217.161 45.9976C219.586 44.6207 222.372 43.92 225.547 43.92V41.92C222.067 41.92 218.933 42.6913 216.173 44.2584L217.161 45.9976ZM225.547 43.92C229.413 43.92 232.593 44.8535 235.145 46.6636L236.302 45.0323C233.35 42.9385 229.745 41.92 225.547 41.92V43.92ZM235.149 46.6668C237.728 48.4751 239.436 50.9725 240.275 54.211L242.211 53.709C241.259 50.0355 239.286 47.1249 236.297 45.0292L235.149 46.6668ZM241.243 52.96H232.171V54.96H241.243V52.96ZM275.262 71.048L276.209 70.7272L275.979 70.048H275.262V71.048ZM262.686 71.048V70.048H261.969L261.739 70.7272L262.686 71.048ZM260.67 77V78H261.387L261.617 77.3208L260.67 77ZM252.078 77L251.137 76.6598L250.652 78H252.078V77ZM264.27 43.304V42.304H263.568L263.329 42.9638L264.27 43.304ZM273.774 43.304L274.714 42.9638L274.475 42.304H273.774V43.304ZM285.966 77V78H287.391L286.906 76.6598L285.966 77ZM277.278 77L276.331 77.3208L276.561 78H277.278V77ZM273.15 64.712V65.712H274.544L274.097 64.3914L273.15 64.712ZM268.974 52.376L269.921 52.0554L268.968 49.2411L268.025 52.0587L268.974 52.376ZM264.846 64.712L263.897 64.3947L263.457 65.712H264.846V64.712ZM275.262 70.048H262.686V72.048H275.262V70.048ZM261.739 70.7272L259.723 76.6792L261.617 77.3208L263.633 71.3688L261.739 70.7272ZM260.67 76H252.078V78H260.67V76ZM253.018 77.3402L265.21 43.6442L263.329 42.9638L251.137 76.6598L253.018 77.3402ZM264.27 44.304H273.774V42.304H264.27V44.304ZM272.833 43.6442L285.025 77.3402L286.906 76.6598L274.714 42.9638L272.833 43.6442ZM285.966 76H277.278V78H285.966V76ZM278.225 76.6792L276.209 70.7272L274.315 71.3688L276.331 77.3208L278.225 76.6792ZM274.097 64.3914L269.921 52.0554L268.026 52.6966L272.202 65.0326L274.097 64.3914ZM268.025 52.0587L263.897 64.3947L265.794 65.0293L269.922 52.6933L268.025 52.0587ZM264.846 65.712H273.15V63.712H264.846V65.712ZM335.756 43.304H336.756V42.304H335.756V43.304ZM335.756 77V78H336.756V77H335.756ZM327.548 77H326.548V78H327.548V77ZM327.548 56.792H328.548L326.611 56.4426L327.548 56.792ZM320.012 77V78H320.707L320.949 77.3494L320.012 77ZM313.388 77L312.452 77.3506L312.695 78H313.388V77ZM305.804 56.744L306.741 56.3934L304.804 56.744H305.804ZM305.804 77V78H306.804V77H305.804ZM297.596 77H296.596V78H297.596V77ZM297.596 43.304V42.304H296.596V43.304H297.596ZM307.292 43.304L308.219 42.9283L307.966 42.304H307.292V43.304ZM316.748 66.632L315.822 67.0077L316.753 69.3056L317.676 67.0044L316.748 66.632ZM326.108 43.304V42.304H325.432L325.18 42.9316L326.108 43.304ZM334.756 43.304V77H336.756V43.304H334.756ZM335.756 76H327.548V78H335.756V76ZM328.548 77V56.792H326.548V77H328.548ZM326.611 56.4426L319.075 76.6506L320.949 77.3494L328.485 57.1414L326.611 56.4426ZM320.012 76H313.388V78H320.012V76ZM314.325 76.6494L306.741 56.3934L304.868 57.0946L312.452 77.3506L314.325 76.6494ZM304.804 56.744V77H306.804V56.744H304.804ZM305.804 76H297.596V78H305.804V76ZM298.596 77V43.304H296.596V77H298.596ZM297.596 44.304H307.292V42.304H297.596V44.304ZM306.366 43.6797L315.822 67.0077L317.675 66.2563L308.219 42.9283L306.366 43.6797ZM317.676 67.0044L327.036 43.6764L325.18 42.9316L315.82 66.2596L317.676 67.0044ZM326.108 44.304H335.756V42.304H326.108V44.304ZM357.787 49.88V48.88H356.787V49.88H357.787ZM357.787 56.696H356.787V57.696H357.787V56.696ZM368.779 56.696H369.779V55.696H368.779V56.696ZM368.779 63.032V64.032H369.779V63.032H368.779ZM357.787 63.032V62.032H356.787V63.032H357.787ZM357.787 70.424H356.787V71.424H357.787V70.424ZM370.219 70.424H371.219V69.424H370.219V70.424ZM370.219 77V78H371.219V77H370.219ZM349.579 77H348.579V78H349.579V77ZM349.579 43.304V42.304H348.579V43.304H349.579ZM370.219 43.304H371.219V42.304H370.219V43.304ZM370.219 49.88V50.88H371.219V49.88H370.219ZM356.787 49.88V56.696H358.787V49.88H356.787ZM357.787 57.696H368.779V55.696H357.787V57.696ZM367.779 56.696V63.032H369.779V56.696H367.779ZM368.779 62.032H357.787V64.032H368.779V62.032ZM356.787 63.032V70.424H358.787V63.032H356.787ZM357.787 71.424H370.219V69.424H357.787V71.424ZM369.219 70.424V77H371.219V70.424H369.219ZM370.219 76H349.579V78H370.219V76ZM350.579 77V43.304H348.579V77H350.579ZM349.579 44.304H370.219V42.304H349.579V44.304ZM369.219 43.304V49.88H371.219V43.304H369.219ZM370.219 48.88H357.787V50.88H370.219V48.88Z" fill="black" fill-opacity="0.5"/>
</g>
<rect x="2.5" y="2.5" width="420" height="115" rx="17.5" stroke="url(#paint2_linear_1_21)" stroke-width="5"/>
</g>
<defs>
<filter id="filter0_i_1_21" x="0" y="0" width="443" height="135" filterUnits="userSpaceOnUse" color-interpolation-filters="sRGB">
<feFlood flood-opacity="0" result="BackgroundImageFix"/>
<feBlend mode="normal" in="SourceGraphic" in2="BackgroundImageFix" result="shape"/>
<feColorMatrix in="SourceAlpha" type="matrix" values="0 0 0 0 0 0 0 0 0 0 0 0 0 0 0 0 0 0 127 0" result="hardAlpha"/>
<feOffset dx="18" dy="15"/>
<feGaussianBlur stdDeviation="12.5"/>
<feComposite in2="hardAlpha" operator="arithmetic" k2="-1" k3="1"/>
<feColorMatrix type="matrix" values="0 0 0 0 0 0 0 0 0 0 0 0 0 0 0 0 0 0 0.57 0"/>
<feBlend mode="normal" in2="shape" result="effect1_innerShadow_1_21"/>
</filter>
<filter id="filter1_d_1_21" x="48.4043" y="32.92" width="364.814" height="84.3199" filterUnits="userSpaceOnUse" color-interpolation-filters="sRGB">
<feFlood flood-opacity="0" result="BackgroundImageFix"/>
<feColorMatrix in="SourceAlpha" type="matrix" values="0 0 0 0 0 0 0 0 0 0 0 0 0 0 0 0 0 0 127 0" result="hardAlpha"/>
<feOffset dx="18" dy="15"/>
<feGaussianBlur stdDeviation="12.5"/>
<feComposite in2="hardAlpha" operator="out"/>
<feColorMatrix type="matrix" values="0 0 0 0 0 0 0 0 0 0 0 0 0 0 0 0 0 0 0.57 0"/>
<feBlend mode="normal" in2="BackgroundImageFix" result="effect1_dropShadow_1_21"/>
<feBlend mode="normal" in="SourceGraphic" in2="effect1_dropShadow_1_21" result="shape"/>
</filter>
<linearGradient id="paint0_linear_1_21" x1="9.66981" y1="3.9834" x2="271.97" y2="264.231" gradientUnits="userSpaceOnUse">
<stop stop-color="#3A81BF"/>
<stop offset="1" stop-color="#41305A" stop-opacity="0.03"/>
</linearGradient>
<linearGradient id="paint1_linear_1_21" x1="60.3724" y1="26.8382" x2="209.419" y2="218.331" gradientUnits="userSpaceOnUse">
<stop stop-color="#FB37FF"/>
<stop offset="0.421875" stop-color="#9B6FEE"/>
<stop offset="0.682292" stop-color="#18B2DE"/>
<stop offset="1" stop-color="#7B7FEA" stop-opacity="0"/>
</linearGradient>
<linearGradient id="paint2_linear_1_21" x1="11.0849" y1="4.73029" x2="267.283" y2="266.211" gradientUnits="userSpaceOnUse">
<stop stop-color="#FB37FF"/>
<stop offset="0.425065" stop-color="#9B6FEE"/>
<stop offset="0.519704" stop-color="#7B7FEA" stop-opacity="0"/>
<stop offset="1" stop-color="#18B2DE"/>
</linearGradient>
</defs>
</svg>
