<svg width="1116" height="1010" viewBox="0 0 1116 1010" fill="none" xmlns="http://www.w3.org/2000/svg">
<g clip-path="url(#clip0_325_1456)">
<mask id="mask0_325_1456" style="mask-type:luminance" maskUnits="userSpaceOnUse" x="0" y="0" width="1116" height="1010">
<path d="M1116 0H0V1010H1116V0Z" fill="white"/>
</mask>
<g mask="url(#mask0_325_1456)">
<g opacity="0.251378">
<path d="M878.285 277.137C878.285 277.137 893.281 272.718 894.676 278.715C896.071 284.712 888.399 290.077 893.63 293.549C898.861 297.021 908.626 288.499 913.16 296.39C917.694 304.28 904.093 311.224 912.811 314.065C921.53 316.905 930.946 310.593 933.736 319.43C936.526 328.268 933.039 333.949 933.039 333.949" stroke="#FFE600" stroke-width="2"/>
</g>
<g opacity="0.483651">
<path d="M315.353 110.229C306.587 110.229 299.48 116.661 299.48 124.595C299.48 132.528 306.587 138.96 315.353 138.96C324.12 138.96 331.226 132.528 331.226 124.595C331.226 116.661 324.12 110.229 315.353 110.229Z" fill="#4586F2"/>
</g>
<g opacity="0.457871">
<path d="M915.848 612.157L923.52 637.407L940.465 628.958L915.848 612.157Z" fill="#FF0000"/>
</g>
<g opacity="0.432084">
<path d="M459.428 813.517C450.661 813.517 443.555 819.949 443.555 827.882C443.555 835.816 450.661 842.248 459.428 842.248C468.194 842.248 475.3 835.816 475.3 827.882C475.3 819.949 468.194 813.517 459.428 813.517Z" fill="#FF0000"/>
</g>
<g opacity="0.406289">
<path d="M591.965 82.3848L599.637 107.635L616.582 99.1861L591.965 82.3848Z" fill="#FF0000"/>
</g>
<g opacity="0.380486">
<path d="M134.088 429.001V415.429L114.558 419.217L115.953 399.963L95.0283 404.382L95.7258 388.917L78.637 394.598L81.0783 381.026L66.082 383.867" stroke="#4587F3" stroke-width="5"/>
</g>
<g opacity="0.354677">
<path d="M186.617 822.935L194.29 848.185L211.235 839.736L186.617 822.935Z" fill="#4688F4"/>
</g>
<g opacity="0.328862">
<path d="M958.617 793.519L966.29 818.769L983.235 810.32L958.617 793.519Z" fill="#14BD2C"/>
</g>
<g opacity="0.30304">
<path d="M982.284 172.979L957.871 181.186L962.754 202.648L987.864 192.548L982.284 172.979Z" fill="#4688F4"/>
</g>
<g opacity="0.277212">
<path d="M769.873 83.29C761.107 83.29 754 89.7217 754 97.6553C754 105.589 761.107 112.02 769.873 112.02C778.639 112.02 785.746 105.589 785.746 97.6553C785.746 89.7217 778.639 83.29 769.873 83.29Z" fill="#FFE600"/>
</g>
<g opacity="0.251378">
<path d="M689.974 702.549C681.208 702.549 674.102 708.981 674.102 716.914C674.102 724.848 681.208 731.279 689.974 731.279C698.741 731.279 705.847 724.848 705.847 716.914C705.847 708.981 698.741 702.549 689.974 702.549Z" fill="#4587F3"/>
</g>
<g opacity="0.354677">
<path d="M421.674 578.395L397.262 586.601L402.144 608.063L427.254 597.963L421.674 578.395Z" fill="#14BE2C"/>
</g>
<g opacity="0.328862">
<path d="M363.276 339.772L338.863 347.978L343.746 369.441L368.856 359.341L363.276 339.772Z" fill="#14BE2C"/>
</g>
<g opacity="0.30304">
<path d="M965.152 469.355L972.825 494.605L989.77 486.157L965.152 469.355Z" fill="#FF0000"/>
</g>
<g opacity="0.277212">
<path d="M220.608 329.792L196.195 337.998L201.078 359.461L226.188 349.361L220.608 329.792Z" fill="#FFE600"/>
</g>
<g opacity="0.251378">
<path d="M717.51 379.946C708.743 379.946 701.637 386.378 701.637 394.312C701.637 402.245 708.743 408.677 717.51 408.677C726.276 408.677 733.382 402.245 733.382 394.312C733.382 386.378 726.276 379.946 717.51 379.946Z" fill="#4587F3"/>
</g>
<g opacity="0.277212">
<path d="M126.147 668.928L101.734 677.134L106.617 698.596L131.727 688.496L126.147 668.928Z" fill="#4688F4"/>
</g>
<g opacity="0.30304">
<path d="M715.988 265.901L723.661 291.151L740.606 282.702L715.988 265.901Z" fill="#FFE600"/>
</g>
<g opacity="0.328862">
<path d="M831.422 909.936C831.422 909.936 846.418 905.518 847.813 911.515C849.208 917.511 841.536 922.877 846.767 926.349C851.998 929.821 861.763 921.299 866.297 929.19C870.831 937.08 857.229 944.024 865.948 946.865C874.667 949.705 884.083 943.393 886.873 952.23C889.663 961.068 886.176 966.749 886.176 966.749" stroke="#F20A0A" stroke-width="2"/>
</g>
<g opacity="0.354677">
<path d="M157.57 157.066L165.243 182.316L182.188 173.867L157.57 157.066Z" fill="#FFE600"/>
</g>
</g>
</g>
<defs>
<clipPath id="clip0_325_1456">
<rect width="1116" height="1010" fill="white"/>
</clipPath>
</defs>
</svg>
