<svg width="70" height="74" viewBox="0 0 70 74" fill="none" xmlns="http://www.w3.org/2000/svg">
<g filter="url(#filter0_i_315_473)">
<path d="M42.2343 72.86C39.1543 73.14 36.4476 73.28 34.1143 73.28C31.8743 73.28 29.8676 73.0933 28.0943 72.72C26.7876 65.8133 26.1343 60.3067 26.1343 56.2C26.1343 52 26.181 47.7533 26.2743 43.46L1.4943 42.9C1.12096 41.1267 0.934297 39.2133 0.934297 37.16C0.934297 35.1067 1.0743 33.0067 1.3543 30.86C8.6343 29.5533 14.8876 28.9 20.1143 28.9H26.5543L27.1143 1.32C28.8876 0.946663 30.8943 0.759995 33.1343 0.759995C35.4676 0.759995 38.1743 0.899996 41.2543 1.18C42.4676 7.99333 43.0743 13.9667 43.0743 19.1V29.32L68.5543 29.88C68.9276 31.6533 69.1143 33.6133 69.1143 35.76C69.1143 37.8133 68.9743 39.82 68.6943 41.78C61.4143 43.18 56.0943 43.88 52.7343 43.88C49.3743 43.88 46.0143 43.8333 42.6543 43.74L42.2343 72.86Z" fill="url(#paint0_linear_315_473)"/>
</g>
<path d="M42.2343 72.86L42.687 77.8395L47.1689 77.432L47.2338 72.9321L42.2343 72.86ZM28.0943 72.72L23.1814 73.6495L23.8013 76.9258L27.0642 77.6127L28.0943 72.72ZM26.2743 43.46L31.2731 43.5687L31.3817 38.5741L26.3873 38.4613L26.2743 43.46ZM1.4943 42.9L-3.39845 43.9301L-2.5818 47.8092L1.38133 47.8987L1.4943 42.9ZM1.3543 30.86L0.470977 25.9386L-3.13046 26.5851L-3.6037 30.2133L1.3543 30.86ZM26.5543 28.9V33.9H31.4538L31.5533 29.0015L26.5543 28.9ZM27.1143 1.32L26.0842 -3.57275L22.196 -2.75417L22.1153 1.2185L27.1143 1.32ZM41.2543 1.18L46.1769 0.303383L45.5077 -3.45394L41.707 -3.79947L41.2543 1.18ZM43.0743 29.32H38.0743V34.2113L42.9644 34.3188L43.0743 29.32ZM68.5543 29.88L73.4471 28.85L72.6299 24.9684L68.6642 24.8812L68.5543 29.88ZM68.6943 41.78L69.6385 46.69L73.1398 46.0167L73.6441 42.4871L68.6943 41.78ZM42.6543 43.74L42.7931 38.7419L37.7279 38.6012L37.6548 43.6679L42.6543 43.74ZM41.7816 67.8805C38.807 68.151 36.2571 68.28 34.1143 68.28V78.28C36.6382 78.28 39.5016 78.129 42.687 77.8395L41.7816 67.8805ZM34.1143 68.28C32.1429 68.28 30.4907 68.1149 29.1244 67.8273L27.0642 77.6127C29.2446 78.0718 31.6057 78.28 34.1143 78.28V68.28ZM33.0071 71.7905C31.7238 65.0072 31.1343 59.8517 31.1343 56.2H21.1343C21.1343 60.7616 21.8514 66.6194 23.1814 73.6495L33.0071 71.7905ZM31.1343 56.2C31.1343 52.037 31.1806 47.8266 31.2731 43.5687L21.2755 43.3513C21.1814 47.6801 21.1343 51.963 21.1343 56.2H31.1343ZM26.3873 38.4613L1.60726 37.9013L1.38133 47.8987L26.1613 48.4587L26.3873 38.4613ZM6.38705 41.8699C6.09371 40.4766 5.9343 38.9121 5.9343 37.16H-4.0657C-4.0657 39.5146 -3.85178 41.7767 -3.39845 43.9301L6.38705 41.8699ZM5.9343 37.16C5.9343 35.3342 6.05877 33.4505 6.3123 31.5067L-3.6037 30.2133C-3.91017 32.5629 -4.0657 34.8791 -4.0657 37.16H5.9343ZM2.23762 35.7813C9.33555 34.5074 15.2774 33.9 20.1143 33.9V23.9C14.4978 23.9 7.93304 24.5993 0.470977 25.9386L2.23762 35.7813ZM20.1143 33.9H26.5543V23.9H20.1143V33.9ZM31.5533 29.0015L32.1133 1.4215L22.1153 1.2185L21.5553 28.7985L31.5533 29.0015ZM28.1444 6.21275C29.5107 5.92509 31.1629 5.75999 33.1343 5.75999V-4.24001C30.6257 -4.24001 28.2646 -4.03177 26.0842 -3.57275L28.1444 6.21275ZM33.1343 5.75999C35.2771 5.75999 37.827 5.88904 40.8016 6.15946L41.707 -3.79947C38.5216 -4.08905 35.6582 -4.24001 33.1343 -4.24001V5.75999ZM36.3317 2.05662C37.5101 8.67329 38.0743 14.3417 38.0743 19.1H48.0743C48.0743 13.5916 47.4252 7.31338 46.1769 0.303383L36.3317 2.05662ZM38.0743 19.1V29.32H48.0743V19.1H38.0743ZM42.9644 34.3188L68.4444 34.8788L68.6642 24.8812L43.1842 24.3212L42.9644 34.3188ZM63.6616 30.91C63.9519 32.2894 64.1143 33.898 64.1143 35.76H74.1143C74.1143 33.3287 73.9033 31.0173 73.4471 28.85L63.6616 30.91ZM64.1143 35.76C64.1143 37.5855 63.9899 39.3556 63.7446 41.0729L73.6441 42.4871C73.9587 40.2844 74.1143 38.0412 74.1143 35.76H64.1143ZM67.7501 36.87C60.5013 38.264 55.5826 38.88 52.7343 38.88V48.88C56.606 48.88 62.3273 48.096 69.6385 46.69L67.7501 36.87ZM52.7343 38.88C49.4206 38.88 46.1069 38.834 42.7931 38.7419L42.5155 48.7381C45.9217 48.8327 49.328 48.88 52.7343 48.88V38.88ZM37.6548 43.6679L37.2348 72.7879L47.2338 72.9321L47.6538 43.8121L37.6548 43.6679Z" fill="url(#paint1_linear_315_473)"/>
<defs>
<filter id="filter0_i_315_473" x="0.933594" y="0.759766" width="86.1797" height="87.52" filterUnits="userSpaceOnUse" color-interpolation-filters="sRGB">
<feFlood flood-opacity="0" result="BackgroundImageFix"/>
<feBlend mode="normal" in="SourceGraphic" in2="BackgroundImageFix" result="shape"/>
<feColorMatrix in="SourceAlpha" type="matrix" values="0 0 0 0 0 0 0 0 0 0 0 0 0 0 0 0 0 0 127 0" result="hardAlpha"/>
<feOffset dx="18" dy="15"/>
<feGaussianBlur stdDeviation="12.5"/>
<feComposite in2="hardAlpha" operator="arithmetic" k2="-1" k3="1"/>
<feColorMatrix type="matrix" values="0 0 0 0 0 0 0 0 0 0 0 0 0 0 0 0 0 0 0.57 0"/>
<feBlend mode="normal" in2="shape" result="effect1_innerShadow_315_473"/>
</filter>
<linearGradient id="paint0_linear_315_473" x1="-1.31632" y1="-61.9585" x2="88.1532" y2="-51.7675" gradientUnits="userSpaceOnUse">
<stop stop-color="#3A81BF"/>
<stop offset="1" stop-color="#41305A" stop-opacity="0.03"/>
</linearGradient>
<linearGradient id="paint1_linear_315_473" x1="-1.06992" y1="-60.8257" x2="88.7726" y2="-50.2989" gradientUnits="userSpaceOnUse">
<stop stop-color="#FB37FF"/>
<stop offset="0.425065" stop-color="#9B6FEE"/>
<stop offset="0.519704" stop-color="#7B7FEA" stop-opacity="0"/>
<stop offset="1" stop-color="#18B2DE"/>
</linearGradient>
</defs>
</svg>
