<svg width="492" height="108" viewBox="0 0 492 108" fill="none" xmlns="http://www.w3.org/2000/svg">
<g filter="url(#filter0_d_1_19)">
<path d="M49.8584 28.92C49.8584 32.1733 49.1118 35.16 47.6184 37.88C46.1251 40.5467 43.8318 42.7067 40.7384 44.36C37.6451 46.0133 33.8051 46.84 29.2184 46.84H20.7384V67H7.05843V10.84H29.2184C33.6984 10.84 37.4851 11.6133 40.5784 13.16C43.6718 14.7067 45.9918 16.84 47.5384 19.56C49.0851 22.28 49.8584 25.4 49.8584 28.92ZM28.1784 35.96C30.7918 35.96 32.7384 35.3467 34.0184 34.12C35.2984 32.8933 35.9384 31.16 35.9384 28.92C35.9384 26.68 35.2984 24.9467 34.0184 23.72C32.7384 22.4933 30.7918 21.88 28.1784 21.88H20.7384V35.96H28.1784ZM96.7403 67.56C91.4603 67.56 86.607 66.3333 82.1803 63.88C77.807 61.4267 74.3136 58.0133 71.7003 53.64C69.1403 49.2133 67.8603 44.2533 67.8603 38.76C67.8603 33.2667 69.1403 28.3333 71.7003 23.96C74.3136 19.5867 77.807 16.1733 82.1803 13.72C86.607 11.2667 91.4603 10.04 96.7403 10.04C102.02 10.04 106.847 11.2667 111.22 13.72C115.647 16.1733 119.114 19.5867 121.62 23.96C124.18 28.3333 125.46 33.2667 125.46 38.76C125.46 44.2533 124.18 49.2133 121.62 53.64C119.06 58.0133 115.594 61.4267 111.22 63.88C106.847 66.3333 102.02 67.56 96.7403 67.56ZM96.7403 55.08C101.22 55.08 104.794 53.5867 107.46 50.6C110.18 47.6133 111.54 43.6667 111.54 38.76C111.54 33.8 110.18 29.8533 107.46 26.92C104.794 23.9333 101.22 22.44 96.7403 22.44C92.207 22.44 88.5803 23.9067 85.8603 26.84C83.1936 29.7733 81.8603 33.7467 81.8603 38.76C81.8603 43.72 83.1936 47.6933 85.8603 50.68C88.5803 53.6133 92.207 55.08 96.7403 55.08ZM166.591 67.56C162.484 67.56 158.804 66.8933 155.551 65.56C152.298 64.2267 149.684 62.2533 147.711 59.64C145.791 57.0267 144.778 53.88 144.671 50.2H159.231C159.444 52.28 160.164 53.88 161.391 55C162.618 56.0667 164.218 56.6 166.191 56.6C168.218 56.6 169.818 56.1467 170.991 55.24C172.164 54.28 172.751 52.9733 172.751 51.32C172.751 49.9333 172.271 48.7867 171.311 47.88C170.404 46.9733 169.258 46.2267 167.871 45.64C166.538 45.0533 164.618 44.3867 162.111 43.64C158.484 42.52 155.524 41.4 153.231 40.28C150.938 39.16 148.964 37.5067 147.311 35.32C145.658 33.1333 144.831 30.28 144.831 26.76C144.831 21.5333 146.724 17.4533 150.511 14.52C154.298 11.5333 159.231 10.04 165.311 10.04C171.498 10.04 176.484 11.5333 180.271 14.52C184.058 17.4533 186.084 21.56 186.351 26.84H171.551C171.444 25.0267 170.778 23.6133 169.551 22.6C168.324 21.5333 166.751 21 164.831 21C163.178 21 161.844 21.4533 160.831 22.36C159.818 23.2133 159.311 24.4667 159.311 26.12C159.311 27.9333 160.164 29.3467 161.871 30.36C163.578 31.3733 166.244 32.4667 169.871 33.64C173.498 34.8667 176.431 36.04 178.671 37.16C180.964 38.28 182.938 39.9067 184.591 42.04C186.244 44.1733 187.071 46.92 187.071 50.28C187.071 53.48 186.244 56.3867 184.591 59C182.991 61.6133 180.644 63.6933 177.551 65.24C174.458 66.7867 170.804 67.56 166.591 67.56ZM222.37 10.84V67H208.69V10.84H222.37ZM285.883 10.84V21.8H271.003V67H257.323V21.8H242.443V10.84H285.883ZM319.629 10.84V67H305.949V10.84H319.629ZM395.463 10.84L375.543 67H358.423L338.503 10.84H353.063L366.983 53.24L380.983 10.84H395.463ZM428.06 21.8V33.16H446.38V43.72H428.06V56.04H448.78V67H414.38V10.84H448.78V21.8H428.06Z" fill="url(#paint0_linear_1_19)" shape-rendering="crispEdges"/>
<path d="M47.6184 37.88L48.491 38.3686L48.495 38.3613L47.6184 37.88ZM40.7384 44.36L40.2671 43.4781L40.2671 43.4781L40.7384 44.36ZM20.7384 46.84V45.84H19.7384V46.84H20.7384ZM20.7384 67V68H21.7384V67H20.7384ZM7.05843 67H6.05843V68H7.05843V67ZM7.05843 10.84V9.84H6.05843V10.84H7.05843ZM40.5784 13.16L41.0257 12.2656L41.0257 12.2656L40.5784 13.16ZM20.7384 21.88V20.88H19.7384V21.88H20.7384ZM20.7384 35.96H19.7384V36.96H20.7384V35.96ZM48.8584 28.92C48.8584 32.0135 48.1502 34.8335 46.7419 37.3987L48.495 38.3613C50.0733 35.4865 50.8584 32.3331 50.8584 28.92H48.8584ZM46.7459 37.3914C45.3592 39.8678 43.2173 41.9012 40.2671 43.4781L41.2098 45.2419C44.4462 43.5121 46.891 41.2256 48.4909 38.3686L46.7459 37.3914ZM40.2671 43.4781C37.3565 45.0337 33.6896 45.84 29.2184 45.84V47.84C33.9206 47.84 37.9337 46.993 41.2098 45.2419L40.2671 43.4781ZM29.2184 45.84H20.7384V47.84H29.2184V45.84ZM19.7384 46.84V67H21.7384V46.84H19.7384ZM20.7384 66H7.05843V68H20.7384V66ZM8.05843 67V10.84H6.05843V67H8.05843ZM7.05843 11.84H29.2184V9.84H7.05843V11.84ZM29.2184 11.84C33.5875 11.84 37.2116 12.5946 40.1312 14.0544L41.0257 12.2656C37.7586 10.6321 33.8094 9.84 29.2184 9.84V11.84ZM40.1312 14.0544C43.0667 15.5222 45.2306 17.5245 46.6691 20.0543L48.4077 19.0657C46.7529 16.1555 44.2768 13.8911 41.0257 12.2656L40.1312 14.0544ZM46.6691 20.0543C48.1199 22.6055 48.8584 25.5512 48.8584 28.92H50.8584C50.8584 25.2488 50.0503 21.9544 48.4077 19.0657L46.6691 20.0543ZM28.1784 36.96C30.9288 36.96 33.1722 36.3161 34.7103 34.842L33.3265 33.398C32.3047 34.3772 30.6548 34.96 28.1784 34.96V36.96ZM34.7103 34.842C36.2361 33.3798 36.9384 31.3565 36.9384 28.92H34.9384C34.9384 30.9635 34.3608 32.4068 33.3265 33.398L34.7103 34.842ZM36.9384 28.92C36.9384 26.4835 36.2361 24.4602 34.7103 22.998L33.3265 24.442C34.3608 25.4332 34.9384 26.8765 34.9384 28.92H36.9384ZM34.7103 22.998C33.1722 21.5239 30.9288 20.88 28.1784 20.88V22.88C30.6548 22.88 32.3047 23.4627 33.3265 24.442L34.7103 22.998ZM28.1784 20.88H20.7384V22.88H28.1784V20.88ZM19.7384 21.88V35.96H21.7384V21.88H19.7384ZM20.7384 36.96H28.1784V34.96H20.7384V36.96ZM82.1803 63.88L81.691 64.7522L81.6956 64.7547L82.1803 63.88ZM71.7003 53.64L70.8346 54.1406L70.8382 54.1468L70.8419 54.153L71.7003 53.64ZM71.7003 23.96L70.8419 23.447L70.8373 23.4548L71.7003 23.96ZM82.1803 13.72L81.6956 12.8453L81.6911 12.8479L82.1803 13.72ZM111.22 13.72L110.731 14.5922L110.736 14.5947L111.22 13.72ZM121.62 23.96L120.753 24.4573L120.757 24.4652L121.62 23.96ZM121.62 53.64L122.483 54.1452L122.486 54.1406L121.62 53.64ZM111.22 63.88L111.71 64.7521L111.71 64.7521L111.22 63.88ZM107.46 50.6L106.721 49.9266L106.714 49.934L107.46 50.6ZM107.46 26.92L106.714 27.586L106.721 27.593L106.727 27.5999L107.46 26.92ZM85.8603 26.84L85.127 26.16L85.1204 26.1673L85.8603 26.84ZM85.8603 50.68L85.1144 51.346L85.1206 51.353L85.127 51.3599L85.8603 50.68ZM96.7403 66.56C91.6223 66.56 86.9369 65.3729 82.6651 63.0053L81.6956 64.7547C86.2771 67.2938 91.2983 68.56 96.7403 68.56V66.56ZM82.6696 63.0079C78.4511 60.6414 75.084 57.353 72.5587 53.127L70.8419 54.153C73.5433 58.6737 77.1629 62.2119 81.6911 64.7521L82.6696 63.0079ZM72.566 53.1394C70.1005 48.8761 68.8603 44.091 68.8603 38.76H66.8603C66.8603 44.4156 68.1801 49.5505 70.8346 54.1406L72.566 53.1394ZM68.8603 38.76C68.8603 33.4288 70.1005 28.6725 72.5633 24.4652L70.8373 23.4548C68.1801 27.9942 66.8603 33.1045 66.8603 38.76H68.8603ZM72.5587 24.473C75.084 20.247 78.4511 16.9586 82.6696 14.5921L81.6911 12.8479C77.1629 15.3881 73.5433 18.9263 70.8419 23.447L72.5587 24.473ZM82.6651 14.5947C86.9369 12.2271 91.6223 11.04 96.7403 11.04V9.04C91.2983 9.04 86.2771 10.3062 81.6956 12.8453L82.6651 14.5947ZM96.7403 11.04C101.858 11.04 106.515 12.2271 110.731 14.5921L111.71 12.8479C107.179 10.3062 102.182 9.04 96.7403 9.04V11.04ZM110.736 14.5947C115.003 16.9599 118.337 20.243 120.753 24.4573L122.488 23.4627C119.89 18.9303 116.291 15.3868 111.705 12.8453L110.736 14.5947ZM120.757 24.4652C123.22 28.6725 124.46 33.4288 124.46 38.76H126.46C126.46 33.1045 125.141 27.9942 122.483 23.4548L120.757 24.4652ZM124.46 38.76C124.46 44.091 123.22 48.8761 120.755 53.1394L122.486 54.1406C125.14 49.5505 126.46 44.4156 126.46 38.76H124.46ZM120.757 53.1348C118.286 57.3565 114.948 60.6424 110.731 63.0079L111.71 64.7521C116.24 62.2109 119.835 58.6702 122.483 54.1452L120.757 53.1348ZM110.731 63.0079C106.515 65.3729 101.858 66.56 96.7403 66.56V68.56C102.182 68.56 107.179 67.2938 111.71 64.7521L110.731 63.0079ZM96.7403 56.08C101.467 56.08 105.326 54.4918 108.206 51.266L106.714 49.934C104.261 52.6816 100.973 54.08 96.7403 54.08V56.08ZM108.2 51.2733C111.122 48.0648 112.54 43.8595 112.54 38.76H110.54C110.54 43.4738 109.239 47.1619 106.721 49.9267L108.2 51.2733ZM112.54 38.76C112.54 33.6112 111.124 29.4 108.194 26.2401L106.727 27.5999C109.237 30.3066 110.54 33.9888 110.54 38.76H112.54ZM108.206 26.254C105.326 23.0282 101.467 21.44 96.7403 21.44V23.44C100.973 23.44 104.261 24.8384 106.714 27.586L108.206 26.254ZM96.7403 21.44C91.9695 21.44 88.0624 22.9945 85.127 26.1601L86.5936 27.5199C89.0982 24.8188 92.4444 23.44 96.7403 23.44V21.44ZM85.1204 26.1673C82.2455 29.3297 80.8603 33.5662 80.8603 38.76H82.8603C82.8603 33.9272 84.1418 30.217 86.6002 27.5127L85.1204 26.1673ZM80.8603 38.76C80.8603 43.9046 82.2475 48.1351 85.1144 51.346L86.6062 50.014C84.1398 47.2515 82.8603 43.5354 82.8603 38.76H80.8603ZM85.127 51.3599C88.0624 54.5255 91.9695 56.08 96.7403 56.08V54.08C92.4444 54.08 89.0982 52.7012 86.5936 50.0001L85.127 51.3599ZM155.551 65.56L155.172 66.4853L155.172 66.4853L155.551 65.56ZM147.711 59.64L146.905 60.2321L146.913 60.2426L147.711 59.64ZM144.671 50.2V49.2H143.642L143.671 50.229L144.671 50.2ZM159.231 50.2L160.226 50.098L160.134 49.2H159.231V50.2ZM161.391 55L160.717 55.7385L160.726 55.7467L160.735 55.7546L161.391 55ZM170.991 55.24L171.602 56.0313L171.613 56.0228L171.624 56.014L170.991 55.24ZM171.311 47.88L170.604 48.5871L170.614 48.5972L170.624 48.607L171.311 47.88ZM167.871 45.64L167.468 46.5553L167.475 46.5582L167.481 46.561L167.871 45.64ZM162.111 43.64L161.816 44.5955L161.825 44.5984L162.111 43.64ZM153.231 40.28L152.792 41.1786L153.231 40.28ZM147.311 35.32L148.109 34.7169L148.109 34.7169L147.311 35.32ZM150.511 14.52L151.123 15.3106L151.13 15.3052L150.511 14.52ZM180.271 14.52L179.652 15.3052L179.659 15.3105L180.271 14.52ZM186.351 26.84V27.84H187.403L187.35 26.7896L186.351 26.84ZM171.551 26.84L170.553 26.8987L170.608 27.84H171.551V26.84ZM169.551 22.6L168.895 23.3546L168.904 23.3629L168.914 23.371L169.551 22.6ZM160.831 22.36L161.475 23.1249L161.487 23.1152L161.498 23.1052L160.831 22.36ZM161.871 30.36L162.381 29.5001L162.381 29.5001L161.871 30.36ZM169.871 33.64L170.191 32.6926L170.179 32.6886L169.871 33.64ZM178.671 37.16L178.224 38.0545L178.232 38.0586L178.671 37.16ZM184.591 42.04L183.8 42.6526L183.8 42.6526L184.591 42.04ZM184.591 59L183.746 58.4654L183.742 58.4716L183.738 58.4778L184.591 59ZM177.551 65.24L177.104 64.3456L177.104 64.3456L177.551 65.24ZM166.591 66.56C162.593 66.56 159.045 65.9111 155.93 64.6347L155.172 66.4853C158.564 67.8755 162.376 68.56 166.591 68.56V66.56ZM155.93 64.6347C152.83 63.3642 150.366 61.497 148.509 59.0374L146.913 60.2426C149.002 63.0097 151.765 65.0891 155.172 66.4853L155.93 64.6347ZM148.517 59.0479C146.733 56.6198 145.772 53.6765 145.67 50.171L143.671 50.229C143.783 54.0835 144.849 57.4335 146.905 60.2321L148.517 59.0479ZM144.671 51.2H159.231V49.2H144.671V51.2ZM158.236 50.302C158.468 52.5608 159.265 54.4133 160.717 55.7385L162.065 54.2615C161.063 53.3467 160.421 51.9992 160.226 50.098L158.236 50.302ZM160.735 55.7546C162.18 57.0116 164.03 57.6 166.191 57.6V55.6C164.405 55.6 163.055 55.1217 162.047 54.2454L160.735 55.7546ZM166.191 57.6C168.359 57.6 170.2 57.1152 171.602 56.0313L170.379 54.4487C169.436 55.1781 168.076 55.6 166.191 55.6V57.6ZM171.624 56.014C173.053 54.8453 173.751 53.2423 173.751 51.32H171.751C171.751 52.7043 171.276 53.7147 170.358 54.466L171.624 56.014ZM173.751 51.32C173.751 49.6737 173.169 48.2589 171.998 47.153L170.624 48.607C171.373 49.3144 171.751 50.193 171.751 51.32H173.751ZM172.018 47.1729C171.006 46.1608 169.745 45.3473 168.261 44.719L167.481 46.561C168.77 47.1061 169.803 47.7859 170.604 48.5871L172.018 47.1729ZM168.274 44.7247C166.883 44.113 164.917 43.4324 162.396 42.6816L161.825 44.5984C164.318 45.3409 166.192 45.9937 167.468 46.5553L168.274 44.7247ZM162.406 42.6845C158.807 41.5732 155.9 40.4707 153.67 39.3814L152.792 41.1786C155.148 42.3293 158.161 43.4668 161.816 44.5955L162.406 42.6845ZM153.67 39.3814C151.528 38.3354 149.674 36.7878 148.109 34.7169L146.513 35.9231C148.254 38.2256 150.347 39.9846 152.792 41.1786L153.67 39.3814ZM148.109 34.7169C146.62 32.7477 145.831 30.1246 145.831 26.76H143.831C143.831 30.4354 144.695 33.5189 146.513 35.9231L148.109 34.7169ZM145.831 26.76C145.831 21.8102 147.606 18.0355 151.123 15.3105L149.899 13.7294C145.843 16.8712 143.831 21.2565 143.831 26.76H145.831ZM151.13 15.3052C154.699 12.4906 159.396 11.04 165.311 11.04V9.04C159.066 9.04 153.896 10.5761 149.892 13.7348L151.13 15.3052ZM165.311 11.04C171.337 11.04 176.086 12.4929 179.652 15.3052L180.89 13.7348C176.882 10.5738 171.658 9.04 165.311 9.04V11.04ZM179.659 15.3105C183.189 18.0455 185.099 21.8677 185.352 26.8904L187.35 26.7896C187.07 21.2523 184.926 16.8612 180.883 13.7294L179.659 15.3105ZM186.351 25.84H171.551V27.84H186.351V25.84ZM172.549 26.7813C172.429 24.7338 171.66 23.0451 170.188 21.829L168.914 23.371C169.895 24.1816 170.46 25.3195 170.553 26.8987L172.549 26.7813ZM170.207 21.8454C168.766 20.5927 166.946 20 164.831 20V22C166.556 22 167.882 22.474 168.895 23.3546L170.207 21.8454ZM164.831 20C162.987 20 161.398 20.5104 160.164 21.6148L161.498 23.1052C162.29 22.3963 163.368 22 164.831 22V20ZM160.187 21.5951C158.893 22.6843 158.311 24.2512 158.311 26.12H160.311C160.311 24.6821 160.742 23.7424 161.475 23.1249L160.187 21.5951ZM158.311 26.12C158.311 28.3248 159.385 30.0469 161.36 31.2199L162.381 29.5001C160.944 28.6464 160.311 27.5419 160.311 26.12H158.311ZM161.36 31.2199C163.165 32.2915 165.918 33.4121 169.563 34.5914L170.179 32.6886C166.571 31.5213 163.99 30.4552 162.381 29.5001L161.36 31.2199ZM169.551 34.5873C173.154 35.8061 176.04 36.9626 178.224 38.0544L179.118 36.2656C176.822 35.1174 173.841 33.9273 170.191 32.6927L169.551 34.5873ZM178.232 38.0586C180.38 39.1075 182.235 40.6331 183.8 42.6526L185.381 41.4274C183.64 39.1802 181.549 37.4525 179.11 36.2614L178.232 38.0586ZM183.8 42.6526C185.288 44.5713 186.071 47.0864 186.071 50.28H188.071C188.071 46.7536 187.201 43.7753 185.381 41.4274L183.8 42.6526ZM186.071 50.28C186.071 53.2977 185.294 56.0177 183.746 58.4654L185.436 59.5346C187.194 56.7556 188.071 53.6623 188.071 50.28H186.071ZM183.738 58.4778C182.248 60.9117 180.052 62.8715 177.104 64.3456L177.998 66.1344C181.237 64.5151 183.734 62.3149 185.444 59.5222L183.738 58.4778ZM177.104 64.3456C174.176 65.8093 170.682 66.56 166.591 66.56V68.56C170.926 68.56 174.739 67.764 177.998 66.1344L177.104 64.3456ZM222.37 10.84H223.37V9.84H222.37V10.84ZM222.37 67V68H223.37V67H222.37ZM208.69 67H207.69V68H208.69V67ZM208.69 10.84V9.84H207.69V10.84H208.69ZM221.37 10.84V67H223.37V10.84H221.37ZM222.37 66H208.69V68H222.37V66ZM209.69 67V10.84H207.69V67H209.69ZM208.69 11.84H222.37V9.84H208.69V11.84ZM285.883 10.84H286.883V9.84H285.883V10.84ZM285.883 21.8V22.8H286.883V21.8H285.883ZM271.003 21.8V20.8H270.003V21.8H271.003ZM271.003 67V68H272.003V67H271.003ZM257.323 67H256.323V68H257.323V67ZM257.323 21.8H258.323V20.8H257.323V21.8ZM242.443 21.8H241.443V22.8H242.443V21.8ZM242.443 10.84V9.84H241.443V10.84H242.443ZM284.883 10.84V21.8H286.883V10.84H284.883ZM285.883 20.8H271.003V22.8H285.883V20.8ZM270.003 21.8V67H272.003V21.8H270.003ZM271.003 66H257.323V68H271.003V66ZM258.323 67V21.8H256.323V67H258.323ZM257.323 20.8H242.443V22.8H257.323V20.8ZM243.443 21.8V10.84H241.443V21.8H243.443ZM242.443 11.84H285.883V9.84H242.443V11.84ZM319.629 10.84H320.629V9.84H319.629V10.84ZM319.629 67V68H320.629V67H319.629ZM305.949 67H304.949V68H305.949V67ZM305.949 10.84V9.84H304.949V10.84H305.949ZM318.629 10.84V67H320.629V10.84H318.629ZM319.629 66H305.949V68H319.629V66ZM306.949 67V10.84H304.949V67H306.949ZM305.949 11.84H319.629V9.84H305.949V11.84ZM395.463 10.84L396.405 11.1743L396.879 9.84H395.463V10.84ZM375.543 67V68H376.249L376.485 67.3343L375.543 67ZM358.423 67L357.48 67.3343L357.716 68H358.423V67ZM338.503 10.84V9.84H337.087L337.56 11.1743L338.503 10.84ZM353.063 10.84L354.013 10.5281L353.787 9.84H353.063V10.84ZM366.983 53.24L366.033 53.5519L366.98 56.4376L367.932 53.5535L366.983 53.24ZM380.983 10.84V9.84H380.26L380.033 10.5265L380.983 10.84ZM394.52 10.5057L374.6 66.6657L376.485 67.3343L396.405 11.1743L394.52 10.5057ZM375.543 66H358.423V68H375.543V66ZM359.365 66.6657L339.445 10.5057L337.56 11.1743L357.48 67.3343L359.365 66.6657ZM338.503 11.84H353.063V9.84H338.503V11.84ZM352.113 11.1519L366.033 53.5519L367.933 52.9281L354.013 10.5281L352.113 11.1519ZM367.932 53.5535L381.932 11.1535L380.033 10.5265L366.033 52.9265L367.932 53.5535ZM380.983 11.84H395.463V9.84H380.983V11.84ZM428.06 21.8V20.8H427.06V21.8H428.06ZM428.06 33.16H427.06V34.16H428.06V33.16ZM446.38 33.16H447.38V32.16H446.38V33.16ZM446.38 43.72V44.72H447.38V43.72H446.38ZM428.06 43.72V42.72H427.06V43.72H428.06ZM428.06 56.04H427.06V57.04H428.06V56.04ZM448.78 56.04H449.78V55.04H448.78V56.04ZM448.78 67V68H449.78V67H448.78ZM414.38 67H413.38V68H414.38V67ZM414.38 10.84V9.84H413.38V10.84H414.38ZM448.78 10.84H449.78V9.84H448.78V10.84ZM448.78 21.8V22.8H449.78V21.8H448.78ZM427.06 21.8V33.16H429.06V21.8H427.06ZM428.06 34.16H446.38V32.16H428.06V34.16ZM445.38 33.16V43.72H447.38V33.16H445.38ZM446.38 42.72H428.06V44.72H446.38V42.72ZM427.06 43.72V56.04H429.06V43.72H427.06ZM428.06 57.04H448.78V55.04H428.06V57.04ZM447.78 56.04V67H449.78V56.04H447.78ZM448.78 66H414.38V68H448.78V66ZM415.38 67V10.84H413.38V67H415.38ZM414.38 11.84H448.78V9.84H414.38V11.84ZM447.78 10.84V21.8H449.78V10.84H447.78ZM448.78 20.8H428.06V22.8H448.78V20.8Z" fill="black" fill-opacity="0.5"/>
</g>
<defs>
<filter id="filter0_d_1_19" x="0.0585938" y="0.0400391" width="491.722" height="107.52" filterUnits="userSpaceOnUse" color-interpolation-filters="sRGB">
<feFlood flood-opacity="0" result="BackgroundImageFix"/>
<feColorMatrix in="SourceAlpha" type="matrix" values="0 0 0 0 0 0 0 0 0 0 0 0 0 0 0 0 0 0 127 0" result="hardAlpha"/>
<feOffset dx="18" dy="15"/>
<feGaussianBlur stdDeviation="12.5"/>
<feComposite in2="hardAlpha" operator="out"/>
<feColorMatrix type="matrix" values="0 0 0 0 0 0 0 0 0 0 0 0 0 0 0 0 0 0 0.57 0"/>
<feBlend mode="normal" in2="BackgroundImageFix" result="effect1_dropShadow_1_19"/>
<feBlend mode="normal" in="SourceGraphic" in2="effect1_dropShadow_1_19" result="shape"/>
</filter>
<linearGradient id="paint0_linear_1_19" x1="-106.273" y1="-16.2697" x2="116.147" y2="367.238" gradientUnits="userSpaceOnUse">
<stop stop-color="#FB37FF"/>
<stop offset="0.421875" stop-color="#9B6FEE"/>
<stop offset="0.682292" stop-color="#18B2DE"/>
<stop offset="1" stop-color="#7B7FEA" stop-opacity="0"/>
</linearGradient>
</defs>
</svg>
