<svg width="353" height="86" viewBox="0 0 353 86" fill="none" xmlns="http://www.w3.org/2000/svg">
<g filter="url(#filter0_d_325_618)">
<path d="M31.7412 21.96C31.1332 20.84 30.2532 19.992 29.1012 19.416C27.9812 18.808 26.6532 18.504 25.1172 18.504C22.4612 18.504 20.3332 19.384 18.7332 21.144C17.1332 22.872 16.3332 25.192 16.3332 28.104C16.3332 31.208 17.1652 33.64 18.8292 35.4C20.5252 37.128 22.8452 37.992 25.7892 37.992C27.8052 37.992 29.5012 37.48 30.8772 36.456C32.2852 35.432 33.3092 33.96 33.9492 32.04H23.5332V25.992H41.3892V33.624C40.7812 35.672 39.7412 37.576 38.2692 39.336C36.8292 41.096 34.9892 42.52 32.7492 43.608C30.5092 44.696 27.9812 45.24 25.1652 45.24C21.8372 45.24 18.8612 44.52 16.2372 43.08C13.6452 41.608 11.6132 39.576 10.1412 36.984C8.70119 34.392 7.98119 31.432 7.98119 28.104C7.98119 24.776 8.70119 21.816 10.1412 19.224C11.6132 16.6 13.6452 14.568 16.2372 13.128C18.8292 11.656 21.7892 10.92 25.1172 10.92C29.1492 10.92 32.5412 11.896 35.2932 13.848C38.0772 15.8 39.9172 18.504 40.8132 21.96H31.7412ZM71.0397 45L64.0317 32.28H62.0637V45H53.8557V11.304H67.6317C70.2877 11.304 72.5437 11.768 74.3997 12.696C76.2877 13.624 77.6957 14.904 78.6237 16.536C79.5517 18.136 80.0157 19.928 80.0157 21.912C80.0157 24.152 79.3757 26.152 78.0957 27.912C76.8477 29.672 74.9917 30.92 72.5277 31.656L80.3037 45H71.0397ZM62.0637 26.472H67.1517C68.6557 26.472 69.7757 26.104 70.5117 25.368C71.2797 24.632 71.6637 23.592 71.6637 22.248C71.6637 20.968 71.2797 19.96 70.5117 19.224C69.7757 18.488 68.6557 18.12 67.1517 18.12H62.0637V26.472ZM114.064 39.048H101.488L99.4722 45H90.8802L103.072 11.304H112.576L124.768 45H116.08L114.064 39.048ZM111.952 32.712L107.776 20.376L103.648 32.712H111.952ZM135.007 28.104C135.007 24.776 135.727 21.816 137.167 19.224C138.607 16.6 140.607 14.568 143.167 13.128C145.759 11.656 148.687 10.92 151.951 10.92C155.951 10.92 159.375 11.976 162.223 14.088C165.071 16.2 166.975 19.08 167.935 22.728H158.911C158.239 21.32 157.279 20.248 156.031 19.512C154.815 18.776 153.423 18.408 151.855 18.408C149.327 18.408 147.279 19.288 145.711 21.048C144.143 22.808 143.359 25.16 143.359 28.104C143.359 31.048 144.143 33.4 145.711 35.16C147.279 36.92 149.327 37.8 151.855 37.8C153.423 37.8 154.815 37.432 156.031 36.696C157.279 35.96 158.239 34.888 158.911 33.48H167.935C166.975 37.128 165.071 40.008 162.223 42.12C159.375 44.2 155.951 45.24 151.951 45.24C148.687 45.24 145.759 44.52 143.167 43.08C140.607 41.608 138.607 39.576 137.167 36.984C135.727 34.392 135.007 31.432 135.007 28.104ZM189.089 17.88V24.696H200.081V31.032H189.089V38.424H201.521V45H180.881V11.304H201.521V17.88H189.089ZM236.706 11.304V17.88H222.978V24.984H233.25V31.368H222.978V45H214.77V11.304H236.706ZM257.004 11.304V31.464C257.004 33.48 257.5 35.032 258.492 36.12C259.484 37.208 260.94 37.752 262.86 37.752C264.78 37.752 266.252 37.208 267.276 36.12C268.3 35.032 268.812 33.48 268.812 31.464V11.304H277.02V31.416C277.02 34.424 276.38 36.968 275.1 39.048C273.82 41.128 272.092 42.696 269.916 43.752C267.772 44.808 265.372 45.336 262.716 45.336C260.06 45.336 257.676 44.824 255.564 43.8C253.484 42.744 251.836 41.176 250.62 39.096C249.404 36.984 248.796 34.424 248.796 31.416V11.304H257.004ZM298.912 38.664H309.664V45H290.704V11.304H298.912V38.664Z" fill="url(#paint0_linear_325_618)" shape-rendering="crispEdges"/>
<path d="M31.7412 21.96L30.8623 22.4371L31.1462 22.96H31.7412V21.96ZM29.1012 19.416L28.6241 20.2949L28.6389 20.3029L28.654 20.3104L29.1012 19.416ZM18.7332 21.144L19.467 21.8234L19.4731 21.8167L18.7332 21.144ZM18.8292 35.4L18.1025 36.087L18.109 36.0938L18.1155 36.1005L18.8292 35.4ZM30.8772 36.456L30.289 35.6472L30.2802 35.6538L30.8772 36.456ZM33.9492 32.04L34.8979 32.3562L35.3366 31.04H33.9492V32.04ZM23.5332 32.04H22.5332V33.04H23.5332V32.04ZM23.5332 25.992V24.992H22.5332V25.992H23.5332ZM41.3892 25.992H42.3892V24.992H41.3892V25.992ZM41.3892 33.624L42.3478 33.9086L42.3892 33.7693V33.624H41.3892ZM38.2692 39.336L37.5021 38.6944L37.4952 38.7028L38.2692 39.336ZM32.7492 43.608L32.3123 42.7085L32.7492 43.608ZM16.2372 43.08L15.7434 43.9496L15.7497 43.9532L15.7561 43.9567L16.2372 43.08ZM10.1412 36.984L9.26699 37.4697L9.27163 37.4778L10.1412 36.984ZM10.1412 19.224L9.26904 18.7347L9.26703 18.7384L10.1412 19.224ZM16.2372 13.128L16.7229 14.0022L16.731 13.9976L16.2372 13.128ZM35.2932 13.848L34.7146 14.6637L34.7191 14.6668L35.2932 13.848ZM40.8132 21.96V22.96H42.1055L41.7812 21.709L40.8132 21.96ZM32.62 21.4829C31.9132 20.1808 30.8815 19.1881 29.5484 18.5216L28.654 20.3104C29.6248 20.7959 30.3532 21.4992 30.8623 22.4371L32.62 21.4829ZM29.5783 18.5371C28.2846 17.8349 26.7858 17.504 25.1172 17.504V19.504C26.5206 19.504 27.6778 19.7811 28.6241 20.2949L29.5783 18.5371ZM25.1172 17.504C22.216 17.504 19.806 18.4773 17.9932 20.4713L19.4731 21.8167C20.8604 20.2907 22.7064 19.504 25.1172 19.504V17.504ZM17.9994 20.4646C16.1901 22.4186 15.3332 25.0025 15.3332 28.104H17.3332C17.3332 25.3815 18.0763 23.3253 19.4669 21.8234L17.9994 20.4646ZM15.3332 28.104C15.3332 31.3888 16.2176 34.0934 18.1025 36.087L19.5558 34.713C18.1127 33.1866 17.3332 31.0272 17.3332 28.104H15.3332ZM18.1155 36.1005C20.0389 38.0602 22.6387 38.992 25.7892 38.992V36.992C23.0517 36.992 21.0115 36.1958 19.5429 34.6995L18.1155 36.1005ZM25.7892 38.992C27.9813 38.992 29.8968 38.4321 31.4742 37.2582L30.2802 35.6538C29.1056 36.5279 27.6291 36.992 25.7892 36.992V38.992ZM31.4654 37.2647C33.0682 36.0991 34.203 34.4408 34.8979 32.3562L33.0005 31.7238C32.4154 33.4792 31.5022 34.7649 30.289 35.6473L31.4654 37.2647ZM33.9492 31.04H23.5332V33.04H33.9492V31.04ZM24.5332 32.04V25.992H22.5332V32.04H24.5332ZM23.5332 26.992H41.3892V24.992H23.5332V26.992ZM40.3892 25.992V33.624H42.3892V25.992H40.3892ZM40.4305 33.3394C39.8642 35.2471 38.8931 37.0313 37.5021 38.6944L39.0363 39.9776C40.5892 38.1207 41.6982 36.0969 42.3478 33.9086L40.4305 33.3394ZM37.4952 38.7028C36.1554 40.3403 34.4345 41.6777 32.3123 42.7085L33.1861 44.5075C35.5439 43.3623 37.503 41.8517 39.0431 39.9692L37.4952 38.7028ZM32.3123 42.7085C30.2253 43.7222 27.8497 44.24 25.1652 44.24V46.24C28.1126 46.24 30.7931 45.6698 33.1861 44.5075L32.3123 42.7085ZM25.1652 44.24C21.9862 44.24 19.1789 43.5537 16.7183 42.2033L15.7561 43.9567C18.5435 45.4863 21.6882 46.24 25.1652 46.24V44.24ZM16.731 42.2104C14.2958 40.8275 12.3937 38.9253 11.0107 36.4902L9.27163 37.4778C10.8327 40.2267 12.9945 42.3885 15.7434 43.9496L16.731 42.2104ZM11.0153 36.4984C9.66758 34.0724 8.98119 31.2832 8.98119 28.104H6.98119C6.98119 31.5808 7.73479 34.7116 9.26703 37.4696L11.0153 36.4984ZM8.98119 28.104C8.98119 24.9248 9.66758 22.1356 11.0153 19.7096L9.26703 18.7384C7.73479 21.4964 6.98119 24.6272 6.98119 28.104H8.98119ZM11.0133 19.7133C12.3961 17.2484 14.2953 15.3508 16.7228 14.0022L15.7515 12.2538C12.995 13.7852 10.8303 15.9516 9.26904 18.7347L11.0133 19.7133ZM16.731 13.9976C19.1555 12.6207 21.9417 11.92 25.1172 11.92V9.92C21.6367 9.92 18.5029 10.6913 15.7434 12.2584L16.731 13.9976ZM25.1172 11.92C28.9833 11.92 32.1626 12.8535 34.7146 14.6636L35.8717 13.0323C32.9198 10.9385 29.3151 9.92 25.1172 9.92V11.92ZM34.7191 14.6668C37.2982 16.4751 39.0056 18.9725 39.8452 22.211L41.7812 21.709C40.8288 18.0355 38.8562 15.1249 35.8673 13.0292L34.7191 14.6668ZM40.8132 20.96H31.7412V22.96H40.8132V20.96ZM71.0397 45L70.1638 45.4826L70.4489 46H71.0397V45ZM64.0317 32.28L64.9076 31.7974L64.6225 31.28H64.0317V32.28ZM62.0637 32.28V31.28H61.0637V32.28H62.0637ZM62.0637 45V46H63.0637V45H62.0637ZM53.8557 45H52.8557V46H53.8557V45ZM53.8557 11.304V10.304H52.8557V11.304H53.8557ZM74.3997 12.696L73.9525 13.5904L73.9586 13.5934L74.3997 12.696ZM78.6237 16.536L77.7544 17.0303L77.7587 17.0377L78.6237 16.536ZM78.0957 27.912L77.2869 27.3238L77.28 27.3336L78.0957 27.912ZM72.5277 31.656L72.2415 30.6978L71.0239 31.0615L71.6637 32.1595L72.5277 31.656ZM80.3037 45V46H82.0438L81.1677 44.4965L80.3037 45ZM62.0637 26.472H61.0637V27.472H62.0637V26.472ZM70.5117 25.368L69.8198 24.646L69.8121 24.6534L69.8046 24.6609L70.5117 25.368ZM70.5117 19.224L69.8046 19.9311L69.8121 19.9386L69.8198 19.946L70.5117 19.224ZM62.0637 18.12V17.12H61.0637V18.12H62.0637ZM71.9156 44.5174L64.9076 31.7974L63.1558 32.7626L70.1638 45.4826L71.9156 44.5174ZM64.0317 31.28H62.0637V33.28H64.0317V31.28ZM61.0637 32.28V45H63.0637V32.28H61.0637ZM62.0637 44H53.8557V46H62.0637V44ZM54.8557 45V11.304H52.8557V45H54.8557ZM53.8557 12.304H67.6317V10.304H53.8557V12.304ZM67.6317 12.304C70.1746 12.304 72.2687 12.7485 73.9525 13.5904L74.8469 11.8016C72.8187 10.7875 70.4008 10.304 67.6317 10.304V12.304ZM73.9586 13.5934C75.6892 14.4441 76.9372 15.5932 77.7544 17.0303L79.493 16.0417C78.4542 14.2148 76.8862 12.8039 74.8408 11.7985L73.9586 13.5934ZM77.7587 17.0377C78.5918 18.4742 79.0157 20.091 79.0157 21.912H81.0157C81.0157 19.765 80.5115 17.7978 79.4887 16.0343L77.7587 17.0377ZM79.0157 21.912C79.0157 23.9473 78.4388 25.74 77.2869 27.3238L78.9044 28.5002C80.3126 26.564 81.0157 24.3567 81.0157 21.912H79.0157ZM77.28 27.3336C76.1846 28.8782 74.5341 30.013 72.2415 30.6978L72.8139 32.6142C75.4493 31.827 77.5107 30.4658 78.9114 28.4904L77.28 27.3336ZM71.6637 32.1595L79.4397 45.5035L81.1677 44.4965L73.3917 31.1525L71.6637 32.1595ZM80.3037 44H71.0397V46H80.3037V44ZM62.0637 27.472H67.1517V25.472H62.0637V27.472ZM67.1517 27.472C68.8026 27.472 70.2255 27.0684 71.2188 26.0751L69.8046 24.6609C69.3259 25.1396 68.5088 25.472 67.1517 25.472V27.472ZM71.2036 26.09C72.2173 25.1185 72.6637 23.7885 72.6637 22.248H70.6637C70.6637 23.3955 70.3421 24.1455 69.8198 24.646L71.2036 26.09ZM72.6637 22.248C72.6637 20.7551 72.2077 19.4643 71.2036 18.502L69.8198 19.946C70.3517 20.4557 70.6637 21.1809 70.6637 22.248H72.6637ZM71.2188 18.5169C70.2255 17.5236 68.8026 17.12 67.1517 17.12V19.12C68.5088 19.12 69.3259 19.4524 69.8046 19.9311L71.2188 18.5169ZM67.1517 17.12H62.0637V19.12H67.1517V17.12ZM61.0637 18.12V26.472H63.0637V18.12H61.0637ZM114.064 39.048L115.011 38.7272L114.781 38.048H114.064V39.048ZM101.488 39.048V38.048H100.771L100.541 38.7272L101.488 39.048ZM99.4722 45V46H100.189L100.419 45.3208L99.4722 45ZM90.8802 45L89.9398 44.6598L89.4549 46H90.8802V45ZM103.072 11.304V10.304H102.371L102.132 10.9638L103.072 11.304ZM112.576 11.304L113.517 10.9638L113.278 10.304H112.576V11.304ZM124.768 45V46H126.193L125.709 44.6598L124.768 45ZM116.08 45L115.133 45.3208L115.363 46H116.08V45ZM111.952 32.712V33.712H113.346L112.899 32.3914L111.952 32.712ZM107.776 20.376L108.723 20.0554L107.771 17.2411L106.828 20.0587L107.776 20.376ZM103.648 32.712L102.7 32.3947L102.259 33.712H103.648V32.712ZM114.064 38.048H101.488V40.048H114.064V38.048ZM100.541 38.7272L98.525 44.6792L100.419 45.3208L102.435 39.3688L100.541 38.7272ZM99.4722 44H90.8802V46H99.4722V44ZM91.8205 45.3402L104.013 11.6442L102.132 10.9638L89.9398 44.6598L91.8205 45.3402ZM103.072 12.304H112.576V10.304H103.072V12.304ZM111.636 11.6442L123.828 45.3402L125.709 44.6598L113.517 10.9638L111.636 11.6442ZM124.768 44H116.08V46H124.768V44ZM117.027 44.6792L115.011 38.7272L113.117 39.3688L115.133 45.3208L117.027 44.6792ZM112.899 32.3914L108.723 20.0554L106.829 20.6966L111.005 33.0326L112.899 32.3914ZM106.828 20.0587L102.7 32.3947L104.596 33.0293L108.724 20.6933L106.828 20.0587ZM103.648 33.712H111.952V31.712H103.648V33.712ZM137.167 19.224L138.041 19.7097L138.043 19.7051L137.167 19.224ZM143.167 13.128L143.657 13.9996L143.661 13.9976L143.167 13.128ZM162.223 14.088L162.818 13.2848H162.818L162.223 14.088ZM167.935 22.728V23.728H169.232L168.902 22.4735L167.935 22.728ZM158.911 22.728L158.008 23.1587L158.28 23.728H158.911V22.728ZM156.031 19.512L155.513 20.3676L155.523 20.3734L156.031 19.512ZM145.711 21.048L146.457 21.7132L145.711 21.048ZM156.031 36.696L155.523 35.8346L155.513 35.8405L156.031 36.696ZM158.911 33.48V32.48H158.28L158.008 33.0493L158.911 33.48ZM167.935 33.48L168.902 33.7345L169.232 32.48H167.935V33.48ZM162.223 42.12L162.813 42.9276L162.818 42.9232L162.223 42.12ZM143.167 43.08L142.668 43.9469L142.675 43.9506L142.681 43.9542L143.167 43.08ZM137.167 36.984L138.041 36.4984L137.167 36.984ZM136.007 28.104C136.007 24.9248 136.693 22.1356 138.041 19.7096L136.293 18.7384C134.76 21.4964 134.007 24.6272 134.007 28.104H136.007ZM138.043 19.7051C139.395 17.2415 141.263 15.3462 143.657 13.9996L142.677 12.2564C139.951 13.7898 137.818 15.9585 136.29 18.7429L138.043 19.7051ZM143.661 13.9976C146.088 12.619 148.843 11.92 151.951 11.92V9.92C148.531 9.92 145.43 10.693 142.673 12.2584L143.661 13.9976ZM151.951 11.92C155.765 11.92 158.973 12.9231 161.627 14.8912L162.818 13.2848C159.776 11.0288 156.137 9.92 151.951 9.92V11.92ZM161.627 14.8912C164.28 16.8588 166.062 19.5392 166.968 22.9825L168.902 22.4735C167.888 18.6208 165.861 15.5412 162.818 13.2848L161.627 14.8912ZM167.935 21.728H158.911V23.728H167.935V21.728ZM159.813 22.2973C159.062 20.7241 157.972 19.4956 156.539 18.6506L155.523 20.3734C156.586 21.0004 157.415 21.9159 158.008 23.1587L159.813 22.2973ZM156.549 18.6565C155.161 17.8164 153.586 17.408 151.855 17.408V19.408C153.26 19.408 154.469 19.7356 155.513 20.3675L156.549 18.6565ZM151.855 17.408C149.065 17.408 146.737 18.393 144.964 20.3828L146.457 21.7132C147.821 20.183 149.589 19.408 151.855 19.408V17.408ZM144.964 20.3828C143.195 22.3683 142.359 24.9781 142.359 28.104H144.359C144.359 25.3419 145.09 23.2477 146.457 21.7132L144.964 20.3828ZM142.359 28.104C142.359 31.2299 143.195 33.8397 144.964 35.8252L146.457 34.4948C145.09 32.9603 144.359 30.8661 144.359 28.104H142.359ZM144.964 35.8252C146.737 37.815 149.065 38.8 151.855 38.8V36.8C149.589 36.8 147.821 36.025 146.457 34.4948L144.964 35.8252ZM151.855 38.8C153.586 38.8 155.161 38.3916 156.549 37.5515L155.513 35.8405C154.469 36.4724 153.26 36.8 151.855 36.8V38.8ZM156.539 37.5574C157.972 36.7124 159.062 35.4839 159.813 33.9107L158.008 33.0493C157.415 34.2921 156.586 35.2076 155.523 35.8346L156.539 37.5574ZM158.911 34.48H167.935V32.48H158.911V34.48ZM166.968 33.2255C166.062 36.6688 164.28 39.3492 161.627 41.3168L162.818 42.9232C165.861 40.6668 167.888 37.5872 168.902 33.7345L166.968 33.2255ZM161.633 41.3124C158.979 43.251 155.768 44.24 151.951 44.24V46.24C156.133 46.24 159.771 45.149 162.813 42.9276L161.633 41.3124ZM151.951 44.24C148.839 44.24 146.081 43.5552 143.652 42.2058L142.681 43.9542C145.436 45.4848 148.534 46.24 151.951 46.24V44.24ZM143.665 42.2131C141.264 40.8321 139.393 38.9322 138.041 36.4984L136.293 37.4696C137.821 40.2198 139.95 42.3839 142.668 43.9469L143.665 42.2131ZM138.041 36.4984C136.693 34.0724 136.007 31.2832 136.007 28.104H134.007C134.007 31.5808 134.76 34.7116 136.293 37.4696L138.041 36.4984ZM189.089 17.88V16.88H188.089V17.88H189.089ZM189.089 24.696H188.089V25.696H189.089V24.696ZM200.081 24.696H201.081V23.696H200.081V24.696ZM200.081 31.032V32.032H201.081V31.032H200.081ZM189.089 31.032V30.032H188.089V31.032H189.089ZM189.089 38.424H188.089V39.424H189.089V38.424ZM201.521 38.424H202.521V37.424H201.521V38.424ZM201.521 45V46H202.521V45H201.521ZM180.881 45H179.881V46H180.881V45ZM180.881 11.304V10.304H179.881V11.304H180.881ZM201.521 11.304H202.521V10.304H201.521V11.304ZM201.521 17.88V18.88H202.521V17.88H201.521ZM188.089 17.88V24.696H190.089V17.88H188.089ZM189.089 25.696H200.081V23.696H189.089V25.696ZM199.081 24.696V31.032H201.081V24.696H199.081ZM200.081 30.032H189.089V32.032H200.081V30.032ZM188.089 31.032V38.424H190.089V31.032H188.089ZM189.089 39.424H201.521V37.424H189.089V39.424ZM200.521 38.424V45H202.521V38.424H200.521ZM201.521 44H180.881V46H201.521V44ZM181.881 45V11.304H179.881V45H181.881ZM180.881 12.304H201.521V10.304H180.881V12.304ZM200.521 11.304V17.88H202.521V11.304H200.521ZM201.521 16.88H189.089V18.88H201.521V16.88ZM236.706 11.304H237.706V10.304H236.706V11.304ZM236.706 17.88V18.88H237.706V17.88H236.706ZM222.978 17.88V16.88H221.978V17.88H222.978ZM222.978 24.984H221.978V25.984H222.978V24.984ZM233.25 24.984H234.25V23.984H233.25V24.984ZM233.25 31.368V32.368H234.25V31.368H233.25ZM222.978 31.368V30.368H221.978V31.368H222.978ZM222.978 45V46H223.978V45H222.978ZM214.77 45H213.77V46H214.77V45ZM214.77 11.304V10.304H213.77V11.304H214.77ZM235.706 11.304V17.88H237.706V11.304H235.706ZM236.706 16.88H222.978V18.88H236.706V16.88ZM221.978 17.88V24.984H223.978V17.88H221.978ZM222.978 25.984H233.25V23.984H222.978V25.984ZM232.25 24.984V31.368H234.25V24.984H232.25ZM233.25 30.368H222.978V32.368H233.25V30.368ZM221.978 31.368V45H223.978V31.368H221.978ZM222.978 44H214.77V46H222.978V44ZM215.77 45V11.304H213.77V45H215.77ZM214.77 12.304H236.706V10.304H214.77V12.304ZM257.004 11.304H258.004V10.304H257.004V11.304ZM258.492 36.12L257.753 36.7938L258.492 36.12ZM267.276 36.12L268.004 36.8054V36.8054L267.276 36.12ZM268.812 11.304V10.304H267.812V11.304H268.812ZM277.02 11.304H278.02V10.304H277.02V11.304ZM275.1 39.048L275.952 39.5721L275.1 39.048ZM269.916 43.752L269.479 42.8523L269.474 42.8549L269.916 43.752ZM255.564 43.8L255.111 44.6917L255.12 44.6958L255.128 44.6998L255.564 43.8ZM250.62 39.096L249.753 39.595L249.757 39.6007L250.62 39.096ZM248.796 11.304V10.304H247.796V11.304H248.796ZM256.004 11.304V31.464H258.004V11.304H256.004ZM256.004 31.464C256.004 33.6364 256.54 35.4628 257.753 36.7938L259.231 35.4462C258.461 34.6012 258.004 33.3236 258.004 31.464H256.004ZM257.753 36.7938C258.988 38.1481 260.749 38.752 262.86 38.752V36.752C261.131 36.752 259.98 36.2679 259.231 35.4462L257.753 36.7938ZM262.86 38.752C264.973 38.752 266.741 38.1475 268.004 36.8054L266.548 35.4346C265.763 36.2685 264.587 36.752 262.86 36.752V38.752ZM268.004 36.8054C269.256 35.4749 269.812 33.644 269.812 31.464H267.812C267.812 33.316 267.344 34.5891 266.548 35.4346L268.004 36.8054ZM269.812 31.464V11.304H267.812V31.464H269.812ZM268.812 12.304H277.02V10.304H268.812V12.304ZM276.02 11.304V31.416H278.02V11.304H276.02ZM276.02 31.416C276.02 34.2817 275.411 36.6344 274.248 38.5239L275.952 39.5721C277.349 37.3016 278.02 34.5663 278.02 31.416H276.02ZM274.248 38.5239C273.067 40.4434 271.482 41.8803 269.479 42.8523L270.353 44.6517C272.702 43.5117 274.573 41.8126 275.952 39.5721L274.248 38.5239ZM269.474 42.8549C267.482 43.836 265.236 44.336 262.716 44.336V46.336C265.508 46.336 268.062 45.78 270.358 44.6491L269.474 42.8549ZM262.716 44.336C260.191 44.336 257.959 43.8501 256 42.9002L255.128 44.6998C257.393 45.7979 259.929 46.336 262.716 46.336V44.336ZM256.017 42.9083C254.114 41.9422 252.606 40.5113 251.483 38.5913L249.757 39.6007C251.066 41.8407 252.854 43.5458 255.111 44.6917L256.017 42.9083ZM251.487 38.597C250.376 36.6686 249.796 34.2896 249.796 31.416H247.796C247.796 34.5584 248.432 37.2994 249.753 39.595L251.487 38.597ZM249.796 31.416V11.304H247.796V31.416H249.796ZM248.796 12.304H257.004V10.304H248.796V12.304ZM298.912 38.664H297.912V39.664H298.912V38.664ZM309.664 38.664H310.664V37.664H309.664V38.664ZM309.664 45V46H310.664V45H309.664ZM290.704 45H289.704V46H290.704V45ZM290.704 11.304V10.304H289.704V11.304H290.704ZM298.912 11.304H299.912V10.304H298.912V11.304ZM298.912 39.664H309.664V37.664H298.912V39.664ZM308.664 38.664V45H310.664V38.664H308.664ZM309.664 44H290.704V46H309.664V44ZM291.704 45V11.304H289.704V45H291.704ZM290.704 12.304H298.912V10.304H290.704V12.304ZM297.912 11.304V38.664H299.912V11.304H297.912Z" fill="black" fill-opacity="0.5"/>
</g>
<defs>
<filter id="filter0_d_325_618" x="0.984375" y="0.919922" width="351.68" height="84.416" filterUnits="userSpaceOnUse" color-interpolation-filters="sRGB">
<feFlood flood-opacity="0" result="BackgroundImageFix"/>
<feColorMatrix in="SourceAlpha" type="matrix" values="0 0 0 0 0 0 0 0 0 0 0 0 0 0 0 0 0 0 127 0" result="hardAlpha"/>
<feOffset dx="18" dy="15"/>
<feGaussianBlur stdDeviation="12.5"/>
<feComposite in2="hardAlpha" operator="out"/>
<feColorMatrix type="matrix" values="0 0 0 0 0 0 0 0 0 0 0 0 0 0 0 0 0 0 0.57 0"/>
<feBlend mode="normal" in2="BackgroundImageFix" result="effect1_dropShadow_325_618"/>
<feBlend mode="normal" in="SourceGraphic" in2="effect1_dropShadow_325_618" result="shape"/>
</filter>
<linearGradient id="paint0_linear_325_618" x1="13.9551" y1="-5.16183" x2="164.697" y2="178.856" gradientUnits="userSpaceOnUse">
<stop stop-color="#FB37FF"/>
<stop offset="0.421875" stop-color="#9B6FEE"/>
<stop offset="0.682292" stop-color="#18B2DE"/>
<stop offset="1" stop-color="#7B7FEA" stop-opacity="0"/>
</linearGradient>
</defs>
</svg>
