<svg width="252" height="123" viewBox="0 0 252 123" fill="none" xmlns="http://www.w3.org/2000/svg">
<g filter="url(#filter0_d_1_269)">
<path d="M34.7465 82.7C29.6132 82.7 25.0132 81.8667 20.9465 80.2C16.8798 78.5333 13.6132 76.0667 11.1465 72.8C8.74648 69.5333 7.47982 65.6 7.34648 61H25.5465C25.8132 63.6 26.7132 65.6 28.2465 67C29.7798 68.3333 31.7798 69 34.2465 69C36.7798 69 38.7798 68.4333 40.2465 67.3C41.7132 66.1 42.4465 64.4667 42.4465 62.4C42.4465 60.6667 41.8465 59.2333 40.6465 58.1C39.5132 56.9667 38.0798 56.0333 36.3465 55.3C34.6798 54.5667 32.2798 53.7333 29.1465 52.8C24.6132 51.4 20.9132 50 18.0465 48.6C15.1798 47.2 12.7132 45.1333 10.6465 42.4C8.57982 39.6667 7.54648 36.1 7.54648 31.7C7.54648 25.1667 9.91315 20.0667 14.6465 16.4C19.3798 12.6667 25.5465 10.8 33.1465 10.8C40.8798 10.8 47.1132 12.6667 51.8465 16.4C56.5798 20.0667 59.1132 25.2 59.4465 31.8H40.9465C40.8132 29.5333 39.9798 27.7667 38.4465 26.5C36.9132 25.1667 34.9465 24.5 32.5465 24.5C30.4798 24.5 28.8132 25.0667 27.5465 26.2C26.2798 27.2667 25.6465 28.8333 25.6465 30.9C25.6465 33.1667 26.7132 34.9333 28.8465 36.2C30.9798 37.4667 34.3132 38.8333 38.8465 40.3C43.3798 41.8333 47.0465 43.3 49.8465 44.7C52.7132 46.1 55.1798 48.1333 57.2465 50.8C59.3132 53.4667 60.3465 56.9 60.3465 61.1C60.3465 65.1 59.3132 68.7333 57.2465 72C55.2465 75.2667 52.3132 77.8667 48.4465 79.8C44.5798 81.7333 40.0132 82.7 34.7465 82.7ZM104.47 25.5V39.7H127.37V52.9H104.47V68.3H130.37V82H87.3699V11.8H130.37V25.5H104.47ZM208.471 11.8V25.5H189.871V82H172.771V25.5H154.171V11.8H208.471Z" fill="url(#paint0_linear_1_269)" shape-rendering="crispEdges"/>
<path d="M20.9465 80.2L20.5673 81.1253L20.9465 80.2ZM11.1465 72.8L10.3405 73.3921L10.3484 73.4026L11.1465 72.8ZM7.34648 61V60H6.31708L6.3469 61.029L7.34648 61ZM25.5465 61L26.5413 60.898L26.4492 60H25.5465V61ZM28.2465 67L27.5722 67.7385L27.5812 67.7467L27.5903 67.7546L28.2465 67ZM40.2465 67.3L40.8579 68.0913L40.8689 68.0828L40.8797 68.074L40.2465 67.3ZM40.6465 58.1L39.9394 58.8071L39.9495 58.8172L39.9599 58.827L40.6465 58.1ZM36.3465 55.3L35.9437 56.2153L35.9503 56.2182L35.9568 56.221L36.3465 55.3ZM29.1465 52.8L28.8514 53.7555L28.861 53.7584L29.1465 52.8ZM18.0465 48.6L17.6076 49.4986L18.0465 48.6ZM10.6465 42.4L11.4441 41.7969L10.6465 42.4ZM14.6465 16.4L15.2589 17.1906L15.2658 17.1852L14.6465 16.4ZM51.8465 16.4L51.2272 17.1852L51.2341 17.1905L51.8465 16.4ZM59.4465 31.8V32.8H60.4983L60.4452 31.7496L59.4465 31.8ZM40.9465 31.8L39.9482 31.8587L40.0036 32.8H40.9465V31.8ZM38.4465 26.5L37.7903 27.2546L37.7999 27.2629L37.8096 27.271L38.4465 26.5ZM27.5465 26.2L28.1906 26.9649L28.2021 26.9552L28.2133 26.9452L27.5465 26.2ZM28.8465 36.2L29.357 35.3401L28.8465 36.2ZM38.8465 40.3L39.1669 39.3526L39.1543 39.3486L38.8465 40.3ZM49.8465 44.7L49.3993 45.5945L49.4076 45.5986L49.8465 44.7ZM57.2465 50.8L56.4561 51.4126V51.4126L57.2465 50.8ZM57.2465 72L56.4014 71.4654L56.3975 71.4716L56.3936 71.4778L57.2465 72ZM48.4465 79.8L47.9993 78.9056L48.4465 79.8ZM34.7465 81.7C29.7217 81.7 25.2536 80.8845 21.3257 79.2747L20.5673 81.1253C24.7727 82.8489 29.5046 83.7 34.7465 83.7V81.7ZM21.3257 79.2747C17.4124 77.6709 14.2951 75.3103 11.9445 72.1974L10.3484 73.4026C12.9312 76.823 16.3472 79.3958 20.5673 81.1253L21.3257 79.2747ZM11.9524 72.2079C9.68844 69.1265 8.47434 65.3965 8.34607 60.971L6.3469 61.029C6.4853 65.8035 7.80453 69.9402 10.3406 73.3921L11.9524 72.2079ZM7.34648 62H25.5465V60H7.34648V62ZM24.5517 61.102C24.8367 63.8808 25.8142 66.1333 27.5722 67.7385L28.9208 66.2615C27.6122 65.0667 26.7896 63.3192 26.5413 60.898L24.5517 61.102ZM27.5903 67.7546C29.3425 69.2783 31.5926 70 34.2465 70V68C31.9671 68 30.2171 67.3884 28.9027 66.2454L27.5903 67.7546ZM34.2465 70C36.9209 70 39.1618 69.4019 40.8579 68.0913L39.635 66.5087C38.3978 67.4648 36.6387 68 34.2465 68V70ZM40.8797 68.074C42.6015 66.6653 43.4465 64.7357 43.4465 62.4H41.4465C41.4465 64.1977 40.8248 65.5347 39.6132 66.526L40.8797 68.074ZM43.4465 62.4C43.4465 60.407 42.7441 58.7056 41.3331 57.373L39.9599 58.827C40.9489 59.7611 41.4465 60.9263 41.4465 62.4H43.4465ZM41.3536 57.3929C40.1148 56.1541 38.5677 55.1539 36.7361 54.379L35.9568 56.221C37.5919 56.9127 38.9115 57.7792 39.9394 58.8071L41.3536 57.3929ZM36.7492 54.3847C35.0257 53.6263 32.5792 52.7791 29.432 51.8416L28.861 53.7584C31.9804 54.6876 34.3339 55.507 35.9437 56.2153L36.7492 54.3847ZM29.4416 51.8445C24.9362 50.4532 21.2891 49.0707 18.4853 47.7014L17.6076 49.4986C20.5372 50.9293 24.2901 52.3468 28.8514 53.7555L29.4416 51.8445ZM18.4853 47.7014C15.7701 46.3754 13.4233 44.4144 11.4441 41.7969L9.84883 43.0031C12.003 45.8522 14.5895 48.0246 17.6076 49.4986L18.4853 47.7014ZM11.4441 41.7969C9.54193 39.2811 8.54648 35.9446 8.54648 31.7H6.54648C6.54648 36.2554 7.6177 40.0523 9.84883 43.0031L11.4441 41.7969ZM8.54648 31.7C8.54648 25.4435 10.7946 20.6488 15.2589 17.1905L14.0341 15.6094C9.03171 19.4845 6.54648 24.8898 6.54648 31.7H8.54648ZM15.2658 17.1852C19.7809 13.6239 25.7115 11.8 33.1465 11.8V9.8C25.3814 9.8 18.9787 11.7094 14.0272 15.6148L15.2658 17.1852ZM33.1465 11.8C40.7195 11.8 46.7149 13.6262 51.2272 17.1852L52.4658 15.6148C47.5114 11.7071 41.0402 9.8 33.1465 9.8V11.8ZM51.2341 17.1905C55.7113 20.6588 58.1274 25.5077 58.4478 31.8504L60.4452 31.7496C60.0989 24.8923 57.4484 19.4745 52.4589 15.6094L51.2341 17.1905ZM59.4465 30.8H40.9465V32.8H59.4465V30.8ZM41.9448 31.7413C41.7977 29.2405 40.8621 27.1984 39.0834 25.729L37.8096 27.271C39.0976 28.3349 39.8287 29.8262 39.9482 31.8587L41.9448 31.7413ZM39.1027 25.7454C37.3554 24.226 35.1416 23.5 32.5465 23.5V25.5C34.7513 25.5 36.4709 26.1073 37.7903 27.2546L39.1027 25.7454ZM32.5465 23.5C30.2895 23.5 28.3674 24.1237 26.8797 25.4548L28.2133 26.9452C29.2589 26.0096 30.6702 25.5 32.5465 25.5V23.5ZM26.9024 25.4351C25.3556 26.7376 24.6465 28.6179 24.6465 30.9H26.6465C26.6465 29.0488 27.2041 27.7957 28.1906 26.9649L26.9024 25.4351ZM24.6465 30.9C24.6465 33.5581 25.9338 35.6336 28.3359 37.0599L29.357 35.3401C27.4925 34.2331 26.6465 32.7752 26.6465 30.9H24.6465ZM28.3359 37.0599C30.5675 38.3848 33.9867 39.7787 38.5387 41.2514L39.1543 39.3486C34.6397 37.8879 31.3921 36.5485 29.357 35.3401L28.3359 37.0599ZM38.5261 41.2473C43.0361 42.7727 46.6557 44.2226 49.3993 45.5944L50.2937 43.8056C47.4373 42.3774 43.7235 40.8939 39.1669 39.3527L38.5261 41.2473ZM49.4076 45.5986C52.1289 46.9275 54.4776 48.8597 56.4561 51.4126L58.0369 50.1874C55.882 47.4069 53.2974 45.2725 50.2853 43.8014L49.4076 45.5986ZM56.4561 51.4126C58.3564 53.8647 59.3465 57.0664 59.3465 61.1H61.3465C61.3465 56.7336 60.2699 53.0687 58.0369 50.1874L56.4561 51.4126ZM59.3465 61.1C59.3465 64.9176 58.3632 68.3644 56.4014 71.4654L58.0916 72.5346C60.2631 69.1022 61.3465 65.2823 61.3465 61.1H59.3465ZM56.3936 71.4778C54.5035 74.5651 51.7207 77.0449 47.9993 78.9056L48.8937 80.6944C52.9056 78.6885 55.9895 75.9683 58.0993 72.5222L56.3936 71.4778ZM47.9993 78.9056C44.2985 80.756 39.8913 81.7 34.7465 81.7V83.7C40.135 83.7 44.8611 82.7107 48.8937 80.6944L47.9993 78.9056ZM104.47 25.5V24.5H103.47V25.5H104.47ZM104.47 39.7H103.47V40.7H104.47V39.7ZM127.37 39.7H128.37V38.7H127.37V39.7ZM127.37 52.9V53.9H128.37V52.9H127.37ZM104.47 52.9V51.9H103.47V52.9H104.47ZM104.47 68.3H103.47V69.3H104.47V68.3ZM130.37 68.3H131.37V67.3H130.37V68.3ZM130.37 82V83H131.37V82H130.37ZM87.3699 82H86.3699V83H87.3699V82ZM87.3699 11.8V10.8H86.3699V11.8H87.3699ZM130.37 11.8H131.37V10.8H130.37V11.8ZM130.37 25.5V26.5H131.37V25.5H130.37ZM103.47 25.5V39.7H105.47V25.5H103.47ZM104.47 40.7H127.37V38.7H104.47V40.7ZM126.37 39.7V52.9H128.37V39.7H126.37ZM127.37 51.9H104.47V53.9H127.37V51.9ZM103.47 52.9V68.3H105.47V52.9H103.47ZM104.47 69.3H130.37V67.3H104.47V69.3ZM129.37 68.3V82H131.37V68.3H129.37ZM130.37 81H87.3699V83H130.37V81ZM88.3699 82V11.8H86.3699V82H88.3699ZM87.3699 12.8H130.37V10.8H87.3699V12.8ZM129.37 11.8V25.5H131.37V11.8H129.37ZM130.37 24.5H104.47V26.5H130.37V24.5ZM208.471 11.8H209.471V10.8H208.471V11.8ZM208.471 25.5V26.5H209.471V25.5H208.471ZM189.871 25.5V24.5H188.871V25.5H189.871ZM189.871 82V83H190.871V82H189.871ZM172.771 82H171.771V83H172.771V82ZM172.771 25.5H173.771V24.5H172.771V25.5ZM154.171 25.5H153.171V26.5H154.171V25.5ZM154.171 11.8V10.8H153.171V11.8H154.171ZM207.471 11.8V25.5H209.471V11.8H207.471ZM208.471 24.5H189.871V26.5H208.471V24.5ZM188.871 25.5V82H190.871V25.5H188.871ZM189.871 81H172.771V83H189.871V81ZM173.771 82V25.5H171.771V82H173.771ZM172.771 24.5H154.171V26.5H172.771V24.5ZM155.171 25.5V11.8H153.171V25.5H155.171ZM154.171 12.8H208.471V10.8H154.171V12.8Z" fill="black" fill-opacity="0.5"/>
</g>
<defs>
<filter id="filter0_d_1_269" x="0.34668" y="0.800049" width="251.125" height="121.9" filterUnits="userSpaceOnUse" color-interpolation-filters="sRGB">
<feFlood flood-opacity="0" result="BackgroundImageFix"/>
<feColorMatrix in="SourceAlpha" type="matrix" values="0 0 0 0 0 0 0 0 0 0 0 0 0 0 0 0 0 0 127 0" result="hardAlpha"/>
<feOffset dx="18" dy="15"/>
<feGaussianBlur stdDeviation="12.5"/>
<feComposite in2="hardAlpha" operator="out"/>
<feColorMatrix type="matrix" values="0 0 0 0 0 0 0 0 0 0 0 0 0 0 0 0 0 0 0.57 0"/>
<feBlend mode="normal" in2="BackgroundImageFix" result="effect1_dropShadow_1_269"/>
<feBlend mode="normal" in="SourceGraphic" in2="effect1_dropShadow_1_269" result="shape"/>
</filter>
<linearGradient id="paint0_linear_1_269" x1="8.42509" y1="-22.0871" x2="229.173" y2="66.1244" gradientUnits="userSpaceOnUse">
<stop stop-color="#FB37FF"/>
<stop offset="0.421875" stop-color="#9B6FEE"/>
<stop offset="0.682292" stop-color="#18B2DE"/>
<stop offset="1" stop-color="#7B7FEA" stop-opacity="0"/>
</linearGradient>
</defs>
</svg>
