<svg width="481" height="354" viewBox="0 0 481 354" fill="none" xmlns="http://www.w3.org/2000/svg">
<g filter="url(#filter0_d_54_24)">
<mask id="mask0_54_24" style="mask-type:luminance" maskUnits="userSpaceOnUse" x="156" y="160" width="154" height="154">
<path d="M158.5 237C158.5 278.145 191.855 311.5 233 311.5C274.145 311.5 307.5 278.145 307.5 237C307.5 195.855 274.145 162.5 233 162.5C191.855 162.5 158.5 195.855 158.5 237Z" fill="white" stroke="white" stroke-width="5"/>
</mask>
<g mask="url(#mask0_54_24)">
<path d="M159.723 237.036C159.723 277.641 192.813 310.731 233.418 310.731C274.024 310.731 307.114 277.641 307.114 237.036C307.114 196.43 274.024 163.34 233.418 163.34C192.813 163.34 159.723 196.43 159.723 237.036ZM175.469 237.036C175.469 205.102 201.485 179.086 233.418 179.086C265.352 179.086 291.367 205.102 291.367 237.036C291.367 268.969 265.352 294.985 233.418 294.985C201.485 294.985 175.469 268.969 175.469 237.036Z" fill="url(#paint0_linear_54_24)" stroke="url(#paint1_linear_54_24)" stroke-width="5"/>
<path d="M297.658 273.045L297.651 273.058C290.426 285.84 279.588 296.263 266.521 302.935L266.511 302.941C251.635 310.448 234.669 312.676 218.394 309.201C202.111 305.858 187.522 296.956 176.832 284.323L176.823 284.312L176.813 284.3C166.256 271.52 160.136 255.536 159.719 238.844C159.302 222.172 164.442 205.901 174.461 192.679C184.475 179.329 198.661 169.874 214.787 165.703C230.916 161.532 247.877 162.924 263.16 169.593L263.167 169.596L263.174 169.599C276.657 175.576 288.056 185.445 295.844 197.823C298.339 201.778 296.53 206.538 292.784 208.598L292.741 208.622L292.697 208.644C288.831 210.577 284.224 209.202 281.945 205.597C275.901 196.082 267.158 188.624 256.736 184.12L256.728 184.117L256.719 184.113C244.75 178.836 231.358 177.802 218.729 181.021C206.103 184.373 194.901 191.846 187.051 202.27C179.195 212.702 175.077 225.446 175.463 238.573L297.658 273.045ZM297.658 273.045L297.665 273.032M297.658 273.045L297.665 273.032M297.665 273.032C299.881 269.004 298.034 264.206 294.083 262.428C290.129 260.649 285.6 262.444 283.535 265.822L283.513 265.858L283.493 265.895C277.968 275.658 269.609 283.513 259.419 288.672L259.411 288.676C247.829 294.596 234.443 296.397 221.708 293.696L221.694 293.693M297.665 273.032L221.694 293.693M221.694 293.693L221.68 293.69M221.694 293.693L221.68 293.69M221.68 293.69C208.821 291.118 197.365 284.173 188.99 274.123C180.613 264.07 175.85 251.577 175.463 238.574L221.68 293.69Z" fill="url(#paint2_linear_54_24)" stroke="url(#paint3_linear_54_24)" stroke-width="5"/>
<path d="M242.23 208.551L242.23 208.551L241.198 243.73C241.198 243.731 241.198 243.733 241.198 243.735C241.139 246.039 240.53 248.204 238.968 249.785C237.389 251.384 235.236 251.981 232.957 251.981C230.645 251.981 228.463 251.393 226.857 249.807C225.257 248.227 224.627 246.052 224.568 243.732C224.568 243.731 224.568 243.73 224.568 243.73L223.613 208.471L223.613 208.467C223.548 205.889 224.376 203.587 226.218 201.817L242.23 208.551ZM242.23 208.551L242.231 208.539M242.23 208.551L242.231 208.539M242.231 208.539C242.294 205.938 241.422 203.634 239.533 201.875M242.231 208.539L239.533 201.875M239.533 201.875C237.711 200.128 235.436 199.279 232.884 199.279C230.323 199.279 228.026 200.078 226.219 201.816L239.533 201.875Z" fill="url(#paint4_linear_54_24)" stroke="url(#paint5_linear_54_24)" stroke-width="5"/>
<path d="M225.697 271.965L225.726 271.993L225.756 272.02C227.785 273.861 230.224 274.803 232.957 274.803C235.716 274.803 238.17 273.874 240.171 272.008C242.252 270.116 243.334 267.681 243.334 264.869C243.334 262.056 242.252 259.621 240.171 257.729C238.171 255.866 235.719 254.933 232.957 254.933C230.171 254.933 227.709 255.905 225.712 257.829C223.701 259.718 222.652 262.113 222.652 264.869C222.652 267.629 223.703 270.037 225.697 271.965Z" fill="url(#paint6_linear_54_24)" stroke="url(#paint7_linear_54_24)" stroke-width="5"/>
</g>
</g>
<g filter="url(#filter1_d_54_24)">
<path d="M40.4466 23.88V32.1H29.2866V66H19.0266V32.1H7.86656V23.88H40.4466ZM76.9758 66L68.2158 50.1H65.7558V66H55.4958V23.88H72.7158C76.0358 23.88 78.8558 24.46 81.1758 25.62C83.5358 26.78 85.2958 28.38 86.4558 30.42C87.6158 32.42 88.1958 34.66 88.1958 37.14C88.1958 39.94 87.3958 42.44 85.7958 44.64C84.2358 46.84 81.9158 48.4 78.8358 49.32L88.5558 66H76.9758ZM65.7558 42.84H72.1158C73.9958 42.84 75.3958 42.38 76.3158 41.46C77.2758 40.54 77.7558 39.24 77.7558 37.56C77.7558 35.96 77.2758 34.7 76.3158 33.78C75.3958 32.86 73.9958 32.4 72.1158 32.4H65.7558V42.84ZM140.656 23.88L126.076 52.08V66H115.816V52.08L101.236 23.88H112.876L121.036 41.52L129.136 23.88H140.656ZM203.525 58.56H187.805L185.285 66H174.545L189.785 23.88H201.665L216.905 66H206.045L203.525 58.56ZM200.885 50.64L195.665 35.22L190.505 50.64H200.885ZM259.403 37.2C258.643 35.8 257.543 34.74 256.103 34.02C254.703 33.26 253.043 32.88 251.123 32.88C247.803 32.88 245.143 33.98 243.143 36.18C241.143 38.34 240.143 41.24 240.143 44.88C240.143 48.76 241.183 51.8 243.263 54C245.383 56.16 248.283 57.24 251.963 57.24C254.483 57.24 256.603 56.6 258.323 55.32C260.083 54.04 261.363 52.2 262.163 49.8H249.143V42.24H271.463V51.78C270.703 54.34 269.403 56.72 267.563 58.92C265.763 61.12 263.463 62.9 260.663 64.26C257.863 65.62 254.703 66.3 251.183 66.3C247.023 66.3 243.303 65.4 240.023 63.6C236.783 61.76 234.243 59.22 232.403 55.98C230.603 52.74 229.703 49.04 229.703 44.88C229.703 40.72 230.603 37.02 232.403 33.78C234.243 30.5 236.783 27.96 240.023 26.16C243.263 24.32 246.963 23.4 251.123 23.4C256.163 23.4 260.403 24.62 263.843 27.06C267.323 29.5 269.623 32.88 270.743 37.2H259.403ZM313.267 58.56H297.547L295.027 66H284.287L299.527 23.88H311.407L326.647 66H315.787L313.267 58.56ZM310.627 50.64L305.407 35.22L300.247 50.64H310.627ZM351.445 23.88V66H341.185V23.88H351.445ZM406.46 66H396.2L379.04 40.02V66H368.78V23.88H379.04L396.2 49.98V23.88H406.46V66ZM437.297 22.38L436.097 51.12H427.397L426.197 22.38H437.297ZM431.897 66.48C430.097 66.48 428.617 65.96 427.457 64.92C426.337 63.84 425.777 62.52 425.777 60.96C425.777 59.36 426.337 58.02 427.457 56.94C428.617 55.86 430.097 55.32 431.897 55.32C433.657 55.32 435.097 55.86 436.217 56.94C437.377 58.02 437.957 59.36 437.957 60.96C437.957 62.52 437.377 63.84 436.217 64.92C435.097 65.96 433.657 66.48 431.897 66.48Z" fill="url(#paint8_linear_54_24)" shape-rendering="crispEdges"/>
<path d="M40.4466 23.88H41.4466V22.88H40.4466V23.88ZM40.4466 32.1V33.1H41.4466V32.1H40.4466ZM29.2866 32.1V31.1H28.2866V32.1H29.2866ZM29.2866 66V67H30.2866V66H29.2866ZM19.0266 66H18.0266V67H19.0266V66ZM19.0266 32.1H20.0266V31.1H19.0266V32.1ZM7.86656 32.1H6.86656V33.1H7.86656V32.1ZM7.86656 23.88V22.88H6.86656V23.88H7.86656ZM39.4466 23.88V32.1H41.4466V23.88H39.4466ZM40.4466 31.1H29.2866V33.1H40.4466V31.1ZM28.2866 32.1V66H30.2866V32.1H28.2866ZM29.2866 65H19.0266V67H29.2866V65ZM20.0266 66V32.1H18.0266V66H20.0266ZM19.0266 31.1H7.86656V33.1H19.0266V31.1ZM8.86656 32.1V23.88H6.86656V32.1H8.86656ZM7.86656 24.88H40.4466V22.88H7.86656V24.88ZM76.9758 66L76.0999 66.4826L76.385 67H76.9758V66ZM68.2158 50.1L69.0916 49.6174L68.8066 49.1H68.2158V50.1ZM65.7558 50.1V49.1H64.7558V50.1H65.7558ZM65.7558 66V67H66.7558V66H65.7558ZM55.4958 66H54.4958V67H55.4958V66ZM55.4958 23.88V22.88H54.4958V23.88H55.4958ZM81.1758 25.62L80.7286 26.5144L80.7347 26.5174L81.1758 25.62ZM86.4558 30.42L85.5865 30.9143L85.5908 30.9217L86.4558 30.42ZM85.7958 44.64L84.987 44.0518L84.98 44.0616L85.7958 44.64ZM78.8358 49.32L78.5496 48.3618L77.332 48.7255L77.9718 49.8235L78.8358 49.32ZM88.5558 66V67H90.2959L89.4198 65.4965L88.5558 66ZM65.7558 42.84H64.7558V43.84H65.7558V42.84ZM76.3158 41.46L75.6239 40.738L75.6162 40.7454L75.6087 40.7529L76.3158 41.46ZM76.3158 33.78L75.6087 34.4871L75.6162 34.4946L75.6239 34.502L76.3158 33.78ZM65.7558 32.4V31.4H64.7558V32.4H65.7558ZM77.8516 65.5174L69.0916 49.6174L67.3399 50.5826L76.0999 66.4826L77.8516 65.5174ZM68.2158 49.1H65.7558V51.1H68.2158V49.1ZM64.7558 50.1V66H66.7558V50.1H64.7558ZM65.7558 65H55.4958V67H65.7558V65ZM56.4958 66V23.88H54.4958V66H56.4958ZM55.4958 24.88H72.7158V22.88H55.4958V24.88ZM72.7158 24.88C75.9227 24.88 78.5807 25.4405 80.7286 26.5144L81.623 24.7256C79.1308 23.4795 76.1489 22.88 72.7158 22.88V24.88ZM80.7347 26.5174C82.9373 27.6001 84.5373 29.0692 85.5865 30.9143L87.3251 29.9257C86.0543 27.6908 84.1343 25.9599 81.6169 24.7225L80.7347 26.5174ZM85.5908 30.9217C86.6559 32.7582 87.1958 34.823 87.1958 37.14H89.1958C89.1958 34.497 88.5756 32.0818 87.3208 29.9183L85.5908 30.9217ZM87.1958 37.14C87.1958 39.7353 86.4589 42.028 84.987 44.0518L86.6045 45.2282C88.3327 42.852 89.1958 40.1447 89.1958 37.14H87.1958ZM84.98 44.0616C83.5727 46.0462 81.4582 47.493 78.5496 48.3618L79.122 50.2782C82.3734 49.307 84.8988 47.6338 86.6115 45.2184L84.98 44.0616ZM77.9718 49.8235L87.6918 66.5035L89.4198 65.4965L79.6998 48.8165L77.9718 49.8235ZM88.5558 65H76.9758V67H88.5558V65ZM65.7558 43.84H72.1158V41.84H65.7558V43.84ZM72.1158 43.84C74.1427 43.84 75.8456 43.3444 77.0229 42.1671L75.6087 40.7529C74.9459 41.4156 73.8489 41.84 72.1158 41.84V43.84ZM77.0077 42.182C78.2134 41.0265 78.7558 39.4365 78.7558 37.56H76.7558C76.7558 39.0435 76.3382 40.0535 75.6239 40.738L77.0077 42.182ZM78.7558 37.56C78.7558 35.7471 78.2038 34.2043 77.0077 33.058L75.6239 34.502C76.3478 35.1957 76.7558 36.1729 76.7558 37.56H78.7558ZM77.0229 33.0729C75.8456 31.8956 74.1427 31.4 72.1158 31.4V33.4C73.8489 33.4 74.9459 33.8244 75.6087 34.4871L77.0229 33.0729ZM72.1158 31.4H65.7558V33.4H72.1158V31.4ZM64.7558 32.4V42.84H66.7558V32.4H64.7558ZM140.656 23.88L141.545 24.3393L142.299 22.88H140.656V23.88ZM126.076 52.08L125.188 51.6207L125.076 51.8368V52.08H126.076ZM126.076 66V67H127.076V66H126.076ZM115.816 66H114.816V67H115.816V66ZM115.816 52.08H116.816V51.8368L116.705 51.6207L115.816 52.08ZM101.236 23.88V22.88H99.5936L100.348 24.3393L101.236 23.88ZM112.876 23.88L113.784 23.4602L113.516 22.88H112.876V23.88ZM121.036 41.52L120.129 41.9398L121.04 43.9091L121.945 41.9373L121.036 41.52ZM129.136 23.88V22.88H128.495L128.228 23.4627L129.136 23.88ZM139.768 23.4207L125.188 51.6207L126.965 52.5393L141.545 24.3393L139.768 23.4207ZM125.076 52.08V66H127.076V52.08H125.076ZM126.076 65H115.816V67H126.076V65ZM116.816 66V52.08H114.816V66H116.816ZM116.705 51.6207L102.125 23.4207L100.348 24.3393L114.928 52.5393L116.705 51.6207ZM101.236 24.88H112.876V22.88H101.236V24.88ZM111.969 24.2998L120.129 41.9398L121.944 41.1002L113.784 23.4602L111.969 24.2998ZM121.945 41.9373L130.045 24.2973L128.228 23.4627L120.128 41.1027L121.945 41.9373ZM129.136 24.88H140.656V22.88H129.136V24.88ZM203.525 58.56L204.472 58.2392L204.242 57.56H203.525V58.56ZM187.805 58.56V57.56H187.088L186.858 58.2392L187.805 58.56ZM185.285 66V67H186.002L186.232 66.3208L185.285 66ZM174.545 66L173.605 65.6598L173.12 67H174.545V66ZM189.785 23.88V22.88H189.084L188.845 23.5398L189.785 23.88ZM201.665 23.88L202.605 23.5398L202.367 22.88H201.665V23.88ZM216.905 66V67H218.33L217.846 65.6598L216.905 66ZM206.045 66L205.098 66.3208L205.328 67H206.045V66ZM200.885 50.64V51.64H202.279L201.832 50.3194L200.885 50.64ZM195.665 35.22L196.612 34.8994L195.66 32.0851L194.717 34.9027L195.665 35.22ZM190.505 50.64L189.557 50.3227L189.116 51.64H190.505V50.64ZM203.525 57.56H187.805V59.56H203.525V57.56ZM186.858 58.2392L184.338 65.6792L186.232 66.3208L188.752 58.8808L186.858 58.2392ZM185.285 65H174.545V67H185.285V65ZM175.486 66.3402L190.725 24.2202L188.845 23.5398L173.605 65.6598L175.486 66.3402ZM189.785 24.88H201.665V22.88H189.785V24.88ZM200.725 24.2202L215.965 66.3402L217.846 65.6598L202.605 23.5398L200.725 24.2202ZM216.905 65H206.045V67H216.905V65ZM206.992 65.6792L204.472 58.2392L202.578 58.8808L205.098 66.3208L206.992 65.6792ZM201.832 50.3194L196.612 34.8994L194.718 35.5406L199.938 50.9606L201.832 50.3194ZM194.717 34.9027L189.557 50.3227L191.453 50.9573L196.613 35.5373L194.717 34.9027ZM190.505 51.64H200.885V49.64H190.505V51.64ZM259.403 37.2L258.525 37.6771L258.808 38.2H259.403V37.2ZM256.103 34.02L255.626 34.8988L255.641 34.9069L255.656 34.9144L256.103 34.02ZM243.143 36.18L243.877 36.8594L243.883 36.8527L243.143 36.18ZM243.263 54L242.537 54.687L242.543 54.6938L242.55 54.7005L243.263 54ZM258.323 55.32L257.735 54.5112L257.726 54.5178L258.323 55.32ZM262.163 49.8L263.112 50.1162L263.551 48.8H262.163V49.8ZM249.143 49.8H248.143V50.8H249.143V49.8ZM249.143 42.24V41.24H248.143V42.24H249.143ZM271.463 42.24H272.463V41.24H271.463V42.24ZM271.463 51.78L272.422 52.0646L272.463 51.9253V51.78H271.463ZM267.563 58.92L266.796 58.2784L266.789 58.2868L267.563 58.92ZM260.663 64.26L260.227 63.3605L260.663 64.26ZM240.023 63.6L239.53 64.4696L239.536 64.4732L239.542 64.4767L240.023 63.6ZM232.403 55.98L231.529 56.4657L231.534 56.4738L232.403 55.98ZM232.403 33.78L231.531 33.2907L231.529 33.2944L232.403 33.78ZM240.023 26.16L240.509 27.0342L240.517 27.0296L240.023 26.16ZM263.843 27.06L263.265 27.8757L263.269 27.8788L263.843 27.06ZM270.743 37.2V38.2H272.036L271.711 36.949L270.743 37.2ZM260.282 36.7229C259.423 35.1408 258.172 33.9361 256.551 33.1256L255.656 34.9144C256.915 35.5439 257.863 36.4592 258.525 37.6771L260.282 36.7229ZM256.581 33.1411C255.007 32.2869 253.176 31.88 251.123 31.88V33.88C252.911 33.88 254.4 34.2331 255.626 34.8988L256.581 33.1411ZM251.123 31.88C247.558 31.88 244.616 33.0733 242.403 35.5073L243.883 36.8527C245.671 34.8867 248.049 33.88 251.123 33.88V31.88ZM242.41 35.5006C240.2 37.8867 239.143 41.0505 239.143 44.88H241.143C241.143 41.4295 242.087 38.7933 243.877 36.8594L242.41 35.5006ZM239.143 44.88C239.143 48.9408 240.236 52.2534 242.537 54.687L243.99 53.313C242.131 51.3466 241.143 48.5792 241.143 44.88H239.143ZM242.55 54.7005C244.897 57.0922 248.077 58.24 251.963 58.24V56.24C248.49 56.24 245.87 55.2278 243.977 53.2995L242.55 54.7005ZM251.963 58.24C254.66 58.24 256.999 57.5521 258.92 56.1222L257.726 54.5178C256.208 55.6479 254.307 56.24 251.963 56.24V58.24ZM258.912 56.1287C260.866 54.7071 262.257 52.6808 263.112 50.1162L261.215 49.4838C260.47 51.7192 259.3 53.3729 257.735 54.5113L258.912 56.1287ZM262.163 48.8H249.143V50.8H262.163V48.8ZM250.143 49.8V42.24H248.143V49.8H250.143ZM249.143 43.24H271.463V41.24H249.143V43.24ZM270.463 42.24V51.78H272.463V42.24H270.463ZM270.505 51.4954C269.786 53.9151 268.555 56.1753 266.796 58.2784L268.331 59.5616C270.251 57.2647 271.62 54.7649 272.422 52.0646L270.505 51.4954ZM266.789 58.2868C265.09 60.3643 262.909 62.0577 260.227 63.3605L261.1 65.1595C264.018 63.7423 266.437 61.8757 268.337 59.5532L266.789 58.2868ZM260.227 63.3605C257.58 64.6462 254.572 65.3 251.183 65.3V67.3C254.835 67.3 258.147 66.5938 261.1 65.1595L260.227 63.3605ZM251.183 65.3C247.172 65.3 243.621 64.4337 240.505 62.7233L239.542 64.4767C242.986 66.3663 246.874 67.3 251.183 67.3V65.3ZM240.517 62.7304C237.434 60.9795 235.024 58.5693 233.273 55.4862L231.534 56.4738C233.463 59.8707 236.133 62.5405 239.53 64.4696L240.517 62.7304ZM233.278 55.4944C231.57 52.4204 230.703 48.8912 230.703 44.88H228.703C228.703 49.1888 229.637 53.0596 231.529 56.4656L233.278 55.4944ZM230.703 44.88C230.703 40.8688 231.57 37.3396 233.278 34.2656L231.529 33.2944C229.637 36.7004 228.703 40.5712 228.703 44.88H230.703ZM233.276 34.2693C235.026 31.1484 237.434 28.7428 240.509 27.0342L239.538 25.2858C236.133 27.1772 233.461 29.8516 231.531 33.2907L233.276 34.2693ZM240.517 27.0296C243.59 25.2847 247.116 24.4 251.123 24.4V22.4C246.811 22.4 242.937 23.3553 239.53 25.2904L240.517 27.0296ZM251.123 24.4C255.997 24.4 260.025 25.5775 263.265 27.8756L264.422 26.2443C260.782 23.6625 256.329 22.4 251.123 22.4V24.4ZM263.269 27.8788C266.544 30.1751 268.712 33.3485 269.775 37.451L271.711 36.949C270.535 32.4115 268.102 28.8249 264.418 26.2412L263.269 27.8788ZM270.743 36.2H259.403V38.2H270.743V36.2ZM313.267 58.56L314.214 58.2392L313.984 57.56H313.267V58.56ZM297.547 58.56V57.56H296.829L296.599 58.2392L297.547 58.56ZM295.027 66V67H295.744L295.974 66.3208L295.027 66ZM284.287 66L283.346 65.6598L282.861 67H284.287V66ZM299.527 23.88V22.88H298.825L298.586 23.5398L299.527 23.88ZM311.407 23.88L312.347 23.5398L312.108 22.88H311.407V23.88ZM326.647 66V67H328.072L327.587 65.6598L326.647 66ZM315.787 66L314.839 66.3208L315.069 67H315.787V66ZM310.627 50.64V51.64H312.021L311.574 50.3194L310.627 50.64ZM305.407 35.22L306.354 34.8994L305.401 32.0851L304.458 34.9027L305.407 35.22ZM300.247 50.64L299.298 50.3227L298.857 51.64H300.247V50.64ZM313.267 57.56H297.547V59.56H313.267V57.56ZM296.599 58.2392L294.079 65.6792L295.974 66.3208L298.494 58.8808L296.599 58.2392ZM295.027 65H284.287V67H295.027V65ZM285.227 66.3402L300.467 24.2202L298.586 23.5398L283.346 65.6598L285.227 66.3402ZM299.527 24.88H311.407V22.88H299.527V24.88ZM310.466 24.2202L325.706 66.3402L327.587 65.6598L312.347 23.5398L310.466 24.2202ZM326.647 65H315.787V67H326.647V65ZM316.734 65.6792L314.214 58.2392L312.319 58.8808L314.839 66.3208L316.734 65.6792ZM311.574 50.3194L306.354 34.8994L304.459 35.5406L309.679 50.9606L311.574 50.3194ZM304.458 34.9027L299.298 50.3227L301.195 50.9573L306.355 35.5373L304.458 34.9027ZM300.247 51.64H310.627V49.64H300.247V51.64ZM351.445 23.88H352.445V22.88H351.445V23.88ZM351.445 66V67H352.445V66H351.445ZM341.185 66H340.185V67H341.185V66ZM341.185 23.88V22.88H340.185V23.88H341.185ZM350.445 23.88V66H352.445V23.88H350.445ZM351.445 65H341.185V67H351.445V65ZM342.185 66V23.88H340.185V66H342.185ZM341.185 24.88H351.445V22.88H341.185V24.88ZM406.46 66V67H407.46V66H406.46ZM396.2 66L395.366 66.5511L395.662 67H396.2V66ZM379.04 40.02L379.875 39.4689L378.04 36.6916V40.02H379.04ZM379.04 66V67H380.04V66H379.04ZM368.78 66H367.78V67H368.78V66ZM368.78 23.88V22.88H367.78V23.88H368.78ZM379.04 23.88L379.876 23.3306L379.579 22.88H379.04V23.88ZM396.2 49.98L395.365 50.5294L397.2 53.3212V49.98H396.2ZM396.2 23.88V22.88H395.2V23.88H396.2ZM406.46 23.88H407.46V22.88H406.46V23.88ZM406.46 65H396.2V67H406.46V65ZM397.035 65.4489L379.875 39.4689L378.206 40.5711L395.366 66.5511L397.035 65.4489ZM378.04 40.02V66H380.04V40.02H378.04ZM379.04 65H368.78V67H379.04V65ZM369.78 66V23.88H367.78V66H369.78ZM368.78 24.88H379.04V22.88H368.78V24.88ZM378.205 24.4294L395.365 50.5294L397.036 49.4306L379.876 23.3306L378.205 24.4294ZM397.2 49.98V23.88H395.2V49.98H397.2ZM396.2 24.88H406.46V22.88H396.2V24.88ZM405.46 23.88V66H407.46V23.88H405.46ZM437.297 22.38L438.296 22.4217L438.34 21.38H437.297V22.38ZM436.097 51.12V52.12H437.056L437.096 51.1617L436.097 51.12ZM427.397 51.12L426.398 51.1617L426.438 52.12H427.397V51.12ZM426.197 22.38V21.38H425.155L425.198 22.4217L426.197 22.38ZM427.457 64.92L426.763 65.6398L426.776 65.6525L426.79 65.6646L427.457 64.92ZM427.457 56.94L426.776 56.2081L426.77 56.2141L426.763 56.2202L427.457 56.94ZM436.217 56.94L435.523 57.6598L435.53 57.6659L435.536 57.6719L436.217 56.94ZM436.217 64.92L436.898 65.6528L436.899 65.6519L436.217 64.92ZM436.298 22.3383L435.098 51.0783L437.096 51.1617L438.296 22.4217L436.298 22.3383ZM436.097 50.12H427.397V52.12H436.097V50.12ZM428.396 51.0783L427.196 22.3383L425.198 22.4217L426.398 51.1617L428.396 51.0783ZM426.197 23.38H437.297V21.38H426.197V23.38ZM431.897 65.48C430.303 65.48 429.073 65.0256 428.125 64.1754L426.79 65.6646C428.161 66.8944 429.892 67.48 431.897 67.48V65.48ZM428.151 64.2002C427.228 63.3092 426.777 62.2493 426.777 60.96H424.777C424.777 62.7907 425.447 64.3708 426.763 65.6398L428.151 64.2002ZM426.777 60.96C426.777 59.6229 427.233 58.5454 428.151 57.6598L426.763 56.2202C425.442 57.4946 424.777 59.0971 424.777 60.96H426.777ZM428.139 57.6719C429.088 56.7878 430.313 56.32 431.897 56.32V54.32C429.881 54.32 428.146 54.9322 426.776 56.2081L428.139 57.6719ZM431.897 56.32C433.435 56.32 434.615 56.7836 435.523 57.6598L436.911 56.2202C435.58 54.9364 433.879 54.32 431.897 54.32V56.32ZM435.536 57.6719C436.491 58.5607 436.957 59.6346 436.957 60.96H438.957C438.957 59.0854 438.264 57.4793 436.899 56.2081L435.536 57.6719ZM436.957 60.96C436.957 62.2374 436.496 63.2938 435.536 64.1881L436.899 65.6519C438.258 64.3862 438.957 62.8026 438.957 60.96H436.957ZM435.537 64.1872C434.63 65.0295 433.446 65.48 431.897 65.48V67.48C433.869 67.48 435.565 66.8905 436.898 65.6528L435.537 64.1872Z" fill="black" fill-opacity="0.5"/>
</g>
<defs>
<filter id="filter0_d_54_24" x="150.195" y="150.84" width="202.418" height="202.461" filterUnits="userSpaceOnUse" color-interpolation-filters="sRGB">
<feFlood flood-opacity="0" result="BackgroundImageFix"/>
<feColorMatrix in="SourceAlpha" type="matrix" values="0 0 0 0 0 0 0 0 0 0 0 0 0 0 0 0 0 0 127 0" result="hardAlpha"/>
<feOffset dx="18" dy="15"/>
<feGaussianBlur stdDeviation="12.5"/>
<feComposite in2="hardAlpha" operator="out"/>
<feColorMatrix type="matrix" values="0 0 0 0 0 0 0 0 0 0 0 0 0 0 0 0 0 0 0.57 0"/>
<feBlend mode="normal" in2="BackgroundImageFix" result="effect1_dropShadow_54_24"/>
<feBlend mode="normal" in="SourceGraphic" in2="effect1_dropShadow_54_24" result="shape"/>
</filter>
<filter id="filter1_d_54_24" x="0.867188" y="12.3799" width="480.09" height="94.1001" filterUnits="userSpaceOnUse" color-interpolation-filters="sRGB">
<feFlood flood-opacity="0" result="BackgroundImageFix"/>
<feColorMatrix in="SourceAlpha" type="matrix" values="0 0 0 0 0 0 0 0 0 0 0 0 0 0 0 0 0 0 127 0" result="hardAlpha"/>
<feOffset dx="18" dy="15"/>
<feGaussianBlur stdDeviation="12.5"/>
<feComposite in2="hardAlpha" operator="out"/>
<feColorMatrix type="matrix" values="0 0 0 0 0 0 0 0 0 0 0 0 0 0 0 0 0 0 0.57 0"/>
<feBlend mode="normal" in2="BackgroundImageFix" result="effect1_dropShadow_54_24"/>
<feBlend mode="normal" in="SourceGraphic" in2="effect1_dropShadow_54_24" result="shape"/>
</filter>
<linearGradient id="paint0_linear_54_24" x1="165.462" y1="170.567" x2="327.163" y2="215.866" gradientUnits="userSpaceOnUse">
<stop stop-color="#3A81BF"/>
<stop offset="1" stop-color="#41305A" stop-opacity="0.03"/>
</linearGradient>
<linearGradient id="paint1_linear_54_24" x1="165.937" y1="171.453" x2="327.748" y2="218.083" gradientUnits="userSpaceOnUse">
<stop stop-color="#FB37FF"/>
<stop offset="0.425065" stop-color="#9B6FEE"/>
<stop offset="0.519704" stop-color="#7B7FEA" stop-opacity="0"/>
<stop offset="1" stop-color="#18B2DE"/>
</linearGradient>
<linearGradient id="paint2_linear_54_24" x1="165.242" y1="170.571" x2="318.618" y2="210.962" gradientUnits="userSpaceOnUse">
<stop stop-color="#3A81BF"/>
<stop offset="1" stop-color="#41305A" stop-opacity="0.03"/>
</linearGradient>
<linearGradient id="paint3_linear_54_24" x1="165.688" y1="171.458" x2="319.239" y2="213.054" gradientUnits="userSpaceOnUse">
<stop stop-color="#FB37FF"/>
<stop offset="0.425065" stop-color="#9B6FEE"/>
<stop offset="0.519704" stop-color="#7B7FEA" stop-opacity="0"/>
<stop offset="1" stop-color="#18B2DE"/>
</linearGradient>
<linearGradient id="paint4_linear_54_24" x1="226.419" y1="203.363" x2="243" y2="204.689" gradientUnits="userSpaceOnUse">
<stop stop-color="#3A81BF"/>
<stop offset="1" stop-color="#41305A" stop-opacity="0.03"/>
</linearGradient>
<linearGradient id="paint5_linear_54_24" x1="226.465" y1="203.66" x2="243.12" y2="205.031" gradientUnits="userSpaceOnUse">
<stop stop-color="#FB37FF"/>
<stop offset="0.425065" stop-color="#9B6FEE"/>
<stop offset="0.519704" stop-color="#7B7FEA" stop-opacity="0"/>
<stop offset="1" stop-color="#18B2DE"/>
</linearGradient>
<linearGradient id="paint6_linear_54_24" x1="225.509" y1="257.927" x2="243.173" y2="263.145" gradientUnits="userSpaceOnUse">
<stop stop-color="#3A81BF"/>
<stop offset="1" stop-color="#41305A" stop-opacity="0.03"/>
</linearGradient>
<linearGradient id="paint7_linear_54_24" x1="225.561" y1="258.019" x2="243.23" y2="263.389" gradientUnits="userSpaceOnUse">
<stop stop-color="#FB37FF"/>
<stop offset="0.425065" stop-color="#9B6FEE"/>
<stop offset="0.519704" stop-color="#7B7FEA" stop-opacity="0"/>
<stop offset="1" stop-color="#18B2DE"/>
</linearGradient>
<linearGradient id="paint8_linear_54_24" x1="17.424" y1="3.54772" x2="199.12" y2="258.369" gradientUnits="userSpaceOnUse">
<stop stop-color="#FB37FF"/>
<stop offset="0.421875" stop-color="#9B6FEE"/>
<stop offset="0.682292" stop-color="#18B2DE"/>
<stop offset="1" stop-color="#7B7FEA" stop-opacity="0"/>
</linearGradient>
</defs>
</svg>
